M48
;DRILL file {KiCad 4.0.2+e4-6225~38~ubuntu14.04.1-stable} date mar 10 may 2016 15:32:02 ART
;FORMAT={-:-/ absolute / metric / decimal}
FMAT,2
METRIC,TZ
T1C0.600
T2C0.650
T3C0.701
T4C0.711
T5C0.762
T6C0.800
T7C0.800
T8C1.001
T9C1.016
T10C1.199
T11C1.300
T12C1.501
T13C0.800
%
G90
G05
M71
T1
X79.959Y-141.275
X81.229Y-142.545
X82.499Y-141.275
X118.46Y-44.842
X121.26Y-39.842
X131.737Y-116.878
X133.007Y-115.608
X134.277Y-116.878
T2
X85.852Y-149.047
X85.852Y-152.247
X85.852Y-154.447
X85.852Y-156.647
X89.052Y-149.047
X89.052Y-152.247
X89.052Y-154.447
X89.052Y-156.647
T3
X76.707Y-145.799
X86.867Y-145.799
X90.839Y-49.803
X100.999Y-49.803
X131.585Y-77.61
X141.745Y-77.61
T4
X76.721Y-109.664
X76.772Y-120.078
X80.01Y-114.3
X80.01Y-114.3
X82.55Y-91.44
X85.623Y-113.005
X85.623Y-116.84
X87.643Y-85.865
X87.694Y-117.996
X87.694Y-121.044
X87.694Y-121.044
X89.268Y-116.726
X89.268Y-122.212
X91.402Y-114.186
X91.402Y-122.161
X92.621Y-123.431
X92.672Y-131.153
X92.697Y-88.887
X95.517Y-134.709
X98.92Y-124.346
X100.8Y-103.111
X100.8Y-125.412
X102.832Y-128.918
X102.883Y-123.584
X104.965Y-133.083
X105.372Y-103.111
X106.337Y-87.008
X119.647Y-86.601
X120.409Y-92.85
X123.304Y-65.926
X125.641Y-93.866
X127.825Y-101.346
X127.825Y-101.346
X134.703Y-105.721
X137.833Y-131.127
X137.833Y-136.284
X138.29Y-105.042
X139.814Y-131.204
X139.814Y-136.284
X140.463Y-109.575
X148.806Y-139.636
X148.817Y-128.003
X151.13Y-96.52
X151.13Y-137.16
T5
X95.809Y-106.832
X95.809Y-109.372
X95.809Y-111.912
X95.809Y-114.452
X95.809Y-116.992
X95.809Y-119.532
X95.809Y-122.072
X95.809Y-124.612
X95.809Y-127.152
X95.809Y-129.692
X108.509Y-106.832
X108.509Y-109.372
X108.509Y-111.912
X108.509Y-114.452
X108.509Y-116.992
X108.509Y-119.532
X108.509Y-122.072
X108.509Y-124.612
X108.509Y-127.152
X108.509Y-129.692
T6
X89.408Y-145.796
X90.678Y-60.579
X92.5Y-55.4
X92.5Y-67.6
X94.145Y-91.58
X96.Y-55.4
X96.Y-67.6
X98.044Y-129.54
X101.2Y-61.4
X106.997Y-83.096
X109.893Y-76.543
X109.893Y-79.083
X109.893Y-81.623
X109.893Y-84.163
X115.25Y-50.5
X115.25Y-54.
X115.278Y-58.498
X115.278Y-60.998
X117.248Y-96.152
X117.513Y-76.543
X117.513Y-79.083
X117.513Y-81.623
X117.513Y-84.163
X124.5Y-50.5
X124.5Y-54.
X125.349Y-58.42
X125.506Y-44.816
X127.836Y-111.95
X129.2Y-66.8
X133.5Y-50.5
X133.5Y-54.
X133.553Y-41.316
X133.553Y-44.816
X134.52Y-81.928
X136.6Y-66.8
X137.02Y-81.928
X142.811Y-71.808
X151.498Y-139.687
T7
X89.408Y-143.296
X90.678Y-63.079
X96.645Y-91.58
X100.544Y-129.54
X103.7Y-61.4
X106.997Y-80.596
X114.748Y-96.152
X125.336Y-111.95
X125.506Y-42.316
X127.849Y-58.42
X131.7Y-66.8
X134.1Y-66.8
X142.811Y-74.308
X151.498Y-142.187
T8
X76.606Y-132.69
X76.606Y-140.31
X85.954Y-132.029
X85.954Y-139.649
X87.8Y-73.6
X87.8Y-76.8
X87.8Y-80.2
X87.8Y-83.6
X97.96Y-73.6
X97.96Y-76.8
X97.96Y-80.2
X97.96Y-83.6
X100.98Y-54.4
X101.003Y-76.187
X101.003Y-83.807
X101.4Y-65.
X101.4Y-68.4
X102.73Y-95.542
X103.52Y-54.4
X104.203Y-76.187
X104.203Y-83.807
X106.06Y-54.4
X108.6Y-54.4
X109.02Y-68.4
X110.35Y-95.542
X111.56Y-65.
X113.6Y-120.4
X113.6Y-128.02
X117.2Y-120.4
X117.2Y-128.02
X127.825Y-101.346
X127.825Y-108.966
X130.81Y-101.346
X130.81Y-108.966
X131.46Y-72.
X131.71Y-61.5
X134.Y-72.
X134.25Y-61.5
X136.54Y-72.
X136.79Y-61.5
X138.392Y-116.167
X138.392Y-123.787
X140.818Y-104.038
X140.818Y-111.658
X141.491Y-116.167
X141.491Y-123.787
X142.25Y-40.25
X144.069Y-104.089
X144.069Y-111.709
X144.539Y-116.167
X144.539Y-123.787
X144.79Y-40.25
X145.Y-47.13
X145.Y-54.75
X149.403Y-150.47
X149.403Y-158.09
X152.718Y-150.457
X152.718Y-158.077
X156.019Y-150.457
X156.019Y-158.077
T9
X76.556Y-124.562
X76.556Y-127.102
X80.01Y-88.9
X80.01Y-91.44
X80.01Y-93.98
X80.01Y-96.52
X80.01Y-99.06
X80.01Y-101.6
X80.01Y-104.14
X80.01Y-106.68
X80.01Y-109.22
X80.01Y-111.76
X80.01Y-114.3
X80.01Y-116.84
X80.01Y-119.38
X80.01Y-121.92
X80.01Y-124.46
X80.01Y-127.
X80.01Y-129.54
X80.01Y-132.08
X80.01Y-134.62
X80.01Y-137.16
X82.55Y-88.9
X82.55Y-91.44
X82.55Y-93.98
X82.55Y-96.52
X82.55Y-99.06
X82.55Y-101.6
X82.55Y-104.14
X82.55Y-106.68
X82.55Y-109.22
X82.55Y-111.76
X82.55Y-114.3
X82.55Y-116.84
X82.55Y-119.38
X82.55Y-121.92
X82.55Y-124.46
X82.55Y-127.
X82.55Y-129.54
X82.55Y-132.08
X82.55Y-134.62
X82.55Y-137.16
X87.643Y-88.887
X87.643Y-91.427
X87.643Y-93.967
X87.643Y-96.507
X87.643Y-99.047
X87.643Y-101.587
X87.643Y-104.127
X87.643Y-106.667
X89.408Y-124.968
X89.408Y-127.508
X89.408Y-130.048
X89.408Y-132.588
X89.408Y-135.128
X89.408Y-137.668
X89.408Y-140.208
X90.183Y-88.887
X90.183Y-91.427
X90.183Y-93.967
X90.183Y-96.507
X90.183Y-99.047
X90.183Y-101.587
X90.183Y-104.127
X90.183Y-106.667
X95.098Y-100.686
X97.638Y-100.686
X100.178Y-100.686
X101.74Y-72.2
X102.718Y-100.686
X104.28Y-72.2
X105.258Y-100.686
X106.82Y-72.2
X107.798Y-100.686
X108.217Y-88.786
X109.36Y-72.2
X110.338Y-100.686
X111.9Y-72.2
X112.878Y-100.686
X114.44Y-72.2
X116.98Y-72.2
X117.297Y-99.416
X117.297Y-101.956
X117.297Y-104.496
X117.297Y-107.036
X117.297Y-109.576
X117.297Y-112.116
X117.297Y-114.656
X117.297Y-117.196
X118.377Y-88.786
X119.52Y-72.2
X119.837Y-99.416
X119.837Y-101.956
X119.837Y-104.496
X119.837Y-107.036
X119.837Y-109.576
X119.837Y-112.116
X119.837Y-114.656
X119.837Y-117.196
X121.78Y-78.372
X121.78Y-88.532
X122.06Y-72.2
X124.6Y-72.2
X143.167Y-130.035
X145.707Y-130.035
X147.942Y-116.776
X147.942Y-119.316
X147.942Y-121.856
X147.942Y-124.396
X151.13Y-88.9
X151.13Y-91.44
X151.13Y-93.98
X151.13Y-96.52
X151.13Y-99.06
X151.13Y-101.6
X151.13Y-104.14
X151.13Y-106.68
X151.13Y-109.22
X151.13Y-111.76
X151.13Y-114.3
X151.13Y-116.84
X151.13Y-119.38
X151.13Y-121.92
X151.13Y-124.46
X151.13Y-127.
X151.13Y-129.54
X151.13Y-132.08
X151.13Y-134.62
X151.13Y-137.16
X153.67Y-88.9
X153.67Y-91.44
X153.67Y-93.98
X153.67Y-96.52
X153.67Y-99.06
X153.67Y-101.6
X153.67Y-104.14
X153.67Y-106.68
X153.67Y-109.22
X153.67Y-111.76
X153.67Y-114.3
X153.67Y-116.84
X153.67Y-119.38
X153.67Y-121.92
X153.67Y-124.46
X153.67Y-127.
X153.67Y-129.54
X153.67Y-132.08
X153.67Y-134.62
X153.67Y-137.16
T10
X80.772Y-70.386
X80.772Y-73.886
X80.772Y-80.038
X80.772Y-83.538
X123.558Y-122.065
X123.558Y-125.565
X123.558Y-129.065
X132.499Y-121.963
X132.499Y-125.463
X132.499Y-128.963
X134.531Y-88.786
X134.531Y-92.286
X134.531Y-95.786
X142.748Y-138.458
X142.748Y-141.958
X142.748Y-149.916
X142.748Y-153.416
X142.748Y-156.916
X143.827Y-88.735
X143.827Y-92.235
X143.827Y-95.735
T11
X77.673Y-150.317
X77.673Y-155.317
X81.Y-48.4
X81.Y-53.4
T12
X90.499Y-43.
X112.501Y-43.
T13
X94.336Y-95.809
X97.739Y-95.809
X107.2Y-61.4
X111.925Y-88.962
X115.379Y-88.989
T0
M30
