G04 #@! TF.FileFunction,Soldermask,Top*
%FSLAX46Y46*%
G04 Gerber Fmt 4.6, Leading zero omitted, Abs format (unit mm)*
G04 Created by KiCad (PCBNEW 4.0.2+e4-6225~38~ubuntu14.04.1-stable) date mar 10 may 2016 15:30:21 ART*
%MOMM*%
G01*
G04 APERTURE LIST*
%ADD10C,0.100000*%
%ADD11R,2.127200X2.127200*%
%ADD12O,2.127200X2.127200*%
%ADD13C,1.700000*%
%ADD14R,1.700000X1.700000*%
%ADD15C,2.099260*%
%ADD16R,2.099260X2.099260*%
%ADD17R,2.400000X2.400000*%
%ADD18C,2.400000*%
%ADD19O,1.901140X3.399740*%
%ADD20O,4.400500X2.899360*%
%ADD21C,2.000000*%
%ADD22C,1.200000*%
%ADD23R,1.300000X2.100000*%
%ADD24R,2.100000X1.300000*%
%ADD25R,2.900000X2.900000*%
%ADD26C,2.900000*%
%ADD27C,1.900000*%
%ADD28R,2.299920X1.400760*%
%ADD29R,1.400760X2.299920*%
%ADD30C,2.398980*%
%ADD31C,1.924000*%
%ADD32R,2.127200X2.432000*%
%ADD33O,2.127200X2.432000*%
%ADD34R,2.432000X2.432000*%
%ADD35O,2.432000X2.432000*%
%ADD36R,2.432000X2.127200*%
%ADD37O,2.432000X2.127200*%
%ADD38C,1.400760*%
%ADD39R,2.432000X4.057600*%
%ADD40R,2.432000X1.416000*%
%ADD41O,2.700000X2.000000*%
%ADD42R,0.908000X1.543000*%
%ADD43C,2.178000*%
%ADD44R,2.178000X2.178000*%
%ADD45O,3.900120X2.398980*%
%ADD46O,1.901140X2.899360*%
%ADD47R,2.400000X1.924000*%
%ADD48O,2.400000X1.924000*%
G04 APERTURE END LIST*
D10*
D11*
X87642700Y-88887300D03*
D12*
X90182700Y-88887300D03*
X87642700Y-91427300D03*
X90182700Y-91427300D03*
X87642700Y-93967300D03*
X90182700Y-93967300D03*
X87642700Y-96507300D03*
X90182700Y-96507300D03*
X87642700Y-99047300D03*
X90182700Y-99047300D03*
X87642700Y-101587300D03*
X90182700Y-101587300D03*
X87642700Y-104127300D03*
X90182700Y-104127300D03*
X87642700Y-106667300D03*
X90182700Y-106667300D03*
D13*
X133500000Y-54000000D03*
D14*
X133500000Y-50500000D03*
D13*
X124500000Y-54000000D03*
D14*
X124500000Y-50500000D03*
X136600000Y-66800000D03*
D13*
X134100000Y-66800000D03*
D14*
X142811500Y-71807700D03*
D13*
X142811500Y-74307700D03*
D14*
X125349000Y-58420000D03*
D13*
X127849000Y-58420000D03*
D14*
X94145100Y-91579700D03*
D13*
X96645100Y-91579700D03*
X133553200Y-41315760D03*
D14*
X133553200Y-44815760D03*
X101200000Y-61400000D03*
D13*
X103700000Y-61400000D03*
D14*
X125506480Y-44815760D03*
D13*
X125506480Y-42315760D03*
X92500000Y-55400000D03*
D14*
X96000000Y-55400000D03*
X129200000Y-66800000D03*
D13*
X131700000Y-66800000D03*
D14*
X90678000Y-60579000D03*
D13*
X90678000Y-63079000D03*
X92500000Y-67600000D03*
D14*
X96000000Y-67600000D03*
D13*
X115250000Y-50500000D03*
D14*
X115250000Y-54000000D03*
X106997500Y-83096100D03*
D13*
X106997500Y-80596100D03*
D14*
X151498300Y-139687300D03*
D13*
X151498300Y-142187300D03*
D14*
X98044000Y-129540000D03*
D13*
X100544000Y-129540000D03*
D14*
X89408000Y-145796000D03*
D13*
X89408000Y-143296000D03*
D14*
X117248300Y-96151700D03*
D13*
X114748300Y-96151700D03*
D15*
X90839480Y-49802540D03*
D16*
X100999480Y-49802540D03*
D17*
X142250000Y-40250000D03*
D18*
X144790000Y-40250000D03*
D19*
X108600000Y-54400000D03*
X106060000Y-54400000D03*
X103520000Y-54400000D03*
X100980000Y-54400000D03*
D20*
X112500740Y-43000000D03*
X90499260Y-43000000D03*
D21*
X121259600Y-39842440D03*
X118459600Y-44842440D03*
D22*
X115379500Y-88988900D03*
X111925100Y-88961700D03*
D23*
X108900000Y-61400000D03*
X105500000Y-61400000D03*
D22*
X107200000Y-61400000D03*
D24*
X97739200Y-94108800D03*
X97739200Y-97508800D03*
D22*
X97739200Y-95808800D03*
D24*
X94335600Y-94108800D03*
X94335600Y-97508800D03*
D22*
X94335600Y-95808800D03*
D25*
X81000000Y-48400000D03*
D26*
X81000000Y-53400000D03*
D27*
X89052000Y-149047200D03*
X85852000Y-149047200D03*
X85852000Y-152247200D03*
X85852000Y-154447200D03*
X85852000Y-156647200D03*
X89052000Y-152247200D03*
X89052000Y-154447200D03*
X89052000Y-156647200D03*
D28*
X141500000Y-57600200D03*
X141500000Y-54399800D03*
X141500000Y-64600200D03*
X141500000Y-61399800D03*
D29*
X96062800Y-61400000D03*
X99263200Y-61400000D03*
D30*
X87800000Y-83600000D03*
X97960000Y-83600000D03*
X87800000Y-80200000D03*
X97960000Y-80200000D03*
X87800000Y-76800000D03*
X97960000Y-76800000D03*
X87800000Y-73600000D03*
X97960000Y-73600000D03*
X101400000Y-65000000D03*
X111560000Y-65000000D03*
D31*
X95808800Y-106832400D03*
X95808800Y-109372400D03*
X95808800Y-111912400D03*
X95808800Y-114452400D03*
X95808800Y-116992400D03*
X95808800Y-119532400D03*
X95808800Y-122072400D03*
X95808800Y-124612400D03*
X95808800Y-127152400D03*
X95808800Y-129692400D03*
X108508800Y-129692400D03*
X108508800Y-127152400D03*
X108508800Y-124612400D03*
X108508800Y-122072400D03*
X108508800Y-119532400D03*
X108508800Y-116992400D03*
X108508800Y-114452400D03*
X108508800Y-111912400D03*
X108508800Y-109372400D03*
X108508800Y-106832400D03*
D32*
X124600000Y-72200000D03*
D33*
X122060000Y-72200000D03*
X119520000Y-72200000D03*
X116980000Y-72200000D03*
X114440000Y-72200000D03*
X111900000Y-72200000D03*
X109360000Y-72200000D03*
X106820000Y-72200000D03*
X104280000Y-72200000D03*
X101740000Y-72200000D03*
D11*
X117297200Y-99415600D03*
D12*
X119837200Y-99415600D03*
X117297200Y-101955600D03*
X119837200Y-101955600D03*
X117297200Y-104495600D03*
X119837200Y-104495600D03*
X117297200Y-107035600D03*
X119837200Y-107035600D03*
X117297200Y-109575600D03*
X119837200Y-109575600D03*
X117297200Y-112115600D03*
X119837200Y-112115600D03*
X117297200Y-114655600D03*
X119837200Y-114655600D03*
X117297200Y-117195600D03*
X119837200Y-117195600D03*
D34*
X143167100Y-130035300D03*
D35*
X145707100Y-130035300D03*
D34*
X76555600Y-124561600D03*
D35*
X76555600Y-127101600D03*
D36*
X89408000Y-140208000D03*
D37*
X89408000Y-137668000D03*
X89408000Y-135128000D03*
X89408000Y-132588000D03*
X89408000Y-130048000D03*
X89408000Y-127508000D03*
X89408000Y-124968000D03*
D32*
X112877600Y-100685600D03*
D33*
X110337600Y-100685600D03*
X107797600Y-100685600D03*
X105257600Y-100685600D03*
X102717600Y-100685600D03*
X100177600Y-100685600D03*
X97637600Y-100685600D03*
X95097600Y-100685600D03*
D38*
X81229200Y-142544800D03*
X79959200Y-141274800D03*
X82499200Y-141274800D03*
D39*
X80498000Y-60600000D03*
D40*
X87102000Y-60600000D03*
X87102000Y-58314000D03*
X87102000Y-62886000D03*
D39*
X118872000Y-63627000D03*
D40*
X125476000Y-63627000D03*
X125476000Y-61341000D03*
X125476000Y-65913000D03*
D41*
X117513100Y-84162900D03*
X117513100Y-81622900D03*
X117513100Y-79082900D03*
X117513100Y-76542900D03*
X109893100Y-76542900D03*
X109893100Y-79082900D03*
X109893100Y-81622900D03*
X109893100Y-84162900D03*
D42*
X134495000Y-103225000D03*
X135765000Y-103225000D03*
X137035000Y-103225000D03*
X138305000Y-103225000D03*
X138305000Y-109575000D03*
X137035000Y-109575000D03*
X135765000Y-109575000D03*
X134495000Y-109575000D03*
D15*
X131584700Y-77609700D03*
D16*
X141744700Y-77609700D03*
D43*
X121780300Y-78371700D03*
D44*
X121780300Y-88531700D03*
D43*
X118376700Y-88785700D03*
D44*
X108216700Y-88785700D03*
D15*
X76707480Y-145798540D03*
D16*
X86867480Y-145798540D03*
D45*
X80772000Y-83538060D03*
X80772000Y-80037940D03*
X80772000Y-73886060D03*
X80772000Y-70385940D03*
X134531100Y-92285820D03*
X134531100Y-88785700D03*
X134531100Y-95785940D03*
X143827500Y-92235020D03*
X143827500Y-88734900D03*
X143827500Y-95735140D03*
X123558300Y-125564900D03*
X123558300Y-129065020D03*
X123558300Y-122064780D03*
X132499100Y-125463300D03*
X132499100Y-128963420D03*
X132499100Y-121963180D03*
X142748000Y-153416000D03*
X142748000Y-156916120D03*
X142748000Y-149915880D03*
X142748000Y-138457940D03*
X142748000Y-141958060D03*
D25*
X77673200Y-150317200D03*
D26*
X77673200Y-155317200D03*
D30*
X145000000Y-54750000D03*
X145000000Y-47130000D03*
X104203500Y-76187300D03*
X104203500Y-83807300D03*
X101003100Y-76187300D03*
X101003100Y-83807300D03*
X101400000Y-68400000D03*
X109020000Y-68400000D03*
X140817600Y-111658400D03*
X140817600Y-104038400D03*
X144068800Y-111709200D03*
X144068800Y-104089200D03*
X127825500Y-101346000D03*
X127825500Y-108966000D03*
X130810000Y-101346000D03*
X130810000Y-108966000D03*
X113600000Y-120400000D03*
X113600000Y-128020000D03*
X117200000Y-120400000D03*
X117200000Y-128020000D03*
X138391900Y-116166900D03*
X138391900Y-123786900D03*
X141490700Y-116166900D03*
X141490700Y-123786900D03*
X152717500Y-150456900D03*
X152717500Y-158076900D03*
X156019500Y-150456900D03*
X156019500Y-158076900D03*
X149402800Y-158089600D03*
X149402800Y-150469600D03*
X144538700Y-116166900D03*
X144538700Y-123786900D03*
X76606400Y-140309600D03*
X76606400Y-132689600D03*
X102730300Y-95542100D03*
X110350300Y-95542100D03*
X85953600Y-139649200D03*
X85953600Y-132029200D03*
D14*
X127836300Y-111950500D03*
D13*
X125336300Y-111950500D03*
D36*
X147942300Y-116776500D03*
D37*
X147942300Y-119316500D03*
X147942300Y-121856500D03*
X147942300Y-124396500D03*
D14*
X115277900Y-58498100D03*
D13*
X115277900Y-60998100D03*
D14*
X134520300Y-81927700D03*
D13*
X137020300Y-81927700D03*
D46*
X134250000Y-61500000D03*
X136790000Y-61500000D03*
X131710000Y-61500000D03*
X134000000Y-72000000D03*
X136540000Y-72000000D03*
X131460000Y-72000000D03*
D38*
X133007100Y-115608100D03*
X134277100Y-116878100D03*
X131737100Y-116878100D03*
D47*
X151130000Y-88900000D03*
D48*
X153670000Y-88900000D03*
X151130000Y-101600000D03*
X153670000Y-91440000D03*
X151130000Y-104140000D03*
X153670000Y-93980000D03*
X151130000Y-106680000D03*
X153670000Y-96520000D03*
X151130000Y-109220000D03*
X153670000Y-99060000D03*
X151130000Y-111760000D03*
X153670000Y-101600000D03*
X151130000Y-114300000D03*
X153670000Y-104140000D03*
X151130000Y-116840000D03*
X153670000Y-106680000D03*
X151130000Y-119380000D03*
X153670000Y-109220000D03*
X151130000Y-121920000D03*
X153670000Y-111760000D03*
X151130000Y-124460000D03*
X153670000Y-114300000D03*
X151130000Y-127000000D03*
X153670000Y-116840000D03*
X153670000Y-119380000D03*
X151130000Y-129540000D03*
X153670000Y-121920000D03*
X153670000Y-127000000D03*
X153670000Y-129540000D03*
X153670000Y-132080000D03*
X153670000Y-134620000D03*
X151130000Y-132080000D03*
X151130000Y-134620000D03*
X151130000Y-91440000D03*
X151130000Y-93980000D03*
X151130000Y-96520000D03*
X151130000Y-99060000D03*
X151130000Y-137160000D03*
X153670000Y-137160000D03*
X153670000Y-124460000D03*
D47*
X80010000Y-88900000D03*
D48*
X82550000Y-88900000D03*
X80010000Y-91440000D03*
X82550000Y-91440000D03*
X80010000Y-93980000D03*
X82550000Y-93980000D03*
X80010000Y-96520000D03*
X82550000Y-96520000D03*
X80010000Y-99060000D03*
X82550000Y-99060000D03*
X80010000Y-101600000D03*
X82550000Y-101600000D03*
X80010000Y-104140000D03*
X82550000Y-104140000D03*
X80010000Y-106680000D03*
X82550000Y-106680000D03*
X80010000Y-109220000D03*
X82550000Y-109220000D03*
X80010000Y-111760000D03*
X82550000Y-111760000D03*
X80010000Y-114300000D03*
X82550000Y-114300000D03*
X80010000Y-116840000D03*
X82550000Y-116840000D03*
X80010000Y-119380000D03*
X82550000Y-119380000D03*
X80010000Y-121920000D03*
X82550000Y-121920000D03*
X80010000Y-124460000D03*
X82550000Y-124460000D03*
X80010000Y-127000000D03*
X82550000Y-127000000D03*
X80010000Y-129540000D03*
X82550000Y-129540000D03*
X80010000Y-132080000D03*
X82550000Y-132080000D03*
X80010000Y-134620000D03*
X82550000Y-134620000D03*
X80010000Y-137160000D03*
X82550000Y-137160000D03*
M02*
