G04 #@! TF.FileFunction,Copper,L1,Top,Signal*
%FSLAX46Y46*%
G04 Gerber Fmt 4.6, Leading zero omitted, Abs format (unit mm)*
G04 Created by KiCad (PCBNEW 4.0.2+e4-6225~38~ubuntu14.04.1-stable) date mar 10 may 2016 15:30:21 ART*
%MOMM*%
G01*
G04 APERTURE LIST*
%ADD10C,0.100000*%
%ADD11R,1.727200X1.727200*%
%ADD12O,1.727200X1.727200*%
%ADD13C,1.300000*%
%ADD14R,1.300000X1.300000*%
%ADD15C,1.699260*%
%ADD16R,1.699260X1.699260*%
%ADD17R,2.000000X2.000000*%
%ADD18C,2.000000*%
%ADD19O,1.501140X2.999740*%
%ADD20O,4.000500X2.499360*%
%ADD21C,1.600000*%
%ADD22R,0.900000X1.700000*%
%ADD23R,1.700000X0.900000*%
%ADD24R,2.500000X2.500000*%
%ADD25C,2.500000*%
%ADD26C,1.500000*%
%ADD27R,1.899920X1.000760*%
%ADD28R,1.000760X1.899920*%
%ADD29C,1.998980*%
%ADD30C,1.524000*%
%ADD31R,1.727200X2.032000*%
%ADD32O,1.727200X2.032000*%
%ADD33R,2.032000X2.032000*%
%ADD34O,2.032000X2.032000*%
%ADD35R,2.032000X1.727200*%
%ADD36O,2.032000X1.727200*%
%ADD37C,1.000760*%
%ADD38R,2.032000X3.657600*%
%ADD39R,2.032000X1.016000*%
%ADD40O,2.300000X1.600000*%
%ADD41R,0.508000X1.143000*%
%ADD42C,1.778000*%
%ADD43R,1.778000X1.778000*%
%ADD44O,3.500120X1.998980*%
%ADD45O,1.501140X2.499360*%
%ADD46R,2.000000X1.524000*%
%ADD47O,2.000000X1.524000*%
%ADD48C,1.270000*%
%ADD49C,0.762000*%
%ADD50C,0.508000*%
%ADD51C,1.016000*%
%ADD52C,0.635000*%
%ADD53C,1.270000*%
%ADD54C,0.254000*%
%ADD55C,1.524000*%
%ADD56C,0.381000*%
G04 APERTURE END LIST*
D10*
D11*
X87642700Y-88887300D03*
D12*
X90182700Y-88887300D03*
X87642700Y-91427300D03*
X90182700Y-91427300D03*
X87642700Y-93967300D03*
X90182700Y-93967300D03*
X87642700Y-96507300D03*
X90182700Y-96507300D03*
X87642700Y-99047300D03*
X90182700Y-99047300D03*
X87642700Y-101587300D03*
X90182700Y-101587300D03*
X87642700Y-104127300D03*
X90182700Y-104127300D03*
X87642700Y-106667300D03*
X90182700Y-106667300D03*
D13*
X133500000Y-54000000D03*
D14*
X133500000Y-50500000D03*
D13*
X124500000Y-54000000D03*
D14*
X124500000Y-50500000D03*
X136600000Y-66800000D03*
D13*
X134100000Y-66800000D03*
D14*
X142811500Y-71807700D03*
D13*
X142811500Y-74307700D03*
D14*
X125349000Y-58420000D03*
D13*
X127849000Y-58420000D03*
D14*
X94145100Y-91579700D03*
D13*
X96645100Y-91579700D03*
X133553200Y-41315760D03*
D14*
X133553200Y-44815760D03*
X101200000Y-61400000D03*
D13*
X103700000Y-61400000D03*
D14*
X125506480Y-44815760D03*
D13*
X125506480Y-42315760D03*
X92500000Y-55400000D03*
D14*
X96000000Y-55400000D03*
X129200000Y-66800000D03*
D13*
X131700000Y-66800000D03*
D14*
X90678000Y-60579000D03*
D13*
X90678000Y-63079000D03*
X92500000Y-67600000D03*
D14*
X96000000Y-67600000D03*
D13*
X115250000Y-50500000D03*
D14*
X115250000Y-54000000D03*
X106997500Y-83096100D03*
D13*
X106997500Y-80596100D03*
D14*
X151498300Y-139687300D03*
D13*
X151498300Y-142187300D03*
D14*
X98044000Y-129540000D03*
D13*
X100544000Y-129540000D03*
D14*
X89408000Y-145796000D03*
D13*
X89408000Y-143296000D03*
D14*
X117248300Y-96151700D03*
D13*
X114748300Y-96151700D03*
D15*
X90839480Y-49802540D03*
D16*
X100999480Y-49802540D03*
D17*
X142250000Y-40250000D03*
D18*
X144790000Y-40250000D03*
D19*
X108600000Y-54400000D03*
X106060000Y-54400000D03*
X103520000Y-54400000D03*
X100980000Y-54400000D03*
D20*
X112500740Y-43000000D03*
X90499260Y-43000000D03*
D21*
X121259600Y-39842440D03*
X118459600Y-44842440D03*
D22*
X108900000Y-61400000D03*
X105500000Y-61400000D03*
D23*
X97739200Y-94108800D03*
X97739200Y-97508800D03*
X94335600Y-94108800D03*
X94335600Y-97508800D03*
D24*
X81000000Y-48400000D03*
D25*
X81000000Y-53400000D03*
D26*
X89052000Y-149047200D03*
X85852000Y-149047200D03*
X85852000Y-152247200D03*
X85852000Y-154447200D03*
X85852000Y-156647200D03*
X89052000Y-152247200D03*
X89052000Y-154447200D03*
X89052000Y-156647200D03*
D27*
X141500000Y-57600200D03*
X141500000Y-54399800D03*
X141500000Y-64600200D03*
X141500000Y-61399800D03*
D28*
X96062800Y-61400000D03*
X99263200Y-61400000D03*
D29*
X87800000Y-83600000D03*
X97960000Y-83600000D03*
X87800000Y-80200000D03*
X97960000Y-80200000D03*
X87800000Y-76800000D03*
X97960000Y-76800000D03*
X87800000Y-73600000D03*
X97960000Y-73600000D03*
X101400000Y-65000000D03*
X111560000Y-65000000D03*
D30*
X95808800Y-106832400D03*
X95808800Y-109372400D03*
X95808800Y-111912400D03*
X95808800Y-114452400D03*
X95808800Y-116992400D03*
X95808800Y-119532400D03*
X95808800Y-122072400D03*
X95808800Y-124612400D03*
X95808800Y-127152400D03*
X95808800Y-129692400D03*
X108508800Y-129692400D03*
X108508800Y-127152400D03*
X108508800Y-124612400D03*
X108508800Y-122072400D03*
X108508800Y-119532400D03*
X108508800Y-116992400D03*
X108508800Y-114452400D03*
X108508800Y-111912400D03*
X108508800Y-109372400D03*
X108508800Y-106832400D03*
D31*
X124600000Y-72200000D03*
D32*
X122060000Y-72200000D03*
X119520000Y-72200000D03*
X116980000Y-72200000D03*
X114440000Y-72200000D03*
X111900000Y-72200000D03*
X109360000Y-72200000D03*
X106820000Y-72200000D03*
X104280000Y-72200000D03*
X101740000Y-72200000D03*
D11*
X117297200Y-99415600D03*
D12*
X119837200Y-99415600D03*
X117297200Y-101955600D03*
X119837200Y-101955600D03*
X117297200Y-104495600D03*
X119837200Y-104495600D03*
X117297200Y-107035600D03*
X119837200Y-107035600D03*
X117297200Y-109575600D03*
X119837200Y-109575600D03*
X117297200Y-112115600D03*
X119837200Y-112115600D03*
X117297200Y-114655600D03*
X119837200Y-114655600D03*
X117297200Y-117195600D03*
X119837200Y-117195600D03*
D33*
X143167100Y-130035300D03*
D34*
X145707100Y-130035300D03*
D33*
X76555600Y-124561600D03*
D34*
X76555600Y-127101600D03*
D35*
X89408000Y-140208000D03*
D36*
X89408000Y-137668000D03*
X89408000Y-135128000D03*
X89408000Y-132588000D03*
X89408000Y-130048000D03*
X89408000Y-127508000D03*
X89408000Y-124968000D03*
D31*
X112877600Y-100685600D03*
D32*
X110337600Y-100685600D03*
X107797600Y-100685600D03*
X105257600Y-100685600D03*
X102717600Y-100685600D03*
X100177600Y-100685600D03*
X97637600Y-100685600D03*
X95097600Y-100685600D03*
D37*
X81229200Y-142544800D03*
X79959200Y-141274800D03*
X82499200Y-141274800D03*
D38*
X80498000Y-60600000D03*
D39*
X87102000Y-60600000D03*
X87102000Y-58314000D03*
X87102000Y-62886000D03*
D38*
X118872000Y-63627000D03*
D39*
X125476000Y-63627000D03*
X125476000Y-61341000D03*
X125476000Y-65913000D03*
D40*
X117513100Y-84162900D03*
X117513100Y-81622900D03*
X117513100Y-79082900D03*
X117513100Y-76542900D03*
X109893100Y-76542900D03*
X109893100Y-79082900D03*
X109893100Y-81622900D03*
X109893100Y-84162900D03*
D41*
X134495000Y-103225000D03*
X135765000Y-103225000D03*
X137035000Y-103225000D03*
X138305000Y-103225000D03*
X138305000Y-109575000D03*
X137035000Y-109575000D03*
X135765000Y-109575000D03*
X134495000Y-109575000D03*
D15*
X131584700Y-77609700D03*
D16*
X141744700Y-77609700D03*
D42*
X121780300Y-78371700D03*
D43*
X121780300Y-88531700D03*
D42*
X118376700Y-88785700D03*
D43*
X108216700Y-88785700D03*
D15*
X76707480Y-145798540D03*
D16*
X86867480Y-145798540D03*
D44*
X80772000Y-83538060D03*
X80772000Y-80037940D03*
X80772000Y-73886060D03*
X80772000Y-70385940D03*
X134531100Y-92285820D03*
X134531100Y-88785700D03*
X134531100Y-95785940D03*
X143827500Y-92235020D03*
X143827500Y-88734900D03*
X143827500Y-95735140D03*
X123558300Y-125564900D03*
X123558300Y-129065020D03*
X123558300Y-122064780D03*
X132499100Y-125463300D03*
X132499100Y-128963420D03*
X132499100Y-121963180D03*
X142748000Y-153416000D03*
X142748000Y-156916120D03*
X142748000Y-149915880D03*
X142748000Y-138457940D03*
X142748000Y-141958060D03*
D24*
X77673200Y-150317200D03*
D25*
X77673200Y-155317200D03*
D29*
X145000000Y-54750000D03*
X145000000Y-47130000D03*
X104203500Y-76187300D03*
X104203500Y-83807300D03*
X101003100Y-76187300D03*
X101003100Y-83807300D03*
X101400000Y-68400000D03*
X109020000Y-68400000D03*
X140817600Y-111658400D03*
X140817600Y-104038400D03*
X144068800Y-111709200D03*
X144068800Y-104089200D03*
X127825500Y-101346000D03*
X127825500Y-108966000D03*
X130810000Y-101346000D03*
X130810000Y-108966000D03*
X113600000Y-120400000D03*
X113600000Y-128020000D03*
X117200000Y-120400000D03*
X117200000Y-128020000D03*
X138391900Y-116166900D03*
X138391900Y-123786900D03*
X141490700Y-116166900D03*
X141490700Y-123786900D03*
X152717500Y-150456900D03*
X152717500Y-158076900D03*
X156019500Y-150456900D03*
X156019500Y-158076900D03*
X149402800Y-158089600D03*
X149402800Y-150469600D03*
X144538700Y-116166900D03*
X144538700Y-123786900D03*
X76606400Y-140309600D03*
X76606400Y-132689600D03*
X102730300Y-95542100D03*
X110350300Y-95542100D03*
X85953600Y-139649200D03*
X85953600Y-132029200D03*
D14*
X127836300Y-111950500D03*
D13*
X125336300Y-111950500D03*
D35*
X147942300Y-116776500D03*
D36*
X147942300Y-119316500D03*
X147942300Y-121856500D03*
X147942300Y-124396500D03*
D14*
X115277900Y-58498100D03*
D13*
X115277900Y-60998100D03*
D14*
X134520300Y-81927700D03*
D13*
X137020300Y-81927700D03*
D45*
X134250000Y-61500000D03*
X136790000Y-61500000D03*
X131710000Y-61500000D03*
X134000000Y-72000000D03*
X136540000Y-72000000D03*
X131460000Y-72000000D03*
D37*
X133007100Y-115608100D03*
X134277100Y-116878100D03*
X131737100Y-116878100D03*
D46*
X151130000Y-88900000D03*
D47*
X153670000Y-88900000D03*
X151130000Y-101600000D03*
X153670000Y-91440000D03*
X151130000Y-104140000D03*
X153670000Y-93980000D03*
X151130000Y-106680000D03*
X153670000Y-96520000D03*
X151130000Y-109220000D03*
X153670000Y-99060000D03*
X151130000Y-111760000D03*
X153670000Y-101600000D03*
X151130000Y-114300000D03*
X153670000Y-104140000D03*
X151130000Y-116840000D03*
X153670000Y-106680000D03*
X151130000Y-119380000D03*
X153670000Y-109220000D03*
X151130000Y-121920000D03*
X153670000Y-111760000D03*
X151130000Y-124460000D03*
X153670000Y-114300000D03*
X151130000Y-127000000D03*
X153670000Y-116840000D03*
X153670000Y-119380000D03*
X151130000Y-129540000D03*
X153670000Y-121920000D03*
X153670000Y-127000000D03*
X153670000Y-129540000D03*
X153670000Y-132080000D03*
X153670000Y-134620000D03*
X151130000Y-132080000D03*
X151130000Y-134620000D03*
X151130000Y-91440000D03*
X151130000Y-93980000D03*
X151130000Y-96520000D03*
X151130000Y-99060000D03*
X151130000Y-137160000D03*
X153670000Y-137160000D03*
X153670000Y-124460000D03*
D46*
X80010000Y-88900000D03*
D47*
X82550000Y-88900000D03*
X80010000Y-91440000D03*
X82550000Y-91440000D03*
X80010000Y-93980000D03*
X82550000Y-93980000D03*
X80010000Y-96520000D03*
X82550000Y-96520000D03*
X80010000Y-99060000D03*
X82550000Y-99060000D03*
X80010000Y-101600000D03*
X82550000Y-101600000D03*
X80010000Y-104140000D03*
X82550000Y-104140000D03*
X80010000Y-106680000D03*
X82550000Y-106680000D03*
X80010000Y-109220000D03*
X82550000Y-109220000D03*
X80010000Y-111760000D03*
X82550000Y-111760000D03*
X80010000Y-114300000D03*
X82550000Y-114300000D03*
X80010000Y-116840000D03*
X82550000Y-116840000D03*
X80010000Y-119380000D03*
X82550000Y-119380000D03*
X80010000Y-121920000D03*
X82550000Y-121920000D03*
X80010000Y-124460000D03*
X82550000Y-124460000D03*
X80010000Y-127000000D03*
X82550000Y-127000000D03*
X80010000Y-129540000D03*
X82550000Y-129540000D03*
X80010000Y-132080000D03*
X82550000Y-132080000D03*
X80010000Y-134620000D03*
X82550000Y-134620000D03*
X80010000Y-137160000D03*
X82550000Y-137160000D03*
D48*
X100799900Y-125412500D03*
X123304300Y-65925700D03*
X140462600Y-109575000D03*
X151130000Y-96520000D03*
X139814300Y-131203700D03*
X139814300Y-136283700D03*
X151130000Y-137160000D03*
X148816700Y-128003300D03*
X148805900Y-139636500D03*
X91401900Y-122161300D03*
X91401900Y-114185700D03*
X85623400Y-113004600D03*
X85623400Y-116840000D03*
X105371900Y-103111300D03*
X100799900Y-103111300D03*
X89268300Y-116725700D03*
X89268300Y-122212100D03*
X87693500Y-117995700D03*
X87693500Y-121043700D03*
X87693500Y-121043700D03*
X102882700Y-123583700D03*
X102831900Y-128917700D03*
X104965500Y-133083300D03*
X95516700Y-134708900D03*
X92671900Y-131152900D03*
X92621100Y-123431300D03*
X82550000Y-91440000D03*
X80010000Y-114300000D03*
X80010000Y-114300000D03*
X76720700Y-109664500D03*
X76771500Y-120078500D03*
X138290300Y-105041700D03*
X87642700Y-85864689D03*
X98920300Y-124345700D03*
X137833100Y-131127491D03*
X137833100Y-136283700D03*
X106337100Y-87007700D03*
X119646700Y-86601300D03*
X120408700Y-92849711D03*
X134702632Y-105721232D03*
X127825500Y-101346000D03*
X127825500Y-101346000D03*
X92697311Y-88887300D03*
X125641100Y-93865700D03*
D49*
X89408000Y-127508000D02*
X89255600Y-127508000D01*
X89255600Y-127508000D02*
X87223600Y-129540000D01*
X87223600Y-129540000D02*
X85369400Y-129540000D01*
X85953600Y-130124200D02*
X85369400Y-129540000D01*
X85369400Y-129540000D02*
X82550000Y-129540000D01*
X85953600Y-132029200D02*
X85953600Y-130124200D01*
D50*
X108178600Y-129692400D02*
X103898700Y-125412500D01*
X103898700Y-125412500D02*
X100799900Y-125412500D01*
X108508800Y-129692400D02*
X108178600Y-129692400D01*
D51*
X125476000Y-65913000D02*
X123317000Y-65913000D01*
X123317000Y-65913000D02*
X123304300Y-65925700D01*
D52*
X138305000Y-109575000D02*
X140462600Y-109575000D01*
X82550000Y-134620000D02*
X87376000Y-134620000D01*
X87376000Y-134620000D02*
X87757000Y-134239000D01*
X87757000Y-134239000D02*
X87757000Y-134086600D01*
X87757000Y-134086600D02*
X89255600Y-132588000D01*
X89255600Y-132588000D02*
X89408000Y-132588000D01*
X82550000Y-137160000D02*
X86272855Y-137160000D01*
X86272855Y-137160000D02*
X88304855Y-135128000D01*
X88304855Y-135128000D02*
X89408000Y-135128000D01*
D49*
X139407900Y-93306900D02*
X138386820Y-92285820D01*
X138386820Y-92285820D02*
X134531100Y-92285820D01*
X139407900Y-96310450D02*
X139407900Y-93306900D01*
X139357100Y-98894900D02*
X139357100Y-96361250D01*
X139357100Y-96361250D02*
X139407900Y-96310450D01*
X142062200Y-101600000D02*
X139357100Y-98894900D01*
X151130000Y-101600000D02*
X142062200Y-101600000D01*
X147535900Y-93306900D02*
X146464020Y-92235020D01*
X146464020Y-92235020D02*
X143827500Y-92235020D01*
X147535900Y-97227900D02*
X147535900Y-93306900D01*
X151130000Y-99060000D02*
X149368000Y-99060000D01*
X149368000Y-99060000D02*
X147535900Y-97227900D01*
D51*
X153670000Y-109220000D02*
X153670000Y-106680000D01*
X153670000Y-106680000D02*
X153670000Y-104140000D01*
X153670000Y-104140000D02*
X153670000Y-101600000D01*
X153670000Y-99060000D02*
X153670000Y-101600000D01*
X153670000Y-96520000D02*
X153670000Y-99060000D01*
X151130000Y-96520000D02*
X153670000Y-96520000D01*
D49*
X143827500Y-88734900D02*
X146339560Y-88734900D01*
X146339560Y-88734900D02*
X149367990Y-91763330D01*
X149367990Y-91763330D02*
X149367990Y-94995990D01*
X149367990Y-94995990D02*
X150892000Y-96520000D01*
X150892000Y-96520000D02*
X151130000Y-96520000D01*
D53*
X134531100Y-88785700D02*
X143776700Y-88785700D01*
X143776700Y-88785700D02*
X143827500Y-88734900D01*
D49*
X134581900Y-88734900D02*
X134531100Y-88785700D01*
D53*
X151130000Y-116840000D02*
X148005800Y-116840000D01*
X148005800Y-116840000D02*
X147942300Y-116776500D01*
X151130000Y-119380000D02*
X148005800Y-119380000D01*
X148005800Y-119380000D02*
X147942300Y-119316500D01*
D49*
X139814300Y-131203700D02*
X139814300Y-125209300D01*
X139814300Y-125209300D02*
X138391900Y-123786900D01*
X151130000Y-137160000D02*
X149368000Y-137160000D01*
X149368000Y-137160000D02*
X148491700Y-136283700D01*
X148491700Y-136283700D02*
X140712325Y-136283700D01*
X140712325Y-136283700D02*
X139814300Y-136283700D01*
X151498300Y-139687300D02*
X148856700Y-139687300D01*
X148856700Y-139687300D02*
X148805900Y-139636500D01*
X148958300Y-139788900D02*
X148805900Y-139636500D01*
D52*
X149820000Y-127000000D02*
X148816700Y-128003300D01*
D49*
X148805900Y-139636500D02*
X143926560Y-139636500D01*
X143926560Y-139636500D02*
X142748000Y-138457940D01*
D51*
X149402800Y-150469600D02*
X149402800Y-144362170D01*
X149402800Y-144362170D02*
X143498570Y-138457940D01*
X143498570Y-138457940D02*
X142748000Y-138457940D01*
D52*
X151130000Y-127000000D02*
X149820000Y-127000000D01*
X95808800Y-124612400D02*
X94731170Y-124612400D01*
X94094299Y-130515361D02*
X98198938Y-134620000D01*
X94731170Y-124612400D02*
X94094299Y-125249271D01*
X94094299Y-125249271D02*
X94094299Y-130515361D01*
X98198938Y-134620000D02*
X149495000Y-134620000D01*
X149495000Y-134620000D02*
X151130000Y-134620000D01*
X150892000Y-134620000D02*
X151130000Y-134620000D01*
D49*
X145707100Y-130035300D02*
X145707100Y-124955300D01*
X145707100Y-124955300D02*
X144538700Y-123786900D01*
X151130000Y-129540000D02*
X146202400Y-129540000D01*
X146202400Y-129540000D02*
X145707100Y-130035300D01*
D52*
X95808800Y-127152400D02*
X103807258Y-127152400D01*
X148859999Y-132715001D02*
X149495000Y-132080000D01*
X149495000Y-132080000D02*
X151130000Y-132080000D01*
X103807258Y-127152400D02*
X109369859Y-132715001D01*
X109369859Y-132715001D02*
X148859999Y-132715001D01*
X150892000Y-132080000D02*
X151130000Y-132080000D01*
D54*
X95808800Y-122072400D02*
X91490800Y-122072400D01*
X91490800Y-122072400D02*
X91401900Y-122161300D01*
X83918300Y-114185700D02*
X91401900Y-114185700D01*
X82550000Y-114300000D02*
X83804000Y-114300000D01*
X83804000Y-114300000D02*
X83918300Y-114185700D01*
X82550000Y-114300000D02*
X82788000Y-114300000D01*
X85623400Y-113004600D02*
X92176600Y-113004600D01*
X92176600Y-113004600D02*
X95808800Y-109372400D01*
X82550000Y-116840000D02*
X85623400Y-116840000D01*
D49*
X82550000Y-116840000D02*
X82788000Y-116840000D01*
X82788000Y-116840000D02*
X82800700Y-116827300D01*
D53*
X151130000Y-121920000D02*
X148005800Y-121920000D01*
X148005800Y-121920000D02*
X147942300Y-121856500D01*
D51*
X151117300Y-121907300D02*
X151130000Y-121920000D01*
D53*
X151130000Y-124460000D02*
X148005800Y-124460000D01*
X148005800Y-124460000D02*
X147942300Y-124396500D01*
D51*
X151117300Y-124447300D02*
X151130000Y-124460000D01*
D50*
X151130000Y-111760000D02*
X144119600Y-111760000D01*
X144119600Y-111760000D02*
X144068800Y-111709200D01*
X143471900Y-107988100D02*
X144068800Y-108585000D01*
X144068800Y-108585000D02*
X144068800Y-111709200D01*
X136207500Y-107988100D02*
X143471900Y-107988100D01*
X135765000Y-108430600D02*
X136207500Y-107988100D01*
X135765000Y-109575000D02*
X135765000Y-108430600D01*
D54*
X82550000Y-111760000D02*
X88625678Y-111760000D01*
X102717600Y-102885242D02*
X102717600Y-101955600D01*
X88625678Y-111760000D02*
X96131377Y-104254301D01*
X96131377Y-104254301D02*
X101348541Y-104254301D01*
X101348541Y-104254301D02*
X102717600Y-102885242D01*
X102717600Y-101955600D02*
X102717600Y-100685600D01*
X105371900Y-103111300D02*
X105371900Y-100799900D01*
X105371900Y-100799900D02*
X105257600Y-100685600D01*
X94754700Y-103120649D02*
X100790551Y-103120649D01*
X100790551Y-103120649D02*
X100799900Y-103111300D01*
X93586300Y-105482539D02*
X93586300Y-104289049D01*
X93586300Y-104289049D02*
X94754700Y-103120649D01*
X89848839Y-109220000D02*
X93586300Y-105482539D01*
X82550000Y-109220000D02*
X89848839Y-109220000D01*
D51*
X82550000Y-109220000D02*
X82582880Y-109220000D01*
D54*
X89268300Y-116725700D02*
X93535500Y-116725700D01*
X93535500Y-116725700D02*
X95808800Y-114452400D01*
X86051900Y-122212100D02*
X89268300Y-122212100D01*
X82550000Y-124460000D02*
X83804000Y-124460000D01*
X83804000Y-124460000D02*
X86051900Y-122212100D01*
X82550000Y-124460000D02*
X82788000Y-124460000D01*
X87693500Y-117995700D02*
X94805500Y-117995700D01*
X94805500Y-117995700D02*
X95808800Y-116992400D01*
X84680300Y-121043700D02*
X87693500Y-121043700D01*
X82550000Y-121920000D02*
X83804000Y-121920000D01*
X83804000Y-121920000D02*
X84680300Y-121043700D01*
X82550000Y-119380000D02*
X95656400Y-119380000D01*
X95656400Y-119380000D02*
X95808800Y-119532400D01*
X102882700Y-123583700D02*
X103517699Y-122948701D01*
X103517699Y-122948701D02*
X103517699Y-107657901D01*
X103517699Y-107657901D02*
X110337600Y-100838000D01*
X110337600Y-100838000D02*
X110337600Y-100685600D01*
X102831900Y-130051675D02*
X102831900Y-128917700D01*
X104965500Y-133083300D02*
X104965500Y-132185275D01*
X104965500Y-132185275D02*
X102831900Y-130051675D01*
X95431475Y-134810500D02*
X95431475Y-134794125D01*
X95431475Y-134794125D02*
X95516700Y-134708900D01*
X92671900Y-131152900D02*
X92671900Y-132050925D01*
X92671900Y-132050925D02*
X95431475Y-134810500D01*
X88903351Y-123380500D02*
X92570300Y-123380500D01*
X92570300Y-123380500D02*
X92621100Y-123431300D01*
X82550000Y-127000000D02*
X85283851Y-127000000D01*
X85283851Y-127000000D02*
X88903351Y-123380500D01*
X110337600Y-100533200D02*
X110337600Y-100685600D01*
X82550000Y-127000000D02*
X82788000Y-127000000D01*
D52*
X87642700Y-91427300D02*
X82562700Y-91427300D01*
X82562700Y-91427300D02*
X82550000Y-91440000D01*
D54*
X82788000Y-91440000D02*
X82550000Y-91440000D01*
D52*
X82550000Y-93980000D02*
X87630000Y-93980000D01*
X87630000Y-93980000D02*
X87642700Y-93967300D01*
X82550000Y-96520000D02*
X87630000Y-96520000D01*
X87630000Y-96520000D02*
X87642700Y-96507300D01*
X87642700Y-99047300D02*
X82562700Y-99047300D01*
X82562700Y-99047300D02*
X82550000Y-99060000D01*
X87642700Y-101587300D02*
X82562700Y-101587300D01*
X82562700Y-101587300D02*
X82550000Y-101600000D01*
X87642700Y-104127300D02*
X82562700Y-104127300D01*
X82562700Y-104127300D02*
X82550000Y-104140000D01*
X87642700Y-106667300D02*
X82562700Y-106667300D01*
X82562700Y-106667300D02*
X82550000Y-106680000D01*
X82788000Y-106680000D02*
X82550000Y-106680000D01*
D50*
X151130000Y-114300000D02*
X148895768Y-114300000D01*
X147921677Y-113325909D02*
X144890491Y-113325909D01*
X148895768Y-114300000D02*
X147921677Y-113325909D01*
X142502891Y-113343691D02*
X141817089Y-112657889D01*
X144890491Y-113325909D02*
X144872709Y-113343691D01*
X144872709Y-113343691D02*
X142502891Y-113343691D01*
X141817089Y-112657889D02*
X140817600Y-111658400D01*
X140817600Y-111658400D02*
X138038900Y-111658400D01*
X138038900Y-111658400D02*
X137035000Y-110654500D01*
X137035000Y-110654500D02*
X137035000Y-109575000D01*
D49*
X142748000Y-156916120D02*
X145260060Y-156916120D01*
X145260060Y-156916120D02*
X148802079Y-153374101D01*
X148802079Y-153374101D02*
X153102299Y-153374101D01*
X153102299Y-153374101D02*
X155020011Y-151456389D01*
X155020011Y-151456389D02*
X156019500Y-150456900D01*
D50*
X156019500Y-150456900D02*
X156194020Y-150282380D01*
X156194020Y-150282380D02*
X156194020Y-131826020D01*
X156194020Y-131826020D02*
X153908000Y-129540000D01*
X153908000Y-129540000D02*
X153670000Y-129540000D01*
D49*
X142748000Y-149915880D02*
X145260060Y-149915880D01*
X145260060Y-149915880D02*
X147575271Y-152231091D01*
X150943309Y-152231091D02*
X151718011Y-151456389D01*
X147575271Y-152231091D02*
X150943309Y-152231091D01*
X151718011Y-151456389D02*
X152717500Y-150456900D01*
D50*
X152717500Y-150456900D02*
X155305010Y-147869390D01*
X155305010Y-147869390D02*
X155305010Y-133477010D01*
X155305010Y-133477010D02*
X153908000Y-132080000D01*
X153908000Y-132080000D02*
X153670000Y-132080000D01*
D54*
X90182700Y-99047300D02*
X91554301Y-97675699D01*
X91554301Y-97675699D02*
X91554301Y-88228931D01*
X78971899Y-87261699D02*
X78501999Y-87731599D01*
X91554301Y-88228931D02*
X90587069Y-87261699D01*
X90587069Y-87261699D02*
X78971899Y-87261699D01*
X79772000Y-99060000D02*
X80010000Y-99060000D01*
X78501999Y-87731599D02*
X78501999Y-97789999D01*
X78501999Y-97789999D02*
X79772000Y-99060000D01*
X80010000Y-106680000D02*
X80248000Y-106680000D01*
X80248000Y-106680000D02*
X81518000Y-107950000D01*
X81518000Y-107950000D02*
X85674200Y-107950000D01*
X85674200Y-107950000D02*
X86118700Y-108394500D01*
X89776300Y-108394500D02*
X90182700Y-107988100D01*
X86118700Y-108394500D02*
X89776300Y-108394500D01*
X90182700Y-107988100D02*
X90182700Y-106667300D01*
X80010000Y-116840000D02*
X80515935Y-116840000D01*
X80515935Y-116840000D02*
X81785935Y-115570000D01*
X81785935Y-115570000D02*
X92151200Y-115570000D01*
X92151200Y-115570000D02*
X95046801Y-112674399D01*
X95046801Y-112674399D02*
X95808800Y-111912400D01*
D50*
X76555600Y-127101600D02*
X77368400Y-127101600D01*
X77368400Y-127101600D02*
X80010000Y-124460000D01*
D49*
X76606400Y-132689600D02*
X76606400Y-127152400D01*
X76606400Y-127152400D02*
X76555600Y-127101600D01*
D54*
X76771500Y-120078500D02*
X76771500Y-109715300D01*
X76771500Y-109715300D02*
X76720700Y-109664500D01*
D50*
X80010000Y-129540000D02*
X79772000Y-129540000D01*
D51*
X110350300Y-95542100D02*
X112877600Y-98069400D01*
X112877600Y-98069400D02*
X112877600Y-100685600D01*
D49*
X112877600Y-100685600D02*
X112877600Y-100838000D01*
D53*
X133500000Y-50500000D02*
X133500000Y-44868960D01*
X133500000Y-44868960D02*
X133553200Y-44815760D01*
X145000000Y-54750000D02*
X145000000Y-51502600D01*
X145000000Y-51502600D02*
X144081500Y-50584100D01*
X144081500Y-50584100D02*
X141715900Y-50584100D01*
X141715900Y-50584100D02*
X141500000Y-50800000D01*
X145000000Y-54750000D02*
X145000000Y-57899800D01*
X145000000Y-57899800D02*
X141500000Y-61399800D01*
X141423800Y-48028000D02*
X138211560Y-44815760D01*
X138211560Y-44815760D02*
X133553200Y-44815760D01*
X141500000Y-48028000D02*
X141423800Y-48028000D01*
X141500000Y-48028000D02*
X141500000Y-50800000D01*
X141500000Y-50800000D02*
X141500000Y-54399800D01*
D55*
X123418000Y-47244000D02*
X120861160Y-47244000D01*
X120861160Y-47244000D02*
X118459600Y-44842440D01*
X124500000Y-50500000D02*
X124500000Y-48326000D01*
X124500000Y-48326000D02*
X123418000Y-47244000D01*
X124500000Y-50500000D02*
X133500000Y-50500000D01*
X133500000Y-50500000D02*
X141200000Y-50500000D01*
X125506480Y-44815760D02*
X133553200Y-44815760D01*
X118459600Y-44842440D02*
X125479800Y-44842440D01*
X125479800Y-44842440D02*
X125506480Y-44815760D01*
X106060000Y-54400000D02*
X106060000Y-51376130D01*
X106060000Y-51376130D02*
X108983131Y-48452999D01*
X108983131Y-48452999D02*
X114849041Y-48452999D01*
X114849041Y-48452999D02*
X117659601Y-45642439D01*
X117659601Y-45642439D02*
X118459600Y-44842440D01*
D51*
X136790000Y-61500000D02*
X137600200Y-61500000D01*
X137600200Y-61500000D02*
X141500000Y-57600200D01*
X136600000Y-66800000D02*
X136600000Y-61690000D01*
X136600000Y-61690000D02*
X136790000Y-61500000D01*
D53*
X136790000Y-61246000D02*
X136790000Y-61500000D01*
D55*
X142811500Y-71807700D02*
X139520300Y-71807700D01*
X139520300Y-71807700D02*
X139328000Y-72000000D01*
D53*
X136525000Y-72015000D02*
X136540000Y-72000000D01*
D55*
X141500000Y-64600200D02*
X141500000Y-66624580D01*
X141500000Y-66624580D02*
X141478000Y-66646580D01*
X141478000Y-66646580D02*
X141478000Y-69850000D01*
X141478000Y-69850000D02*
X139328000Y-72000000D01*
X139328000Y-72000000D02*
X136540000Y-72000000D01*
D53*
X131710000Y-61500000D02*
X125635000Y-61500000D01*
X125635000Y-61500000D02*
X125476000Y-61341000D01*
X125476000Y-61341000D02*
X125476000Y-58547000D01*
X125476000Y-58547000D02*
X125349000Y-58420000D01*
D55*
X101200000Y-61400000D02*
X99263200Y-61400000D01*
X100980000Y-54400000D02*
X100980000Y-61180000D01*
X100980000Y-61180000D02*
X101200000Y-61400000D01*
D51*
X90678000Y-63079000D02*
X87295000Y-63079000D01*
X87295000Y-63079000D02*
X87102000Y-62886000D01*
X121780300Y-78371700D02*
X119951500Y-76542900D01*
X119951500Y-76542900D02*
X117513100Y-76542900D01*
D53*
X121780300Y-78371700D02*
X121780300Y-72479700D01*
X121780300Y-72479700D02*
X122060000Y-72200000D01*
D50*
X138290300Y-104319200D02*
X138290300Y-105041700D01*
X138305000Y-103225000D02*
X138305000Y-104304500D01*
X138305000Y-104304500D02*
X138290300Y-104319200D01*
X103700000Y-61400000D02*
X105500000Y-61400000D01*
D55*
X96062800Y-61400000D02*
X92976800Y-58314000D01*
X92976800Y-58314000D02*
X87102000Y-58314000D01*
X96062800Y-61400000D02*
X96062800Y-55462800D01*
X96062800Y-55462800D02*
X96000000Y-55400000D01*
D53*
X97739200Y-94108800D02*
X99072700Y-94108800D01*
X99072700Y-94108800D02*
X99859200Y-94108800D01*
D49*
X87642700Y-85864689D02*
X93395771Y-85864689D01*
X93395771Y-85864689D02*
X99072700Y-91541618D01*
X99072700Y-91541618D02*
X99072700Y-94108800D01*
D50*
X134495000Y-109575000D02*
X134495000Y-108084140D01*
X134495000Y-108084140D02*
X136013439Y-106565701D01*
X136013439Y-106565701D02*
X139703791Y-106565701D01*
X139703791Y-106565701D02*
X140817600Y-105451892D01*
X140817600Y-105451892D02*
X140817600Y-104038400D01*
D51*
X124574300Y-75831700D02*
X129200000Y-71206000D01*
X129200000Y-71206000D02*
X129200000Y-66800000D01*
X124574300Y-89801702D02*
X124574300Y-75831700D01*
X123431301Y-90944701D02*
X124574300Y-89801702D01*
D49*
X76606400Y-140309600D02*
X74523599Y-138226799D01*
X74523599Y-138226799D02*
X74523599Y-90093539D01*
X74523599Y-90093539D02*
X78752449Y-85864689D01*
X78752449Y-85864689D02*
X87642700Y-85864689D01*
D51*
X98920300Y-124345700D02*
X98920300Y-108866270D01*
X98920300Y-108866270D02*
X96886430Y-106832400D01*
X96886430Y-106832400D02*
X95808800Y-106832400D01*
X129653040Y-97928440D02*
X128079500Y-96354900D01*
X128079500Y-96354900D02*
X125183900Y-96354900D01*
X140817600Y-104038400D02*
X139818111Y-103038911D01*
X139818111Y-103038911D02*
X139818111Y-101855209D01*
X139818111Y-101855209D02*
X135891342Y-97928440D01*
X135891342Y-97928440D02*
X129653040Y-97928440D01*
X125183900Y-96354900D02*
X123431301Y-94602301D01*
X123431301Y-94602301D02*
X123431301Y-90944701D01*
D52*
X144538700Y-118046500D02*
X144538700Y-116166900D01*
X144030700Y-118554500D02*
X144538700Y-118046500D01*
X137833100Y-131127491D02*
X137833100Y-130229466D01*
X137833100Y-130229466D02*
X136439909Y-128836275D01*
X136439909Y-128836275D02*
X136439909Y-122849943D01*
X136439909Y-122849943D02*
X140735352Y-118554500D01*
X140735352Y-118554500D02*
X144030700Y-118554500D01*
D49*
X149402800Y-158089600D02*
X148403311Y-159089089D01*
X141320052Y-159089089D02*
X137833100Y-155602137D01*
X148403311Y-159089089D02*
X141320052Y-159089089D01*
X137833100Y-155602137D02*
X137833100Y-136283700D01*
D53*
X152717500Y-158076900D02*
X149415500Y-158076900D01*
X149415500Y-158076900D02*
X149402800Y-158089600D01*
X156019500Y-158076900D02*
X152717500Y-158076900D01*
X99859200Y-94108800D02*
X103023299Y-90944701D01*
X103023299Y-90944701D02*
X123431301Y-90944701D01*
D52*
X97739200Y-94108800D02*
X97339200Y-94108800D01*
D50*
X76606400Y-140309600D02*
X74968849Y-141947151D01*
X74968849Y-141947151D02*
X74968849Y-155778571D01*
X90932000Y-137668000D02*
X89408000Y-137668000D01*
X74968849Y-155778571D02*
X77476479Y-158286201D01*
X91313001Y-138049001D02*
X90932000Y-137668000D01*
X77476479Y-158286201D02*
X89838721Y-158286201D01*
X89838721Y-158286201D02*
X91313001Y-156811921D01*
X91313001Y-156811921D02*
X91313001Y-138049001D01*
D51*
X98044000Y-129540000D02*
X95961200Y-129540000D01*
X95961200Y-129540000D02*
X95808800Y-129692400D01*
D49*
X144068800Y-104089200D02*
X140868400Y-104089200D01*
X140868400Y-104089200D02*
X140817600Y-104038400D01*
D55*
X129200000Y-66800000D02*
X129200000Y-64626000D01*
X129200000Y-64626000D02*
X128201000Y-63627000D01*
X128201000Y-63627000D02*
X128016000Y-63627000D01*
X128016000Y-63627000D02*
X125476000Y-63627000D01*
D53*
X122047000Y-58877000D02*
X122047000Y-62484000D01*
X122047000Y-62484000D02*
X123190000Y-63627000D01*
X123190000Y-63627000D02*
X125476000Y-63627000D01*
X115250000Y-54000000D02*
X117170000Y-54000000D01*
X117170000Y-54000000D02*
X122047000Y-58877000D01*
D50*
X119646700Y-86601300D02*
X119240301Y-87007699D01*
X119240301Y-87007699D02*
X106337101Y-87007699D01*
X106337101Y-87007699D02*
X106337100Y-87007700D01*
D51*
X120410620Y-93916500D02*
X120410620Y-92851631D01*
X120410620Y-92851631D02*
X120408700Y-92849711D01*
X127825500Y-108966000D02*
X124500029Y-105640529D01*
X124500029Y-105640529D02*
X124500029Y-98005909D01*
X124500029Y-98005909D02*
X120410620Y-93916500D01*
X127836300Y-111950500D02*
X127836300Y-108976800D01*
X127836300Y-108976800D02*
X127825500Y-108966000D01*
D53*
X130810000Y-108966000D02*
X127825500Y-108966000D01*
D50*
X134495000Y-103225000D02*
X133733000Y-103225000D01*
X133733000Y-103225000D02*
X130810000Y-106148000D01*
X130810000Y-106148000D02*
X130810000Y-107552508D01*
X130810000Y-107552508D02*
X130810000Y-108966000D01*
D53*
X101400000Y-66738500D02*
X101400000Y-65000000D01*
X101400000Y-68400000D02*
X101400000Y-66738500D01*
X101400000Y-66738500D02*
X100538500Y-67600000D01*
X100538500Y-67600000D02*
X96000000Y-67600000D01*
X96000000Y-67600000D02*
X96000000Y-65559398D01*
X96000000Y-65559398D02*
X91019602Y-60579000D01*
X91019602Y-60579000D02*
X90678000Y-60579000D01*
X87102000Y-60600000D02*
X90657000Y-60600000D01*
X90657000Y-60600000D02*
X90678000Y-60579000D01*
D51*
X90831642Y-60579000D02*
X90678000Y-60579000D01*
D49*
X109893100Y-84162900D02*
X108064300Y-84162900D01*
X108064300Y-84162900D02*
X106997500Y-83096100D01*
X109831500Y-84224500D02*
X109893100Y-84162900D01*
D55*
X100999480Y-49802540D02*
X100999480Y-47428910D01*
X100999480Y-47428910D02*
X105428390Y-43000000D01*
X105428390Y-43000000D02*
X108976490Y-43000000D01*
X108976490Y-43000000D02*
X112500740Y-43000000D01*
X112500740Y-43000000D02*
X115658300Y-39842440D01*
X115658300Y-39842440D02*
X121259600Y-39842440D01*
X81000000Y-53400000D02*
X82872940Y-53400000D01*
X82872940Y-53400000D02*
X85852000Y-50420940D01*
X86975010Y-43000000D02*
X90499260Y-43000000D01*
X85852000Y-50420940D02*
X85852000Y-44123010D01*
X85852000Y-44123010D02*
X86975010Y-43000000D01*
D51*
X87800000Y-80200000D02*
X80934060Y-80200000D01*
X80934060Y-80200000D02*
X80772000Y-80037940D01*
X87800000Y-83600000D02*
X80833940Y-83600000D01*
X80833940Y-83600000D02*
X80772000Y-83538060D01*
X80772000Y-70385940D02*
X84585940Y-70385940D01*
X84585940Y-70385940D02*
X87800000Y-73600000D01*
D53*
X87800000Y-76800000D02*
X83685940Y-76800000D01*
X83685940Y-76800000D02*
X80772000Y-73886060D01*
D51*
X81522570Y-73886060D02*
X80772000Y-73886060D01*
D49*
X113600000Y-128020000D02*
X119555220Y-122064780D01*
X119555220Y-122064780D02*
X123558300Y-122064780D01*
D50*
X131737100Y-116878100D02*
X130721100Y-116878100D01*
X130721100Y-116878100D02*
X127368300Y-120230900D01*
X127368300Y-120230900D02*
X127368300Y-124244100D01*
X127368300Y-124244100D02*
X126047500Y-125564900D01*
X126047500Y-125564900D02*
X123558300Y-125564900D01*
D49*
X133249670Y-125463300D02*
X132499100Y-125463300D01*
X117200000Y-128020000D02*
X120006520Y-130826520D01*
X120006520Y-130826520D02*
X125256280Y-130826520D01*
X125256280Y-130826520D02*
X129987030Y-126095770D01*
X129987030Y-126095770D02*
X129987030Y-123724680D01*
X131748530Y-121963180D02*
X132499100Y-121963180D01*
X129987030Y-123724680D02*
X131748530Y-121963180D01*
X108900000Y-61400000D02*
X108900000Y-68280000D01*
X108900000Y-68280000D02*
X109020000Y-68400000D01*
X113535800Y-68400000D02*
X114440000Y-69304200D01*
X114440000Y-69304200D02*
X114440000Y-72200000D01*
X109020000Y-68400000D02*
X113535800Y-68400000D01*
X114440000Y-72200000D02*
X114440000Y-72047600D01*
D51*
X102730300Y-95542100D02*
X100763600Y-97508800D01*
X100763600Y-97508800D02*
X97739200Y-97508800D01*
X97637600Y-100685600D02*
X97637600Y-97610400D01*
X97637600Y-97610400D02*
X97739200Y-97508800D01*
X95097600Y-100685600D02*
X95097600Y-98270800D01*
X95097600Y-98270800D02*
X94335600Y-97508800D01*
D53*
X85852000Y-154447200D02*
X81803200Y-154447200D01*
X81803200Y-154447200D02*
X77673200Y-150317200D01*
X89052000Y-154447200D02*
X85852000Y-154447200D01*
D49*
X104203500Y-83807300D02*
X102442009Y-82045809D01*
X102442009Y-82045809D02*
X99514191Y-82045809D01*
X99514191Y-82045809D02*
X98959489Y-82600511D01*
X98959489Y-82600511D02*
X97960000Y-83600000D01*
X97960000Y-76800000D02*
X96198509Y-78561491D01*
X96198509Y-78561491D02*
X96198509Y-84445517D01*
X100393500Y-86347300D02*
X101003100Y-85737700D01*
X96198509Y-84445517D02*
X98100292Y-86347300D01*
X98100292Y-86347300D02*
X100393500Y-86347300D01*
X101003100Y-85737700D02*
X101003100Y-83807300D01*
X124600000Y-72200000D02*
X124600000Y-72047600D01*
X124600000Y-72047600D02*
X124587000Y-72034600D01*
X124587000Y-72034600D02*
X124587000Y-69723000D01*
X124587000Y-69723000D02*
X123063000Y-68199000D01*
X123063000Y-68199000D02*
X116840000Y-68199000D01*
X116840000Y-68199000D02*
X113641000Y-65000000D01*
X113641000Y-65000000D02*
X111560000Y-65000000D01*
D52*
X131600000Y-101590500D02*
X136416500Y-101590500D01*
X136416500Y-101590500D02*
X137035000Y-102209000D01*
X137035000Y-102209000D02*
X137035000Y-103415500D01*
X119520000Y-72390500D02*
X119520000Y-72542900D01*
D50*
X134702632Y-105721232D02*
X135765000Y-104658864D01*
X135765000Y-104658864D02*
X135765000Y-103225000D01*
D52*
X116980000Y-72200000D02*
X116980000Y-72352400D01*
X109360000Y-72200000D02*
X109538443Y-72200000D01*
X109538443Y-72200000D02*
X115620790Y-78282347D01*
X115620790Y-78282347D02*
X115620790Y-80080590D01*
X115620790Y-80080590D02*
X117163100Y-81622900D01*
X117163100Y-81622900D02*
X117513100Y-81622900D01*
D49*
X117513100Y-84162900D02*
X117513100Y-81622900D01*
D51*
X109360000Y-72200000D02*
X109360000Y-72352400D01*
D52*
X106820000Y-72200000D02*
X106998443Y-72200000D01*
X106998443Y-72200000D02*
X109842833Y-75044390D01*
X109842833Y-75044390D02*
X110863803Y-75044390D01*
X110863803Y-75044390D02*
X111741610Y-75922197D01*
X111741610Y-75922197D02*
X111741610Y-77584390D01*
X111741610Y-77584390D02*
X110243100Y-79082900D01*
X110243100Y-79082900D02*
X109893100Y-79082900D01*
D49*
X106820000Y-72200000D02*
X106908641Y-72200000D01*
X109893100Y-81622900D02*
X109893100Y-79082900D01*
D50*
X138391900Y-116166900D02*
X136715500Y-116166900D01*
X136715500Y-116166900D02*
X136156700Y-115608100D01*
X136156700Y-115608100D02*
X133007100Y-115608100D01*
D49*
X138391900Y-116166900D02*
X141490700Y-116166900D01*
X82499200Y-141274800D02*
X84328000Y-141274800D01*
X84328000Y-141274800D02*
X85953600Y-139649200D01*
D53*
X85852000Y-156647200D02*
X79003200Y-156647200D01*
X79003200Y-156647200D02*
X77673200Y-155317200D01*
X89052000Y-156647200D02*
X85852000Y-156647200D01*
X153670000Y-88900000D02*
X153670000Y-86868000D01*
X153670000Y-86868000D02*
X144411700Y-77609700D01*
X144411700Y-77609700D02*
X143864330Y-77609700D01*
X143864330Y-77609700D02*
X141744700Y-77609700D01*
X145000000Y-44386500D02*
X145000000Y-47130000D01*
X145000000Y-44590000D02*
X145000000Y-44386500D01*
X145000000Y-44386500D02*
X145000000Y-40460000D01*
X145000000Y-40460000D02*
X144790000Y-40250000D01*
D50*
X121780300Y-88531700D02*
X121780300Y-83000100D01*
X121780300Y-83000100D02*
X117863100Y-79082900D01*
X117863100Y-79082900D02*
X117513100Y-79082900D01*
X104203500Y-76187300D02*
X105712499Y-77696299D01*
X105712499Y-77696299D02*
X105712499Y-84071699D01*
X105712499Y-84071699D02*
X107238710Y-85597910D01*
X107238710Y-85597910D02*
X118457500Y-85597910D01*
X118457500Y-85597910D02*
X119298110Y-84757300D01*
X119298110Y-84757300D02*
X119298110Y-80517910D01*
X119298110Y-80517910D02*
X117863100Y-79082900D01*
D49*
X117513100Y-79082900D02*
X116700300Y-79082900D01*
D50*
X108216700Y-88785700D02*
X99101837Y-88785700D01*
X99101837Y-88785700D02*
X95182499Y-84866362D01*
X95182499Y-84866362D02*
X95182499Y-73958453D01*
X95182499Y-73958453D02*
X97175443Y-71965509D01*
X97175443Y-71965509D02*
X99233755Y-71965509D01*
X99233755Y-71965509D02*
X101003100Y-73734854D01*
X101003100Y-73734854D02*
X101003100Y-74773808D01*
X101003100Y-74773808D02*
X101003100Y-76187300D01*
D49*
X101003100Y-76187300D02*
X103212390Y-73978010D01*
X103212390Y-73978010D02*
X105416210Y-73978010D01*
X105416210Y-73978010D02*
X107981100Y-76542900D01*
X107981100Y-76542900D02*
X109893100Y-76542900D01*
X76707480Y-145798540D02*
X79855060Y-145798540D01*
X79855060Y-145798540D02*
X81229200Y-144424400D01*
X85852000Y-149047200D02*
X81229200Y-144424400D01*
X81229200Y-144424400D02*
X81229200Y-142544800D01*
D52*
X108508800Y-127152400D02*
X110447600Y-127152400D01*
X110447600Y-127152400D02*
X117200000Y-120400000D01*
X108508800Y-124612400D02*
X112721200Y-120400000D01*
X112721200Y-120400000D02*
X113600000Y-120400000D01*
X108508800Y-122072400D02*
X109270799Y-121310401D01*
X109270799Y-121310401D02*
X110176571Y-121310401D01*
X110176571Y-121310401D02*
X115967773Y-115519199D01*
X115967773Y-115519199D02*
X116433601Y-115519199D01*
X116433601Y-115519199D02*
X117297200Y-114655600D01*
D49*
X117297200Y-114655600D02*
X119837200Y-114655600D01*
D52*
X108508800Y-119532400D02*
X109270799Y-118770401D01*
X109270799Y-118770401D02*
X110642399Y-118770401D01*
X110642399Y-118770401D02*
X116433601Y-112979199D01*
X116433601Y-112979199D02*
X117297200Y-112115600D01*
D49*
X117297200Y-112115600D02*
X119837200Y-112115600D01*
D52*
X108508800Y-116992400D02*
X109880400Y-116992400D01*
X109880400Y-116992400D02*
X117297200Y-109575600D01*
D49*
X117297200Y-109575600D02*
X119837200Y-109575600D01*
D52*
X108508800Y-114452400D02*
X109270799Y-113690401D01*
X109270799Y-113690401D02*
X110642399Y-113690401D01*
X110642399Y-113690401D02*
X116433601Y-107899199D01*
X116433601Y-107899199D02*
X117297200Y-107035600D01*
D49*
X117297200Y-107035600D02*
X119837200Y-107035600D01*
D52*
X108508800Y-111912400D02*
X109880400Y-111912400D01*
X109880400Y-111912400D02*
X117297200Y-104495600D01*
D49*
X117297200Y-104495600D02*
X119837200Y-104495600D01*
D52*
X115227100Y-102298500D02*
X115570000Y-101955600D01*
X115570000Y-101955600D02*
X117297200Y-101955600D01*
X115227100Y-104025700D02*
X115227100Y-102298500D01*
X109649930Y-109308900D02*
X109943900Y-109308900D01*
X109943900Y-109308900D02*
X115227100Y-104025700D01*
X108508800Y-109372400D02*
X109586430Y-109372400D01*
X109586430Y-109372400D02*
X109649930Y-109308900D01*
D49*
X117297200Y-101955600D02*
X119837200Y-101955600D01*
D51*
X131460000Y-72000000D02*
X131460000Y-77485000D01*
X131460000Y-77485000D02*
X131584700Y-77609700D01*
D53*
X131571480Y-72111480D02*
X131460000Y-72000000D01*
D51*
X117297200Y-99415600D02*
X117297200Y-96200600D01*
X117297200Y-96200600D02*
X117248300Y-96151700D01*
X131571480Y-80774540D02*
X131571480Y-81927700D01*
X131571480Y-81927700D02*
X131571480Y-87935320D01*
X134520300Y-81927700D02*
X132854300Y-81927700D01*
X132854300Y-81927700D02*
X131571480Y-81927700D01*
X131571480Y-80774540D02*
X131584700Y-80761320D01*
X131584700Y-80761320D02*
X131584700Y-77609700D01*
D49*
X92697311Y-88887300D02*
X92697311Y-90131911D01*
X92697311Y-90131911D02*
X94145100Y-91579700D01*
D51*
X131571480Y-87935320D02*
X125641100Y-93865700D01*
D49*
X94335600Y-94108800D02*
X94335600Y-91770200D01*
X94335600Y-91770200D02*
X94145100Y-91579700D01*
D51*
X89052000Y-149047200D02*
X89052000Y-146152000D01*
X89052000Y-146152000D02*
X89408000Y-145796000D01*
D53*
X119837200Y-99415600D02*
X117297200Y-99415600D01*
D51*
X117299100Y-99413700D02*
X117297200Y-99415600D01*
X119875300Y-99453700D02*
X119837200Y-99415600D01*
D56*
G36*
X158115000Y-159715200D02*
X157321044Y-159715200D01*
X157780954Y-159256091D01*
X158098129Y-158492251D01*
X158098850Y-157665178D01*
X157783010Y-156900785D01*
X157198691Y-156315446D01*
X156434851Y-155998271D01*
X155607778Y-155997550D01*
X154843385Y-156313390D01*
X154794289Y-156362400D01*
X153943563Y-156362400D01*
X153896691Y-156315446D01*
X153132851Y-155998271D01*
X152305778Y-155997550D01*
X151541385Y-156313390D01*
X151492289Y-156362400D01*
X150616185Y-156362400D01*
X150581991Y-156328146D01*
X149818151Y-156010971D01*
X148991078Y-156010250D01*
X148226685Y-156326090D01*
X147641346Y-156910409D01*
X147343131Y-157628589D01*
X146613049Y-157628589D01*
X149407038Y-154834601D01*
X153102299Y-154834601D01*
X153661208Y-154723427D01*
X154135028Y-154406830D01*
X156005980Y-152535879D01*
X156431222Y-152536250D01*
X157195615Y-152220410D01*
X157780954Y-151636091D01*
X158098129Y-150872251D01*
X158098850Y-150045178D01*
X157783010Y-149280785D01*
X157527520Y-149024849D01*
X157527520Y-131826020D01*
X157461835Y-131495799D01*
X157426013Y-131315711D01*
X157136947Y-130883093D01*
X155789343Y-129535489D01*
X155650064Y-128835288D01*
X155250877Y-128237863D01*
X154933671Y-128025912D01*
X154985631Y-127987828D01*
X155281627Y-127500243D01*
X155339221Y-127290975D01*
X155192306Y-127063500D01*
X153733500Y-127063500D01*
X153733500Y-127083500D01*
X153606500Y-127083500D01*
X153606500Y-127063500D01*
X153586500Y-127063500D01*
X153586500Y-126936500D01*
X153606500Y-126936500D01*
X153606500Y-124523500D01*
X153733500Y-124523500D01*
X153733500Y-126936500D01*
X155192306Y-126936500D01*
X155339221Y-126709025D01*
X155281627Y-126499757D01*
X154985631Y-126012172D01*
X154600651Y-125730000D01*
X154985631Y-125447828D01*
X155281627Y-124960243D01*
X155339221Y-124750975D01*
X155192306Y-124523500D01*
X153733500Y-124523500D01*
X153606500Y-124523500D01*
X153586500Y-124523500D01*
X153586500Y-124396500D01*
X153606500Y-124396500D01*
X153606500Y-121983500D01*
X153733500Y-121983500D01*
X153733500Y-124396500D01*
X155192306Y-124396500D01*
X155339221Y-124169025D01*
X155281627Y-123959757D01*
X154985631Y-123472172D01*
X154600651Y-123190000D01*
X154985631Y-122907828D01*
X155281627Y-122420243D01*
X155339221Y-122210975D01*
X155192306Y-121983500D01*
X153733500Y-121983500D01*
X153606500Y-121983500D01*
X153586500Y-121983500D01*
X153586500Y-121856500D01*
X153606500Y-121856500D01*
X153606500Y-119443500D01*
X153733500Y-119443500D01*
X153733500Y-121856500D01*
X155192306Y-121856500D01*
X155339221Y-121629025D01*
X155281627Y-121419757D01*
X154985631Y-120932172D01*
X154600651Y-120650000D01*
X154985631Y-120367828D01*
X155281627Y-119880243D01*
X155339221Y-119670975D01*
X155192306Y-119443500D01*
X153733500Y-119443500D01*
X153606500Y-119443500D01*
X153586500Y-119443500D01*
X153586500Y-119316500D01*
X153606500Y-119316500D01*
X153606500Y-116903500D01*
X153733500Y-116903500D01*
X153733500Y-119316500D01*
X155192306Y-119316500D01*
X155339221Y-119089025D01*
X155281627Y-118879757D01*
X154985631Y-118392172D01*
X154600651Y-118110000D01*
X154985631Y-117827828D01*
X155281627Y-117340243D01*
X155339221Y-117130975D01*
X155192306Y-116903500D01*
X153733500Y-116903500D01*
X153606500Y-116903500D01*
X153586500Y-116903500D01*
X153586500Y-116776500D01*
X153606500Y-116776500D01*
X153606500Y-114363500D01*
X153733500Y-114363500D01*
X153733500Y-116776500D01*
X155192306Y-116776500D01*
X155339221Y-116549025D01*
X155281627Y-116339757D01*
X154985631Y-115852172D01*
X154600651Y-115570000D01*
X154985631Y-115287828D01*
X155281627Y-114800243D01*
X155339221Y-114590975D01*
X155192306Y-114363500D01*
X153733500Y-114363500D01*
X153606500Y-114363500D01*
X153586500Y-114363500D01*
X153586500Y-114236500D01*
X153606500Y-114236500D01*
X153606500Y-111823500D01*
X153733500Y-111823500D01*
X153733500Y-114236500D01*
X155192306Y-114236500D01*
X155339221Y-114009025D01*
X155281627Y-113799757D01*
X154985631Y-113312172D01*
X154600651Y-113030000D01*
X154985631Y-112747828D01*
X155281627Y-112260243D01*
X155339221Y-112050975D01*
X155192306Y-111823500D01*
X153733500Y-111823500D01*
X153606500Y-111823500D01*
X153586500Y-111823500D01*
X153586500Y-111696500D01*
X153606500Y-111696500D01*
X153606500Y-111676500D01*
X153733500Y-111676500D01*
X153733500Y-111696500D01*
X155192306Y-111696500D01*
X155339221Y-111469025D01*
X155281627Y-111259757D01*
X154985631Y-110772172D01*
X154933671Y-110734088D01*
X155250877Y-110522137D01*
X155650064Y-109924712D01*
X155790240Y-109220000D01*
X155650064Y-108515288D01*
X155272350Y-107950000D01*
X155650064Y-107384712D01*
X155790240Y-106680000D01*
X155650064Y-105975288D01*
X155272350Y-105410000D01*
X155650064Y-104844712D01*
X155790240Y-104140000D01*
X155650064Y-103435288D01*
X155272350Y-102870000D01*
X155650064Y-102304712D01*
X155790240Y-101600000D01*
X155650064Y-100895288D01*
X155272350Y-100330000D01*
X155650064Y-99764712D01*
X155790240Y-99060000D01*
X155650064Y-98355288D01*
X155272350Y-97790000D01*
X155650064Y-97224712D01*
X155790240Y-96520000D01*
X155650064Y-95815288D01*
X155272350Y-95250000D01*
X155650064Y-94684712D01*
X155790240Y-93980000D01*
X155650064Y-93275288D01*
X155250877Y-92677863D01*
X154933671Y-92465912D01*
X154985631Y-92427828D01*
X155281627Y-91940243D01*
X155339221Y-91730975D01*
X155192306Y-91503500D01*
X153733500Y-91503500D01*
X153733500Y-91523500D01*
X153606500Y-91523500D01*
X153606500Y-91503500D01*
X153586500Y-91503500D01*
X153586500Y-91376500D01*
X153606500Y-91376500D01*
X153606500Y-91356500D01*
X153733500Y-91356500D01*
X153733500Y-91376500D01*
X155192306Y-91376500D01*
X155339221Y-91149025D01*
X155281627Y-90939757D01*
X154985631Y-90452172D01*
X154933671Y-90414088D01*
X155250877Y-90202137D01*
X155650064Y-89604712D01*
X155790240Y-88900000D01*
X155650064Y-88195288D01*
X155384500Y-87797844D01*
X155384500Y-86868000D01*
X155253991Y-86211889D01*
X154882335Y-85655665D01*
X154882332Y-85655663D01*
X147484070Y-78257400D01*
X158115000Y-78257400D01*
X158115000Y-159715200D01*
X158115000Y-159715200D01*
G37*
X158115000Y-159715200D02*
X157321044Y-159715200D01*
X157780954Y-159256091D01*
X158098129Y-158492251D01*
X158098850Y-157665178D01*
X157783010Y-156900785D01*
X157198691Y-156315446D01*
X156434851Y-155998271D01*
X155607778Y-155997550D01*
X154843385Y-156313390D01*
X154794289Y-156362400D01*
X153943563Y-156362400D01*
X153896691Y-156315446D01*
X153132851Y-155998271D01*
X152305778Y-155997550D01*
X151541385Y-156313390D01*
X151492289Y-156362400D01*
X150616185Y-156362400D01*
X150581991Y-156328146D01*
X149818151Y-156010971D01*
X148991078Y-156010250D01*
X148226685Y-156326090D01*
X147641346Y-156910409D01*
X147343131Y-157628589D01*
X146613049Y-157628589D01*
X149407038Y-154834601D01*
X153102299Y-154834601D01*
X153661208Y-154723427D01*
X154135028Y-154406830D01*
X156005980Y-152535879D01*
X156431222Y-152536250D01*
X157195615Y-152220410D01*
X157780954Y-151636091D01*
X158098129Y-150872251D01*
X158098850Y-150045178D01*
X157783010Y-149280785D01*
X157527520Y-149024849D01*
X157527520Y-131826020D01*
X157461835Y-131495799D01*
X157426013Y-131315711D01*
X157136947Y-130883093D01*
X155789343Y-129535489D01*
X155650064Y-128835288D01*
X155250877Y-128237863D01*
X154933671Y-128025912D01*
X154985631Y-127987828D01*
X155281627Y-127500243D01*
X155339221Y-127290975D01*
X155192306Y-127063500D01*
X153733500Y-127063500D01*
X153733500Y-127083500D01*
X153606500Y-127083500D01*
X153606500Y-127063500D01*
X153586500Y-127063500D01*
X153586500Y-126936500D01*
X153606500Y-126936500D01*
X153606500Y-124523500D01*
X153733500Y-124523500D01*
X153733500Y-126936500D01*
X155192306Y-126936500D01*
X155339221Y-126709025D01*
X155281627Y-126499757D01*
X154985631Y-126012172D01*
X154600651Y-125730000D01*
X154985631Y-125447828D01*
X155281627Y-124960243D01*
X155339221Y-124750975D01*
X155192306Y-124523500D01*
X153733500Y-124523500D01*
X153606500Y-124523500D01*
X153586500Y-124523500D01*
X153586500Y-124396500D01*
X153606500Y-124396500D01*
X153606500Y-121983500D01*
X153733500Y-121983500D01*
X153733500Y-124396500D01*
X155192306Y-124396500D01*
X155339221Y-124169025D01*
X155281627Y-123959757D01*
X154985631Y-123472172D01*
X154600651Y-123190000D01*
X154985631Y-122907828D01*
X155281627Y-122420243D01*
X155339221Y-122210975D01*
X155192306Y-121983500D01*
X153733500Y-121983500D01*
X153606500Y-121983500D01*
X153586500Y-121983500D01*
X153586500Y-121856500D01*
X153606500Y-121856500D01*
X153606500Y-119443500D01*
X153733500Y-119443500D01*
X153733500Y-121856500D01*
X155192306Y-121856500D01*
X155339221Y-121629025D01*
X155281627Y-121419757D01*
X154985631Y-120932172D01*
X154600651Y-120650000D01*
X154985631Y-120367828D01*
X155281627Y-119880243D01*
X155339221Y-119670975D01*
X155192306Y-119443500D01*
X153733500Y-119443500D01*
X153606500Y-119443500D01*
X153586500Y-119443500D01*
X153586500Y-119316500D01*
X153606500Y-119316500D01*
X153606500Y-116903500D01*
X153733500Y-116903500D01*
X153733500Y-119316500D01*
X155192306Y-119316500D01*
X155339221Y-119089025D01*
X155281627Y-118879757D01*
X154985631Y-118392172D01*
X154600651Y-118110000D01*
X154985631Y-117827828D01*
X155281627Y-117340243D01*
X155339221Y-117130975D01*
X155192306Y-116903500D01*
X153733500Y-116903500D01*
X153606500Y-116903500D01*
X153586500Y-116903500D01*
X153586500Y-116776500D01*
X153606500Y-116776500D01*
X153606500Y-114363500D01*
X153733500Y-114363500D01*
X153733500Y-116776500D01*
X155192306Y-116776500D01*
X155339221Y-116549025D01*
X155281627Y-116339757D01*
X154985631Y-115852172D01*
X154600651Y-115570000D01*
X154985631Y-115287828D01*
X155281627Y-114800243D01*
X155339221Y-114590975D01*
X155192306Y-114363500D01*
X153733500Y-114363500D01*
X153606500Y-114363500D01*
X153586500Y-114363500D01*
X153586500Y-114236500D01*
X153606500Y-114236500D01*
X153606500Y-111823500D01*
X153733500Y-111823500D01*
X153733500Y-114236500D01*
X155192306Y-114236500D01*
X155339221Y-114009025D01*
X155281627Y-113799757D01*
X154985631Y-113312172D01*
X154600651Y-113030000D01*
X154985631Y-112747828D01*
X155281627Y-112260243D01*
X155339221Y-112050975D01*
X155192306Y-111823500D01*
X153733500Y-111823500D01*
X153606500Y-111823500D01*
X153586500Y-111823500D01*
X153586500Y-111696500D01*
X153606500Y-111696500D01*
X153606500Y-111676500D01*
X153733500Y-111676500D01*
X153733500Y-111696500D01*
X155192306Y-111696500D01*
X155339221Y-111469025D01*
X155281627Y-111259757D01*
X154985631Y-110772172D01*
X154933671Y-110734088D01*
X155250877Y-110522137D01*
X155650064Y-109924712D01*
X155790240Y-109220000D01*
X155650064Y-108515288D01*
X155272350Y-107950000D01*
X155650064Y-107384712D01*
X155790240Y-106680000D01*
X155650064Y-105975288D01*
X155272350Y-105410000D01*
X155650064Y-104844712D01*
X155790240Y-104140000D01*
X155650064Y-103435288D01*
X155272350Y-102870000D01*
X155650064Y-102304712D01*
X155790240Y-101600000D01*
X155650064Y-100895288D01*
X155272350Y-100330000D01*
X155650064Y-99764712D01*
X155790240Y-99060000D01*
X155650064Y-98355288D01*
X155272350Y-97790000D01*
X155650064Y-97224712D01*
X155790240Y-96520000D01*
X155650064Y-95815288D01*
X155272350Y-95250000D01*
X155650064Y-94684712D01*
X155790240Y-93980000D01*
X155650064Y-93275288D01*
X155250877Y-92677863D01*
X154933671Y-92465912D01*
X154985631Y-92427828D01*
X155281627Y-91940243D01*
X155339221Y-91730975D01*
X155192306Y-91503500D01*
X153733500Y-91503500D01*
X153733500Y-91523500D01*
X153606500Y-91523500D01*
X153606500Y-91503500D01*
X153586500Y-91503500D01*
X153586500Y-91376500D01*
X153606500Y-91376500D01*
X153606500Y-91356500D01*
X153733500Y-91356500D01*
X153733500Y-91376500D01*
X155192306Y-91376500D01*
X155339221Y-91149025D01*
X155281627Y-90939757D01*
X154985631Y-90452172D01*
X154933671Y-90414088D01*
X155250877Y-90202137D01*
X155650064Y-89604712D01*
X155790240Y-88900000D01*
X155650064Y-88195288D01*
X155384500Y-87797844D01*
X155384500Y-86868000D01*
X155253991Y-86211889D01*
X154882335Y-85655665D01*
X154882332Y-85655663D01*
X147484070Y-78257400D01*
X158115000Y-78257400D01*
X158115000Y-159715200D01*
G36*
X139471769Y-137997902D02*
X139954430Y-137998323D01*
X139863006Y-138457940D01*
X140021260Y-139253535D01*
X140471928Y-139928008D01*
X141146401Y-140378676D01*
X141304044Y-140410033D01*
X141288971Y-140413622D01*
X140751868Y-140802301D01*
X140404391Y-141366934D01*
X140331452Y-141629903D01*
X140475389Y-141894560D01*
X142684500Y-141894560D01*
X142684500Y-141874560D01*
X142811500Y-141874560D01*
X142811500Y-141894560D01*
X142831500Y-141894560D01*
X142831500Y-142021560D01*
X142811500Y-142021560D01*
X142811500Y-143656050D01*
X143562070Y-143656050D01*
X144207029Y-143502498D01*
X144744132Y-143113819D01*
X145091609Y-142549186D01*
X145146576Y-142351010D01*
X147815300Y-145019734D01*
X147815300Y-149116758D01*
X147641346Y-149290409D01*
X147365164Y-149955526D01*
X146292789Y-148883151D01*
X145818969Y-148566554D01*
X145260060Y-148455380D01*
X145030465Y-148455380D01*
X145024072Y-148445812D01*
X144349599Y-147995144D01*
X143554004Y-147836890D01*
X141941996Y-147836890D01*
X141146401Y-147995144D01*
X140471928Y-148445812D01*
X140021260Y-149120285D01*
X139863006Y-149915880D01*
X140021260Y-150711475D01*
X140471928Y-151385948D01*
X141146401Y-151836616D01*
X141304044Y-151867973D01*
X141288971Y-151871562D01*
X140751868Y-152260241D01*
X140404391Y-152824874D01*
X140331452Y-153087843D01*
X140475389Y-153352500D01*
X142684500Y-153352500D01*
X142684500Y-153332500D01*
X142811500Y-153332500D01*
X142811500Y-153352500D01*
X145020611Y-153352500D01*
X145164548Y-153087843D01*
X145091609Y-152824874D01*
X144744132Y-152260241D01*
X144207029Y-151871562D01*
X144191956Y-151867973D01*
X144349599Y-151836616D01*
X144808626Y-151529904D01*
X146542542Y-153263821D01*
X146724992Y-153385730D01*
X144808626Y-155302096D01*
X144349599Y-154995384D01*
X144191956Y-154964027D01*
X144207029Y-154960438D01*
X144744132Y-154571759D01*
X145091609Y-154007126D01*
X145164548Y-153744157D01*
X145020611Y-153479500D01*
X142811500Y-153479500D01*
X142811500Y-153499500D01*
X142684500Y-153499500D01*
X142684500Y-153479500D01*
X140475389Y-153479500D01*
X140331452Y-153744157D01*
X140404391Y-154007126D01*
X140751868Y-154571759D01*
X141288971Y-154960438D01*
X141304044Y-154964027D01*
X141146401Y-154995384D01*
X140471928Y-155446052D01*
X140179750Y-155883328D01*
X139293600Y-154997179D01*
X139293600Y-142286217D01*
X140331452Y-142286217D01*
X140404391Y-142549186D01*
X140751868Y-143113819D01*
X141288971Y-143502498D01*
X141933930Y-143656050D01*
X142684500Y-143656050D01*
X142684500Y-142021560D01*
X140475389Y-142021560D01*
X140331452Y-142286217D01*
X139293600Y-142286217D01*
X139293600Y-137923920D01*
X139471769Y-137997902D01*
X139471769Y-137997902D01*
G37*
X139471769Y-137997902D02*
X139954430Y-137998323D01*
X139863006Y-138457940D01*
X140021260Y-139253535D01*
X140471928Y-139928008D01*
X141146401Y-140378676D01*
X141304044Y-140410033D01*
X141288971Y-140413622D01*
X140751868Y-140802301D01*
X140404391Y-141366934D01*
X140331452Y-141629903D01*
X140475389Y-141894560D01*
X142684500Y-141894560D01*
X142684500Y-141874560D01*
X142811500Y-141874560D01*
X142811500Y-141894560D01*
X142831500Y-141894560D01*
X142831500Y-142021560D01*
X142811500Y-142021560D01*
X142811500Y-143656050D01*
X143562070Y-143656050D01*
X144207029Y-143502498D01*
X144744132Y-143113819D01*
X145091609Y-142549186D01*
X145146576Y-142351010D01*
X147815300Y-145019734D01*
X147815300Y-149116758D01*
X147641346Y-149290409D01*
X147365164Y-149955526D01*
X146292789Y-148883151D01*
X145818969Y-148566554D01*
X145260060Y-148455380D01*
X145030465Y-148455380D01*
X145024072Y-148445812D01*
X144349599Y-147995144D01*
X143554004Y-147836890D01*
X141941996Y-147836890D01*
X141146401Y-147995144D01*
X140471928Y-148445812D01*
X140021260Y-149120285D01*
X139863006Y-149915880D01*
X140021260Y-150711475D01*
X140471928Y-151385948D01*
X141146401Y-151836616D01*
X141304044Y-151867973D01*
X141288971Y-151871562D01*
X140751868Y-152260241D01*
X140404391Y-152824874D01*
X140331452Y-153087843D01*
X140475389Y-153352500D01*
X142684500Y-153352500D01*
X142684500Y-153332500D01*
X142811500Y-153332500D01*
X142811500Y-153352500D01*
X145020611Y-153352500D01*
X145164548Y-153087843D01*
X145091609Y-152824874D01*
X144744132Y-152260241D01*
X144207029Y-151871562D01*
X144191956Y-151867973D01*
X144349599Y-151836616D01*
X144808626Y-151529904D01*
X146542542Y-153263821D01*
X146724992Y-153385730D01*
X144808626Y-155302096D01*
X144349599Y-154995384D01*
X144191956Y-154964027D01*
X144207029Y-154960438D01*
X144744132Y-154571759D01*
X145091609Y-154007126D01*
X145164548Y-153744157D01*
X145020611Y-153479500D01*
X142811500Y-153479500D01*
X142811500Y-153499500D01*
X142684500Y-153499500D01*
X142684500Y-153479500D01*
X140475389Y-153479500D01*
X140331452Y-153744157D01*
X140404391Y-154007126D01*
X140751868Y-154571759D01*
X141288971Y-154960438D01*
X141304044Y-154964027D01*
X141146401Y-154995384D01*
X140471928Y-155446052D01*
X140179750Y-155883328D01*
X139293600Y-154997179D01*
X139293600Y-142286217D01*
X140331452Y-142286217D01*
X140404391Y-142549186D01*
X140751868Y-143113819D01*
X141288971Y-143502498D01*
X141933930Y-143656050D01*
X142684500Y-143656050D01*
X142684500Y-142021560D01*
X140475389Y-142021560D01*
X140331452Y-142286217D01*
X139293600Y-142286217D01*
X139293600Y-137923920D01*
X139471769Y-137997902D01*
G36*
X153733500Y-134556500D02*
X153753500Y-134556500D01*
X153753500Y-134683500D01*
X153733500Y-134683500D01*
X153733500Y-137096500D01*
X153753500Y-137096500D01*
X153753500Y-137223500D01*
X153733500Y-137223500D01*
X153733500Y-138620500D01*
X153971500Y-138620500D01*
X153971510Y-138620498D01*
X153971510Y-147317036D01*
X152910469Y-148378077D01*
X152305778Y-148377550D01*
X151541385Y-148693390D01*
X151053473Y-149180451D01*
X150990300Y-149117168D01*
X150990300Y-144362170D01*
X150869459Y-143754660D01*
X150525332Y-143239638D01*
X150365443Y-143079749D01*
X150695654Y-143079749D01*
X150742377Y-143335770D01*
X151239419Y-143537627D01*
X151775873Y-143533909D01*
X152254223Y-143335770D01*
X152300946Y-143079749D01*
X151498300Y-142277103D01*
X150695654Y-143079749D01*
X150365443Y-143079749D01*
X148636547Y-141350853D01*
X149145439Y-141351297D01*
X149637939Y-141147800D01*
X150122353Y-141147800D01*
X150420086Y-141351232D01*
X150594951Y-141386643D01*
X150349830Y-141431377D01*
X150147973Y-141928419D01*
X150151691Y-142464873D01*
X150349830Y-142943223D01*
X150605851Y-142989946D01*
X151408497Y-142187300D01*
X151394355Y-142173158D01*
X151484158Y-142083355D01*
X151498300Y-142097497D01*
X151512442Y-142083355D01*
X151602245Y-142173158D01*
X151588103Y-142187300D01*
X152390749Y-142989946D01*
X152646770Y-142943223D01*
X152848627Y-142446181D01*
X152844909Y-141909727D01*
X152646770Y-141431377D01*
X152411454Y-141388433D01*
X152548339Y-141362676D01*
X152915750Y-141126253D01*
X153162232Y-140765514D01*
X153248948Y-140337300D01*
X153248948Y-139037300D01*
X153173676Y-138637261D01*
X153124501Y-138560841D01*
X153368500Y-138620500D01*
X153606500Y-138620500D01*
X153606500Y-137223500D01*
X153586500Y-137223500D01*
X153586500Y-137096500D01*
X153606500Y-137096500D01*
X153606500Y-134683500D01*
X153586500Y-134683500D01*
X153586500Y-134556500D01*
X153606500Y-134556500D01*
X153606500Y-134536500D01*
X153733500Y-134536500D01*
X153733500Y-134556500D01*
X153733500Y-134556500D01*
G37*
X153733500Y-134556500D02*
X153753500Y-134556500D01*
X153753500Y-134683500D01*
X153733500Y-134683500D01*
X153733500Y-137096500D01*
X153753500Y-137096500D01*
X153753500Y-137223500D01*
X153733500Y-137223500D01*
X153733500Y-138620500D01*
X153971500Y-138620500D01*
X153971510Y-138620498D01*
X153971510Y-147317036D01*
X152910469Y-148378077D01*
X152305778Y-148377550D01*
X151541385Y-148693390D01*
X151053473Y-149180451D01*
X150990300Y-149117168D01*
X150990300Y-144362170D01*
X150869459Y-143754660D01*
X150525332Y-143239638D01*
X150365443Y-143079749D01*
X150695654Y-143079749D01*
X150742377Y-143335770D01*
X151239419Y-143537627D01*
X151775873Y-143533909D01*
X152254223Y-143335770D01*
X152300946Y-143079749D01*
X151498300Y-142277103D01*
X150695654Y-143079749D01*
X150365443Y-143079749D01*
X148636547Y-141350853D01*
X149145439Y-141351297D01*
X149637939Y-141147800D01*
X150122353Y-141147800D01*
X150420086Y-141351232D01*
X150594951Y-141386643D01*
X150349830Y-141431377D01*
X150147973Y-141928419D01*
X150151691Y-142464873D01*
X150349830Y-142943223D01*
X150605851Y-142989946D01*
X151408497Y-142187300D01*
X151394355Y-142173158D01*
X151484158Y-142083355D01*
X151498300Y-142097497D01*
X151512442Y-142083355D01*
X151602245Y-142173158D01*
X151588103Y-142187300D01*
X152390749Y-142989946D01*
X152646770Y-142943223D01*
X152848627Y-142446181D01*
X152844909Y-141909727D01*
X152646770Y-141431377D01*
X152411454Y-141388433D01*
X152548339Y-141362676D01*
X152915750Y-141126253D01*
X153162232Y-140765514D01*
X153248948Y-140337300D01*
X153248948Y-139037300D01*
X153173676Y-138637261D01*
X153124501Y-138560841D01*
X153368500Y-138620500D01*
X153606500Y-138620500D01*
X153606500Y-137223500D01*
X153586500Y-137223500D01*
X153586500Y-137096500D01*
X153606500Y-137096500D01*
X153606500Y-134683500D01*
X153586500Y-134683500D01*
X153586500Y-134556500D01*
X153606500Y-134556500D01*
X153606500Y-134536500D01*
X153733500Y-134536500D01*
X153733500Y-134556500D01*
G36*
X89471500Y-140144500D02*
X89491500Y-140144500D01*
X89491500Y-140271500D01*
X89471500Y-140271500D01*
X89471500Y-141595475D01*
X89646125Y-141770100D01*
X89979501Y-141770100D01*
X89979501Y-142072633D01*
X89666881Y-141945673D01*
X89130427Y-141949391D01*
X88652077Y-142147530D01*
X88605354Y-142403551D01*
X89408000Y-143206197D01*
X89422142Y-143192055D01*
X89511945Y-143281858D01*
X89497803Y-143296000D01*
X89511945Y-143310142D01*
X89422142Y-143399945D01*
X89408000Y-143385803D01*
X89393858Y-143399945D01*
X89304055Y-143310142D01*
X89318197Y-143296000D01*
X88515551Y-142493354D01*
X88259530Y-142540077D01*
X88057673Y-143037119D01*
X88061391Y-143573573D01*
X88237050Y-143997652D01*
X88145324Y-143934978D01*
X87717110Y-143848262D01*
X86017850Y-143848262D01*
X85617811Y-143923534D01*
X85250400Y-144159957D01*
X85003918Y-144520696D01*
X84917202Y-144948910D01*
X84917202Y-146046943D01*
X82689700Y-143819442D01*
X82689700Y-143147273D01*
X82808805Y-142860436D01*
X82808810Y-142854951D01*
X82812079Y-142854954D01*
X83101663Y-142735300D01*
X84328000Y-142735300D01*
X84886909Y-142624126D01*
X85360729Y-142307529D01*
X85940079Y-141728179D01*
X86365322Y-141728550D01*
X87129715Y-141412710D01*
X87693500Y-140849907D01*
X87693500Y-141210540D01*
X87799840Y-141467268D01*
X87996331Y-141663760D01*
X88253059Y-141770100D01*
X89169875Y-141770100D01*
X89344500Y-141595475D01*
X89344500Y-140271500D01*
X89324500Y-140271500D01*
X89324500Y-140144500D01*
X89344500Y-140144500D01*
X89344500Y-140124500D01*
X89471500Y-140124500D01*
X89471500Y-140144500D01*
X89471500Y-140144500D01*
G37*
X89471500Y-140144500D02*
X89491500Y-140144500D01*
X89491500Y-140271500D01*
X89471500Y-140271500D01*
X89471500Y-141595475D01*
X89646125Y-141770100D01*
X89979501Y-141770100D01*
X89979501Y-142072633D01*
X89666881Y-141945673D01*
X89130427Y-141949391D01*
X88652077Y-142147530D01*
X88605354Y-142403551D01*
X89408000Y-143206197D01*
X89422142Y-143192055D01*
X89511945Y-143281858D01*
X89497803Y-143296000D01*
X89511945Y-143310142D01*
X89422142Y-143399945D01*
X89408000Y-143385803D01*
X89393858Y-143399945D01*
X89304055Y-143310142D01*
X89318197Y-143296000D01*
X88515551Y-142493354D01*
X88259530Y-142540077D01*
X88057673Y-143037119D01*
X88061391Y-143573573D01*
X88237050Y-143997652D01*
X88145324Y-143934978D01*
X87717110Y-143848262D01*
X86017850Y-143848262D01*
X85617811Y-143923534D01*
X85250400Y-144159957D01*
X85003918Y-144520696D01*
X84917202Y-144948910D01*
X84917202Y-146046943D01*
X82689700Y-143819442D01*
X82689700Y-143147273D01*
X82808805Y-142860436D01*
X82808810Y-142854951D01*
X82812079Y-142854954D01*
X83101663Y-142735300D01*
X84328000Y-142735300D01*
X84886909Y-142624126D01*
X85360729Y-142307529D01*
X85940079Y-141728179D01*
X86365322Y-141728550D01*
X87129715Y-141412710D01*
X87693500Y-140849907D01*
X87693500Y-141210540D01*
X87799840Y-141467268D01*
X87996331Y-141663760D01*
X88253059Y-141770100D01*
X89169875Y-141770100D01*
X89344500Y-141595475D01*
X89344500Y-140271500D01*
X89324500Y-140271500D01*
X89324500Y-140144500D01*
X89344500Y-140144500D01*
X89344500Y-140124500D01*
X89471500Y-140124500D01*
X89471500Y-140144500D01*
G36*
X78746329Y-133594088D02*
X78694369Y-133632172D01*
X78398373Y-134119757D01*
X78340779Y-134329025D01*
X78487694Y-134556500D01*
X79946500Y-134556500D01*
X79946500Y-134536500D01*
X80073500Y-134536500D01*
X80073500Y-134556500D01*
X80093500Y-134556500D01*
X80093500Y-134683500D01*
X80073500Y-134683500D01*
X80073500Y-137096500D01*
X80093500Y-137096500D01*
X80093500Y-137223500D01*
X80073500Y-137223500D01*
X80073500Y-138620500D01*
X80311500Y-138620500D01*
X80865576Y-138485026D01*
X80945349Y-138426556D01*
X80969123Y-138462137D01*
X81566548Y-138861324D01*
X82271260Y-139001500D01*
X82828740Y-139001500D01*
X83533452Y-138861324D01*
X83988905Y-138557000D01*
X84156024Y-138557000D01*
X83874971Y-139233849D01*
X83874597Y-139662745D01*
X83723042Y-139814300D01*
X83101673Y-139814300D01*
X82814836Y-139695195D01*
X82186321Y-139694646D01*
X81605439Y-139934662D01*
X81160624Y-140378701D01*
X81024572Y-140706350D01*
X80984105Y-140608653D01*
X80743605Y-140580198D01*
X80049003Y-141274800D01*
X80063145Y-141288942D01*
X79973342Y-141378745D01*
X79959200Y-141364603D01*
X79264598Y-142059205D01*
X79293053Y-142299705D01*
X79649409Y-142442037D01*
X79649046Y-142857679D01*
X79768700Y-143147263D01*
X79768700Y-143819441D01*
X79250102Y-144338040D01*
X77975351Y-144338040D01*
X77801671Y-144164057D01*
X77092891Y-143869745D01*
X76325436Y-143869076D01*
X76302349Y-143878615D01*
X76302349Y-142499505D01*
X76413431Y-142388423D01*
X77018122Y-142388950D01*
X77782515Y-142073110D01*
X78367854Y-141488791D01*
X78549402Y-141051574D01*
X78757388Y-141051574D01*
X78763446Y-141528480D01*
X78934295Y-141940947D01*
X79174795Y-141969402D01*
X79869397Y-141274800D01*
X79174795Y-140580198D01*
X78934295Y-140608653D01*
X78757388Y-141051574D01*
X78549402Y-141051574D01*
X78685029Y-140724951D01*
X78685233Y-140490395D01*
X79264598Y-140490395D01*
X79959200Y-141184997D01*
X80653802Y-140490395D01*
X80625347Y-140249895D01*
X80182426Y-140072988D01*
X79705520Y-140079046D01*
X79293053Y-140249895D01*
X79264598Y-140490395D01*
X78685233Y-140490395D01*
X78685750Y-139897878D01*
X78369910Y-139133485D01*
X77785591Y-138548146D01*
X77021751Y-138230971D01*
X76592856Y-138230597D01*
X75984099Y-137621841D01*
X75984099Y-137450975D01*
X78340779Y-137450975D01*
X78398373Y-137660243D01*
X78694369Y-138147828D01*
X79154424Y-138485026D01*
X79708500Y-138620500D01*
X79946500Y-138620500D01*
X79946500Y-137223500D01*
X78487694Y-137223500D01*
X78340779Y-137450975D01*
X75984099Y-137450975D01*
X75984099Y-134910975D01*
X78340779Y-134910975D01*
X78398373Y-135120243D01*
X78694369Y-135607828D01*
X79079349Y-135890000D01*
X78694369Y-136172172D01*
X78398373Y-136659757D01*
X78340779Y-136869025D01*
X78487694Y-137096500D01*
X79946500Y-137096500D01*
X79946500Y-134683500D01*
X78487694Y-134683500D01*
X78340779Y-134910975D01*
X75984099Y-134910975D01*
X75984099Y-134682296D01*
X76191049Y-134768229D01*
X77018122Y-134768950D01*
X77782515Y-134453110D01*
X78367854Y-133868791D01*
X78539349Y-133455787D01*
X78746329Y-133594088D01*
X78746329Y-133594088D01*
G37*
X78746329Y-133594088D02*
X78694369Y-133632172D01*
X78398373Y-134119757D01*
X78340779Y-134329025D01*
X78487694Y-134556500D01*
X79946500Y-134556500D01*
X79946500Y-134536500D01*
X80073500Y-134536500D01*
X80073500Y-134556500D01*
X80093500Y-134556500D01*
X80093500Y-134683500D01*
X80073500Y-134683500D01*
X80073500Y-137096500D01*
X80093500Y-137096500D01*
X80093500Y-137223500D01*
X80073500Y-137223500D01*
X80073500Y-138620500D01*
X80311500Y-138620500D01*
X80865576Y-138485026D01*
X80945349Y-138426556D01*
X80969123Y-138462137D01*
X81566548Y-138861324D01*
X82271260Y-139001500D01*
X82828740Y-139001500D01*
X83533452Y-138861324D01*
X83988905Y-138557000D01*
X84156024Y-138557000D01*
X83874971Y-139233849D01*
X83874597Y-139662745D01*
X83723042Y-139814300D01*
X83101673Y-139814300D01*
X82814836Y-139695195D01*
X82186321Y-139694646D01*
X81605439Y-139934662D01*
X81160624Y-140378701D01*
X81024572Y-140706350D01*
X80984105Y-140608653D01*
X80743605Y-140580198D01*
X80049003Y-141274800D01*
X80063145Y-141288942D01*
X79973342Y-141378745D01*
X79959200Y-141364603D01*
X79264598Y-142059205D01*
X79293053Y-142299705D01*
X79649409Y-142442037D01*
X79649046Y-142857679D01*
X79768700Y-143147263D01*
X79768700Y-143819441D01*
X79250102Y-144338040D01*
X77975351Y-144338040D01*
X77801671Y-144164057D01*
X77092891Y-143869745D01*
X76325436Y-143869076D01*
X76302349Y-143878615D01*
X76302349Y-142499505D01*
X76413431Y-142388423D01*
X77018122Y-142388950D01*
X77782515Y-142073110D01*
X78367854Y-141488791D01*
X78549402Y-141051574D01*
X78757388Y-141051574D01*
X78763446Y-141528480D01*
X78934295Y-141940947D01*
X79174795Y-141969402D01*
X79869397Y-141274800D01*
X79174795Y-140580198D01*
X78934295Y-140608653D01*
X78757388Y-141051574D01*
X78549402Y-141051574D01*
X78685029Y-140724951D01*
X78685233Y-140490395D01*
X79264598Y-140490395D01*
X79959200Y-141184997D01*
X80653802Y-140490395D01*
X80625347Y-140249895D01*
X80182426Y-140072988D01*
X79705520Y-140079046D01*
X79293053Y-140249895D01*
X79264598Y-140490395D01*
X78685233Y-140490395D01*
X78685750Y-139897878D01*
X78369910Y-139133485D01*
X77785591Y-138548146D01*
X77021751Y-138230971D01*
X76592856Y-138230597D01*
X75984099Y-137621841D01*
X75984099Y-137450975D01*
X78340779Y-137450975D01*
X78398373Y-137660243D01*
X78694369Y-138147828D01*
X79154424Y-138485026D01*
X79708500Y-138620500D01*
X79946500Y-138620500D01*
X79946500Y-137223500D01*
X78487694Y-137223500D01*
X78340779Y-137450975D01*
X75984099Y-137450975D01*
X75984099Y-134910975D01*
X78340779Y-134910975D01*
X78398373Y-135120243D01*
X78694369Y-135607828D01*
X79079349Y-135890000D01*
X78694369Y-136172172D01*
X78398373Y-136659757D01*
X78340779Y-136869025D01*
X78487694Y-137096500D01*
X79946500Y-137096500D01*
X79946500Y-134683500D01*
X78487694Y-134683500D01*
X78340779Y-134910975D01*
X75984099Y-134910975D01*
X75984099Y-134682296D01*
X76191049Y-134768229D01*
X77018122Y-134768950D01*
X77782515Y-134453110D01*
X78367854Y-133868791D01*
X78539349Y-133455787D01*
X78746329Y-133594088D01*
G36*
X100647945Y-129525858D02*
X100633803Y-129540000D01*
X101436449Y-130342646D01*
X101674631Y-130299179D01*
X101717239Y-130513383D01*
X101957863Y-130873500D01*
X101978776Y-130904799D01*
X103416616Y-132342639D01*
X103251298Y-132740769D01*
X103250877Y-133223000D01*
X98777594Y-133223000D01*
X96821189Y-131266595D01*
X96850563Y-131254458D01*
X96927430Y-131177725D01*
X96965786Y-131203932D01*
X97394000Y-131290648D01*
X98694000Y-131290648D01*
X99094039Y-131215376D01*
X99461450Y-130978953D01*
X99707932Y-130618214D01*
X99743343Y-130443349D01*
X99788077Y-130688470D01*
X100285119Y-130890327D01*
X100821573Y-130886609D01*
X101299923Y-130688470D01*
X101346646Y-130432449D01*
X100544000Y-129629803D01*
X100529858Y-129643945D01*
X100440055Y-129554142D01*
X100454197Y-129540000D01*
X100440055Y-129525858D01*
X100529858Y-129436055D01*
X100544000Y-129450197D01*
X100558142Y-129436055D01*
X100647945Y-129525858D01*
X100647945Y-129525858D01*
G37*
X100647945Y-129525858D02*
X100633803Y-129540000D01*
X101436449Y-130342646D01*
X101674631Y-130299179D01*
X101717239Y-130513383D01*
X101957863Y-130873500D01*
X101978776Y-130904799D01*
X103416616Y-132342639D01*
X103251298Y-132740769D01*
X103250877Y-133223000D01*
X98777594Y-133223000D01*
X96821189Y-131266595D01*
X96850563Y-131254458D01*
X96927430Y-131177725D01*
X96965786Y-131203932D01*
X97394000Y-131290648D01*
X98694000Y-131290648D01*
X99094039Y-131215376D01*
X99461450Y-130978953D01*
X99707932Y-130618214D01*
X99743343Y-130443349D01*
X99788077Y-130688470D01*
X100285119Y-130890327D01*
X100821573Y-130886609D01*
X101299923Y-130688470D01*
X101346646Y-130432449D01*
X100544000Y-129629803D01*
X100529858Y-129643945D01*
X100440055Y-129554142D01*
X100454197Y-129540000D01*
X100440055Y-129525858D01*
X100529858Y-129436055D01*
X100544000Y-129450197D01*
X100558142Y-129436055D01*
X100647945Y-129525858D01*
G36*
X135042909Y-128836275D02*
X135149249Y-129370884D01*
X135452081Y-129824103D01*
X136205171Y-130577193D01*
X136118898Y-130784960D01*
X136118433Y-131318001D01*
X126830257Y-131318001D01*
X128856681Y-129291577D01*
X130082552Y-129291577D01*
X130155491Y-129554546D01*
X130502968Y-130119179D01*
X131040071Y-130507858D01*
X131685030Y-130661410D01*
X132435600Y-130661410D01*
X132435600Y-129026920D01*
X132562600Y-129026920D01*
X132562600Y-130661410D01*
X133313170Y-130661410D01*
X133958129Y-130507858D01*
X134495232Y-130119179D01*
X134842709Y-129554546D01*
X134915648Y-129291577D01*
X134771711Y-129026920D01*
X132562600Y-129026920D01*
X132435600Y-129026920D01*
X130226489Y-129026920D01*
X130082552Y-129291577D01*
X128856681Y-129291577D01*
X130817607Y-127330652D01*
X130897501Y-127384036D01*
X131055144Y-127415393D01*
X131040071Y-127418982D01*
X130502968Y-127807661D01*
X130155491Y-128372294D01*
X130082552Y-128635263D01*
X130226489Y-128899920D01*
X132435600Y-128899920D01*
X132435600Y-128879920D01*
X132562600Y-128879920D01*
X132562600Y-128899920D01*
X134771711Y-128899920D01*
X134915648Y-128635263D01*
X134842709Y-128372294D01*
X134495232Y-127807661D01*
X133958129Y-127418982D01*
X133943056Y-127415393D01*
X134100699Y-127384036D01*
X134775172Y-126933368D01*
X135042909Y-126532671D01*
X135042909Y-128836275D01*
X135042909Y-128836275D01*
G37*
X135042909Y-128836275D02*
X135149249Y-129370884D01*
X135452081Y-129824103D01*
X136205171Y-130577193D01*
X136118898Y-130784960D01*
X136118433Y-131318001D01*
X126830257Y-131318001D01*
X128856681Y-129291577D01*
X130082552Y-129291577D01*
X130155491Y-129554546D01*
X130502968Y-130119179D01*
X131040071Y-130507858D01*
X131685030Y-130661410D01*
X132435600Y-130661410D01*
X132435600Y-129026920D01*
X132562600Y-129026920D01*
X132562600Y-130661410D01*
X133313170Y-130661410D01*
X133958129Y-130507858D01*
X134495232Y-130119179D01*
X134842709Y-129554546D01*
X134915648Y-129291577D01*
X134771711Y-129026920D01*
X132562600Y-129026920D01*
X132435600Y-129026920D01*
X130226489Y-129026920D01*
X130082552Y-129291577D01*
X128856681Y-129291577D01*
X130817607Y-127330652D01*
X130897501Y-127384036D01*
X131055144Y-127415393D01*
X131040071Y-127418982D01*
X130502968Y-127807661D01*
X130155491Y-128372294D01*
X130082552Y-128635263D01*
X130226489Y-128899920D01*
X132435600Y-128899920D01*
X132435600Y-128879920D01*
X132562600Y-128879920D01*
X132562600Y-128899920D01*
X134771711Y-128899920D01*
X134915648Y-128635263D01*
X134842709Y-128372294D01*
X134495232Y-127807661D01*
X133958129Y-127418982D01*
X133943056Y-127415393D01*
X134100699Y-127384036D01*
X134775172Y-126933368D01*
X135042909Y-126532671D01*
X135042909Y-128836275D01*
G36*
X111520650Y-128431722D02*
X111836490Y-129196115D01*
X112420809Y-129781454D01*
X113184649Y-130098629D01*
X114011722Y-130099350D01*
X114776115Y-129783510D01*
X115361454Y-129199191D01*
X115399702Y-129107080D01*
X115436490Y-129196115D01*
X116020809Y-129781454D01*
X116784649Y-130098629D01*
X117213545Y-130099003D01*
X118432542Y-131318001D01*
X109948515Y-131318001D01*
X109374609Y-130744095D01*
X109392297Y-130665699D01*
X108508800Y-129782203D01*
X108494658Y-129796345D01*
X108404855Y-129706542D01*
X108418997Y-129692400D01*
X108404855Y-129678258D01*
X108494658Y-129588455D01*
X108508800Y-129602597D01*
X108522942Y-129588455D01*
X108612745Y-129678258D01*
X108598603Y-129692400D01*
X109482099Y-130575897D01*
X109749746Y-130515510D01*
X109970275Y-129977965D01*
X109968308Y-129396945D01*
X109749746Y-128869290D01*
X109482102Y-128808904D01*
X109604026Y-128686980D01*
X109591069Y-128674023D01*
X109715909Y-128549400D01*
X110447600Y-128549400D01*
X110982209Y-128443060D01*
X111435428Y-128140228D01*
X111520979Y-128054677D01*
X111520650Y-128431722D01*
X111520650Y-128431722D01*
G37*
X111520650Y-128431722D02*
X111836490Y-129196115D01*
X112420809Y-129781454D01*
X113184649Y-130098629D01*
X114011722Y-130099350D01*
X114776115Y-129783510D01*
X115361454Y-129199191D01*
X115399702Y-129107080D01*
X115436490Y-129196115D01*
X116020809Y-129781454D01*
X116784649Y-130098629D01*
X117213545Y-130099003D01*
X118432542Y-131318001D01*
X109948515Y-131318001D01*
X109374609Y-130744095D01*
X109392297Y-130665699D01*
X108508800Y-129782203D01*
X108494658Y-129796345D01*
X108404855Y-129706542D01*
X108418997Y-129692400D01*
X108404855Y-129678258D01*
X108494658Y-129588455D01*
X108508800Y-129602597D01*
X108522942Y-129588455D01*
X108612745Y-129678258D01*
X108598603Y-129692400D01*
X109482099Y-130575897D01*
X109749746Y-130515510D01*
X109970275Y-129977965D01*
X109968308Y-129396945D01*
X109749746Y-128869290D01*
X109482102Y-128808904D01*
X109604026Y-128686980D01*
X109591069Y-128674023D01*
X109715909Y-128549400D01*
X110447600Y-128549400D01*
X110982209Y-128443060D01*
X111435428Y-128140228D01*
X111520979Y-128054677D01*
X111520650Y-128431722D01*
G36*
X146101435Y-118351742D02*
X145953657Y-118572908D01*
X145805747Y-119316500D01*
X145953657Y-120060092D01*
X146305391Y-120586500D01*
X145953657Y-121112908D01*
X145805747Y-121856500D01*
X145869578Y-122177397D01*
X145717891Y-122025446D01*
X144954051Y-121708271D01*
X144126978Y-121707550D01*
X143362585Y-122023390D01*
X142777246Y-122607709D01*
X142715468Y-122756487D01*
X142635389Y-122732013D01*
X141580503Y-123786900D01*
X142635389Y-124841787D01*
X142715041Y-124817443D01*
X142775190Y-124963015D01*
X143359509Y-125548354D01*
X144123349Y-125865529D01*
X144246600Y-125865636D01*
X144246600Y-128320800D01*
X143405225Y-128320800D01*
X143230600Y-128495425D01*
X143230600Y-129971800D01*
X143250600Y-129971800D01*
X143250600Y-130098800D01*
X143230600Y-130098800D01*
X143230600Y-130118800D01*
X143103600Y-130118800D01*
X143103600Y-130098800D01*
X141627225Y-130098800D01*
X141452600Y-130273425D01*
X141452600Y-130679024D01*
X141274800Y-130248716D01*
X141274800Y-128880360D01*
X141452600Y-128880360D01*
X141452600Y-129797175D01*
X141627225Y-129971800D01*
X143103600Y-129971800D01*
X143103600Y-128495425D01*
X142928975Y-128320800D01*
X142012159Y-128320800D01*
X141755431Y-128427140D01*
X141558940Y-128623632D01*
X141452600Y-128880360D01*
X141274800Y-128880360D01*
X141274800Y-125484338D01*
X141824064Y-125485757D01*
X142448813Y-125228866D01*
X142456249Y-125223897D01*
X142545587Y-124931589D01*
X141490700Y-123876703D01*
X141476558Y-123890845D01*
X141386755Y-123801042D01*
X141400897Y-123786900D01*
X140346011Y-122732013D01*
X140221255Y-122770142D01*
X140168395Y-122642211D01*
X140435813Y-122642211D01*
X141490700Y-123697097D01*
X142545587Y-122642211D01*
X142456249Y-122349903D01*
X141832836Y-122089788D01*
X141157336Y-122088043D01*
X140532587Y-122344934D01*
X140525151Y-122349903D01*
X140435813Y-122642211D01*
X140168395Y-122642211D01*
X140155410Y-122610785D01*
X139571091Y-122025446D01*
X139337188Y-121928320D01*
X141314008Y-119951500D01*
X144030700Y-119951500D01*
X144565309Y-119845160D01*
X145018528Y-119542328D01*
X145526528Y-119034329D01*
X145829360Y-118581109D01*
X145837274Y-118541324D01*
X145928455Y-118082923D01*
X146101435Y-118351742D01*
X146101435Y-118351742D01*
G37*
X146101435Y-118351742D02*
X145953657Y-118572908D01*
X145805747Y-119316500D01*
X145953657Y-120060092D01*
X146305391Y-120586500D01*
X145953657Y-121112908D01*
X145805747Y-121856500D01*
X145869578Y-122177397D01*
X145717891Y-122025446D01*
X144954051Y-121708271D01*
X144126978Y-121707550D01*
X143362585Y-122023390D01*
X142777246Y-122607709D01*
X142715468Y-122756487D01*
X142635389Y-122732013D01*
X141580503Y-123786900D01*
X142635389Y-124841787D01*
X142715041Y-124817443D01*
X142775190Y-124963015D01*
X143359509Y-125548354D01*
X144123349Y-125865529D01*
X144246600Y-125865636D01*
X144246600Y-128320800D01*
X143405225Y-128320800D01*
X143230600Y-128495425D01*
X143230600Y-129971800D01*
X143250600Y-129971800D01*
X143250600Y-130098800D01*
X143230600Y-130098800D01*
X143230600Y-130118800D01*
X143103600Y-130118800D01*
X143103600Y-130098800D01*
X141627225Y-130098800D01*
X141452600Y-130273425D01*
X141452600Y-130679024D01*
X141274800Y-130248716D01*
X141274800Y-128880360D01*
X141452600Y-128880360D01*
X141452600Y-129797175D01*
X141627225Y-129971800D01*
X143103600Y-129971800D01*
X143103600Y-128495425D01*
X142928975Y-128320800D01*
X142012159Y-128320800D01*
X141755431Y-128427140D01*
X141558940Y-128623632D01*
X141452600Y-128880360D01*
X141274800Y-128880360D01*
X141274800Y-125484338D01*
X141824064Y-125485757D01*
X142448813Y-125228866D01*
X142456249Y-125223897D01*
X142545587Y-124931589D01*
X141490700Y-123876703D01*
X141476558Y-123890845D01*
X141386755Y-123801042D01*
X141400897Y-123786900D01*
X140346011Y-122732013D01*
X140221255Y-122770142D01*
X140168395Y-122642211D01*
X140435813Y-122642211D01*
X141490700Y-123697097D01*
X142545587Y-122642211D01*
X142456249Y-122349903D01*
X141832836Y-122089788D01*
X141157336Y-122088043D01*
X140532587Y-122344934D01*
X140525151Y-122349903D01*
X140435813Y-122642211D01*
X140168395Y-122642211D01*
X140155410Y-122610785D01*
X139571091Y-122025446D01*
X139337188Y-121928320D01*
X141314008Y-119951500D01*
X144030700Y-119951500D01*
X144565309Y-119845160D01*
X145018528Y-119542328D01*
X145526528Y-119034329D01*
X145829360Y-118581109D01*
X145837274Y-118541324D01*
X145928455Y-118082923D01*
X146101435Y-118351742D01*
G36*
X121282228Y-123534848D02*
X121701266Y-123814840D01*
X121282228Y-124094832D01*
X120831560Y-124769305D01*
X120673306Y-125564900D01*
X120831560Y-126360495D01*
X121282228Y-127034968D01*
X121956701Y-127485636D01*
X122114344Y-127516993D01*
X122099271Y-127520582D01*
X121562168Y-127909261D01*
X121214691Y-128473894D01*
X121141752Y-128736863D01*
X121285689Y-129001520D01*
X123494800Y-129001520D01*
X123494800Y-128981520D01*
X123621800Y-128981520D01*
X123621800Y-129001520D01*
X123641800Y-129001520D01*
X123641800Y-129128520D01*
X123621800Y-129128520D01*
X123621800Y-129148520D01*
X123494800Y-129148520D01*
X123494800Y-129128520D01*
X121285689Y-129128520D01*
X121156522Y-129366020D01*
X120611479Y-129366020D01*
X119278979Y-128033521D01*
X119279350Y-127608278D01*
X118963510Y-126843885D01*
X118379191Y-126258546D01*
X117706316Y-125979143D01*
X120160179Y-123525280D01*
X121275835Y-123525280D01*
X121282228Y-123534848D01*
X121282228Y-123534848D01*
G37*
X121282228Y-123534848D02*
X121701266Y-123814840D01*
X121282228Y-124094832D01*
X120831560Y-124769305D01*
X120673306Y-125564900D01*
X120831560Y-126360495D01*
X121282228Y-127034968D01*
X121956701Y-127485636D01*
X122114344Y-127516993D01*
X122099271Y-127520582D01*
X121562168Y-127909261D01*
X121214691Y-128473894D01*
X121141752Y-128736863D01*
X121285689Y-129001520D01*
X123494800Y-129001520D01*
X123494800Y-128981520D01*
X123621800Y-128981520D01*
X123621800Y-129001520D01*
X123641800Y-129001520D01*
X123641800Y-129128520D01*
X123621800Y-129128520D01*
X123621800Y-129148520D01*
X123494800Y-129148520D01*
X123494800Y-129128520D01*
X121285689Y-129128520D01*
X121156522Y-129366020D01*
X120611479Y-129366020D01*
X119278979Y-128033521D01*
X119279350Y-127608278D01*
X118963510Y-126843885D01*
X118379191Y-126258546D01*
X117706316Y-125979143D01*
X120160179Y-123525280D01*
X121275835Y-123525280D01*
X121282228Y-123534848D01*
G36*
X103917570Y-104081217D02*
X104399446Y-104563935D01*
X104756963Y-104712389D01*
X102664575Y-106804777D01*
X102403038Y-107196193D01*
X102311199Y-107657901D01*
X102311199Y-121964748D01*
X101912783Y-122129370D01*
X101430065Y-122611246D01*
X101168498Y-123241169D01*
X101167903Y-123923239D01*
X101428370Y-124553617D01*
X101910246Y-125036335D01*
X102540169Y-125297902D01*
X103222239Y-125298497D01*
X103852617Y-125038030D01*
X104335335Y-124556154D01*
X104596902Y-123926231D01*
X104597306Y-123462870D01*
X104632360Y-123410409D01*
X104638309Y-123380500D01*
X104724199Y-122948701D01*
X104724199Y-108157649D01*
X106845334Y-106036514D01*
X106667620Y-106464496D01*
X106666981Y-107197090D01*
X106946742Y-107874163D01*
X107174525Y-108102344D01*
X106948563Y-108327912D01*
X106667620Y-109004496D01*
X106666981Y-109737090D01*
X106946742Y-110414163D01*
X107174525Y-110642344D01*
X106948563Y-110867912D01*
X106667620Y-111544496D01*
X106666981Y-112277090D01*
X106946742Y-112954163D01*
X107174525Y-113182344D01*
X106948563Y-113407912D01*
X106667620Y-114084496D01*
X106666981Y-114817090D01*
X106946742Y-115494163D01*
X107174525Y-115722344D01*
X106948563Y-115947912D01*
X106667620Y-116624496D01*
X106666981Y-117357090D01*
X106946742Y-118034163D01*
X107174525Y-118262344D01*
X106948563Y-118487912D01*
X106667620Y-119164496D01*
X106666981Y-119897090D01*
X106946742Y-120574163D01*
X107174525Y-120802344D01*
X106948563Y-121027912D01*
X106667620Y-121704496D01*
X106666981Y-122437090D01*
X106946742Y-123114163D01*
X107174525Y-123342344D01*
X106948563Y-123567912D01*
X106667620Y-124244496D01*
X106666981Y-124977090D01*
X106946742Y-125654163D01*
X107174525Y-125882344D01*
X106948563Y-126107912D01*
X106667620Y-126784496D01*
X106666981Y-127517090D01*
X106946742Y-128194163D01*
X107426148Y-128674406D01*
X107413574Y-128686980D01*
X107535498Y-128808904D01*
X107457105Y-128826591D01*
X104795086Y-126164572D01*
X104341867Y-125861740D01*
X103807258Y-125755400D01*
X99934925Y-125755400D01*
X100372935Y-125318154D01*
X100634502Y-124688231D01*
X100635097Y-124006161D01*
X100507800Y-123698079D01*
X100507800Y-108866270D01*
X100386959Y-108258760D01*
X100042832Y-107743738D01*
X98008962Y-105709868D01*
X97636207Y-105460801D01*
X101348541Y-105460801D01*
X101810249Y-105368962D01*
X102201665Y-105107425D01*
X103570724Y-103738366D01*
X103647777Y-103623049D01*
X103697507Y-103548623D01*
X103917570Y-104081217D01*
X103917570Y-104081217D01*
G37*
X103917570Y-104081217D02*
X104399446Y-104563935D01*
X104756963Y-104712389D01*
X102664575Y-106804777D01*
X102403038Y-107196193D01*
X102311199Y-107657901D01*
X102311199Y-121964748D01*
X101912783Y-122129370D01*
X101430065Y-122611246D01*
X101168498Y-123241169D01*
X101167903Y-123923239D01*
X101428370Y-124553617D01*
X101910246Y-125036335D01*
X102540169Y-125297902D01*
X103222239Y-125298497D01*
X103852617Y-125038030D01*
X104335335Y-124556154D01*
X104596902Y-123926231D01*
X104597306Y-123462870D01*
X104632360Y-123410409D01*
X104638309Y-123380500D01*
X104724199Y-122948701D01*
X104724199Y-108157649D01*
X106845334Y-106036514D01*
X106667620Y-106464496D01*
X106666981Y-107197090D01*
X106946742Y-107874163D01*
X107174525Y-108102344D01*
X106948563Y-108327912D01*
X106667620Y-109004496D01*
X106666981Y-109737090D01*
X106946742Y-110414163D01*
X107174525Y-110642344D01*
X106948563Y-110867912D01*
X106667620Y-111544496D01*
X106666981Y-112277090D01*
X106946742Y-112954163D01*
X107174525Y-113182344D01*
X106948563Y-113407912D01*
X106667620Y-114084496D01*
X106666981Y-114817090D01*
X106946742Y-115494163D01*
X107174525Y-115722344D01*
X106948563Y-115947912D01*
X106667620Y-116624496D01*
X106666981Y-117357090D01*
X106946742Y-118034163D01*
X107174525Y-118262344D01*
X106948563Y-118487912D01*
X106667620Y-119164496D01*
X106666981Y-119897090D01*
X106946742Y-120574163D01*
X107174525Y-120802344D01*
X106948563Y-121027912D01*
X106667620Y-121704496D01*
X106666981Y-122437090D01*
X106946742Y-123114163D01*
X107174525Y-123342344D01*
X106948563Y-123567912D01*
X106667620Y-124244496D01*
X106666981Y-124977090D01*
X106946742Y-125654163D01*
X107174525Y-125882344D01*
X106948563Y-126107912D01*
X106667620Y-126784496D01*
X106666981Y-127517090D01*
X106946742Y-128194163D01*
X107426148Y-128674406D01*
X107413574Y-128686980D01*
X107535498Y-128808904D01*
X107457105Y-128826591D01*
X104795086Y-126164572D01*
X104341867Y-125861740D01*
X103807258Y-125755400D01*
X99934925Y-125755400D01*
X100372935Y-125318154D01*
X100634502Y-124688231D01*
X100635097Y-124006161D01*
X100507800Y-123698079D01*
X100507800Y-108866270D01*
X100386959Y-108258760D01*
X100042832Y-107743738D01*
X98008962Y-105709868D01*
X97636207Y-105460801D01*
X101348541Y-105460801D01*
X101810249Y-105368962D01*
X102201665Y-105107425D01*
X103570724Y-103738366D01*
X103647777Y-103623049D01*
X103697507Y-103548623D01*
X103917570Y-104081217D01*
G36*
X80073500Y-119316500D02*
X80093500Y-119316500D01*
X80093500Y-119443500D01*
X80073500Y-119443500D01*
X80073500Y-121856500D01*
X80093500Y-121856500D01*
X80093500Y-121983500D01*
X80073500Y-121983500D01*
X80073500Y-122003500D01*
X79946500Y-122003500D01*
X79946500Y-121983500D01*
X78487694Y-121983500D01*
X78340779Y-122210975D01*
X78398373Y-122420243D01*
X78694369Y-122907828D01*
X78746329Y-122945912D01*
X78429123Y-123157863D01*
X78267338Y-123399991D01*
X78163760Y-123149931D01*
X77967268Y-122953440D01*
X77710540Y-122847100D01*
X76793725Y-122847100D01*
X76619100Y-123021725D01*
X76619100Y-124498100D01*
X76639100Y-124498100D01*
X76639100Y-124625100D01*
X76619100Y-124625100D01*
X76619100Y-124645100D01*
X76492100Y-124645100D01*
X76492100Y-124625100D01*
X76472100Y-124625100D01*
X76472100Y-124498100D01*
X76492100Y-124498100D01*
X76492100Y-123021725D01*
X76317475Y-122847100D01*
X75984099Y-122847100D01*
X75984099Y-121607976D01*
X76428969Y-121792702D01*
X77111039Y-121793297D01*
X77741417Y-121532830D01*
X78224135Y-121050954D01*
X78485702Y-120421031D01*
X78486048Y-120024667D01*
X78694369Y-120367828D01*
X79079349Y-120650000D01*
X78694369Y-120932172D01*
X78398373Y-121419757D01*
X78340779Y-121629025D01*
X78487694Y-121856500D01*
X79946500Y-121856500D01*
X79946500Y-119443500D01*
X79926500Y-119443500D01*
X79926500Y-119316500D01*
X79946500Y-119316500D01*
X79946500Y-119296500D01*
X80073500Y-119296500D01*
X80073500Y-119316500D01*
X80073500Y-119316500D01*
G37*
X80073500Y-119316500D02*
X80093500Y-119316500D01*
X80093500Y-119443500D01*
X80073500Y-119443500D01*
X80073500Y-121856500D01*
X80093500Y-121856500D01*
X80093500Y-121983500D01*
X80073500Y-121983500D01*
X80073500Y-122003500D01*
X79946500Y-122003500D01*
X79946500Y-121983500D01*
X78487694Y-121983500D01*
X78340779Y-122210975D01*
X78398373Y-122420243D01*
X78694369Y-122907828D01*
X78746329Y-122945912D01*
X78429123Y-123157863D01*
X78267338Y-123399991D01*
X78163760Y-123149931D01*
X77967268Y-122953440D01*
X77710540Y-122847100D01*
X76793725Y-122847100D01*
X76619100Y-123021725D01*
X76619100Y-124498100D01*
X76639100Y-124498100D01*
X76639100Y-124625100D01*
X76619100Y-124625100D01*
X76619100Y-124645100D01*
X76492100Y-124645100D01*
X76492100Y-124625100D01*
X76472100Y-124625100D01*
X76472100Y-124498100D01*
X76492100Y-124498100D01*
X76492100Y-123021725D01*
X76317475Y-122847100D01*
X75984099Y-122847100D01*
X75984099Y-121607976D01*
X76428969Y-121792702D01*
X77111039Y-121793297D01*
X77741417Y-121532830D01*
X78224135Y-121050954D01*
X78485702Y-120421031D01*
X78486048Y-120024667D01*
X78694369Y-120367828D01*
X79079349Y-120650000D01*
X78694369Y-120932172D01*
X78398373Y-121419757D01*
X78340779Y-121629025D01*
X78487694Y-121856500D01*
X79946500Y-121856500D01*
X79946500Y-119443500D01*
X79926500Y-119443500D01*
X79926500Y-119316500D01*
X79946500Y-119316500D01*
X79946500Y-119296500D01*
X80073500Y-119296500D01*
X80073500Y-119316500D01*
G36*
X118693903Y-93189250D02*
X118823120Y-93501979D01*
X118823120Y-93916500D01*
X118943961Y-94524010D01*
X119288088Y-95039032D01*
X122912529Y-98663473D01*
X122912529Y-105640529D01*
X123033370Y-106248039D01*
X123377497Y-106763061D01*
X125746364Y-109131928D01*
X125746150Y-109377722D01*
X126061990Y-110142115D01*
X126248800Y-110329251D01*
X126248800Y-110456728D01*
X125681828Y-110221301D01*
X124993790Y-110220700D01*
X124357897Y-110483446D01*
X123870956Y-110969538D01*
X123607101Y-111604972D01*
X123606500Y-112293010D01*
X123869246Y-112928903D01*
X124355338Y-113415844D01*
X124990772Y-113679699D01*
X125678810Y-113680300D01*
X126314703Y-113417554D01*
X126384458Y-113347920D01*
X126397347Y-113367950D01*
X126758086Y-113614432D01*
X127186300Y-113701148D01*
X128486300Y-113701148D01*
X128886339Y-113625876D01*
X129253750Y-113389453D01*
X129500232Y-113028714D01*
X129586948Y-112600500D01*
X129586948Y-111300500D01*
X129511676Y-110900461D01*
X129423800Y-110763898D01*
X129423800Y-110680500D01*
X129583937Y-110680500D01*
X129630809Y-110727454D01*
X130394649Y-111044629D01*
X131221722Y-111045350D01*
X131986115Y-110729510D01*
X132571454Y-110145191D01*
X132888629Y-109381351D01*
X132889350Y-108554278D01*
X132573510Y-107789885D01*
X132143500Y-107359124D01*
X132143500Y-106700354D01*
X132988014Y-105855840D01*
X132987835Y-106060771D01*
X133248302Y-106691149D01*
X133624890Y-107068396D01*
X133552073Y-107141213D01*
X133263007Y-107573832D01*
X133161500Y-108084140D01*
X133161500Y-108899069D01*
X133140352Y-109003500D01*
X133140352Y-110146500D01*
X133215624Y-110546539D01*
X133452047Y-110913950D01*
X133812786Y-111160432D01*
X134241000Y-111247148D01*
X134749000Y-111247148D01*
X135143990Y-111172826D01*
X135511000Y-111247148D01*
X135858025Y-111247148D01*
X136092073Y-111597427D01*
X137095973Y-112601327D01*
X137528592Y-112890393D01*
X138038900Y-112991900D01*
X139211201Y-112991900D01*
X139638409Y-113419854D01*
X140402249Y-113737029D01*
X141010906Y-113737560D01*
X141361142Y-114087796D01*
X141078978Y-114087550D01*
X140314585Y-114403390D01*
X140011046Y-114706400D01*
X139871521Y-114706400D01*
X139571091Y-114405446D01*
X138807251Y-114088271D01*
X137980178Y-114087550D01*
X137215785Y-114403390D01*
X137012118Y-114606702D01*
X136667008Y-114376107D01*
X136156700Y-114274600D01*
X133908266Y-114274600D01*
X133903199Y-114269524D01*
X133322736Y-114028495D01*
X132694221Y-114027946D01*
X132113339Y-114267962D01*
X131668524Y-114712001D01*
X131427495Y-115292464D01*
X131427490Y-115297949D01*
X131424221Y-115297946D01*
X130843339Y-115537962D01*
X130836689Y-115544600D01*
X130721100Y-115544600D01*
X130210791Y-115646107D01*
X129778173Y-115935173D01*
X126425373Y-119287973D01*
X126136307Y-119720592D01*
X126034800Y-120230900D01*
X126034800Y-120894674D01*
X125834372Y-120594712D01*
X125159899Y-120144044D01*
X124364304Y-119985790D01*
X122752296Y-119985790D01*
X121956701Y-120144044D01*
X121282228Y-120594712D01*
X121275835Y-120604280D01*
X119555220Y-120604280D01*
X119278765Y-120659270D01*
X119279350Y-119988278D01*
X118963510Y-119223885D01*
X118379191Y-118638546D01*
X118098103Y-118521828D01*
X118166865Y-118493233D01*
X118567200Y-118091782D01*
X118967535Y-118493233D01*
X119530317Y-118727263D01*
X119773700Y-118581788D01*
X119773700Y-117259100D01*
X119900700Y-117259100D01*
X119900700Y-118581788D01*
X120144083Y-118727263D01*
X120706865Y-118493233D01*
X121137248Y-118061650D01*
X121368859Y-117502483D01*
X121223221Y-117259100D01*
X119900700Y-117259100D01*
X119773700Y-117259100D01*
X117360700Y-117259100D01*
X117360700Y-117279100D01*
X117233700Y-117279100D01*
X117233700Y-117259100D01*
X117213700Y-117259100D01*
X117213700Y-117132100D01*
X117233700Y-117132100D01*
X117233700Y-117112100D01*
X117360700Y-117112100D01*
X117360700Y-117132100D01*
X119773700Y-117132100D01*
X119773700Y-117112100D01*
X119900700Y-117112100D01*
X119900700Y-117132100D01*
X121223221Y-117132100D01*
X121368859Y-116888717D01*
X121137248Y-116329550D01*
X121002514Y-116194441D01*
X121249247Y-116029579D01*
X121670458Y-115399192D01*
X121818368Y-114655600D01*
X121670458Y-113912008D01*
X121318724Y-113385600D01*
X121670458Y-112859192D01*
X121818368Y-112115600D01*
X121670458Y-111372008D01*
X121318724Y-110845600D01*
X121670458Y-110319192D01*
X121818368Y-109575600D01*
X121670458Y-108832008D01*
X121318724Y-108305600D01*
X121670458Y-107779192D01*
X121818368Y-107035600D01*
X121670458Y-106292008D01*
X121318724Y-105765600D01*
X121670458Y-105239192D01*
X121818368Y-104495600D01*
X121670458Y-103752008D01*
X121318724Y-103225600D01*
X121670458Y-102699192D01*
X121818368Y-101955600D01*
X121670458Y-101212008D01*
X121318724Y-100685600D01*
X121670458Y-100159192D01*
X121818368Y-99415600D01*
X121670458Y-98672008D01*
X121249247Y-98041621D01*
X120618860Y-97620410D01*
X119875268Y-97472500D01*
X119799132Y-97472500D01*
X119055540Y-97620410D01*
X118934779Y-97701100D01*
X118884700Y-97701100D01*
X118884700Y-97270208D01*
X118912232Y-97229914D01*
X118998948Y-96801700D01*
X118998948Y-95501700D01*
X118923676Y-95101661D01*
X118687253Y-94734250D01*
X118326514Y-94487768D01*
X117898300Y-94401052D01*
X116598300Y-94401052D01*
X116198261Y-94476324D01*
X115830850Y-94712747D01*
X115584368Y-95073486D01*
X115548957Y-95248351D01*
X115504223Y-95003230D01*
X115007181Y-94801373D01*
X114470727Y-94805091D01*
X113992377Y-95003230D01*
X113945654Y-95259251D01*
X114748300Y-96061897D01*
X114762442Y-96047755D01*
X114852245Y-96137558D01*
X114838103Y-96151700D01*
X114852245Y-96165842D01*
X114762442Y-96255645D01*
X114748300Y-96241503D01*
X114734158Y-96255645D01*
X114644355Y-96165842D01*
X114658497Y-96151700D01*
X113855851Y-95349054D01*
X113599830Y-95395777D01*
X113397973Y-95892819D01*
X113401127Y-96347863D01*
X112429436Y-95376172D01*
X112429650Y-95130378D01*
X112113810Y-94365985D01*
X111529491Y-93780646D01*
X110765651Y-93463471D01*
X109938578Y-93462750D01*
X109174185Y-93778590D01*
X108588846Y-94362909D01*
X108271671Y-95126749D01*
X108270950Y-95953822D01*
X108586790Y-96718215D01*
X109171109Y-97303554D01*
X109934949Y-97620729D01*
X110184082Y-97620946D01*
X111290100Y-98726964D01*
X111290100Y-98836545D01*
X111081192Y-98696957D01*
X110337600Y-98549047D01*
X109594008Y-98696957D01*
X109067600Y-99048691D01*
X108541192Y-98696957D01*
X107797600Y-98549047D01*
X107054008Y-98696957D01*
X106527600Y-99048691D01*
X106001192Y-98696957D01*
X105257600Y-98549047D01*
X104514008Y-98696957D01*
X103987600Y-99048691D01*
X103461192Y-98696957D01*
X102717600Y-98549047D01*
X101974008Y-98696957D01*
X101343621Y-99118168D01*
X101186788Y-99352886D01*
X100766013Y-99095820D01*
X101371110Y-98975459D01*
X101886132Y-98631332D01*
X102896228Y-97621236D01*
X103142022Y-97621450D01*
X103906415Y-97305610D01*
X104491754Y-96721291D01*
X104808929Y-95957451D01*
X104809650Y-95130378D01*
X104493810Y-94365985D01*
X103909491Y-93780646D01*
X103145651Y-93463471D01*
X102929387Y-93463282D01*
X103733468Y-92659201D01*
X118694365Y-92659201D01*
X118693903Y-93189250D01*
X118693903Y-93189250D01*
G37*
X118693903Y-93189250D02*
X118823120Y-93501979D01*
X118823120Y-93916500D01*
X118943961Y-94524010D01*
X119288088Y-95039032D01*
X122912529Y-98663473D01*
X122912529Y-105640529D01*
X123033370Y-106248039D01*
X123377497Y-106763061D01*
X125746364Y-109131928D01*
X125746150Y-109377722D01*
X126061990Y-110142115D01*
X126248800Y-110329251D01*
X126248800Y-110456728D01*
X125681828Y-110221301D01*
X124993790Y-110220700D01*
X124357897Y-110483446D01*
X123870956Y-110969538D01*
X123607101Y-111604972D01*
X123606500Y-112293010D01*
X123869246Y-112928903D01*
X124355338Y-113415844D01*
X124990772Y-113679699D01*
X125678810Y-113680300D01*
X126314703Y-113417554D01*
X126384458Y-113347920D01*
X126397347Y-113367950D01*
X126758086Y-113614432D01*
X127186300Y-113701148D01*
X128486300Y-113701148D01*
X128886339Y-113625876D01*
X129253750Y-113389453D01*
X129500232Y-113028714D01*
X129586948Y-112600500D01*
X129586948Y-111300500D01*
X129511676Y-110900461D01*
X129423800Y-110763898D01*
X129423800Y-110680500D01*
X129583937Y-110680500D01*
X129630809Y-110727454D01*
X130394649Y-111044629D01*
X131221722Y-111045350D01*
X131986115Y-110729510D01*
X132571454Y-110145191D01*
X132888629Y-109381351D01*
X132889350Y-108554278D01*
X132573510Y-107789885D01*
X132143500Y-107359124D01*
X132143500Y-106700354D01*
X132988014Y-105855840D01*
X132987835Y-106060771D01*
X133248302Y-106691149D01*
X133624890Y-107068396D01*
X133552073Y-107141213D01*
X133263007Y-107573832D01*
X133161500Y-108084140D01*
X133161500Y-108899069D01*
X133140352Y-109003500D01*
X133140352Y-110146500D01*
X133215624Y-110546539D01*
X133452047Y-110913950D01*
X133812786Y-111160432D01*
X134241000Y-111247148D01*
X134749000Y-111247148D01*
X135143990Y-111172826D01*
X135511000Y-111247148D01*
X135858025Y-111247148D01*
X136092073Y-111597427D01*
X137095973Y-112601327D01*
X137528592Y-112890393D01*
X138038900Y-112991900D01*
X139211201Y-112991900D01*
X139638409Y-113419854D01*
X140402249Y-113737029D01*
X141010906Y-113737560D01*
X141361142Y-114087796D01*
X141078978Y-114087550D01*
X140314585Y-114403390D01*
X140011046Y-114706400D01*
X139871521Y-114706400D01*
X139571091Y-114405446D01*
X138807251Y-114088271D01*
X137980178Y-114087550D01*
X137215785Y-114403390D01*
X137012118Y-114606702D01*
X136667008Y-114376107D01*
X136156700Y-114274600D01*
X133908266Y-114274600D01*
X133903199Y-114269524D01*
X133322736Y-114028495D01*
X132694221Y-114027946D01*
X132113339Y-114267962D01*
X131668524Y-114712001D01*
X131427495Y-115292464D01*
X131427490Y-115297949D01*
X131424221Y-115297946D01*
X130843339Y-115537962D01*
X130836689Y-115544600D01*
X130721100Y-115544600D01*
X130210791Y-115646107D01*
X129778173Y-115935173D01*
X126425373Y-119287973D01*
X126136307Y-119720592D01*
X126034800Y-120230900D01*
X126034800Y-120894674D01*
X125834372Y-120594712D01*
X125159899Y-120144044D01*
X124364304Y-119985790D01*
X122752296Y-119985790D01*
X121956701Y-120144044D01*
X121282228Y-120594712D01*
X121275835Y-120604280D01*
X119555220Y-120604280D01*
X119278765Y-120659270D01*
X119279350Y-119988278D01*
X118963510Y-119223885D01*
X118379191Y-118638546D01*
X118098103Y-118521828D01*
X118166865Y-118493233D01*
X118567200Y-118091782D01*
X118967535Y-118493233D01*
X119530317Y-118727263D01*
X119773700Y-118581788D01*
X119773700Y-117259100D01*
X119900700Y-117259100D01*
X119900700Y-118581788D01*
X120144083Y-118727263D01*
X120706865Y-118493233D01*
X121137248Y-118061650D01*
X121368859Y-117502483D01*
X121223221Y-117259100D01*
X119900700Y-117259100D01*
X119773700Y-117259100D01*
X117360700Y-117259100D01*
X117360700Y-117279100D01*
X117233700Y-117279100D01*
X117233700Y-117259100D01*
X117213700Y-117259100D01*
X117213700Y-117132100D01*
X117233700Y-117132100D01*
X117233700Y-117112100D01*
X117360700Y-117112100D01*
X117360700Y-117132100D01*
X119773700Y-117132100D01*
X119773700Y-117112100D01*
X119900700Y-117112100D01*
X119900700Y-117132100D01*
X121223221Y-117132100D01*
X121368859Y-116888717D01*
X121137248Y-116329550D01*
X121002514Y-116194441D01*
X121249247Y-116029579D01*
X121670458Y-115399192D01*
X121818368Y-114655600D01*
X121670458Y-113912008D01*
X121318724Y-113385600D01*
X121670458Y-112859192D01*
X121818368Y-112115600D01*
X121670458Y-111372008D01*
X121318724Y-110845600D01*
X121670458Y-110319192D01*
X121818368Y-109575600D01*
X121670458Y-108832008D01*
X121318724Y-108305600D01*
X121670458Y-107779192D01*
X121818368Y-107035600D01*
X121670458Y-106292008D01*
X121318724Y-105765600D01*
X121670458Y-105239192D01*
X121818368Y-104495600D01*
X121670458Y-103752008D01*
X121318724Y-103225600D01*
X121670458Y-102699192D01*
X121818368Y-101955600D01*
X121670458Y-101212008D01*
X121318724Y-100685600D01*
X121670458Y-100159192D01*
X121818368Y-99415600D01*
X121670458Y-98672008D01*
X121249247Y-98041621D01*
X120618860Y-97620410D01*
X119875268Y-97472500D01*
X119799132Y-97472500D01*
X119055540Y-97620410D01*
X118934779Y-97701100D01*
X118884700Y-97701100D01*
X118884700Y-97270208D01*
X118912232Y-97229914D01*
X118998948Y-96801700D01*
X118998948Y-95501700D01*
X118923676Y-95101661D01*
X118687253Y-94734250D01*
X118326514Y-94487768D01*
X117898300Y-94401052D01*
X116598300Y-94401052D01*
X116198261Y-94476324D01*
X115830850Y-94712747D01*
X115584368Y-95073486D01*
X115548957Y-95248351D01*
X115504223Y-95003230D01*
X115007181Y-94801373D01*
X114470727Y-94805091D01*
X113992377Y-95003230D01*
X113945654Y-95259251D01*
X114748300Y-96061897D01*
X114762442Y-96047755D01*
X114852245Y-96137558D01*
X114838103Y-96151700D01*
X114852245Y-96165842D01*
X114762442Y-96255645D01*
X114748300Y-96241503D01*
X114734158Y-96255645D01*
X114644355Y-96165842D01*
X114658497Y-96151700D01*
X113855851Y-95349054D01*
X113599830Y-95395777D01*
X113397973Y-95892819D01*
X113401127Y-96347863D01*
X112429436Y-95376172D01*
X112429650Y-95130378D01*
X112113810Y-94365985D01*
X111529491Y-93780646D01*
X110765651Y-93463471D01*
X109938578Y-93462750D01*
X109174185Y-93778590D01*
X108588846Y-94362909D01*
X108271671Y-95126749D01*
X108270950Y-95953822D01*
X108586790Y-96718215D01*
X109171109Y-97303554D01*
X109934949Y-97620729D01*
X110184082Y-97620946D01*
X111290100Y-98726964D01*
X111290100Y-98836545D01*
X111081192Y-98696957D01*
X110337600Y-98549047D01*
X109594008Y-98696957D01*
X109067600Y-99048691D01*
X108541192Y-98696957D01*
X107797600Y-98549047D01*
X107054008Y-98696957D01*
X106527600Y-99048691D01*
X106001192Y-98696957D01*
X105257600Y-98549047D01*
X104514008Y-98696957D01*
X103987600Y-99048691D01*
X103461192Y-98696957D01*
X102717600Y-98549047D01*
X101974008Y-98696957D01*
X101343621Y-99118168D01*
X101186788Y-99352886D01*
X100766013Y-99095820D01*
X101371110Y-98975459D01*
X101886132Y-98631332D01*
X102896228Y-97621236D01*
X103142022Y-97621450D01*
X103906415Y-97305610D01*
X104491754Y-96721291D01*
X104808929Y-95957451D01*
X104809650Y-95130378D01*
X104493810Y-94365985D01*
X103909491Y-93780646D01*
X103145651Y-93463471D01*
X102929387Y-93463282D01*
X103733468Y-92659201D01*
X118694365Y-92659201D01*
X118693903Y-93189250D01*
G36*
X80073500Y-109156500D02*
X80093500Y-109156500D01*
X80093500Y-109283500D01*
X80073500Y-109283500D01*
X80073500Y-111696500D01*
X80093500Y-111696500D01*
X80093500Y-111823500D01*
X80073500Y-111823500D01*
X80073500Y-111843500D01*
X79946500Y-111843500D01*
X79946500Y-111823500D01*
X78487694Y-111823500D01*
X78340779Y-112050975D01*
X78398373Y-112260243D01*
X78694369Y-112747828D01*
X78746329Y-112785912D01*
X78429123Y-112997863D01*
X78029936Y-113595288D01*
X77978000Y-113856388D01*
X77978000Y-110831948D01*
X78173335Y-110636954D01*
X78434902Y-110007031D01*
X78435099Y-109780741D01*
X78694369Y-110207828D01*
X79079349Y-110490000D01*
X78694369Y-110772172D01*
X78398373Y-111259757D01*
X78340779Y-111469025D01*
X78487694Y-111696500D01*
X79946500Y-111696500D01*
X79946500Y-109283500D01*
X79926500Y-109283500D01*
X79926500Y-109156500D01*
X79946500Y-109156500D01*
X79946500Y-109136500D01*
X80073500Y-109136500D01*
X80073500Y-109156500D01*
X80073500Y-109156500D01*
G37*
X80073500Y-109156500D02*
X80093500Y-109156500D01*
X80093500Y-109283500D01*
X80073500Y-109283500D01*
X80073500Y-111696500D01*
X80093500Y-111696500D01*
X80093500Y-111823500D01*
X80073500Y-111823500D01*
X80073500Y-111843500D01*
X79946500Y-111843500D01*
X79946500Y-111823500D01*
X78487694Y-111823500D01*
X78340779Y-112050975D01*
X78398373Y-112260243D01*
X78694369Y-112747828D01*
X78746329Y-112785912D01*
X78429123Y-112997863D01*
X78029936Y-113595288D01*
X77978000Y-113856388D01*
X77978000Y-110831948D01*
X78173335Y-110636954D01*
X78434902Y-110007031D01*
X78435099Y-109780741D01*
X78694369Y-110207828D01*
X79079349Y-110490000D01*
X78694369Y-110772172D01*
X78398373Y-111259757D01*
X78340779Y-111469025D01*
X78487694Y-111696500D01*
X79946500Y-111696500D01*
X79946500Y-109283500D01*
X79926500Y-109283500D01*
X79926500Y-109156500D01*
X79946500Y-109156500D01*
X79946500Y-109136500D01*
X80073500Y-109136500D01*
X80073500Y-109156500D01*
G36*
X142735300Y-110102801D02*
X142468329Y-110369307D01*
X141996791Y-109896946D01*
X141232951Y-109579771D01*
X140405878Y-109579050D01*
X139641485Y-109894890D01*
X139257500Y-110278206D01*
X139257500Y-109813125D01*
X139082875Y-109638500D01*
X138389648Y-109638500D01*
X138389648Y-109511500D01*
X139082875Y-109511500D01*
X139257500Y-109336875D01*
X139257500Y-109321600D01*
X142735300Y-109321600D01*
X142735300Y-110102801D01*
X142735300Y-110102801D01*
G37*
X142735300Y-110102801D02*
X142468329Y-110369307D01*
X141996791Y-109896946D01*
X141232951Y-109579771D01*
X140405878Y-109579050D01*
X139641485Y-109894890D01*
X139257500Y-110278206D01*
X139257500Y-109813125D01*
X139082875Y-109638500D01*
X138389648Y-109638500D01*
X138389648Y-109511500D01*
X139082875Y-109511500D01*
X139257500Y-109336875D01*
X139257500Y-109321600D01*
X142735300Y-109321600D01*
X142735300Y-110102801D01*
G36*
X77295499Y-97789999D02*
X77387338Y-98251707D01*
X77456549Y-98355288D01*
X77648875Y-98643123D01*
X77918959Y-98913207D01*
X77889760Y-99060000D01*
X78029936Y-99764712D01*
X78429123Y-100362137D01*
X78746329Y-100574088D01*
X78694369Y-100612172D01*
X78398373Y-101099757D01*
X78340779Y-101309025D01*
X78487694Y-101536500D01*
X79946500Y-101536500D01*
X79946500Y-101516500D01*
X80073500Y-101516500D01*
X80073500Y-101536500D01*
X80093500Y-101536500D01*
X80093500Y-101663500D01*
X80073500Y-101663500D01*
X80073500Y-104076500D01*
X80093500Y-104076500D01*
X80093500Y-104203500D01*
X80073500Y-104203500D01*
X80073500Y-104223500D01*
X79946500Y-104223500D01*
X79946500Y-104203500D01*
X78487694Y-104203500D01*
X78340779Y-104430975D01*
X78398373Y-104640243D01*
X78694369Y-105127828D01*
X78746329Y-105165912D01*
X78429123Y-105377863D01*
X78029936Y-105975288D01*
X77889760Y-106680000D01*
X78029936Y-107384712D01*
X78429123Y-107982137D01*
X78746329Y-108194088D01*
X78694369Y-108232172D01*
X78398373Y-108719757D01*
X78340779Y-108929025D01*
X78487693Y-109156498D01*
X78365889Y-109156498D01*
X78175030Y-108694583D01*
X77693154Y-108211865D01*
X77063231Y-107950298D01*
X76381161Y-107949703D01*
X75984099Y-108113766D01*
X75984099Y-101890975D01*
X78340779Y-101890975D01*
X78398373Y-102100243D01*
X78694369Y-102587828D01*
X79079349Y-102870000D01*
X78694369Y-103152172D01*
X78398373Y-103639757D01*
X78340779Y-103849025D01*
X78487694Y-104076500D01*
X79946500Y-104076500D01*
X79946500Y-101663500D01*
X78487694Y-101663500D01*
X78340779Y-101890975D01*
X75984099Y-101890975D01*
X75984099Y-90698497D01*
X77295499Y-89387097D01*
X77295499Y-97789999D01*
X77295499Y-97789999D01*
G37*
X77295499Y-97789999D02*
X77387338Y-98251707D01*
X77456549Y-98355288D01*
X77648875Y-98643123D01*
X77918959Y-98913207D01*
X77889760Y-99060000D01*
X78029936Y-99764712D01*
X78429123Y-100362137D01*
X78746329Y-100574088D01*
X78694369Y-100612172D01*
X78398373Y-101099757D01*
X78340779Y-101309025D01*
X78487694Y-101536500D01*
X79946500Y-101536500D01*
X79946500Y-101516500D01*
X80073500Y-101516500D01*
X80073500Y-101536500D01*
X80093500Y-101536500D01*
X80093500Y-101663500D01*
X80073500Y-101663500D01*
X80073500Y-104076500D01*
X80093500Y-104076500D01*
X80093500Y-104203500D01*
X80073500Y-104203500D01*
X80073500Y-104223500D01*
X79946500Y-104223500D01*
X79946500Y-104203500D01*
X78487694Y-104203500D01*
X78340779Y-104430975D01*
X78398373Y-104640243D01*
X78694369Y-105127828D01*
X78746329Y-105165912D01*
X78429123Y-105377863D01*
X78029936Y-105975288D01*
X77889760Y-106680000D01*
X78029936Y-107384712D01*
X78429123Y-107982137D01*
X78746329Y-108194088D01*
X78694369Y-108232172D01*
X78398373Y-108719757D01*
X78340779Y-108929025D01*
X78487693Y-109156498D01*
X78365889Y-109156498D01*
X78175030Y-108694583D01*
X77693154Y-108211865D01*
X77063231Y-107950298D01*
X76381161Y-107949703D01*
X75984099Y-108113766D01*
X75984099Y-101890975D01*
X78340779Y-101890975D01*
X78398373Y-102100243D01*
X78694369Y-102587828D01*
X79079349Y-102870000D01*
X78694369Y-103152172D01*
X78398373Y-103639757D01*
X78340779Y-103849025D01*
X78487694Y-104076500D01*
X79946500Y-104076500D01*
X79946500Y-101663500D01*
X78487694Y-101663500D01*
X78340779Y-101890975D01*
X75984099Y-101890975D01*
X75984099Y-90698497D01*
X77295499Y-89387097D01*
X77295499Y-97789999D01*
G36*
X92696647Y-98726250D02*
X93057386Y-98972732D01*
X93485600Y-99059448D01*
X93510100Y-99059448D01*
X93510100Y-99437725D01*
X93302410Y-99748555D01*
X93154500Y-100492147D01*
X93154500Y-100879053D01*
X93302410Y-101622645D01*
X93723621Y-102253032D01*
X93838985Y-102330116D01*
X92733176Y-103435925D01*
X92471639Y-103827341D01*
X92379800Y-104289049D01*
X92379800Y-104982791D01*
X91784814Y-105577777D01*
X91594747Y-105293321D01*
X91348014Y-105128459D01*
X91482748Y-104993350D01*
X91714359Y-104434183D01*
X91568721Y-104190800D01*
X90246200Y-104190800D01*
X90246200Y-104210800D01*
X90119200Y-104210800D01*
X90119200Y-104190800D01*
X90099200Y-104190800D01*
X90099200Y-104063800D01*
X90119200Y-104063800D01*
X90119200Y-101650800D01*
X90246200Y-101650800D01*
X90246200Y-104063800D01*
X91568721Y-104063800D01*
X91714359Y-103820417D01*
X91482748Y-103261250D01*
X91079921Y-102857300D01*
X91482748Y-102453350D01*
X91714359Y-101894183D01*
X91568721Y-101650800D01*
X90246200Y-101650800D01*
X90119200Y-101650800D01*
X90099200Y-101650800D01*
X90099200Y-101523800D01*
X90119200Y-101523800D01*
X90119200Y-101503800D01*
X90246200Y-101503800D01*
X90246200Y-101523800D01*
X91568721Y-101523800D01*
X91714359Y-101280417D01*
X91482748Y-100721250D01*
X91348014Y-100586141D01*
X91594747Y-100421279D01*
X92015958Y-99790892D01*
X92163868Y-99047300D01*
X92118256Y-98817993D01*
X92407426Y-98528823D01*
X92490043Y-98405178D01*
X92696647Y-98726250D01*
X92696647Y-98726250D01*
G37*
X92696647Y-98726250D02*
X93057386Y-98972732D01*
X93485600Y-99059448D01*
X93510100Y-99059448D01*
X93510100Y-99437725D01*
X93302410Y-99748555D01*
X93154500Y-100492147D01*
X93154500Y-100879053D01*
X93302410Y-101622645D01*
X93723621Y-102253032D01*
X93838985Y-102330116D01*
X92733176Y-103435925D01*
X92471639Y-103827341D01*
X92379800Y-104289049D01*
X92379800Y-104982791D01*
X91784814Y-105577777D01*
X91594747Y-105293321D01*
X91348014Y-105128459D01*
X91482748Y-104993350D01*
X91714359Y-104434183D01*
X91568721Y-104190800D01*
X90246200Y-104190800D01*
X90246200Y-104210800D01*
X90119200Y-104210800D01*
X90119200Y-104190800D01*
X90099200Y-104190800D01*
X90099200Y-104063800D01*
X90119200Y-104063800D01*
X90119200Y-101650800D01*
X90246200Y-101650800D01*
X90246200Y-104063800D01*
X91568721Y-104063800D01*
X91714359Y-103820417D01*
X91482748Y-103261250D01*
X91079921Y-102857300D01*
X91482748Y-102453350D01*
X91714359Y-101894183D01*
X91568721Y-101650800D01*
X90246200Y-101650800D01*
X90119200Y-101650800D01*
X90099200Y-101650800D01*
X90099200Y-101523800D01*
X90119200Y-101523800D01*
X90119200Y-101503800D01*
X90246200Y-101503800D01*
X90246200Y-101523800D01*
X91568721Y-101523800D01*
X91714359Y-101280417D01*
X91482748Y-100721250D01*
X91348014Y-100586141D01*
X91594747Y-100421279D01*
X92015958Y-99790892D01*
X92163868Y-99047300D01*
X92118256Y-98817993D01*
X92407426Y-98528823D01*
X92490043Y-98405178D01*
X92696647Y-98726250D01*
G36*
X100241100Y-100622100D02*
X100261100Y-100622100D01*
X100261100Y-100749100D01*
X100241100Y-100749100D01*
X100241100Y-100769100D01*
X100114100Y-100769100D01*
X100114100Y-100749100D01*
X100094100Y-100749100D01*
X100094100Y-100622100D01*
X100114100Y-100622100D01*
X100114100Y-100602100D01*
X100241100Y-100602100D01*
X100241100Y-100622100D01*
X100241100Y-100622100D01*
G37*
X100241100Y-100622100D02*
X100261100Y-100622100D01*
X100261100Y-100749100D01*
X100241100Y-100749100D01*
X100241100Y-100769100D01*
X100114100Y-100769100D01*
X100114100Y-100749100D01*
X100094100Y-100749100D01*
X100094100Y-100622100D01*
X100114100Y-100622100D01*
X100114100Y-100602100D01*
X100241100Y-100602100D01*
X100241100Y-100622100D01*
G36*
X80073500Y-91376500D02*
X80093500Y-91376500D01*
X80093500Y-91503500D01*
X80073500Y-91503500D01*
X80073500Y-93916500D01*
X80093500Y-93916500D01*
X80093500Y-94043500D01*
X80073500Y-94043500D01*
X80073500Y-96456500D01*
X80093500Y-96456500D01*
X80093500Y-96583500D01*
X80073500Y-96583500D01*
X80073500Y-96603500D01*
X79946500Y-96603500D01*
X79946500Y-96583500D01*
X79926500Y-96583500D01*
X79926500Y-96456500D01*
X79946500Y-96456500D01*
X79946500Y-94043500D01*
X79926500Y-94043500D01*
X79926500Y-93916500D01*
X79946500Y-93916500D01*
X79946500Y-91503500D01*
X79926500Y-91503500D01*
X79926500Y-91376500D01*
X79946500Y-91376500D01*
X79946500Y-91356500D01*
X80073500Y-91356500D01*
X80073500Y-91376500D01*
X80073500Y-91376500D01*
G37*
X80073500Y-91376500D02*
X80093500Y-91376500D01*
X80093500Y-91503500D01*
X80073500Y-91503500D01*
X80073500Y-93916500D01*
X80093500Y-93916500D01*
X80093500Y-94043500D01*
X80073500Y-94043500D01*
X80073500Y-96456500D01*
X80093500Y-96456500D01*
X80093500Y-96583500D01*
X80073500Y-96583500D01*
X80073500Y-96603500D01*
X79946500Y-96603500D01*
X79946500Y-96583500D01*
X79926500Y-96583500D01*
X79926500Y-96456500D01*
X79946500Y-96456500D01*
X79946500Y-94043500D01*
X79926500Y-94043500D01*
X79926500Y-93916500D01*
X79946500Y-93916500D01*
X79946500Y-91503500D01*
X79926500Y-91503500D01*
X79926500Y-91376500D01*
X79946500Y-91376500D01*
X79946500Y-91356500D01*
X80073500Y-91356500D01*
X80073500Y-91376500D01*
G36*
X90246200Y-91363800D02*
X90266200Y-91363800D01*
X90266200Y-91490800D01*
X90246200Y-91490800D01*
X90246200Y-93903800D01*
X90266200Y-93903800D01*
X90266200Y-94030800D01*
X90246200Y-94030800D01*
X90246200Y-96443800D01*
X90266200Y-96443800D01*
X90266200Y-96570800D01*
X90246200Y-96570800D01*
X90246200Y-96590800D01*
X90119200Y-96590800D01*
X90119200Y-96570800D01*
X90099200Y-96570800D01*
X90099200Y-96443800D01*
X90119200Y-96443800D01*
X90119200Y-94030800D01*
X90099200Y-94030800D01*
X90099200Y-93903800D01*
X90119200Y-93903800D01*
X90119200Y-91490800D01*
X90099200Y-91490800D01*
X90099200Y-91363800D01*
X90119200Y-91363800D01*
X90119200Y-91343800D01*
X90246200Y-91343800D01*
X90246200Y-91363800D01*
X90246200Y-91363800D01*
G37*
X90246200Y-91363800D02*
X90266200Y-91363800D01*
X90266200Y-91490800D01*
X90246200Y-91490800D01*
X90246200Y-93903800D01*
X90266200Y-93903800D01*
X90266200Y-94030800D01*
X90246200Y-94030800D01*
X90246200Y-96443800D01*
X90266200Y-96443800D01*
X90266200Y-96570800D01*
X90246200Y-96570800D01*
X90246200Y-96590800D01*
X90119200Y-96590800D01*
X90119200Y-96570800D01*
X90099200Y-96570800D01*
X90099200Y-96443800D01*
X90119200Y-96443800D01*
X90119200Y-94030800D01*
X90099200Y-94030800D01*
X90099200Y-93903800D01*
X90119200Y-93903800D01*
X90119200Y-91490800D01*
X90099200Y-91490800D01*
X90099200Y-91363800D01*
X90119200Y-91363800D01*
X90119200Y-91343800D01*
X90246200Y-91343800D01*
X90246200Y-91363800D01*
G36*
X96749045Y-91565558D02*
X96734903Y-91579700D01*
X96749045Y-91593842D01*
X96659242Y-91683645D01*
X96645100Y-91669503D01*
X96630958Y-91683645D01*
X96541155Y-91593842D01*
X96555297Y-91579700D01*
X96541155Y-91565558D01*
X96630958Y-91475755D01*
X96645100Y-91489897D01*
X96659242Y-91475755D01*
X96749045Y-91565558D01*
X96749045Y-91565558D01*
G37*
X96749045Y-91565558D02*
X96734903Y-91579700D01*
X96749045Y-91593842D01*
X96659242Y-91683645D01*
X96645100Y-91669503D01*
X96630958Y-91683645D01*
X96541155Y-91593842D01*
X96555297Y-91579700D01*
X96541155Y-91565558D01*
X96630958Y-91475755D01*
X96645100Y-91489897D01*
X96659242Y-91475755D01*
X96749045Y-91565558D01*
G36*
X147142200Y-63316270D02*
X147138645Y-63318645D01*
X146888381Y-63693192D01*
X146800500Y-64135000D01*
X146800500Y-76835000D01*
X146888381Y-77276808D01*
X147138645Y-77651355D01*
X147142200Y-77653730D01*
X147142200Y-77915530D01*
X145624035Y-76397365D01*
X145571808Y-76362468D01*
X145067811Y-76025709D01*
X144901462Y-75992620D01*
X144411700Y-75895199D01*
X144411695Y-75895200D01*
X143240704Y-75895200D01*
X143022544Y-75746138D01*
X142594330Y-75659422D01*
X140895070Y-75659422D01*
X140495031Y-75734694D01*
X140127620Y-75971117D01*
X139881138Y-76331856D01*
X139794422Y-76760070D01*
X139794422Y-78459330D01*
X139869694Y-78859369D01*
X140106117Y-79226780D01*
X140466856Y-79473262D01*
X140895070Y-79559978D01*
X142594330Y-79559978D01*
X142994369Y-79484706D01*
X143243802Y-79324200D01*
X143701530Y-79324200D01*
X151414683Y-87037352D01*
X150130000Y-87037352D01*
X149729961Y-87112624D01*
X149362550Y-87349047D01*
X149116068Y-87709786D01*
X149029352Y-88138000D01*
X149029352Y-89359233D01*
X147372289Y-87702171D01*
X146898469Y-87385574D01*
X146822938Y-87370550D01*
X146339560Y-87274400D01*
X146109965Y-87274400D01*
X146103572Y-87264832D01*
X145429099Y-86814164D01*
X144633504Y-86655910D01*
X143021496Y-86655910D01*
X142225901Y-86814164D01*
X141841219Y-87071200D01*
X136441353Y-87071200D01*
X136132699Y-86864964D01*
X135337104Y-86706710D01*
X133725096Y-86706710D01*
X133158980Y-86819318D01*
X133158980Y-83515200D01*
X133330224Y-83515200D01*
X133442086Y-83591632D01*
X133870300Y-83678348D01*
X135170300Y-83678348D01*
X135570339Y-83603076D01*
X135937750Y-83366653D01*
X136184232Y-83005914D01*
X136219643Y-82831049D01*
X136264377Y-83076170D01*
X136761419Y-83278027D01*
X137297873Y-83274309D01*
X137776223Y-83076170D01*
X137822946Y-82820149D01*
X137020300Y-82017503D01*
X137006158Y-82031645D01*
X136916355Y-81941842D01*
X136930497Y-81927700D01*
X137110103Y-81927700D01*
X137912749Y-82730346D01*
X138168770Y-82683623D01*
X138370627Y-82186581D01*
X138366909Y-81650127D01*
X138168770Y-81171777D01*
X137912749Y-81125054D01*
X137110103Y-81927700D01*
X136930497Y-81927700D01*
X136916355Y-81913558D01*
X137006158Y-81823755D01*
X137020300Y-81837897D01*
X137822946Y-81035251D01*
X137776223Y-80779230D01*
X137279181Y-80577373D01*
X136742727Y-80581091D01*
X136264377Y-80779230D01*
X136221433Y-81014546D01*
X136195676Y-80877661D01*
X135959253Y-80510250D01*
X135598514Y-80263768D01*
X135170300Y-80177052D01*
X133870300Y-80177052D01*
X133470261Y-80252324D01*
X133333698Y-80340200D01*
X133172200Y-80340200D01*
X133172200Y-78750792D01*
X133219183Y-78703891D01*
X133513495Y-77995111D01*
X133514164Y-77227656D01*
X133221091Y-76518363D01*
X133047500Y-76344469D01*
X133047500Y-75200149D01*
X142008854Y-75200149D01*
X142055577Y-75456170D01*
X142552619Y-75658027D01*
X143089073Y-75654309D01*
X143567423Y-75456170D01*
X143614146Y-75200149D01*
X142811500Y-74397503D01*
X142008854Y-75200149D01*
X133047500Y-75200149D01*
X133047500Y-73585185D01*
X133504131Y-73862176D01*
X133710815Y-73919031D01*
X133936500Y-73771972D01*
X133936500Y-72063500D01*
X133916500Y-72063500D01*
X133916500Y-71936500D01*
X133936500Y-71936500D01*
X133936500Y-70228028D01*
X133710815Y-70080969D01*
X133504131Y-70137824D01*
X133020254Y-70431342D01*
X132975408Y-70492483D01*
X132754055Y-70161204D01*
X132160337Y-69764495D01*
X131460000Y-69625189D01*
X130787500Y-69758958D01*
X130787500Y-67990076D01*
X130863932Y-67878214D01*
X130899343Y-67703349D01*
X130944077Y-67948470D01*
X131441119Y-68150327D01*
X131977573Y-68146609D01*
X132455923Y-67948470D01*
X132502646Y-67692449D01*
X131700000Y-66889803D01*
X131685858Y-66903945D01*
X131596055Y-66814142D01*
X131610197Y-66800000D01*
X131789803Y-66800000D01*
X132592449Y-67602646D01*
X132848470Y-67555923D01*
X132899491Y-67430291D01*
X132951530Y-67555923D01*
X133207551Y-67602646D01*
X134010197Y-66800000D01*
X133207551Y-65997354D01*
X132951530Y-66044077D01*
X132900509Y-66169709D01*
X132848470Y-66044077D01*
X132592449Y-65997354D01*
X131789803Y-66800000D01*
X131610197Y-66800000D01*
X131596055Y-66785858D01*
X131685858Y-66696055D01*
X131700000Y-66710197D01*
X132502646Y-65907551D01*
X132455923Y-65651530D01*
X131958881Y-65449673D01*
X131422427Y-65453391D01*
X131041500Y-65611176D01*
X131041500Y-64626000D01*
X130901324Y-63921288D01*
X130589682Y-63454883D01*
X131009663Y-63735505D01*
X131710000Y-63874811D01*
X132410337Y-63735505D01*
X133004055Y-63338796D01*
X133225408Y-63007517D01*
X133270254Y-63068658D01*
X133754131Y-63362176D01*
X133960815Y-63419031D01*
X134186500Y-63271972D01*
X134186500Y-61563500D01*
X134166500Y-61563500D01*
X134166500Y-61436500D01*
X134186500Y-61436500D01*
X134186500Y-59728028D01*
X133960815Y-59580969D01*
X133754131Y-59637824D01*
X133270254Y-59931342D01*
X133225408Y-59992483D01*
X133004055Y-59661204D01*
X132410337Y-59264495D01*
X131710000Y-59125189D01*
X131009663Y-59264495D01*
X130415945Y-59661204D01*
X130332893Y-59785500D01*
X127190500Y-59785500D01*
X127190500Y-59608035D01*
X127590119Y-59770327D01*
X128126573Y-59766609D01*
X128604923Y-59568470D01*
X128651646Y-59312449D01*
X127849000Y-58509803D01*
X127834858Y-58523945D01*
X127745055Y-58434142D01*
X127759197Y-58420000D01*
X127938803Y-58420000D01*
X128741449Y-59222646D01*
X128997470Y-59175923D01*
X129199327Y-58678881D01*
X129195609Y-58142427D01*
X128997470Y-57664077D01*
X128741449Y-57617354D01*
X127938803Y-58420000D01*
X127759197Y-58420000D01*
X127745055Y-58405858D01*
X127834858Y-58316055D01*
X127849000Y-58330197D01*
X128651646Y-57527551D01*
X128604923Y-57271530D01*
X128107881Y-57069673D01*
X127571427Y-57073391D01*
X127093077Y-57271530D01*
X127050133Y-57506846D01*
X127024376Y-57369961D01*
X126787953Y-57002550D01*
X126427214Y-56756068D01*
X125999000Y-56669352D01*
X124699000Y-56669352D01*
X124298961Y-56744624D01*
X123931550Y-56981047D01*
X123685068Y-57341786D01*
X123598352Y-57770000D01*
X123598352Y-58172041D01*
X123410493Y-57890890D01*
X123259335Y-57664665D01*
X123259332Y-57664663D01*
X120487119Y-54892449D01*
X123697354Y-54892449D01*
X123744077Y-55148470D01*
X124241119Y-55350327D01*
X124777573Y-55346609D01*
X125255923Y-55148470D01*
X125302646Y-54892449D01*
X132697354Y-54892449D01*
X132744077Y-55148470D01*
X133241119Y-55350327D01*
X133777573Y-55346609D01*
X134255923Y-55148470D01*
X134302646Y-54892449D01*
X133500000Y-54089803D01*
X132697354Y-54892449D01*
X125302646Y-54892449D01*
X124500000Y-54089803D01*
X123697354Y-54892449D01*
X120487119Y-54892449D01*
X119335789Y-53741119D01*
X123149673Y-53741119D01*
X123153391Y-54277573D01*
X123351530Y-54755923D01*
X123607551Y-54802646D01*
X124410197Y-54000000D01*
X124589803Y-54000000D01*
X125392449Y-54802646D01*
X125648470Y-54755923D01*
X125850327Y-54258881D01*
X125846739Y-53741119D01*
X132149673Y-53741119D01*
X132153391Y-54277573D01*
X132351530Y-54755923D01*
X132607551Y-54802646D01*
X133410197Y-54000000D01*
X133589803Y-54000000D01*
X134392449Y-54802646D01*
X134648470Y-54755923D01*
X134850327Y-54258881D01*
X134846609Y-53722427D01*
X134648470Y-53244077D01*
X134392449Y-53197354D01*
X133589803Y-54000000D01*
X133410197Y-54000000D01*
X132607551Y-53197354D01*
X132351530Y-53244077D01*
X132149673Y-53741119D01*
X125846739Y-53741119D01*
X125846609Y-53722427D01*
X125648470Y-53244077D01*
X125392449Y-53197354D01*
X124589803Y-54000000D01*
X124410197Y-54000000D01*
X123607551Y-53197354D01*
X123351530Y-53244077D01*
X123149673Y-53741119D01*
X119335789Y-53741119D01*
X118702221Y-53107551D01*
X123697354Y-53107551D01*
X124500000Y-53910197D01*
X125302646Y-53107551D01*
X132697354Y-53107551D01*
X133500000Y-53910197D01*
X134302646Y-53107551D01*
X134255923Y-52851530D01*
X133758881Y-52649673D01*
X133222427Y-52653391D01*
X132744077Y-52851530D01*
X132697354Y-53107551D01*
X125302646Y-53107551D01*
X125255923Y-52851530D01*
X124758881Y-52649673D01*
X124222427Y-52653391D01*
X123744077Y-52851530D01*
X123697354Y-53107551D01*
X118702221Y-53107551D01*
X118382335Y-52787665D01*
X118244084Y-52695289D01*
X117826111Y-52416009D01*
X117717254Y-52394356D01*
X117170000Y-52285499D01*
X117169995Y-52285500D01*
X116078503Y-52285500D01*
X115900000Y-52249352D01*
X114600000Y-52249352D01*
X114199961Y-52324624D01*
X113832550Y-52561047D01*
X113586068Y-52921786D01*
X113499352Y-53350000D01*
X113499352Y-54650000D01*
X113574624Y-55050039D01*
X113811047Y-55417450D01*
X114171786Y-55663932D01*
X114600000Y-55750648D01*
X115900000Y-55750648D01*
X116092111Y-55714500D01*
X116459830Y-55714500D01*
X120332500Y-59587169D01*
X120332500Y-60795396D01*
X120316214Y-60784268D01*
X119888000Y-60697552D01*
X117856000Y-60697552D01*
X117455961Y-60772824D01*
X117088550Y-61009247D01*
X116842068Y-61369986D01*
X116755352Y-61798200D01*
X116755352Y-65455800D01*
X116830624Y-65855839D01*
X117067047Y-66223250D01*
X117427786Y-66469732D01*
X117856000Y-66556448D01*
X119888000Y-66556448D01*
X120288039Y-66481176D01*
X120655450Y-66244753D01*
X120719423Y-66151125D01*
X123761500Y-66151125D01*
X123761500Y-66559940D01*
X123867840Y-66816668D01*
X124064331Y-67013160D01*
X124321059Y-67119500D01*
X125237875Y-67119500D01*
X125412500Y-66944875D01*
X125412500Y-65976500D01*
X125539500Y-65976500D01*
X125539500Y-66944875D01*
X125714125Y-67119500D01*
X126630941Y-67119500D01*
X126887669Y-67013160D01*
X127084160Y-66816668D01*
X127190500Y-66559940D01*
X127190500Y-66151125D01*
X127015875Y-65976500D01*
X125539500Y-65976500D01*
X125412500Y-65976500D01*
X123936125Y-65976500D01*
X123761500Y-66151125D01*
X120719423Y-66151125D01*
X120901932Y-65884014D01*
X120988648Y-65455800D01*
X120988648Y-63850318D01*
X121977665Y-64839335D01*
X122533889Y-65210991D01*
X122642746Y-65232644D01*
X123190000Y-65341501D01*
X123190005Y-65341500D01*
X123761500Y-65341500D01*
X123761500Y-65674875D01*
X123936125Y-65849500D01*
X125412500Y-65849500D01*
X125412500Y-65829500D01*
X125539500Y-65829500D01*
X125539500Y-65849500D01*
X127015875Y-65849500D01*
X127190500Y-65674875D01*
X127190500Y-65468500D01*
X127358500Y-65468500D01*
X127358500Y-66800000D01*
X127449352Y-67256744D01*
X127449352Y-67450000D01*
X127524624Y-67850039D01*
X127612500Y-67986602D01*
X127612500Y-70548436D01*
X126564248Y-71596688D01*
X126564248Y-71184000D01*
X126488976Y-70783961D01*
X126252553Y-70416550D01*
X126047500Y-70276444D01*
X126047500Y-69723000D01*
X125949780Y-69231729D01*
X125936326Y-69164090D01*
X125619729Y-68690270D01*
X124095729Y-67166271D01*
X123621909Y-66849674D01*
X123063000Y-66738500D01*
X117444959Y-66738500D01*
X114673729Y-63967271D01*
X114199909Y-63650674D01*
X113641000Y-63539500D01*
X113039621Y-63539500D01*
X112739191Y-63238546D01*
X111975351Y-62921371D01*
X111148278Y-62920650D01*
X110383885Y-63236490D01*
X110360500Y-63259834D01*
X110360500Y-62683237D01*
X110363932Y-62678214D01*
X110450648Y-62250000D01*
X110450648Y-61890549D01*
X114475254Y-61890549D01*
X114521977Y-62146570D01*
X115019019Y-62348427D01*
X115555473Y-62344709D01*
X116033823Y-62146570D01*
X116080546Y-61890549D01*
X115277900Y-61087903D01*
X114475254Y-61890549D01*
X110450648Y-61890549D01*
X110450648Y-60550000D01*
X110375376Y-60149961D01*
X110138953Y-59782550D01*
X109778214Y-59536068D01*
X109350000Y-59449352D01*
X108450000Y-59449352D01*
X108049961Y-59524624D01*
X107682550Y-59761047D01*
X107556221Y-59945936D01*
X107495582Y-59920757D01*
X106907000Y-59920244D01*
X106844243Y-59946175D01*
X106738953Y-59782550D01*
X106378214Y-59536068D01*
X105950000Y-59449352D01*
X105050000Y-59449352D01*
X104649961Y-59524624D01*
X104282550Y-59761047D01*
X104278199Y-59767414D01*
X104045528Y-59670801D01*
X103357490Y-59670200D01*
X102821500Y-59891667D01*
X102821500Y-57848100D01*
X113527252Y-57848100D01*
X113527252Y-59148100D01*
X113602524Y-59548139D01*
X113838947Y-59915550D01*
X114199686Y-60162032D01*
X114374551Y-60197443D01*
X114129430Y-60242177D01*
X113927573Y-60739219D01*
X113931291Y-61275673D01*
X114129430Y-61754023D01*
X114385451Y-61800746D01*
X115188097Y-60998100D01*
X115173955Y-60983958D01*
X115263758Y-60894155D01*
X115277900Y-60908297D01*
X115292042Y-60894155D01*
X115381845Y-60983958D01*
X115367703Y-60998100D01*
X116170349Y-61800746D01*
X116426370Y-61754023D01*
X116628227Y-61256981D01*
X116624509Y-60720527D01*
X116426370Y-60242177D01*
X116191054Y-60199233D01*
X116327939Y-60173476D01*
X116695350Y-59937053D01*
X116941832Y-59576314D01*
X117028548Y-59148100D01*
X117028548Y-57848100D01*
X116953276Y-57448061D01*
X116716853Y-57080650D01*
X116356114Y-56834168D01*
X115927900Y-56747452D01*
X114627900Y-56747452D01*
X114227861Y-56822724D01*
X113860450Y-57059147D01*
X113613968Y-57419886D01*
X113527252Y-57848100D01*
X102821500Y-57848100D01*
X102821500Y-56890962D01*
X103520000Y-57029903D01*
X104220337Y-56890597D01*
X104790000Y-56509961D01*
X105359663Y-56890597D01*
X106060000Y-57029903D01*
X106760337Y-56890597D01*
X107354055Y-56493888D01*
X107577122Y-56160044D01*
X107620254Y-56218848D01*
X108104131Y-56512366D01*
X108310815Y-56569221D01*
X108536500Y-56422162D01*
X108536500Y-54463500D01*
X108663500Y-54463500D01*
X108663500Y-56422162D01*
X108889185Y-56569221D01*
X109095869Y-56512366D01*
X109579746Y-56218848D01*
X109914466Y-55762501D01*
X110049070Y-55212800D01*
X110049070Y-54463500D01*
X108663500Y-54463500D01*
X108536500Y-54463500D01*
X108516500Y-54463500D01*
X108516500Y-54336500D01*
X108536500Y-54336500D01*
X108536500Y-52377838D01*
X108663500Y-52377838D01*
X108663500Y-54336500D01*
X110049070Y-54336500D01*
X110049070Y-53587200D01*
X109914466Y-53037499D01*
X109579746Y-52581152D01*
X109095869Y-52287634D01*
X108889185Y-52230779D01*
X108663500Y-52377838D01*
X108536500Y-52377838D01*
X108310815Y-52230779D01*
X108104131Y-52287634D01*
X107901500Y-52410549D01*
X107901500Y-52138904D01*
X108647955Y-51392449D01*
X114447354Y-51392449D01*
X114494077Y-51648470D01*
X114991119Y-51850327D01*
X115527573Y-51846609D01*
X116005923Y-51648470D01*
X116052646Y-51392449D01*
X115250000Y-50589803D01*
X114447354Y-51392449D01*
X108647955Y-51392449D01*
X109745905Y-50294499D01*
X113900043Y-50294499D01*
X113903391Y-50777573D01*
X114101530Y-51255923D01*
X114357551Y-51302646D01*
X115160197Y-50500000D01*
X115146055Y-50485858D01*
X115235858Y-50396055D01*
X115250000Y-50410197D01*
X115264142Y-50396055D01*
X115353945Y-50485858D01*
X115339803Y-50500000D01*
X116142449Y-51302646D01*
X116398470Y-51255923D01*
X116600327Y-50758881D01*
X116596609Y-50222427D01*
X116398470Y-49744077D01*
X116198695Y-49707619D01*
X118459600Y-47446714D01*
X119559023Y-48546137D01*
X120156449Y-48945325D01*
X120861160Y-49085500D01*
X122655226Y-49085500D01*
X122658500Y-49088774D01*
X122658500Y-50500000D01*
X122749352Y-50956744D01*
X122749352Y-51150000D01*
X122824624Y-51550039D01*
X123061047Y-51917450D01*
X123421786Y-52163932D01*
X123850000Y-52250648D01*
X124043256Y-52250648D01*
X124500000Y-52341500D01*
X139785500Y-52341500D01*
X139785500Y-53108594D01*
X139782590Y-53110467D01*
X139536108Y-53471206D01*
X139449392Y-53899420D01*
X139449392Y-54900180D01*
X139524664Y-55300219D01*
X139761087Y-55667630D01*
X140121826Y-55914112D01*
X140545801Y-55999970D01*
X140150001Y-56074444D01*
X139782590Y-56310867D01*
X139536108Y-56671606D01*
X139449392Y-57099820D01*
X139449392Y-57405744D01*
X137550465Y-59304671D01*
X137490337Y-59264495D01*
X136790000Y-59125189D01*
X136089663Y-59264495D01*
X135495945Y-59661204D01*
X135274592Y-59992483D01*
X135229746Y-59931342D01*
X134745869Y-59637824D01*
X134539185Y-59580969D01*
X134313500Y-59728028D01*
X134313500Y-61436500D01*
X134333500Y-61436500D01*
X134333500Y-61563500D01*
X134313500Y-61563500D01*
X134313500Y-63271972D01*
X134539185Y-63419031D01*
X134745869Y-63362176D01*
X135012500Y-63200439D01*
X135012500Y-65609924D01*
X134936068Y-65721786D01*
X134900657Y-65896651D01*
X134855923Y-65651530D01*
X134358881Y-65449673D01*
X133822427Y-65453391D01*
X133344077Y-65651530D01*
X133297354Y-65907551D01*
X134100000Y-66710197D01*
X134114142Y-66696055D01*
X134203945Y-66785858D01*
X134189803Y-66800000D01*
X134203945Y-66814142D01*
X134114142Y-66903945D01*
X134100000Y-66889803D01*
X133297354Y-67692449D01*
X133344077Y-67948470D01*
X133841119Y-68150327D01*
X134377573Y-68146609D01*
X134855923Y-67948470D01*
X134898867Y-67713154D01*
X134924624Y-67850039D01*
X135161047Y-68217450D01*
X135521786Y-68463932D01*
X135950000Y-68550648D01*
X137250000Y-68550648D01*
X137650039Y-68475376D01*
X138017450Y-68238953D01*
X138263932Y-67878214D01*
X138350648Y-67450000D01*
X138350648Y-66150000D01*
X138275376Y-65749961D01*
X138187500Y-65613398D01*
X138187500Y-63183979D01*
X138433528Y-62815772D01*
X138722732Y-62622532D01*
X139449392Y-61895872D01*
X139449392Y-61900180D01*
X139524664Y-62300219D01*
X139761087Y-62667630D01*
X140121826Y-62914112D01*
X140545801Y-62999970D01*
X140150001Y-63074444D01*
X139782590Y-63310867D01*
X139536108Y-63671606D01*
X139449392Y-64099820D01*
X139449392Y-65100580D01*
X139524664Y-65500619D01*
X139658500Y-65708606D01*
X139658500Y-66535979D01*
X139636500Y-66646580D01*
X139636500Y-69087226D01*
X138565226Y-70158500D01*
X137830008Y-70158500D01*
X137240337Y-69764495D01*
X136540000Y-69625189D01*
X135839663Y-69764495D01*
X135245945Y-70161204D01*
X135024592Y-70492483D01*
X134979746Y-70431342D01*
X134495869Y-70137824D01*
X134289185Y-70080969D01*
X134063500Y-70228028D01*
X134063500Y-71936500D01*
X134083500Y-71936500D01*
X134083500Y-72063500D01*
X134063500Y-72063500D01*
X134063500Y-73771972D01*
X134289185Y-73919031D01*
X134495869Y-73862176D01*
X134979746Y-73568658D01*
X135024592Y-73507517D01*
X135245945Y-73838796D01*
X135839663Y-74235505D01*
X136540000Y-74374811D01*
X137240337Y-74235505D01*
X137830008Y-73841500D01*
X139328000Y-73841500D01*
X140032712Y-73701324D01*
X140110721Y-73649200D01*
X141623465Y-73649200D01*
X141461173Y-74048819D01*
X141464891Y-74585273D01*
X141663030Y-75063623D01*
X141919051Y-75110346D01*
X142721697Y-74307700D01*
X142707555Y-74293558D01*
X142797358Y-74203755D01*
X142811500Y-74217897D01*
X142825642Y-74203755D01*
X142915445Y-74293558D01*
X142901303Y-74307700D01*
X143703949Y-75110346D01*
X143959970Y-75063623D01*
X144161827Y-74566581D01*
X144158109Y-74030127D01*
X143959970Y-73551777D01*
X143724654Y-73508833D01*
X143861539Y-73483076D01*
X144228950Y-73246653D01*
X144475432Y-72885914D01*
X144562148Y-72457700D01*
X144562148Y-72264444D01*
X144653000Y-71807700D01*
X144562148Y-71350956D01*
X144562148Y-71157700D01*
X144486876Y-70757661D01*
X144250453Y-70390250D01*
X143889714Y-70143768D01*
X143461500Y-70057052D01*
X143278315Y-70057052D01*
X143319500Y-69850000D01*
X143319500Y-66735182D01*
X143341500Y-66624580D01*
X143341500Y-65707921D01*
X143463892Y-65528794D01*
X143550608Y-65100580D01*
X143550608Y-64099820D01*
X143475336Y-63699781D01*
X143238913Y-63332370D01*
X142878174Y-63085888D01*
X142454199Y-63000030D01*
X142849999Y-62925556D01*
X143217410Y-62689133D01*
X143463892Y-62328394D01*
X143550608Y-61900180D01*
X143550608Y-61773862D01*
X146212332Y-59112137D01*
X146212335Y-59112135D01*
X146583991Y-58555911D01*
X146714500Y-57899800D01*
X146714500Y-55976063D01*
X146761454Y-55929191D01*
X147078629Y-55165351D01*
X147079350Y-54338278D01*
X146763510Y-53573885D01*
X146714500Y-53524789D01*
X146714500Y-51502600D01*
X146583991Y-50846489D01*
X146212335Y-50290265D01*
X146212332Y-50290263D01*
X145293835Y-49371765D01*
X145142146Y-49270410D01*
X145050292Y-49209035D01*
X145411722Y-49209350D01*
X146176115Y-48893510D01*
X146761454Y-48309191D01*
X147078629Y-47545351D01*
X147079350Y-46718278D01*
X146763510Y-45953885D01*
X146714500Y-45904789D01*
X146714500Y-41037864D01*
X146869138Y-40665453D01*
X146869860Y-39838177D01*
X146553942Y-39073597D01*
X145969480Y-38488113D01*
X145205453Y-38170862D01*
X144378177Y-38170140D01*
X143613597Y-38486058D01*
X143501384Y-38598075D01*
X143388941Y-38551500D01*
X142488125Y-38551500D01*
X142313500Y-38726125D01*
X142313500Y-40186500D01*
X142333500Y-40186500D01*
X142333500Y-40313500D01*
X142313500Y-40313500D01*
X142313500Y-41773875D01*
X142488125Y-41948500D01*
X143285500Y-41948500D01*
X143285500Y-45903937D01*
X143238546Y-45950809D01*
X142921371Y-46714649D01*
X142921011Y-47127971D01*
X142712335Y-46815665D01*
X142482692Y-46662223D01*
X139423895Y-43603425D01*
X139215574Y-43464230D01*
X138867671Y-43231769D01*
X138749227Y-43208209D01*
X138211560Y-43101259D01*
X138211555Y-43101260D01*
X134381703Y-43101260D01*
X134203200Y-43065112D01*
X134009944Y-43065112D01*
X133553200Y-42974260D01*
X126694515Y-42974260D01*
X126856807Y-42574641D01*
X126854268Y-42208209D01*
X132750554Y-42208209D01*
X132797277Y-42464230D01*
X133294319Y-42666087D01*
X133830773Y-42662369D01*
X134309123Y-42464230D01*
X134355846Y-42208209D01*
X133553200Y-41405563D01*
X132750554Y-42208209D01*
X126854268Y-42208209D01*
X126853089Y-42038187D01*
X126654950Y-41559837D01*
X126398929Y-41513114D01*
X125596283Y-42315760D01*
X125610425Y-42329902D01*
X125520622Y-42419705D01*
X125506480Y-42405563D01*
X125492338Y-42419705D01*
X125402535Y-42329902D01*
X125416677Y-42315760D01*
X124614031Y-41513114D01*
X124358010Y-41559837D01*
X124156153Y-42056879D01*
X124159871Y-42593333D01*
X124328707Y-43000940D01*
X118925823Y-43000940D01*
X118835096Y-42963267D01*
X118087384Y-42962614D01*
X117396339Y-43248148D01*
X116867166Y-43776398D01*
X116828678Y-43869088D01*
X114086267Y-46611499D01*
X108983131Y-46611499D01*
X108278420Y-46751674D01*
X107680994Y-47150862D01*
X104757863Y-50073993D01*
X104358676Y-50671418D01*
X104218500Y-51376130D01*
X104218500Y-51909038D01*
X103520000Y-51770097D01*
X102819663Y-51909403D01*
X102250000Y-52290039D01*
X101680337Y-51909403D01*
X100980000Y-51770097D01*
X100279663Y-51909403D01*
X99685945Y-52306112D01*
X99289236Y-52899830D01*
X99149930Y-53600167D01*
X99149930Y-54342538D01*
X99138500Y-54400000D01*
X99138500Y-59349392D01*
X98762820Y-59349392D01*
X98362781Y-59424664D01*
X97995370Y-59661087D01*
X97904300Y-59794373D01*
X97904300Y-55462800D01*
X97887036Y-55376006D01*
X97764125Y-54758089D01*
X97747484Y-54733184D01*
X97675376Y-54349961D01*
X97438953Y-53982550D01*
X97078214Y-53736068D01*
X96650000Y-53649352D01*
X96456743Y-53649352D01*
X96000000Y-53558500D01*
X95543257Y-53649352D01*
X95350000Y-53649352D01*
X94949961Y-53724624D01*
X94582550Y-53961047D01*
X94336068Y-54321786D01*
X94249352Y-54750000D01*
X94249352Y-54943257D01*
X94227660Y-55052311D01*
X93967054Y-54421597D01*
X93480962Y-53934656D01*
X92845528Y-53670801D01*
X92157490Y-53670200D01*
X91521597Y-53932946D01*
X91034656Y-54419038D01*
X90770801Y-55054472D01*
X90770200Y-55742510D01*
X91032946Y-56378403D01*
X91126879Y-56472500D01*
X87102000Y-56472500D01*
X86397288Y-56612676D01*
X86258589Y-56705352D01*
X86086000Y-56705352D01*
X85685961Y-56780624D01*
X85318550Y-57017047D01*
X85072068Y-57377786D01*
X84985352Y-57806000D01*
X84985352Y-58822000D01*
X85060624Y-59222039D01*
X85212565Y-59458161D01*
X85072068Y-59663786D01*
X84985352Y-60092000D01*
X84985352Y-61108000D01*
X85060624Y-61508039D01*
X85212565Y-61744161D01*
X85072068Y-61949786D01*
X84985352Y-62378000D01*
X84985352Y-63394000D01*
X85060624Y-63794039D01*
X85297047Y-64161450D01*
X85657786Y-64407932D01*
X86086000Y-64494648D01*
X86611147Y-64494648D01*
X86687490Y-64545659D01*
X87295000Y-64666500D01*
X89991223Y-64666500D01*
X90332472Y-64808199D01*
X91020510Y-64808800D01*
X91656403Y-64546054D01*
X92109590Y-64093657D01*
X94285500Y-66269567D01*
X94285500Y-66771497D01*
X94249352Y-66950000D01*
X94249352Y-68250000D01*
X94324624Y-68650039D01*
X94561047Y-69017450D01*
X94921786Y-69263932D01*
X95350000Y-69350648D01*
X96650000Y-69350648D01*
X96842111Y-69314500D01*
X99528393Y-69314500D01*
X99636490Y-69576115D01*
X100220809Y-70161454D01*
X100745207Y-70379204D01*
X100366021Y-70632568D01*
X100127417Y-70989664D01*
X99744063Y-70733516D01*
X99233755Y-70632009D01*
X97175443Y-70632009D01*
X96665134Y-70733516D01*
X96232516Y-71022582D01*
X94239572Y-73015526D01*
X93950506Y-73448145D01*
X93848999Y-73958453D01*
X93848999Y-84494342D01*
X93395771Y-84404189D01*
X89717169Y-84404189D01*
X89878629Y-84015351D01*
X89879350Y-83188278D01*
X89563510Y-82423885D01*
X89040138Y-81899599D01*
X89561454Y-81379191D01*
X89878629Y-80615351D01*
X89879350Y-79788278D01*
X89563510Y-79023885D01*
X89040138Y-78499599D01*
X89561454Y-77979191D01*
X89878629Y-77215351D01*
X89879350Y-76388278D01*
X89563510Y-75623885D01*
X89140137Y-75199773D01*
X89561454Y-74779191D01*
X89878629Y-74015351D01*
X89879350Y-73188278D01*
X89563510Y-72423885D01*
X88979191Y-71838546D01*
X88215351Y-71521371D01*
X87966218Y-71521154D01*
X85708472Y-69263408D01*
X85193450Y-68919281D01*
X84585940Y-68798440D01*
X82872322Y-68798440D01*
X82373599Y-68465204D01*
X81578004Y-68306950D01*
X79965996Y-68306950D01*
X79170401Y-68465204D01*
X78495928Y-68915872D01*
X78045260Y-69590345D01*
X77887006Y-70385940D01*
X78045260Y-71181535D01*
X78495928Y-71856008D01*
X78914966Y-72136000D01*
X78495928Y-72415992D01*
X78045260Y-73090465D01*
X77887006Y-73886060D01*
X78045260Y-74681655D01*
X78495928Y-75356128D01*
X79170401Y-75806796D01*
X79965996Y-75965050D01*
X80426320Y-75965050D01*
X82473603Y-78012332D01*
X82473605Y-78012335D01*
X83011434Y-78371700D01*
X83029829Y-78383991D01*
X83685940Y-78514500D01*
X86545739Y-78514500D01*
X86447568Y-78612500D01*
X83077891Y-78612500D01*
X83048072Y-78567872D01*
X82373599Y-78117204D01*
X81578004Y-77958950D01*
X79965996Y-77958950D01*
X79170401Y-78117204D01*
X78495928Y-78567872D01*
X78045260Y-79242345D01*
X77887006Y-80037940D01*
X78045260Y-80833535D01*
X78495928Y-81508008D01*
X78914966Y-81788000D01*
X78495928Y-82067992D01*
X78045260Y-82742465D01*
X77887006Y-83538060D01*
X78045260Y-84333655D01*
X78174966Y-84527774D01*
X77719720Y-84831960D01*
X75133200Y-87418480D01*
X75133200Y-67942510D01*
X90770200Y-67942510D01*
X91032946Y-68578403D01*
X91519038Y-69065344D01*
X92154472Y-69329199D01*
X92842510Y-69329800D01*
X93478403Y-69067054D01*
X93965344Y-68580962D01*
X94229199Y-67945528D01*
X94229800Y-67257490D01*
X93967054Y-66621597D01*
X93480962Y-66134656D01*
X92845528Y-65870801D01*
X92157490Y-65870200D01*
X91521597Y-66132946D01*
X91034656Y-66619038D01*
X90770801Y-67254472D01*
X90770200Y-67942510D01*
X75133200Y-67942510D01*
X75133200Y-58771200D01*
X78381352Y-58771200D01*
X78381352Y-62428800D01*
X78456624Y-62828839D01*
X78693047Y-63196250D01*
X79053786Y-63442732D01*
X79482000Y-63529448D01*
X81514000Y-63529448D01*
X81914039Y-63454176D01*
X82281450Y-63217753D01*
X82527932Y-62857014D01*
X82614648Y-62428800D01*
X82614648Y-58771200D01*
X82539376Y-58371161D01*
X82302953Y-58003750D01*
X81942214Y-57757268D01*
X81514000Y-57670552D01*
X79482000Y-57670552D01*
X79081961Y-57745824D01*
X78714550Y-57982247D01*
X78468068Y-58342986D01*
X78381352Y-58771200D01*
X75133200Y-58771200D01*
X75133200Y-53861333D01*
X78670096Y-53861333D01*
X79023994Y-54717832D01*
X79678721Y-55373703D01*
X80534601Y-55729095D01*
X81461333Y-55729904D01*
X82317832Y-55376006D01*
X82452573Y-55241500D01*
X82872940Y-55241500D01*
X83577652Y-55101324D01*
X84175077Y-54702137D01*
X87154137Y-51723077D01*
X87184560Y-51677546D01*
X87553324Y-51125652D01*
X87610325Y-50839086D01*
X89892736Y-50839086D01*
X89963808Y-51115832D01*
X90533040Y-51350968D01*
X91148923Y-51350371D01*
X91715152Y-51115832D01*
X91786224Y-50839086D01*
X90839480Y-49892343D01*
X89892736Y-50839086D01*
X87610325Y-50839086D01*
X87693500Y-50420940D01*
X87693500Y-49496100D01*
X89291052Y-49496100D01*
X89291649Y-50111983D01*
X89526188Y-50678212D01*
X89802934Y-50749284D01*
X90749677Y-49802540D01*
X90929283Y-49802540D01*
X91876026Y-50749284D01*
X92152772Y-50678212D01*
X92387908Y-50108980D01*
X92387311Y-49493097D01*
X92163559Y-48952910D01*
X99049202Y-48952910D01*
X99049202Y-50652170D01*
X99124474Y-51052209D01*
X99360897Y-51419620D01*
X99721636Y-51666102D01*
X100149850Y-51752818D01*
X101849110Y-51752818D01*
X102249149Y-51677546D01*
X102616560Y-51441123D01*
X102863042Y-51080384D01*
X102949758Y-50652170D01*
X102949758Y-48952910D01*
X102874486Y-48552871D01*
X102840980Y-48500801D01*
X102840980Y-48191684D01*
X106191164Y-44841500D01*
X110333976Y-44841500D01*
X110798495Y-45151882D01*
X111689834Y-45329180D01*
X113311646Y-45329180D01*
X114202985Y-45151882D01*
X114958625Y-44646979D01*
X115463528Y-43891339D01*
X115640826Y-43000000D01*
X115551929Y-42553085D01*
X116421074Y-41683940D01*
X120793377Y-41683940D01*
X120884104Y-41721613D01*
X121631816Y-41722266D01*
X122322861Y-41436732D01*
X122336305Y-41423311D01*
X124703834Y-41423311D01*
X125506480Y-42225957D01*
X126309126Y-41423311D01*
X126262403Y-41167290D01*
X125990533Y-41056879D01*
X132202873Y-41056879D01*
X132206591Y-41593333D01*
X132404730Y-42071683D01*
X132660751Y-42118406D01*
X133463397Y-41315760D01*
X133643003Y-41315760D01*
X134445649Y-42118406D01*
X134701670Y-42071683D01*
X134903527Y-41574641D01*
X134899809Y-41038187D01*
X134701670Y-40559837D01*
X134445649Y-40513114D01*
X133643003Y-41315760D01*
X133463397Y-41315760D01*
X132660751Y-40513114D01*
X132404730Y-40559837D01*
X132202873Y-41056879D01*
X125990533Y-41056879D01*
X125765361Y-40965433D01*
X125228907Y-40969151D01*
X124750557Y-41167290D01*
X124703834Y-41423311D01*
X122336305Y-41423311D01*
X122852034Y-40908482D01*
X123053494Y-40423311D01*
X132750554Y-40423311D01*
X133553200Y-41225957D01*
X134291032Y-40488125D01*
X140551500Y-40488125D01*
X140551500Y-41388940D01*
X140657840Y-41645668D01*
X140854331Y-41842160D01*
X141111059Y-41948500D01*
X142011875Y-41948500D01*
X142186500Y-41773875D01*
X142186500Y-40313500D01*
X140726125Y-40313500D01*
X140551500Y-40488125D01*
X134291032Y-40488125D01*
X134355846Y-40423311D01*
X134309123Y-40167290D01*
X133812081Y-39965433D01*
X133275627Y-39969151D01*
X132797277Y-40167290D01*
X132750554Y-40423311D01*
X123053494Y-40423311D01*
X123138773Y-40217936D01*
X123139426Y-39470224D01*
X122991023Y-39111060D01*
X140551500Y-39111060D01*
X140551500Y-40011875D01*
X140726125Y-40186500D01*
X142186500Y-40186500D01*
X142186500Y-38726125D01*
X142011875Y-38551500D01*
X141111059Y-38551500D01*
X140854331Y-38657840D01*
X140657840Y-38854332D01*
X140551500Y-39111060D01*
X122991023Y-39111060D01*
X122853892Y-38779179D01*
X122325642Y-38250006D01*
X121635096Y-37963267D01*
X120887384Y-37962614D01*
X120794628Y-38000940D01*
X115658300Y-38000940D01*
X114953588Y-38141116D01*
X114790623Y-38250006D01*
X114356163Y-38540303D01*
X112225646Y-40670820D01*
X111689834Y-40670820D01*
X110798495Y-40848118D01*
X110333976Y-41158500D01*
X105428390Y-41158500D01*
X104723679Y-41298675D01*
X104126253Y-41697863D01*
X99697343Y-46126773D01*
X99298156Y-46724198D01*
X99157980Y-47428910D01*
X99157980Y-48492407D01*
X99135918Y-48524696D01*
X99049202Y-48952910D01*
X92163559Y-48952910D01*
X92152772Y-48926868D01*
X91876026Y-48855796D01*
X90929283Y-49802540D01*
X90749677Y-49802540D01*
X89802934Y-48855796D01*
X89526188Y-48926868D01*
X89291052Y-49496100D01*
X87693500Y-49496100D01*
X87693500Y-48765994D01*
X89892736Y-48765994D01*
X90839480Y-49712737D01*
X91786224Y-48765994D01*
X91715152Y-48489248D01*
X91145920Y-48254112D01*
X90530037Y-48254709D01*
X89963808Y-48489248D01*
X89892736Y-48765994D01*
X87693500Y-48765994D01*
X87693500Y-44885784D01*
X87737784Y-44841500D01*
X88332496Y-44841500D01*
X88797015Y-45151882D01*
X89688354Y-45329180D01*
X91310166Y-45329180D01*
X92201505Y-45151882D01*
X92957145Y-44646979D01*
X93462048Y-43891339D01*
X93639346Y-43000000D01*
X93462048Y-42108661D01*
X92957145Y-41353021D01*
X92201505Y-40848118D01*
X91310166Y-40670820D01*
X89688354Y-40670820D01*
X88797015Y-40848118D01*
X88332496Y-41158500D01*
X86975010Y-41158500D01*
X86270298Y-41298676D01*
X85857288Y-41574641D01*
X85672873Y-41697863D01*
X84549863Y-42820873D01*
X84150676Y-43418298D01*
X84010500Y-44123010D01*
X84010500Y-49658166D01*
X82265522Y-51403144D01*
X81465399Y-51070905D01*
X80538667Y-51070096D01*
X79682168Y-51423994D01*
X79026297Y-52078721D01*
X78670905Y-52934601D01*
X78670096Y-53861333D01*
X75133200Y-53861333D01*
X75133200Y-48638125D01*
X79051500Y-48638125D01*
X79051500Y-49788940D01*
X79157840Y-50045668D01*
X79354331Y-50242160D01*
X79611059Y-50348500D01*
X80761875Y-50348500D01*
X80936500Y-50173875D01*
X80936500Y-48463500D01*
X81063500Y-48463500D01*
X81063500Y-50173875D01*
X81238125Y-50348500D01*
X82388941Y-50348500D01*
X82645669Y-50242160D01*
X82842160Y-50045668D01*
X82948500Y-49788940D01*
X82948500Y-48638125D01*
X82773875Y-48463500D01*
X81063500Y-48463500D01*
X80936500Y-48463500D01*
X79226125Y-48463500D01*
X79051500Y-48638125D01*
X75133200Y-48638125D01*
X75133200Y-47011060D01*
X79051500Y-47011060D01*
X79051500Y-48161875D01*
X79226125Y-48336500D01*
X80936500Y-48336500D01*
X80936500Y-46626125D01*
X81063500Y-46626125D01*
X81063500Y-48336500D01*
X82773875Y-48336500D01*
X82948500Y-48161875D01*
X82948500Y-47011060D01*
X82842160Y-46754332D01*
X82645669Y-46557840D01*
X82388941Y-46451500D01*
X81238125Y-46451500D01*
X81063500Y-46626125D01*
X80936500Y-46626125D01*
X80761875Y-46451500D01*
X79611059Y-46451500D01*
X79354331Y-46557840D01*
X79157840Y-46754332D01*
X79051500Y-47011060D01*
X75133200Y-47011060D01*
X75133200Y-45237400D01*
X78803500Y-45237400D01*
X78877615Y-45222391D01*
X78940052Y-45179730D01*
X78980972Y-45116139D01*
X78994000Y-45046900D01*
X78994000Y-37617400D01*
X147142200Y-37617400D01*
X147142200Y-63316270D01*
X147142200Y-63316270D01*
G37*
X147142200Y-63316270D02*
X147138645Y-63318645D01*
X146888381Y-63693192D01*
X146800500Y-64135000D01*
X146800500Y-76835000D01*
X146888381Y-77276808D01*
X147138645Y-77651355D01*
X147142200Y-77653730D01*
X147142200Y-77915530D01*
X145624035Y-76397365D01*
X145571808Y-76362468D01*
X145067811Y-76025709D01*
X144901462Y-75992620D01*
X144411700Y-75895199D01*
X144411695Y-75895200D01*
X143240704Y-75895200D01*
X143022544Y-75746138D01*
X142594330Y-75659422D01*
X140895070Y-75659422D01*
X140495031Y-75734694D01*
X140127620Y-75971117D01*
X139881138Y-76331856D01*
X139794422Y-76760070D01*
X139794422Y-78459330D01*
X139869694Y-78859369D01*
X140106117Y-79226780D01*
X140466856Y-79473262D01*
X140895070Y-79559978D01*
X142594330Y-79559978D01*
X142994369Y-79484706D01*
X143243802Y-79324200D01*
X143701530Y-79324200D01*
X151414683Y-87037352D01*
X150130000Y-87037352D01*
X149729961Y-87112624D01*
X149362550Y-87349047D01*
X149116068Y-87709786D01*
X149029352Y-88138000D01*
X149029352Y-89359233D01*
X147372289Y-87702171D01*
X146898469Y-87385574D01*
X146822938Y-87370550D01*
X146339560Y-87274400D01*
X146109965Y-87274400D01*
X146103572Y-87264832D01*
X145429099Y-86814164D01*
X144633504Y-86655910D01*
X143021496Y-86655910D01*
X142225901Y-86814164D01*
X141841219Y-87071200D01*
X136441353Y-87071200D01*
X136132699Y-86864964D01*
X135337104Y-86706710D01*
X133725096Y-86706710D01*
X133158980Y-86819318D01*
X133158980Y-83515200D01*
X133330224Y-83515200D01*
X133442086Y-83591632D01*
X133870300Y-83678348D01*
X135170300Y-83678348D01*
X135570339Y-83603076D01*
X135937750Y-83366653D01*
X136184232Y-83005914D01*
X136219643Y-82831049D01*
X136264377Y-83076170D01*
X136761419Y-83278027D01*
X137297873Y-83274309D01*
X137776223Y-83076170D01*
X137822946Y-82820149D01*
X137020300Y-82017503D01*
X137006158Y-82031645D01*
X136916355Y-81941842D01*
X136930497Y-81927700D01*
X137110103Y-81927700D01*
X137912749Y-82730346D01*
X138168770Y-82683623D01*
X138370627Y-82186581D01*
X138366909Y-81650127D01*
X138168770Y-81171777D01*
X137912749Y-81125054D01*
X137110103Y-81927700D01*
X136930497Y-81927700D01*
X136916355Y-81913558D01*
X137006158Y-81823755D01*
X137020300Y-81837897D01*
X137822946Y-81035251D01*
X137776223Y-80779230D01*
X137279181Y-80577373D01*
X136742727Y-80581091D01*
X136264377Y-80779230D01*
X136221433Y-81014546D01*
X136195676Y-80877661D01*
X135959253Y-80510250D01*
X135598514Y-80263768D01*
X135170300Y-80177052D01*
X133870300Y-80177052D01*
X133470261Y-80252324D01*
X133333698Y-80340200D01*
X133172200Y-80340200D01*
X133172200Y-78750792D01*
X133219183Y-78703891D01*
X133513495Y-77995111D01*
X133514164Y-77227656D01*
X133221091Y-76518363D01*
X133047500Y-76344469D01*
X133047500Y-75200149D01*
X142008854Y-75200149D01*
X142055577Y-75456170D01*
X142552619Y-75658027D01*
X143089073Y-75654309D01*
X143567423Y-75456170D01*
X143614146Y-75200149D01*
X142811500Y-74397503D01*
X142008854Y-75200149D01*
X133047500Y-75200149D01*
X133047500Y-73585185D01*
X133504131Y-73862176D01*
X133710815Y-73919031D01*
X133936500Y-73771972D01*
X133936500Y-72063500D01*
X133916500Y-72063500D01*
X133916500Y-71936500D01*
X133936500Y-71936500D01*
X133936500Y-70228028D01*
X133710815Y-70080969D01*
X133504131Y-70137824D01*
X133020254Y-70431342D01*
X132975408Y-70492483D01*
X132754055Y-70161204D01*
X132160337Y-69764495D01*
X131460000Y-69625189D01*
X130787500Y-69758958D01*
X130787500Y-67990076D01*
X130863932Y-67878214D01*
X130899343Y-67703349D01*
X130944077Y-67948470D01*
X131441119Y-68150327D01*
X131977573Y-68146609D01*
X132455923Y-67948470D01*
X132502646Y-67692449D01*
X131700000Y-66889803D01*
X131685858Y-66903945D01*
X131596055Y-66814142D01*
X131610197Y-66800000D01*
X131789803Y-66800000D01*
X132592449Y-67602646D01*
X132848470Y-67555923D01*
X132899491Y-67430291D01*
X132951530Y-67555923D01*
X133207551Y-67602646D01*
X134010197Y-66800000D01*
X133207551Y-65997354D01*
X132951530Y-66044077D01*
X132900509Y-66169709D01*
X132848470Y-66044077D01*
X132592449Y-65997354D01*
X131789803Y-66800000D01*
X131610197Y-66800000D01*
X131596055Y-66785858D01*
X131685858Y-66696055D01*
X131700000Y-66710197D01*
X132502646Y-65907551D01*
X132455923Y-65651530D01*
X131958881Y-65449673D01*
X131422427Y-65453391D01*
X131041500Y-65611176D01*
X131041500Y-64626000D01*
X130901324Y-63921288D01*
X130589682Y-63454883D01*
X131009663Y-63735505D01*
X131710000Y-63874811D01*
X132410337Y-63735505D01*
X133004055Y-63338796D01*
X133225408Y-63007517D01*
X133270254Y-63068658D01*
X133754131Y-63362176D01*
X133960815Y-63419031D01*
X134186500Y-63271972D01*
X134186500Y-61563500D01*
X134166500Y-61563500D01*
X134166500Y-61436500D01*
X134186500Y-61436500D01*
X134186500Y-59728028D01*
X133960815Y-59580969D01*
X133754131Y-59637824D01*
X133270254Y-59931342D01*
X133225408Y-59992483D01*
X133004055Y-59661204D01*
X132410337Y-59264495D01*
X131710000Y-59125189D01*
X131009663Y-59264495D01*
X130415945Y-59661204D01*
X130332893Y-59785500D01*
X127190500Y-59785500D01*
X127190500Y-59608035D01*
X127590119Y-59770327D01*
X128126573Y-59766609D01*
X128604923Y-59568470D01*
X128651646Y-59312449D01*
X127849000Y-58509803D01*
X127834858Y-58523945D01*
X127745055Y-58434142D01*
X127759197Y-58420000D01*
X127938803Y-58420000D01*
X128741449Y-59222646D01*
X128997470Y-59175923D01*
X129199327Y-58678881D01*
X129195609Y-58142427D01*
X128997470Y-57664077D01*
X128741449Y-57617354D01*
X127938803Y-58420000D01*
X127759197Y-58420000D01*
X127745055Y-58405858D01*
X127834858Y-58316055D01*
X127849000Y-58330197D01*
X128651646Y-57527551D01*
X128604923Y-57271530D01*
X128107881Y-57069673D01*
X127571427Y-57073391D01*
X127093077Y-57271530D01*
X127050133Y-57506846D01*
X127024376Y-57369961D01*
X126787953Y-57002550D01*
X126427214Y-56756068D01*
X125999000Y-56669352D01*
X124699000Y-56669352D01*
X124298961Y-56744624D01*
X123931550Y-56981047D01*
X123685068Y-57341786D01*
X123598352Y-57770000D01*
X123598352Y-58172041D01*
X123410493Y-57890890D01*
X123259335Y-57664665D01*
X123259332Y-57664663D01*
X120487119Y-54892449D01*
X123697354Y-54892449D01*
X123744077Y-55148470D01*
X124241119Y-55350327D01*
X124777573Y-55346609D01*
X125255923Y-55148470D01*
X125302646Y-54892449D01*
X132697354Y-54892449D01*
X132744077Y-55148470D01*
X133241119Y-55350327D01*
X133777573Y-55346609D01*
X134255923Y-55148470D01*
X134302646Y-54892449D01*
X133500000Y-54089803D01*
X132697354Y-54892449D01*
X125302646Y-54892449D01*
X124500000Y-54089803D01*
X123697354Y-54892449D01*
X120487119Y-54892449D01*
X119335789Y-53741119D01*
X123149673Y-53741119D01*
X123153391Y-54277573D01*
X123351530Y-54755923D01*
X123607551Y-54802646D01*
X124410197Y-54000000D01*
X124589803Y-54000000D01*
X125392449Y-54802646D01*
X125648470Y-54755923D01*
X125850327Y-54258881D01*
X125846739Y-53741119D01*
X132149673Y-53741119D01*
X132153391Y-54277573D01*
X132351530Y-54755923D01*
X132607551Y-54802646D01*
X133410197Y-54000000D01*
X133589803Y-54000000D01*
X134392449Y-54802646D01*
X134648470Y-54755923D01*
X134850327Y-54258881D01*
X134846609Y-53722427D01*
X134648470Y-53244077D01*
X134392449Y-53197354D01*
X133589803Y-54000000D01*
X133410197Y-54000000D01*
X132607551Y-53197354D01*
X132351530Y-53244077D01*
X132149673Y-53741119D01*
X125846739Y-53741119D01*
X125846609Y-53722427D01*
X125648470Y-53244077D01*
X125392449Y-53197354D01*
X124589803Y-54000000D01*
X124410197Y-54000000D01*
X123607551Y-53197354D01*
X123351530Y-53244077D01*
X123149673Y-53741119D01*
X119335789Y-53741119D01*
X118702221Y-53107551D01*
X123697354Y-53107551D01*
X124500000Y-53910197D01*
X125302646Y-53107551D01*
X132697354Y-53107551D01*
X133500000Y-53910197D01*
X134302646Y-53107551D01*
X134255923Y-52851530D01*
X133758881Y-52649673D01*
X133222427Y-52653391D01*
X132744077Y-52851530D01*
X132697354Y-53107551D01*
X125302646Y-53107551D01*
X125255923Y-52851530D01*
X124758881Y-52649673D01*
X124222427Y-52653391D01*
X123744077Y-52851530D01*
X123697354Y-53107551D01*
X118702221Y-53107551D01*
X118382335Y-52787665D01*
X118244084Y-52695289D01*
X117826111Y-52416009D01*
X117717254Y-52394356D01*
X117170000Y-52285499D01*
X117169995Y-52285500D01*
X116078503Y-52285500D01*
X115900000Y-52249352D01*
X114600000Y-52249352D01*
X114199961Y-52324624D01*
X113832550Y-52561047D01*
X113586068Y-52921786D01*
X113499352Y-53350000D01*
X113499352Y-54650000D01*
X113574624Y-55050039D01*
X113811047Y-55417450D01*
X114171786Y-55663932D01*
X114600000Y-55750648D01*
X115900000Y-55750648D01*
X116092111Y-55714500D01*
X116459830Y-55714500D01*
X120332500Y-59587169D01*
X120332500Y-60795396D01*
X120316214Y-60784268D01*
X119888000Y-60697552D01*
X117856000Y-60697552D01*
X117455961Y-60772824D01*
X117088550Y-61009247D01*
X116842068Y-61369986D01*
X116755352Y-61798200D01*
X116755352Y-65455800D01*
X116830624Y-65855839D01*
X117067047Y-66223250D01*
X117427786Y-66469732D01*
X117856000Y-66556448D01*
X119888000Y-66556448D01*
X120288039Y-66481176D01*
X120655450Y-66244753D01*
X120719423Y-66151125D01*
X123761500Y-66151125D01*
X123761500Y-66559940D01*
X123867840Y-66816668D01*
X124064331Y-67013160D01*
X124321059Y-67119500D01*
X125237875Y-67119500D01*
X125412500Y-66944875D01*
X125412500Y-65976500D01*
X125539500Y-65976500D01*
X125539500Y-66944875D01*
X125714125Y-67119500D01*
X126630941Y-67119500D01*
X126887669Y-67013160D01*
X127084160Y-66816668D01*
X127190500Y-66559940D01*
X127190500Y-66151125D01*
X127015875Y-65976500D01*
X125539500Y-65976500D01*
X125412500Y-65976500D01*
X123936125Y-65976500D01*
X123761500Y-66151125D01*
X120719423Y-66151125D01*
X120901932Y-65884014D01*
X120988648Y-65455800D01*
X120988648Y-63850318D01*
X121977665Y-64839335D01*
X122533889Y-65210991D01*
X122642746Y-65232644D01*
X123190000Y-65341501D01*
X123190005Y-65341500D01*
X123761500Y-65341500D01*
X123761500Y-65674875D01*
X123936125Y-65849500D01*
X125412500Y-65849500D01*
X125412500Y-65829500D01*
X125539500Y-65829500D01*
X125539500Y-65849500D01*
X127015875Y-65849500D01*
X127190500Y-65674875D01*
X127190500Y-65468500D01*
X127358500Y-65468500D01*
X127358500Y-66800000D01*
X127449352Y-67256744D01*
X127449352Y-67450000D01*
X127524624Y-67850039D01*
X127612500Y-67986602D01*
X127612500Y-70548436D01*
X126564248Y-71596688D01*
X126564248Y-71184000D01*
X126488976Y-70783961D01*
X126252553Y-70416550D01*
X126047500Y-70276444D01*
X126047500Y-69723000D01*
X125949780Y-69231729D01*
X125936326Y-69164090D01*
X125619729Y-68690270D01*
X124095729Y-67166271D01*
X123621909Y-66849674D01*
X123063000Y-66738500D01*
X117444959Y-66738500D01*
X114673729Y-63967271D01*
X114199909Y-63650674D01*
X113641000Y-63539500D01*
X113039621Y-63539500D01*
X112739191Y-63238546D01*
X111975351Y-62921371D01*
X111148278Y-62920650D01*
X110383885Y-63236490D01*
X110360500Y-63259834D01*
X110360500Y-62683237D01*
X110363932Y-62678214D01*
X110450648Y-62250000D01*
X110450648Y-61890549D01*
X114475254Y-61890549D01*
X114521977Y-62146570D01*
X115019019Y-62348427D01*
X115555473Y-62344709D01*
X116033823Y-62146570D01*
X116080546Y-61890549D01*
X115277900Y-61087903D01*
X114475254Y-61890549D01*
X110450648Y-61890549D01*
X110450648Y-60550000D01*
X110375376Y-60149961D01*
X110138953Y-59782550D01*
X109778214Y-59536068D01*
X109350000Y-59449352D01*
X108450000Y-59449352D01*
X108049961Y-59524624D01*
X107682550Y-59761047D01*
X107556221Y-59945936D01*
X107495582Y-59920757D01*
X106907000Y-59920244D01*
X106844243Y-59946175D01*
X106738953Y-59782550D01*
X106378214Y-59536068D01*
X105950000Y-59449352D01*
X105050000Y-59449352D01*
X104649961Y-59524624D01*
X104282550Y-59761047D01*
X104278199Y-59767414D01*
X104045528Y-59670801D01*
X103357490Y-59670200D01*
X102821500Y-59891667D01*
X102821500Y-57848100D01*
X113527252Y-57848100D01*
X113527252Y-59148100D01*
X113602524Y-59548139D01*
X113838947Y-59915550D01*
X114199686Y-60162032D01*
X114374551Y-60197443D01*
X114129430Y-60242177D01*
X113927573Y-60739219D01*
X113931291Y-61275673D01*
X114129430Y-61754023D01*
X114385451Y-61800746D01*
X115188097Y-60998100D01*
X115173955Y-60983958D01*
X115263758Y-60894155D01*
X115277900Y-60908297D01*
X115292042Y-60894155D01*
X115381845Y-60983958D01*
X115367703Y-60998100D01*
X116170349Y-61800746D01*
X116426370Y-61754023D01*
X116628227Y-61256981D01*
X116624509Y-60720527D01*
X116426370Y-60242177D01*
X116191054Y-60199233D01*
X116327939Y-60173476D01*
X116695350Y-59937053D01*
X116941832Y-59576314D01*
X117028548Y-59148100D01*
X117028548Y-57848100D01*
X116953276Y-57448061D01*
X116716853Y-57080650D01*
X116356114Y-56834168D01*
X115927900Y-56747452D01*
X114627900Y-56747452D01*
X114227861Y-56822724D01*
X113860450Y-57059147D01*
X113613968Y-57419886D01*
X113527252Y-57848100D01*
X102821500Y-57848100D01*
X102821500Y-56890962D01*
X103520000Y-57029903D01*
X104220337Y-56890597D01*
X104790000Y-56509961D01*
X105359663Y-56890597D01*
X106060000Y-57029903D01*
X106760337Y-56890597D01*
X107354055Y-56493888D01*
X107577122Y-56160044D01*
X107620254Y-56218848D01*
X108104131Y-56512366D01*
X108310815Y-56569221D01*
X108536500Y-56422162D01*
X108536500Y-54463500D01*
X108663500Y-54463500D01*
X108663500Y-56422162D01*
X108889185Y-56569221D01*
X109095869Y-56512366D01*
X109579746Y-56218848D01*
X109914466Y-55762501D01*
X110049070Y-55212800D01*
X110049070Y-54463500D01*
X108663500Y-54463500D01*
X108536500Y-54463500D01*
X108516500Y-54463500D01*
X108516500Y-54336500D01*
X108536500Y-54336500D01*
X108536500Y-52377838D01*
X108663500Y-52377838D01*
X108663500Y-54336500D01*
X110049070Y-54336500D01*
X110049070Y-53587200D01*
X109914466Y-53037499D01*
X109579746Y-52581152D01*
X109095869Y-52287634D01*
X108889185Y-52230779D01*
X108663500Y-52377838D01*
X108536500Y-52377838D01*
X108310815Y-52230779D01*
X108104131Y-52287634D01*
X107901500Y-52410549D01*
X107901500Y-52138904D01*
X108647955Y-51392449D01*
X114447354Y-51392449D01*
X114494077Y-51648470D01*
X114991119Y-51850327D01*
X115527573Y-51846609D01*
X116005923Y-51648470D01*
X116052646Y-51392449D01*
X115250000Y-50589803D01*
X114447354Y-51392449D01*
X108647955Y-51392449D01*
X109745905Y-50294499D01*
X113900043Y-50294499D01*
X113903391Y-50777573D01*
X114101530Y-51255923D01*
X114357551Y-51302646D01*
X115160197Y-50500000D01*
X115146055Y-50485858D01*
X115235858Y-50396055D01*
X115250000Y-50410197D01*
X115264142Y-50396055D01*
X115353945Y-50485858D01*
X115339803Y-50500000D01*
X116142449Y-51302646D01*
X116398470Y-51255923D01*
X116600327Y-50758881D01*
X116596609Y-50222427D01*
X116398470Y-49744077D01*
X116198695Y-49707619D01*
X118459600Y-47446714D01*
X119559023Y-48546137D01*
X120156449Y-48945325D01*
X120861160Y-49085500D01*
X122655226Y-49085500D01*
X122658500Y-49088774D01*
X122658500Y-50500000D01*
X122749352Y-50956744D01*
X122749352Y-51150000D01*
X122824624Y-51550039D01*
X123061047Y-51917450D01*
X123421786Y-52163932D01*
X123850000Y-52250648D01*
X124043256Y-52250648D01*
X124500000Y-52341500D01*
X139785500Y-52341500D01*
X139785500Y-53108594D01*
X139782590Y-53110467D01*
X139536108Y-53471206D01*
X139449392Y-53899420D01*
X139449392Y-54900180D01*
X139524664Y-55300219D01*
X139761087Y-55667630D01*
X140121826Y-55914112D01*
X140545801Y-55999970D01*
X140150001Y-56074444D01*
X139782590Y-56310867D01*
X139536108Y-56671606D01*
X139449392Y-57099820D01*
X139449392Y-57405744D01*
X137550465Y-59304671D01*
X137490337Y-59264495D01*
X136790000Y-59125189D01*
X136089663Y-59264495D01*
X135495945Y-59661204D01*
X135274592Y-59992483D01*
X135229746Y-59931342D01*
X134745869Y-59637824D01*
X134539185Y-59580969D01*
X134313500Y-59728028D01*
X134313500Y-61436500D01*
X134333500Y-61436500D01*
X134333500Y-61563500D01*
X134313500Y-61563500D01*
X134313500Y-63271972D01*
X134539185Y-63419031D01*
X134745869Y-63362176D01*
X135012500Y-63200439D01*
X135012500Y-65609924D01*
X134936068Y-65721786D01*
X134900657Y-65896651D01*
X134855923Y-65651530D01*
X134358881Y-65449673D01*
X133822427Y-65453391D01*
X133344077Y-65651530D01*
X133297354Y-65907551D01*
X134100000Y-66710197D01*
X134114142Y-66696055D01*
X134203945Y-66785858D01*
X134189803Y-66800000D01*
X134203945Y-66814142D01*
X134114142Y-66903945D01*
X134100000Y-66889803D01*
X133297354Y-67692449D01*
X133344077Y-67948470D01*
X133841119Y-68150327D01*
X134377573Y-68146609D01*
X134855923Y-67948470D01*
X134898867Y-67713154D01*
X134924624Y-67850039D01*
X135161047Y-68217450D01*
X135521786Y-68463932D01*
X135950000Y-68550648D01*
X137250000Y-68550648D01*
X137650039Y-68475376D01*
X138017450Y-68238953D01*
X138263932Y-67878214D01*
X138350648Y-67450000D01*
X138350648Y-66150000D01*
X138275376Y-65749961D01*
X138187500Y-65613398D01*
X138187500Y-63183979D01*
X138433528Y-62815772D01*
X138722732Y-62622532D01*
X139449392Y-61895872D01*
X139449392Y-61900180D01*
X139524664Y-62300219D01*
X139761087Y-62667630D01*
X140121826Y-62914112D01*
X140545801Y-62999970D01*
X140150001Y-63074444D01*
X139782590Y-63310867D01*
X139536108Y-63671606D01*
X139449392Y-64099820D01*
X139449392Y-65100580D01*
X139524664Y-65500619D01*
X139658500Y-65708606D01*
X139658500Y-66535979D01*
X139636500Y-66646580D01*
X139636500Y-69087226D01*
X138565226Y-70158500D01*
X137830008Y-70158500D01*
X137240337Y-69764495D01*
X136540000Y-69625189D01*
X135839663Y-69764495D01*
X135245945Y-70161204D01*
X135024592Y-70492483D01*
X134979746Y-70431342D01*
X134495869Y-70137824D01*
X134289185Y-70080969D01*
X134063500Y-70228028D01*
X134063500Y-71936500D01*
X134083500Y-71936500D01*
X134083500Y-72063500D01*
X134063500Y-72063500D01*
X134063500Y-73771972D01*
X134289185Y-73919031D01*
X134495869Y-73862176D01*
X134979746Y-73568658D01*
X135024592Y-73507517D01*
X135245945Y-73838796D01*
X135839663Y-74235505D01*
X136540000Y-74374811D01*
X137240337Y-74235505D01*
X137830008Y-73841500D01*
X139328000Y-73841500D01*
X140032712Y-73701324D01*
X140110721Y-73649200D01*
X141623465Y-73649200D01*
X141461173Y-74048819D01*
X141464891Y-74585273D01*
X141663030Y-75063623D01*
X141919051Y-75110346D01*
X142721697Y-74307700D01*
X142707555Y-74293558D01*
X142797358Y-74203755D01*
X142811500Y-74217897D01*
X142825642Y-74203755D01*
X142915445Y-74293558D01*
X142901303Y-74307700D01*
X143703949Y-75110346D01*
X143959970Y-75063623D01*
X144161827Y-74566581D01*
X144158109Y-74030127D01*
X143959970Y-73551777D01*
X143724654Y-73508833D01*
X143861539Y-73483076D01*
X144228950Y-73246653D01*
X144475432Y-72885914D01*
X144562148Y-72457700D01*
X144562148Y-72264444D01*
X144653000Y-71807700D01*
X144562148Y-71350956D01*
X144562148Y-71157700D01*
X144486876Y-70757661D01*
X144250453Y-70390250D01*
X143889714Y-70143768D01*
X143461500Y-70057052D01*
X143278315Y-70057052D01*
X143319500Y-69850000D01*
X143319500Y-66735182D01*
X143341500Y-66624580D01*
X143341500Y-65707921D01*
X143463892Y-65528794D01*
X143550608Y-65100580D01*
X143550608Y-64099820D01*
X143475336Y-63699781D01*
X143238913Y-63332370D01*
X142878174Y-63085888D01*
X142454199Y-63000030D01*
X142849999Y-62925556D01*
X143217410Y-62689133D01*
X143463892Y-62328394D01*
X143550608Y-61900180D01*
X143550608Y-61773862D01*
X146212332Y-59112137D01*
X146212335Y-59112135D01*
X146583991Y-58555911D01*
X146714500Y-57899800D01*
X146714500Y-55976063D01*
X146761454Y-55929191D01*
X147078629Y-55165351D01*
X147079350Y-54338278D01*
X146763510Y-53573885D01*
X146714500Y-53524789D01*
X146714500Y-51502600D01*
X146583991Y-50846489D01*
X146212335Y-50290265D01*
X146212332Y-50290263D01*
X145293835Y-49371765D01*
X145142146Y-49270410D01*
X145050292Y-49209035D01*
X145411722Y-49209350D01*
X146176115Y-48893510D01*
X146761454Y-48309191D01*
X147078629Y-47545351D01*
X147079350Y-46718278D01*
X146763510Y-45953885D01*
X146714500Y-45904789D01*
X146714500Y-41037864D01*
X146869138Y-40665453D01*
X146869860Y-39838177D01*
X146553942Y-39073597D01*
X145969480Y-38488113D01*
X145205453Y-38170862D01*
X144378177Y-38170140D01*
X143613597Y-38486058D01*
X143501384Y-38598075D01*
X143388941Y-38551500D01*
X142488125Y-38551500D01*
X142313500Y-38726125D01*
X142313500Y-40186500D01*
X142333500Y-40186500D01*
X142333500Y-40313500D01*
X142313500Y-40313500D01*
X142313500Y-41773875D01*
X142488125Y-41948500D01*
X143285500Y-41948500D01*
X143285500Y-45903937D01*
X143238546Y-45950809D01*
X142921371Y-46714649D01*
X142921011Y-47127971D01*
X142712335Y-46815665D01*
X142482692Y-46662223D01*
X139423895Y-43603425D01*
X139215574Y-43464230D01*
X138867671Y-43231769D01*
X138749227Y-43208209D01*
X138211560Y-43101259D01*
X138211555Y-43101260D01*
X134381703Y-43101260D01*
X134203200Y-43065112D01*
X134009944Y-43065112D01*
X133553200Y-42974260D01*
X126694515Y-42974260D01*
X126856807Y-42574641D01*
X126854268Y-42208209D01*
X132750554Y-42208209D01*
X132797277Y-42464230D01*
X133294319Y-42666087D01*
X133830773Y-42662369D01*
X134309123Y-42464230D01*
X134355846Y-42208209D01*
X133553200Y-41405563D01*
X132750554Y-42208209D01*
X126854268Y-42208209D01*
X126853089Y-42038187D01*
X126654950Y-41559837D01*
X126398929Y-41513114D01*
X125596283Y-42315760D01*
X125610425Y-42329902D01*
X125520622Y-42419705D01*
X125506480Y-42405563D01*
X125492338Y-42419705D01*
X125402535Y-42329902D01*
X125416677Y-42315760D01*
X124614031Y-41513114D01*
X124358010Y-41559837D01*
X124156153Y-42056879D01*
X124159871Y-42593333D01*
X124328707Y-43000940D01*
X118925823Y-43000940D01*
X118835096Y-42963267D01*
X118087384Y-42962614D01*
X117396339Y-43248148D01*
X116867166Y-43776398D01*
X116828678Y-43869088D01*
X114086267Y-46611499D01*
X108983131Y-46611499D01*
X108278420Y-46751674D01*
X107680994Y-47150862D01*
X104757863Y-50073993D01*
X104358676Y-50671418D01*
X104218500Y-51376130D01*
X104218500Y-51909038D01*
X103520000Y-51770097D01*
X102819663Y-51909403D01*
X102250000Y-52290039D01*
X101680337Y-51909403D01*
X100980000Y-51770097D01*
X100279663Y-51909403D01*
X99685945Y-52306112D01*
X99289236Y-52899830D01*
X99149930Y-53600167D01*
X99149930Y-54342538D01*
X99138500Y-54400000D01*
X99138500Y-59349392D01*
X98762820Y-59349392D01*
X98362781Y-59424664D01*
X97995370Y-59661087D01*
X97904300Y-59794373D01*
X97904300Y-55462800D01*
X97887036Y-55376006D01*
X97764125Y-54758089D01*
X97747484Y-54733184D01*
X97675376Y-54349961D01*
X97438953Y-53982550D01*
X97078214Y-53736068D01*
X96650000Y-53649352D01*
X96456743Y-53649352D01*
X96000000Y-53558500D01*
X95543257Y-53649352D01*
X95350000Y-53649352D01*
X94949961Y-53724624D01*
X94582550Y-53961047D01*
X94336068Y-54321786D01*
X94249352Y-54750000D01*
X94249352Y-54943257D01*
X94227660Y-55052311D01*
X93967054Y-54421597D01*
X93480962Y-53934656D01*
X92845528Y-53670801D01*
X92157490Y-53670200D01*
X91521597Y-53932946D01*
X91034656Y-54419038D01*
X90770801Y-55054472D01*
X90770200Y-55742510D01*
X91032946Y-56378403D01*
X91126879Y-56472500D01*
X87102000Y-56472500D01*
X86397288Y-56612676D01*
X86258589Y-56705352D01*
X86086000Y-56705352D01*
X85685961Y-56780624D01*
X85318550Y-57017047D01*
X85072068Y-57377786D01*
X84985352Y-57806000D01*
X84985352Y-58822000D01*
X85060624Y-59222039D01*
X85212565Y-59458161D01*
X85072068Y-59663786D01*
X84985352Y-60092000D01*
X84985352Y-61108000D01*
X85060624Y-61508039D01*
X85212565Y-61744161D01*
X85072068Y-61949786D01*
X84985352Y-62378000D01*
X84985352Y-63394000D01*
X85060624Y-63794039D01*
X85297047Y-64161450D01*
X85657786Y-64407932D01*
X86086000Y-64494648D01*
X86611147Y-64494648D01*
X86687490Y-64545659D01*
X87295000Y-64666500D01*
X89991223Y-64666500D01*
X90332472Y-64808199D01*
X91020510Y-64808800D01*
X91656403Y-64546054D01*
X92109590Y-64093657D01*
X94285500Y-66269567D01*
X94285500Y-66771497D01*
X94249352Y-66950000D01*
X94249352Y-68250000D01*
X94324624Y-68650039D01*
X94561047Y-69017450D01*
X94921786Y-69263932D01*
X95350000Y-69350648D01*
X96650000Y-69350648D01*
X96842111Y-69314500D01*
X99528393Y-69314500D01*
X99636490Y-69576115D01*
X100220809Y-70161454D01*
X100745207Y-70379204D01*
X100366021Y-70632568D01*
X100127417Y-70989664D01*
X99744063Y-70733516D01*
X99233755Y-70632009D01*
X97175443Y-70632009D01*
X96665134Y-70733516D01*
X96232516Y-71022582D01*
X94239572Y-73015526D01*
X93950506Y-73448145D01*
X93848999Y-73958453D01*
X93848999Y-84494342D01*
X93395771Y-84404189D01*
X89717169Y-84404189D01*
X89878629Y-84015351D01*
X89879350Y-83188278D01*
X89563510Y-82423885D01*
X89040138Y-81899599D01*
X89561454Y-81379191D01*
X89878629Y-80615351D01*
X89879350Y-79788278D01*
X89563510Y-79023885D01*
X89040138Y-78499599D01*
X89561454Y-77979191D01*
X89878629Y-77215351D01*
X89879350Y-76388278D01*
X89563510Y-75623885D01*
X89140137Y-75199773D01*
X89561454Y-74779191D01*
X89878629Y-74015351D01*
X89879350Y-73188278D01*
X89563510Y-72423885D01*
X88979191Y-71838546D01*
X88215351Y-71521371D01*
X87966218Y-71521154D01*
X85708472Y-69263408D01*
X85193450Y-68919281D01*
X84585940Y-68798440D01*
X82872322Y-68798440D01*
X82373599Y-68465204D01*
X81578004Y-68306950D01*
X79965996Y-68306950D01*
X79170401Y-68465204D01*
X78495928Y-68915872D01*
X78045260Y-69590345D01*
X77887006Y-70385940D01*
X78045260Y-71181535D01*
X78495928Y-71856008D01*
X78914966Y-72136000D01*
X78495928Y-72415992D01*
X78045260Y-73090465D01*
X77887006Y-73886060D01*
X78045260Y-74681655D01*
X78495928Y-75356128D01*
X79170401Y-75806796D01*
X79965996Y-75965050D01*
X80426320Y-75965050D01*
X82473603Y-78012332D01*
X82473605Y-78012335D01*
X83011434Y-78371700D01*
X83029829Y-78383991D01*
X83685940Y-78514500D01*
X86545739Y-78514500D01*
X86447568Y-78612500D01*
X83077891Y-78612500D01*
X83048072Y-78567872D01*
X82373599Y-78117204D01*
X81578004Y-77958950D01*
X79965996Y-77958950D01*
X79170401Y-78117204D01*
X78495928Y-78567872D01*
X78045260Y-79242345D01*
X77887006Y-80037940D01*
X78045260Y-80833535D01*
X78495928Y-81508008D01*
X78914966Y-81788000D01*
X78495928Y-82067992D01*
X78045260Y-82742465D01*
X77887006Y-83538060D01*
X78045260Y-84333655D01*
X78174966Y-84527774D01*
X77719720Y-84831960D01*
X75133200Y-87418480D01*
X75133200Y-67942510D01*
X90770200Y-67942510D01*
X91032946Y-68578403D01*
X91519038Y-69065344D01*
X92154472Y-69329199D01*
X92842510Y-69329800D01*
X93478403Y-69067054D01*
X93965344Y-68580962D01*
X94229199Y-67945528D01*
X94229800Y-67257490D01*
X93967054Y-66621597D01*
X93480962Y-66134656D01*
X92845528Y-65870801D01*
X92157490Y-65870200D01*
X91521597Y-66132946D01*
X91034656Y-66619038D01*
X90770801Y-67254472D01*
X90770200Y-67942510D01*
X75133200Y-67942510D01*
X75133200Y-58771200D01*
X78381352Y-58771200D01*
X78381352Y-62428800D01*
X78456624Y-62828839D01*
X78693047Y-63196250D01*
X79053786Y-63442732D01*
X79482000Y-63529448D01*
X81514000Y-63529448D01*
X81914039Y-63454176D01*
X82281450Y-63217753D01*
X82527932Y-62857014D01*
X82614648Y-62428800D01*
X82614648Y-58771200D01*
X82539376Y-58371161D01*
X82302953Y-58003750D01*
X81942214Y-57757268D01*
X81514000Y-57670552D01*
X79482000Y-57670552D01*
X79081961Y-57745824D01*
X78714550Y-57982247D01*
X78468068Y-58342986D01*
X78381352Y-58771200D01*
X75133200Y-58771200D01*
X75133200Y-53861333D01*
X78670096Y-53861333D01*
X79023994Y-54717832D01*
X79678721Y-55373703D01*
X80534601Y-55729095D01*
X81461333Y-55729904D01*
X82317832Y-55376006D01*
X82452573Y-55241500D01*
X82872940Y-55241500D01*
X83577652Y-55101324D01*
X84175077Y-54702137D01*
X87154137Y-51723077D01*
X87184560Y-51677546D01*
X87553324Y-51125652D01*
X87610325Y-50839086D01*
X89892736Y-50839086D01*
X89963808Y-51115832D01*
X90533040Y-51350968D01*
X91148923Y-51350371D01*
X91715152Y-51115832D01*
X91786224Y-50839086D01*
X90839480Y-49892343D01*
X89892736Y-50839086D01*
X87610325Y-50839086D01*
X87693500Y-50420940D01*
X87693500Y-49496100D01*
X89291052Y-49496100D01*
X89291649Y-50111983D01*
X89526188Y-50678212D01*
X89802934Y-50749284D01*
X90749677Y-49802540D01*
X90929283Y-49802540D01*
X91876026Y-50749284D01*
X92152772Y-50678212D01*
X92387908Y-50108980D01*
X92387311Y-49493097D01*
X92163559Y-48952910D01*
X99049202Y-48952910D01*
X99049202Y-50652170D01*
X99124474Y-51052209D01*
X99360897Y-51419620D01*
X99721636Y-51666102D01*
X100149850Y-51752818D01*
X101849110Y-51752818D01*
X102249149Y-51677546D01*
X102616560Y-51441123D01*
X102863042Y-51080384D01*
X102949758Y-50652170D01*
X102949758Y-48952910D01*
X102874486Y-48552871D01*
X102840980Y-48500801D01*
X102840980Y-48191684D01*
X106191164Y-44841500D01*
X110333976Y-44841500D01*
X110798495Y-45151882D01*
X111689834Y-45329180D01*
X113311646Y-45329180D01*
X114202985Y-45151882D01*
X114958625Y-44646979D01*
X115463528Y-43891339D01*
X115640826Y-43000000D01*
X115551929Y-42553085D01*
X116421074Y-41683940D01*
X120793377Y-41683940D01*
X120884104Y-41721613D01*
X121631816Y-41722266D01*
X122322861Y-41436732D01*
X122336305Y-41423311D01*
X124703834Y-41423311D01*
X125506480Y-42225957D01*
X126309126Y-41423311D01*
X126262403Y-41167290D01*
X125990533Y-41056879D01*
X132202873Y-41056879D01*
X132206591Y-41593333D01*
X132404730Y-42071683D01*
X132660751Y-42118406D01*
X133463397Y-41315760D01*
X133643003Y-41315760D01*
X134445649Y-42118406D01*
X134701670Y-42071683D01*
X134903527Y-41574641D01*
X134899809Y-41038187D01*
X134701670Y-40559837D01*
X134445649Y-40513114D01*
X133643003Y-41315760D01*
X133463397Y-41315760D01*
X132660751Y-40513114D01*
X132404730Y-40559837D01*
X132202873Y-41056879D01*
X125990533Y-41056879D01*
X125765361Y-40965433D01*
X125228907Y-40969151D01*
X124750557Y-41167290D01*
X124703834Y-41423311D01*
X122336305Y-41423311D01*
X122852034Y-40908482D01*
X123053494Y-40423311D01*
X132750554Y-40423311D01*
X133553200Y-41225957D01*
X134291032Y-40488125D01*
X140551500Y-40488125D01*
X140551500Y-41388940D01*
X140657840Y-41645668D01*
X140854331Y-41842160D01*
X141111059Y-41948500D01*
X142011875Y-41948500D01*
X142186500Y-41773875D01*
X142186500Y-40313500D01*
X140726125Y-40313500D01*
X140551500Y-40488125D01*
X134291032Y-40488125D01*
X134355846Y-40423311D01*
X134309123Y-40167290D01*
X133812081Y-39965433D01*
X133275627Y-39969151D01*
X132797277Y-40167290D01*
X132750554Y-40423311D01*
X123053494Y-40423311D01*
X123138773Y-40217936D01*
X123139426Y-39470224D01*
X122991023Y-39111060D01*
X140551500Y-39111060D01*
X140551500Y-40011875D01*
X140726125Y-40186500D01*
X142186500Y-40186500D01*
X142186500Y-38726125D01*
X142011875Y-38551500D01*
X141111059Y-38551500D01*
X140854331Y-38657840D01*
X140657840Y-38854332D01*
X140551500Y-39111060D01*
X122991023Y-39111060D01*
X122853892Y-38779179D01*
X122325642Y-38250006D01*
X121635096Y-37963267D01*
X120887384Y-37962614D01*
X120794628Y-38000940D01*
X115658300Y-38000940D01*
X114953588Y-38141116D01*
X114790623Y-38250006D01*
X114356163Y-38540303D01*
X112225646Y-40670820D01*
X111689834Y-40670820D01*
X110798495Y-40848118D01*
X110333976Y-41158500D01*
X105428390Y-41158500D01*
X104723679Y-41298675D01*
X104126253Y-41697863D01*
X99697343Y-46126773D01*
X99298156Y-46724198D01*
X99157980Y-47428910D01*
X99157980Y-48492407D01*
X99135918Y-48524696D01*
X99049202Y-48952910D01*
X92163559Y-48952910D01*
X92152772Y-48926868D01*
X91876026Y-48855796D01*
X90929283Y-49802540D01*
X90749677Y-49802540D01*
X89802934Y-48855796D01*
X89526188Y-48926868D01*
X89291052Y-49496100D01*
X87693500Y-49496100D01*
X87693500Y-48765994D01*
X89892736Y-48765994D01*
X90839480Y-49712737D01*
X91786224Y-48765994D01*
X91715152Y-48489248D01*
X91145920Y-48254112D01*
X90530037Y-48254709D01*
X89963808Y-48489248D01*
X89892736Y-48765994D01*
X87693500Y-48765994D01*
X87693500Y-44885784D01*
X87737784Y-44841500D01*
X88332496Y-44841500D01*
X88797015Y-45151882D01*
X89688354Y-45329180D01*
X91310166Y-45329180D01*
X92201505Y-45151882D01*
X92957145Y-44646979D01*
X93462048Y-43891339D01*
X93639346Y-43000000D01*
X93462048Y-42108661D01*
X92957145Y-41353021D01*
X92201505Y-40848118D01*
X91310166Y-40670820D01*
X89688354Y-40670820D01*
X88797015Y-40848118D01*
X88332496Y-41158500D01*
X86975010Y-41158500D01*
X86270298Y-41298676D01*
X85857288Y-41574641D01*
X85672873Y-41697863D01*
X84549863Y-42820873D01*
X84150676Y-43418298D01*
X84010500Y-44123010D01*
X84010500Y-49658166D01*
X82265522Y-51403144D01*
X81465399Y-51070905D01*
X80538667Y-51070096D01*
X79682168Y-51423994D01*
X79026297Y-52078721D01*
X78670905Y-52934601D01*
X78670096Y-53861333D01*
X75133200Y-53861333D01*
X75133200Y-48638125D01*
X79051500Y-48638125D01*
X79051500Y-49788940D01*
X79157840Y-50045668D01*
X79354331Y-50242160D01*
X79611059Y-50348500D01*
X80761875Y-50348500D01*
X80936500Y-50173875D01*
X80936500Y-48463500D01*
X81063500Y-48463500D01*
X81063500Y-50173875D01*
X81238125Y-50348500D01*
X82388941Y-50348500D01*
X82645669Y-50242160D01*
X82842160Y-50045668D01*
X82948500Y-49788940D01*
X82948500Y-48638125D01*
X82773875Y-48463500D01*
X81063500Y-48463500D01*
X80936500Y-48463500D01*
X79226125Y-48463500D01*
X79051500Y-48638125D01*
X75133200Y-48638125D01*
X75133200Y-47011060D01*
X79051500Y-47011060D01*
X79051500Y-48161875D01*
X79226125Y-48336500D01*
X80936500Y-48336500D01*
X80936500Y-46626125D01*
X81063500Y-46626125D01*
X81063500Y-48336500D01*
X82773875Y-48336500D01*
X82948500Y-48161875D01*
X82948500Y-47011060D01*
X82842160Y-46754332D01*
X82645669Y-46557840D01*
X82388941Y-46451500D01*
X81238125Y-46451500D01*
X81063500Y-46626125D01*
X80936500Y-46626125D01*
X80761875Y-46451500D01*
X79611059Y-46451500D01*
X79354331Y-46557840D01*
X79157840Y-46754332D01*
X79051500Y-47011060D01*
X75133200Y-47011060D01*
X75133200Y-45237400D01*
X78803500Y-45237400D01*
X78877615Y-45222391D01*
X78940052Y-45179730D01*
X78980972Y-45116139D01*
X78994000Y-45046900D01*
X78994000Y-37617400D01*
X147142200Y-37617400D01*
X147142200Y-63316270D01*
M02*
