G04 #@! TF.FileFunction,Legend,Top*
%FSLAX46Y46*%
G04 Gerber Fmt 4.6, Leading zero omitted, Abs format (unit mm)*
G04 Created by KiCad (PCBNEW 4.0.2+e4-6225~38~ubuntu14.04.1-stable) date mar 10 may 2016 16:23:58 ART*
%MOMM*%
G01*
G04 APERTURE LIST*
%ADD10C,0.100000*%
%ADD11C,0.300000*%
%ADD12C,0.150000*%
%ADD13C,0.002540*%
%ADD14C,0.200000*%
%ADD15C,0.170000*%
%ADD16C,0.175000*%
%ADD17C,0.180000*%
%ADD18C,0.190000*%
%ADD19C,0.125000*%
%ADD20C,0.120000*%
G04 APERTURE END LIST*
D10*
D11*
X93858872Y-134603300D02*
X94573158Y-134603300D01*
X93716015Y-135031871D02*
X94216015Y-133531871D01*
X94716015Y-135031871D01*
X95216015Y-135031871D02*
X95216015Y-133531871D01*
X95573158Y-133531871D01*
X95787443Y-133603300D01*
X95930301Y-133746157D01*
X96001729Y-133889014D01*
X96073158Y-134174729D01*
X96073158Y-134389014D01*
X96001729Y-134674729D01*
X95930301Y-134817586D01*
X95787443Y-134960443D01*
X95573158Y-135031871D01*
X95216015Y-135031871D01*
X97716015Y-135174729D02*
X97573158Y-135103300D01*
X97430301Y-134960443D01*
X97216015Y-134746157D01*
X97073158Y-134674729D01*
X96930301Y-134674729D01*
X97001729Y-135031871D02*
X96858872Y-134960443D01*
X96716015Y-134817586D01*
X96644586Y-134531871D01*
X96644586Y-134031871D01*
X96716015Y-133746157D01*
X96858872Y-133603300D01*
X97001729Y-133531871D01*
X97287443Y-133531871D01*
X97430301Y-133603300D01*
X97573158Y-133746157D01*
X97644586Y-134031871D01*
X97644586Y-134531871D01*
X97573158Y-134817586D01*
X97430301Y-134960443D01*
X97287443Y-135031871D01*
X97001729Y-135031871D01*
X99930301Y-134246157D02*
X100144587Y-134317586D01*
X100216015Y-134389014D01*
X100287444Y-134531871D01*
X100287444Y-134746157D01*
X100216015Y-134889014D01*
X100144587Y-134960443D01*
X100001729Y-135031871D01*
X99430301Y-135031871D01*
X99430301Y-133531871D01*
X99930301Y-133531871D01*
X100073158Y-133603300D01*
X100144587Y-133674729D01*
X100216015Y-133817586D01*
X100216015Y-133960443D01*
X100144587Y-134103300D01*
X100073158Y-134174729D01*
X99930301Y-134246157D01*
X99430301Y-134246157D01*
X101144587Y-135031871D02*
X101001729Y-134960443D01*
X100930301Y-134889014D01*
X100858872Y-134746157D01*
X100858872Y-134317586D01*
X100930301Y-134174729D01*
X101001729Y-134103300D01*
X101144587Y-134031871D01*
X101358872Y-134031871D01*
X101501729Y-134103300D01*
X101573158Y-134174729D01*
X101644587Y-134317586D01*
X101644587Y-134746157D01*
X101573158Y-134889014D01*
X101501729Y-134960443D01*
X101358872Y-135031871D01*
X101144587Y-135031871D01*
X102501730Y-135031871D02*
X102358872Y-134960443D01*
X102287444Y-134889014D01*
X102216015Y-134746157D01*
X102216015Y-134317586D01*
X102287444Y-134174729D01*
X102358872Y-134103300D01*
X102501730Y-134031871D01*
X102716015Y-134031871D01*
X102858872Y-134103300D01*
X102930301Y-134174729D01*
X103001730Y-134317586D01*
X103001730Y-134746157D01*
X102930301Y-134889014D01*
X102858872Y-134960443D01*
X102716015Y-135031871D01*
X102501730Y-135031871D01*
X103573158Y-134960443D02*
X103716015Y-135031871D01*
X104001730Y-135031871D01*
X104144587Y-134960443D01*
X104216015Y-134817586D01*
X104216015Y-134746157D01*
X104144587Y-134603300D01*
X104001730Y-134531871D01*
X103787444Y-134531871D01*
X103644587Y-134460443D01*
X103573158Y-134317586D01*
X103573158Y-134246157D01*
X103644587Y-134103300D01*
X103787444Y-134031871D01*
X104001730Y-134031871D01*
X104144587Y-134103300D01*
X104644587Y-134031871D02*
X105216016Y-134031871D01*
X104858873Y-133531871D02*
X104858873Y-134817586D01*
X104930301Y-134960443D01*
X105073159Y-135031871D01*
X105216016Y-135031871D01*
X105716016Y-134460443D02*
X106858873Y-134460443D01*
X108430302Y-134889014D02*
X108358873Y-134960443D01*
X108144587Y-135031871D01*
X108001730Y-135031871D01*
X107787445Y-134960443D01*
X107644587Y-134817586D01*
X107573159Y-134674729D01*
X107501730Y-134389014D01*
X107501730Y-134174729D01*
X107573159Y-133889014D01*
X107644587Y-133746157D01*
X107787445Y-133603300D01*
X108001730Y-133531871D01*
X108144587Y-133531871D01*
X108358873Y-133603300D01*
X108430302Y-133674729D01*
X109287445Y-135031871D02*
X109144587Y-134960443D01*
X109073159Y-134889014D01*
X109001730Y-134746157D01*
X109001730Y-134317586D01*
X109073159Y-134174729D01*
X109144587Y-134103300D01*
X109287445Y-134031871D01*
X109501730Y-134031871D01*
X109644587Y-134103300D01*
X109716016Y-134174729D01*
X109787445Y-134317586D01*
X109787445Y-134746157D01*
X109716016Y-134889014D01*
X109644587Y-134960443D01*
X109501730Y-135031871D01*
X109287445Y-135031871D01*
X110430302Y-134031871D02*
X110430302Y-135031871D01*
X110430302Y-134174729D02*
X110501730Y-134103300D01*
X110644588Y-134031871D01*
X110858873Y-134031871D01*
X111001730Y-134103300D01*
X111073159Y-134246157D01*
X111073159Y-135031871D01*
X111644588Y-134031871D02*
X112001731Y-135031871D01*
X112358873Y-134031871D01*
X113501730Y-134960443D02*
X113358873Y-135031871D01*
X113073159Y-135031871D01*
X112930302Y-134960443D01*
X112858873Y-134817586D01*
X112858873Y-134246157D01*
X112930302Y-134103300D01*
X113073159Y-134031871D01*
X113358873Y-134031871D01*
X113501730Y-134103300D01*
X113573159Y-134246157D01*
X113573159Y-134389014D01*
X112858873Y-134531871D01*
X114216016Y-135031871D02*
X114216016Y-134031871D01*
X114216016Y-134317586D02*
X114287444Y-134174729D01*
X114358873Y-134103300D01*
X114501730Y-134031871D01*
X114644587Y-134031871D01*
X114930301Y-134031871D02*
X115501730Y-134031871D01*
X115144587Y-133531871D02*
X115144587Y-134817586D01*
X115216015Y-134960443D01*
X115358873Y-135031871D01*
X115501730Y-135031871D01*
X116573158Y-134960443D02*
X116430301Y-135031871D01*
X116144587Y-135031871D01*
X116001730Y-134960443D01*
X115930301Y-134817586D01*
X115930301Y-134246157D01*
X116001730Y-134103300D01*
X116144587Y-134031871D01*
X116430301Y-134031871D01*
X116573158Y-134103300D01*
X116644587Y-134246157D01*
X116644587Y-134389014D01*
X115930301Y-134531871D01*
X117287444Y-135031871D02*
X117287444Y-134031871D01*
X117287444Y-134317586D02*
X117358872Y-134174729D01*
X117430301Y-134103300D01*
X117573158Y-134031871D01*
X117716015Y-134031871D01*
X119787443Y-135603300D02*
X119716015Y-135531871D01*
X119573158Y-135317586D01*
X119501729Y-135174729D01*
X119430300Y-134960443D01*
X119358872Y-134603300D01*
X119358872Y-134317586D01*
X119430300Y-133960443D01*
X119501729Y-133746157D01*
X119573158Y-133603300D01*
X119716015Y-133389014D01*
X119787443Y-133317586D01*
X120358872Y-135031871D02*
X120358872Y-133531871D01*
X120930300Y-133531871D01*
X121073158Y-133603300D01*
X121144586Y-133674729D01*
X121216015Y-133817586D01*
X121216015Y-134031871D01*
X121144586Y-134174729D01*
X121073158Y-134246157D01*
X120930300Y-134317586D01*
X120358872Y-134317586D01*
X121858872Y-135031871D02*
X121858872Y-133531871D01*
X122573158Y-135031871D02*
X122573158Y-133531871D01*
X122930301Y-133531871D01*
X123144586Y-133603300D01*
X123287444Y-133746157D01*
X123358872Y-133889014D01*
X123430301Y-134174729D01*
X123430301Y-134389014D01*
X123358872Y-134674729D01*
X123287444Y-134817586D01*
X123144586Y-134960443D01*
X122930301Y-135031871D01*
X122573158Y-135031871D01*
X124073158Y-135031871D02*
X124073158Y-133531871D01*
X124430301Y-133531871D01*
X124644586Y-133603300D01*
X124787444Y-133746157D01*
X124858872Y-133889014D01*
X124930301Y-134174729D01*
X124930301Y-134389014D01*
X124858872Y-134674729D01*
X124787444Y-134817586D01*
X124644586Y-134960443D01*
X124430301Y-135031871D01*
X124073158Y-135031871D01*
X125573158Y-134246157D02*
X126073158Y-134246157D01*
X126287444Y-135031871D02*
X125573158Y-135031871D01*
X125573158Y-133531871D01*
X126287444Y-133531871D01*
X127430301Y-134246157D02*
X126930301Y-134246157D01*
X126930301Y-135031871D02*
X126930301Y-133531871D01*
X127644587Y-133531871D01*
X130001729Y-134031871D02*
X130001729Y-135031871D01*
X129644586Y-133460443D02*
X129287443Y-134531871D01*
X130216015Y-134531871D01*
X131430300Y-133531871D02*
X131144586Y-133531871D01*
X131001729Y-133603300D01*
X130930300Y-133674729D01*
X130787443Y-133889014D01*
X130716014Y-134174729D01*
X130716014Y-134746157D01*
X130787443Y-134889014D01*
X130858871Y-134960443D01*
X131001729Y-135031871D01*
X131287443Y-135031871D01*
X131430300Y-134960443D01*
X131501729Y-134889014D01*
X131573157Y-134746157D01*
X131573157Y-134389014D01*
X131501729Y-134246157D01*
X131430300Y-134174729D01*
X131287443Y-134103300D01*
X131001729Y-134103300D01*
X130858871Y-134174729D01*
X130787443Y-134246157D01*
X130716014Y-134389014D01*
X133287442Y-133460443D02*
X132001728Y-135389014D01*
X134573157Y-135031871D02*
X133716014Y-135031871D01*
X134144586Y-135031871D02*
X134144586Y-133531871D01*
X134001729Y-133746157D01*
X133858871Y-133889014D01*
X133716014Y-133960443D01*
X135144585Y-133674729D02*
X135216014Y-133603300D01*
X135358871Y-133531871D01*
X135716014Y-133531871D01*
X135858871Y-133603300D01*
X135930300Y-133674729D01*
X136001728Y-133817586D01*
X136001728Y-133960443D01*
X135930300Y-134174729D01*
X135073157Y-135031871D01*
X136001728Y-135031871D01*
X136501728Y-135603300D02*
X136573156Y-135531871D01*
X136716013Y-135317586D01*
X136787442Y-135174729D01*
X136858871Y-134960443D01*
X136930299Y-134603300D01*
X136930299Y-134317586D01*
X136858871Y-133960443D01*
X136787442Y-133746157D01*
X136716013Y-133603300D01*
X136573156Y-133389014D01*
X136501728Y-133317586D01*
D12*
X91452700Y-107937300D02*
X91452700Y-87617300D01*
X86372700Y-90157300D02*
X86372700Y-107937300D01*
X91452700Y-107937300D02*
X86372700Y-107937300D01*
X91452700Y-87617300D02*
X88912700Y-87617300D01*
X87642700Y-87337300D02*
X86092700Y-87337300D01*
X88912700Y-87617300D02*
X88912700Y-90157300D01*
X88912700Y-90157300D02*
X86372700Y-90157300D01*
X86092700Y-87337300D02*
X86092700Y-88887300D01*
D13*
G36*
X76316840Y-35341560D02*
X76357480Y-35321240D01*
X76451460Y-35262820D01*
X76586080Y-35173920D01*
X76743560Y-35069780D01*
X76901040Y-34960560D01*
X77030580Y-34874200D01*
X77122020Y-34815780D01*
X77160120Y-34795460D01*
X77180440Y-34800540D01*
X77256640Y-34838640D01*
X77365860Y-34894520D01*
X77429360Y-34927540D01*
X77528420Y-34970720D01*
X77579220Y-34980880D01*
X77586840Y-34965640D01*
X77624940Y-34889440D01*
X77680820Y-34757360D01*
X77757020Y-34584640D01*
X77843380Y-34381440D01*
X77937360Y-34163000D01*
X78028800Y-33939480D01*
X78117700Y-33726120D01*
X78196440Y-33535620D01*
X78259940Y-33380680D01*
X78300580Y-33271460D01*
X78315820Y-33225740D01*
X78310740Y-33215580D01*
X78259940Y-33167320D01*
X78173580Y-33101280D01*
X77983080Y-32946340D01*
X77797660Y-32712660D01*
X77683360Y-32448500D01*
X77645260Y-32153860D01*
X77678280Y-31882080D01*
X77784960Y-31620460D01*
X77967840Y-31384240D01*
X78188820Y-31208980D01*
X78447900Y-31097220D01*
X78740000Y-31061660D01*
X79019400Y-31092140D01*
X79286100Y-31198820D01*
X79522320Y-31379160D01*
X79621380Y-31493460D01*
X79758540Y-31732220D01*
X79837280Y-31988760D01*
X79844900Y-32052260D01*
X79834740Y-32334200D01*
X79750920Y-32603440D01*
X79603600Y-32844740D01*
X79397860Y-33040320D01*
X79369920Y-33060640D01*
X79275940Y-33131760D01*
X79212440Y-33180020D01*
X79161640Y-33220660D01*
X79519780Y-34081720D01*
X79575660Y-34218880D01*
X79674720Y-34455100D01*
X79761080Y-34658300D01*
X79829660Y-34818320D01*
X79877920Y-34927540D01*
X79898240Y-34970720D01*
X79900780Y-34973260D01*
X79931260Y-34978340D01*
X79997300Y-34952940D01*
X80116680Y-34894520D01*
X80197960Y-34853880D01*
X80289400Y-34810700D01*
X80330040Y-34795460D01*
X80365600Y-34813240D01*
X80451960Y-34871660D01*
X80581500Y-34955480D01*
X80733900Y-35059620D01*
X80881220Y-35161220D01*
X81015840Y-35250120D01*
X81114900Y-35311080D01*
X81163160Y-35339020D01*
X81170780Y-35339020D01*
X81211420Y-35313620D01*
X81290160Y-35250120D01*
X81407000Y-35138360D01*
X81572100Y-34975800D01*
X81597500Y-34950400D01*
X81734660Y-34810700D01*
X81846420Y-34693860D01*
X81920080Y-34612580D01*
X81945480Y-34574480D01*
X81945480Y-34574480D01*
X81922620Y-34526220D01*
X81859120Y-34429700D01*
X81770220Y-34292540D01*
X81661000Y-34132520D01*
X81376520Y-33718500D01*
X81534000Y-33327340D01*
X81582260Y-33207960D01*
X81643220Y-33063180D01*
X81686400Y-32959040D01*
X81711800Y-32913320D01*
X81752440Y-32898080D01*
X81861660Y-32872680D01*
X82016600Y-32839660D01*
X82199480Y-32806640D01*
X82377280Y-32773620D01*
X82537300Y-32743140D01*
X82651600Y-32720280D01*
X82702400Y-32710120D01*
X82715100Y-32702500D01*
X82725260Y-32677100D01*
X82732880Y-32623760D01*
X82735420Y-32527240D01*
X82737960Y-32374840D01*
X82737960Y-32153860D01*
X82737960Y-32131000D01*
X82735420Y-31920180D01*
X82732880Y-31752540D01*
X82727800Y-31643320D01*
X82720180Y-31600140D01*
X82720180Y-31600140D01*
X82669380Y-31587440D01*
X82557620Y-31564580D01*
X82397600Y-31531560D01*
X82207100Y-31496000D01*
X82196940Y-31493460D01*
X82006440Y-31457900D01*
X81848960Y-31424880D01*
X81737200Y-31399480D01*
X81691480Y-31384240D01*
X81681320Y-31371540D01*
X81643220Y-31297880D01*
X81587340Y-31181040D01*
X81526380Y-31036260D01*
X81462880Y-30888940D01*
X81409540Y-30754320D01*
X81373980Y-30655260D01*
X81363820Y-30609540D01*
X81363820Y-30609540D01*
X81391760Y-30563820D01*
X81457800Y-30464760D01*
X81549240Y-30330140D01*
X81661000Y-30167580D01*
X81668620Y-30154880D01*
X81777840Y-29994860D01*
X81866740Y-29860240D01*
X81925160Y-29763720D01*
X81945480Y-29720540D01*
X81945480Y-29718000D01*
X81909920Y-29669740D01*
X81828640Y-29580840D01*
X81711800Y-29458920D01*
X81572100Y-29316680D01*
X81526380Y-29273500D01*
X81371440Y-29121100D01*
X81264760Y-29022040D01*
X81196180Y-28968700D01*
X81163160Y-28956000D01*
X81163160Y-28958540D01*
X81114900Y-28986480D01*
X81013300Y-29052520D01*
X80876140Y-29146500D01*
X80713580Y-29255720D01*
X80703420Y-29263340D01*
X80543400Y-29372560D01*
X80411320Y-29461460D01*
X80314800Y-29524960D01*
X80274160Y-29550360D01*
X80266540Y-29550360D01*
X80203040Y-29530040D01*
X80088740Y-29491940D01*
X79949040Y-29436060D01*
X79801720Y-29377640D01*
X79667100Y-29321760D01*
X79565500Y-29273500D01*
X79517240Y-29248100D01*
X79517240Y-29245560D01*
X79499460Y-29187140D01*
X79471520Y-29067760D01*
X79438500Y-28902660D01*
X79400400Y-28707080D01*
X79395320Y-28676600D01*
X79359760Y-28486100D01*
X79329280Y-28328620D01*
X79306420Y-28219400D01*
X79293720Y-28173680D01*
X79268320Y-28168600D01*
X79174340Y-28160980D01*
X79032100Y-28158440D01*
X78859380Y-28155900D01*
X78679040Y-28158440D01*
X78503780Y-28160980D01*
X78351380Y-28166060D01*
X78244700Y-28173680D01*
X78198980Y-28183840D01*
X78196440Y-28186380D01*
X78181200Y-28244800D01*
X78155800Y-28364180D01*
X78120240Y-28529280D01*
X78082140Y-28727400D01*
X78077060Y-28760420D01*
X78041500Y-28950920D01*
X78008480Y-29105860D01*
X77985620Y-29215080D01*
X77972920Y-29255720D01*
X77957680Y-29265880D01*
X77878940Y-29298900D01*
X77751940Y-29352240D01*
X77591920Y-29415740D01*
X77226160Y-29565600D01*
X76779120Y-29255720D01*
X76735940Y-29227780D01*
X76575920Y-29118560D01*
X76441300Y-29029660D01*
X76349860Y-28971240D01*
X76311760Y-28948380D01*
X76309220Y-28950920D01*
X76263500Y-28989020D01*
X76174600Y-29072840D01*
X76052680Y-29192220D01*
X75912980Y-29331920D01*
X75808840Y-29436060D01*
X75684380Y-29563060D01*
X75605640Y-29646880D01*
X75562460Y-29702760D01*
X75547220Y-29735780D01*
X75552300Y-29756100D01*
X75580240Y-29801820D01*
X75646280Y-29900880D01*
X75737720Y-30038040D01*
X75846940Y-30195520D01*
X75938380Y-30330140D01*
X76034900Y-30480000D01*
X76098400Y-30586680D01*
X76121260Y-30640020D01*
X76116180Y-30662880D01*
X76083160Y-30749240D01*
X76029820Y-30883860D01*
X75963780Y-31041340D01*
X75806300Y-31396940D01*
X75572620Y-31440120D01*
X75432920Y-31468060D01*
X75234800Y-31506160D01*
X75046840Y-31541720D01*
X74752200Y-31600140D01*
X74742040Y-32682180D01*
X74787760Y-32702500D01*
X74830940Y-32715200D01*
X74940160Y-32738060D01*
X75095100Y-32768540D01*
X75280520Y-32804100D01*
X75435460Y-32834580D01*
X75595480Y-32862520D01*
X75707240Y-32885380D01*
X75758040Y-32895540D01*
X75770740Y-32913320D01*
X75811380Y-32989520D01*
X75867260Y-33111440D01*
X75928220Y-33258760D01*
X75991720Y-33408620D01*
X76047600Y-33548320D01*
X76088240Y-33655000D01*
X76100940Y-33710880D01*
X76080620Y-33754060D01*
X76019660Y-33845500D01*
X75933300Y-33977580D01*
X75826620Y-34135060D01*
X75717400Y-34292540D01*
X75628500Y-34427160D01*
X75565000Y-34523680D01*
X75539600Y-34566860D01*
X75552300Y-34597340D01*
X75613260Y-34673540D01*
X75732640Y-34795460D01*
X75907900Y-34970720D01*
X75938380Y-34998660D01*
X76078080Y-35133280D01*
X76197460Y-35242500D01*
X76278740Y-35316160D01*
X76316840Y-35341560D01*
X76316840Y-35341560D01*
G37*
X76316840Y-35341560D02*
X76357480Y-35321240D01*
X76451460Y-35262820D01*
X76586080Y-35173920D01*
X76743560Y-35069780D01*
X76901040Y-34960560D01*
X77030580Y-34874200D01*
X77122020Y-34815780D01*
X77160120Y-34795460D01*
X77180440Y-34800540D01*
X77256640Y-34838640D01*
X77365860Y-34894520D01*
X77429360Y-34927540D01*
X77528420Y-34970720D01*
X77579220Y-34980880D01*
X77586840Y-34965640D01*
X77624940Y-34889440D01*
X77680820Y-34757360D01*
X77757020Y-34584640D01*
X77843380Y-34381440D01*
X77937360Y-34163000D01*
X78028800Y-33939480D01*
X78117700Y-33726120D01*
X78196440Y-33535620D01*
X78259940Y-33380680D01*
X78300580Y-33271460D01*
X78315820Y-33225740D01*
X78310740Y-33215580D01*
X78259940Y-33167320D01*
X78173580Y-33101280D01*
X77983080Y-32946340D01*
X77797660Y-32712660D01*
X77683360Y-32448500D01*
X77645260Y-32153860D01*
X77678280Y-31882080D01*
X77784960Y-31620460D01*
X77967840Y-31384240D01*
X78188820Y-31208980D01*
X78447900Y-31097220D01*
X78740000Y-31061660D01*
X79019400Y-31092140D01*
X79286100Y-31198820D01*
X79522320Y-31379160D01*
X79621380Y-31493460D01*
X79758540Y-31732220D01*
X79837280Y-31988760D01*
X79844900Y-32052260D01*
X79834740Y-32334200D01*
X79750920Y-32603440D01*
X79603600Y-32844740D01*
X79397860Y-33040320D01*
X79369920Y-33060640D01*
X79275940Y-33131760D01*
X79212440Y-33180020D01*
X79161640Y-33220660D01*
X79519780Y-34081720D01*
X79575660Y-34218880D01*
X79674720Y-34455100D01*
X79761080Y-34658300D01*
X79829660Y-34818320D01*
X79877920Y-34927540D01*
X79898240Y-34970720D01*
X79900780Y-34973260D01*
X79931260Y-34978340D01*
X79997300Y-34952940D01*
X80116680Y-34894520D01*
X80197960Y-34853880D01*
X80289400Y-34810700D01*
X80330040Y-34795460D01*
X80365600Y-34813240D01*
X80451960Y-34871660D01*
X80581500Y-34955480D01*
X80733900Y-35059620D01*
X80881220Y-35161220D01*
X81015840Y-35250120D01*
X81114900Y-35311080D01*
X81163160Y-35339020D01*
X81170780Y-35339020D01*
X81211420Y-35313620D01*
X81290160Y-35250120D01*
X81407000Y-35138360D01*
X81572100Y-34975800D01*
X81597500Y-34950400D01*
X81734660Y-34810700D01*
X81846420Y-34693860D01*
X81920080Y-34612580D01*
X81945480Y-34574480D01*
X81945480Y-34574480D01*
X81922620Y-34526220D01*
X81859120Y-34429700D01*
X81770220Y-34292540D01*
X81661000Y-34132520D01*
X81376520Y-33718500D01*
X81534000Y-33327340D01*
X81582260Y-33207960D01*
X81643220Y-33063180D01*
X81686400Y-32959040D01*
X81711800Y-32913320D01*
X81752440Y-32898080D01*
X81861660Y-32872680D01*
X82016600Y-32839660D01*
X82199480Y-32806640D01*
X82377280Y-32773620D01*
X82537300Y-32743140D01*
X82651600Y-32720280D01*
X82702400Y-32710120D01*
X82715100Y-32702500D01*
X82725260Y-32677100D01*
X82732880Y-32623760D01*
X82735420Y-32527240D01*
X82737960Y-32374840D01*
X82737960Y-32153860D01*
X82737960Y-32131000D01*
X82735420Y-31920180D01*
X82732880Y-31752540D01*
X82727800Y-31643320D01*
X82720180Y-31600140D01*
X82720180Y-31600140D01*
X82669380Y-31587440D01*
X82557620Y-31564580D01*
X82397600Y-31531560D01*
X82207100Y-31496000D01*
X82196940Y-31493460D01*
X82006440Y-31457900D01*
X81848960Y-31424880D01*
X81737200Y-31399480D01*
X81691480Y-31384240D01*
X81681320Y-31371540D01*
X81643220Y-31297880D01*
X81587340Y-31181040D01*
X81526380Y-31036260D01*
X81462880Y-30888940D01*
X81409540Y-30754320D01*
X81373980Y-30655260D01*
X81363820Y-30609540D01*
X81363820Y-30609540D01*
X81391760Y-30563820D01*
X81457800Y-30464760D01*
X81549240Y-30330140D01*
X81661000Y-30167580D01*
X81668620Y-30154880D01*
X81777840Y-29994860D01*
X81866740Y-29860240D01*
X81925160Y-29763720D01*
X81945480Y-29720540D01*
X81945480Y-29718000D01*
X81909920Y-29669740D01*
X81828640Y-29580840D01*
X81711800Y-29458920D01*
X81572100Y-29316680D01*
X81526380Y-29273500D01*
X81371440Y-29121100D01*
X81264760Y-29022040D01*
X81196180Y-28968700D01*
X81163160Y-28956000D01*
X81163160Y-28958540D01*
X81114900Y-28986480D01*
X81013300Y-29052520D01*
X80876140Y-29146500D01*
X80713580Y-29255720D01*
X80703420Y-29263340D01*
X80543400Y-29372560D01*
X80411320Y-29461460D01*
X80314800Y-29524960D01*
X80274160Y-29550360D01*
X80266540Y-29550360D01*
X80203040Y-29530040D01*
X80088740Y-29491940D01*
X79949040Y-29436060D01*
X79801720Y-29377640D01*
X79667100Y-29321760D01*
X79565500Y-29273500D01*
X79517240Y-29248100D01*
X79517240Y-29245560D01*
X79499460Y-29187140D01*
X79471520Y-29067760D01*
X79438500Y-28902660D01*
X79400400Y-28707080D01*
X79395320Y-28676600D01*
X79359760Y-28486100D01*
X79329280Y-28328620D01*
X79306420Y-28219400D01*
X79293720Y-28173680D01*
X79268320Y-28168600D01*
X79174340Y-28160980D01*
X79032100Y-28158440D01*
X78859380Y-28155900D01*
X78679040Y-28158440D01*
X78503780Y-28160980D01*
X78351380Y-28166060D01*
X78244700Y-28173680D01*
X78198980Y-28183840D01*
X78196440Y-28186380D01*
X78181200Y-28244800D01*
X78155800Y-28364180D01*
X78120240Y-28529280D01*
X78082140Y-28727400D01*
X78077060Y-28760420D01*
X78041500Y-28950920D01*
X78008480Y-29105860D01*
X77985620Y-29215080D01*
X77972920Y-29255720D01*
X77957680Y-29265880D01*
X77878940Y-29298900D01*
X77751940Y-29352240D01*
X77591920Y-29415740D01*
X77226160Y-29565600D01*
X76779120Y-29255720D01*
X76735940Y-29227780D01*
X76575920Y-29118560D01*
X76441300Y-29029660D01*
X76349860Y-28971240D01*
X76311760Y-28948380D01*
X76309220Y-28950920D01*
X76263500Y-28989020D01*
X76174600Y-29072840D01*
X76052680Y-29192220D01*
X75912980Y-29331920D01*
X75808840Y-29436060D01*
X75684380Y-29563060D01*
X75605640Y-29646880D01*
X75562460Y-29702760D01*
X75547220Y-29735780D01*
X75552300Y-29756100D01*
X75580240Y-29801820D01*
X75646280Y-29900880D01*
X75737720Y-30038040D01*
X75846940Y-30195520D01*
X75938380Y-30330140D01*
X76034900Y-30480000D01*
X76098400Y-30586680D01*
X76121260Y-30640020D01*
X76116180Y-30662880D01*
X76083160Y-30749240D01*
X76029820Y-30883860D01*
X75963780Y-31041340D01*
X75806300Y-31396940D01*
X75572620Y-31440120D01*
X75432920Y-31468060D01*
X75234800Y-31506160D01*
X75046840Y-31541720D01*
X74752200Y-31600140D01*
X74742040Y-32682180D01*
X74787760Y-32702500D01*
X74830940Y-32715200D01*
X74940160Y-32738060D01*
X75095100Y-32768540D01*
X75280520Y-32804100D01*
X75435460Y-32834580D01*
X75595480Y-32862520D01*
X75707240Y-32885380D01*
X75758040Y-32895540D01*
X75770740Y-32913320D01*
X75811380Y-32989520D01*
X75867260Y-33111440D01*
X75928220Y-33258760D01*
X75991720Y-33408620D01*
X76047600Y-33548320D01*
X76088240Y-33655000D01*
X76100940Y-33710880D01*
X76080620Y-33754060D01*
X76019660Y-33845500D01*
X75933300Y-33977580D01*
X75826620Y-34135060D01*
X75717400Y-34292540D01*
X75628500Y-34427160D01*
X75565000Y-34523680D01*
X75539600Y-34566860D01*
X75552300Y-34597340D01*
X75613260Y-34673540D01*
X75732640Y-34795460D01*
X75907900Y-34970720D01*
X75938380Y-34998660D01*
X76078080Y-35133280D01*
X76197460Y-35242500D01*
X76278740Y-35316160D01*
X76316840Y-35341560D01*
D10*
G36*
X158205714Y-31122979D02*
X158168746Y-31329891D01*
X158075012Y-31614800D01*
X157950272Y-31912897D01*
X157820281Y-32159374D01*
X157793376Y-32197413D01*
X157793376Y-31626299D01*
X157728326Y-31313062D01*
X157539112Y-31105622D01*
X157234639Y-31012329D01*
X157133636Y-31007792D01*
X156799516Y-31068777D01*
X156578248Y-31246165D01*
X156478734Y-31531608D01*
X156473896Y-31626299D01*
X156538946Y-31939536D01*
X156728159Y-32146975D01*
X157032633Y-32240269D01*
X157133636Y-32244805D01*
X157467606Y-32186492D01*
X157628441Y-32079870D01*
X157762315Y-31842030D01*
X157793376Y-31626299D01*
X157793376Y-32197413D01*
X157759856Y-32244805D01*
X157683749Y-32371925D01*
X157565220Y-32611365D01*
X157423792Y-32922585D01*
X157342876Y-33110714D01*
X157091635Y-33679272D01*
X156819718Y-34246808D01*
X156539494Y-34791693D01*
X156263334Y-35292296D01*
X156226493Y-35353955D01*
X156226493Y-31626299D01*
X156222598Y-31310064D01*
X156204834Y-31124516D01*
X156164089Y-31035476D01*
X156091247Y-31008762D01*
X156061558Y-31007792D01*
X155940831Y-31046671D01*
X155898325Y-31191331D01*
X155896623Y-31255195D01*
X155876189Y-31430430D01*
X155779798Y-31495018D01*
X155649220Y-31502598D01*
X155473985Y-31482163D01*
X155409397Y-31385773D01*
X155401818Y-31255195D01*
X155375898Y-31074104D01*
X155279459Y-31010345D01*
X155236883Y-31007792D01*
X155152553Y-31022401D01*
X155103074Y-31089012D01*
X155079330Y-31241807D01*
X155072206Y-31514964D01*
X155071948Y-31626299D01*
X155075843Y-31942533D01*
X155093606Y-32128081D01*
X155134351Y-32217122D01*
X155207193Y-32243835D01*
X155236883Y-32244805D01*
X155350559Y-32212518D01*
X155396426Y-32086472D01*
X155401818Y-31956169D01*
X155415609Y-31762245D01*
X155485564Y-31682706D01*
X155649220Y-31667533D01*
X155815441Y-31683623D01*
X155883617Y-31765237D01*
X155896623Y-31956169D01*
X155915073Y-32155103D01*
X155987099Y-32235370D01*
X156061558Y-32244805D01*
X156145887Y-32230197D01*
X156195367Y-32163586D01*
X156219111Y-32010791D01*
X156226234Y-31737634D01*
X156226493Y-31626299D01*
X156226493Y-35353955D01*
X156003610Y-35726986D01*
X155772692Y-36074132D01*
X155582952Y-36312103D01*
X155451691Y-36417512D01*
X155330102Y-36404002D01*
X155108445Y-36330892D01*
X154833465Y-36213746D01*
X154824545Y-36209546D01*
X154824545Y-32111490D01*
X154780706Y-32018405D01*
X154626623Y-32016159D01*
X154608776Y-32019422D01*
X154387011Y-31993945D01*
X154193128Y-31865310D01*
X154087755Y-31678790D01*
X154082337Y-31626299D01*
X154154303Y-31431398D01*
X154328393Y-31277991D01*
X154541896Y-31213309D01*
X154619632Y-31221645D01*
X154775982Y-31234616D01*
X154824279Y-31152533D01*
X154824545Y-31140434D01*
X154784247Y-31054720D01*
X154640303Y-31014936D01*
X154453441Y-31007792D01*
X154099195Y-31062653D01*
X153868088Y-31226882D01*
X153760717Y-31499956D01*
X153752467Y-31626299D01*
X153814642Y-31938869D01*
X154000769Y-32142787D01*
X154310252Y-32237526D01*
X154453441Y-32244805D01*
X154692962Y-32230515D01*
X154804243Y-32179291D01*
X154824545Y-32111490D01*
X154824545Y-36209546D01*
X154818315Y-36206614D01*
X154262041Y-36006938D01*
X153731238Y-35957886D01*
X153505065Y-35999843D01*
X153505065Y-31626299D01*
X153501169Y-31310064D01*
X153483406Y-31124516D01*
X153442661Y-31035476D01*
X153369819Y-31008762D01*
X153340129Y-31007792D01*
X153234651Y-31033769D01*
X153186125Y-31140106D01*
X153174414Y-31358279D01*
X153173634Y-31708766D01*
X152963571Y-31358279D01*
X152795995Y-31124431D01*
X152640269Y-31020267D01*
X152552014Y-31007792D01*
X152449505Y-31016063D01*
X152389414Y-31064024D01*
X152360429Y-31186397D01*
X152351238Y-31417906D01*
X152350519Y-31626299D01*
X152354415Y-31942533D01*
X152372178Y-32128081D01*
X152412923Y-32217122D01*
X152485765Y-32243835D01*
X152515454Y-32244805D01*
X152620932Y-32218829D01*
X152669459Y-32112492D01*
X152681169Y-31894318D01*
X152681950Y-31543831D01*
X152892012Y-31894318D01*
X153059588Y-32128167D01*
X153215315Y-32232330D01*
X153303570Y-32244805D01*
X153406078Y-32236535D01*
X153466169Y-32188574D01*
X153495154Y-32066200D01*
X153504345Y-31834692D01*
X153505065Y-31626299D01*
X153505065Y-35999843D01*
X153187590Y-36058738D01*
X152886558Y-36170415D01*
X152610534Y-36285832D01*
X152384037Y-36376797D01*
X152268052Y-36419513D01*
X152151124Y-36375399D01*
X152103116Y-36334033D01*
X152103116Y-31626299D01*
X152038066Y-31313062D01*
X151848853Y-31105622D01*
X151544380Y-31012329D01*
X151443376Y-31007792D01*
X151109257Y-31068777D01*
X150887988Y-31246165D01*
X150788475Y-31531608D01*
X150783636Y-31626299D01*
X150848686Y-31939536D01*
X151037900Y-32146975D01*
X151342373Y-32240269D01*
X151443376Y-32244805D01*
X151777347Y-32186492D01*
X151938181Y-32079870D01*
X152072055Y-31842030D01*
X152103116Y-31626299D01*
X152103116Y-36334033D01*
X151952824Y-36204536D01*
X151684180Y-35916799D01*
X151608311Y-35828924D01*
X151300139Y-35457270D01*
X151037799Y-35113429D01*
X150799659Y-34763116D01*
X150701168Y-34599614D01*
X150701168Y-31420130D01*
X150662515Y-31204020D01*
X150529854Y-31074720D01*
X150278131Y-31015961D01*
X150066168Y-31007792D01*
X149629090Y-31007792D01*
X149629090Y-31626299D01*
X149632986Y-31942533D01*
X149650749Y-32128081D01*
X149691494Y-32217122D01*
X149764336Y-32243835D01*
X149794026Y-32244805D01*
X149923361Y-32196485D01*
X149958961Y-32038637D01*
X149982327Y-31896227D01*
X150085269Y-31840232D01*
X150231103Y-31832468D01*
X150509350Y-31784793D01*
X150661932Y-31635235D01*
X150701168Y-31420130D01*
X150701168Y-34599614D01*
X150564084Y-34372046D01*
X150309442Y-33905935D01*
X150014100Y-33330499D01*
X149945195Y-33193182D01*
X149742554Y-32790996D01*
X149562532Y-32438910D01*
X149419373Y-32164385D01*
X149327322Y-31994880D01*
X149303488Y-31956169D01*
X149190287Y-31688262D01*
X149199598Y-31381701D01*
X149277920Y-31187928D01*
X149458246Y-30955761D01*
X149699229Y-30722825D01*
X149940117Y-30544418D01*
X150041428Y-30492986D01*
X150154414Y-30421742D01*
X150359280Y-30268489D01*
X150622796Y-30058692D01*
X150808847Y-29904858D01*
X151191606Y-29598273D01*
X151576040Y-29315849D01*
X151934115Y-29075844D01*
X152237798Y-28896518D01*
X152459055Y-28796129D01*
X152534077Y-28781169D01*
X152677245Y-28838013D01*
X152801204Y-28942915D01*
X152871177Y-29031911D01*
X152901535Y-29128628D01*
X152890852Y-29273694D01*
X152837698Y-29507739D01*
X152772752Y-29752589D01*
X152667923Y-30135459D01*
X152606300Y-30407087D01*
X152607106Y-30586449D01*
X152689564Y-30692520D01*
X152872895Y-30744274D01*
X153176322Y-30760686D01*
X153619068Y-30760733D01*
X153793701Y-30760390D01*
X154286616Y-30756848D01*
X154633601Y-30745121D01*
X154853529Y-30723554D01*
X154965275Y-30690495D01*
X154989480Y-30655648D01*
X154968521Y-30529660D01*
X154913133Y-30292674D01*
X154834548Y-29992181D01*
X154820407Y-29940787D01*
X154713088Y-29494153D01*
X154678894Y-29180369D01*
X154718676Y-28984028D01*
X154833285Y-28889721D01*
X154878992Y-28879488D01*
X155090553Y-28910090D01*
X155409874Y-29038811D01*
X155819801Y-29256071D01*
X156303175Y-29552287D01*
X156842841Y-29917878D01*
X157195487Y-30173187D01*
X157599546Y-30477697D01*
X157884754Y-30706510D01*
X158068878Y-30876333D01*
X158169689Y-31003872D01*
X158204955Y-31105833D01*
X158205714Y-31122979D01*
X158205714Y-31122979D01*
X158205714Y-31122979D01*
G37*
X158205714Y-31122979D02*
X158168746Y-31329891D01*
X158075012Y-31614800D01*
X157950272Y-31912897D01*
X157820281Y-32159374D01*
X157793376Y-32197413D01*
X157793376Y-31626299D01*
X157728326Y-31313062D01*
X157539112Y-31105622D01*
X157234639Y-31012329D01*
X157133636Y-31007792D01*
X156799516Y-31068777D01*
X156578248Y-31246165D01*
X156478734Y-31531608D01*
X156473896Y-31626299D01*
X156538946Y-31939536D01*
X156728159Y-32146975D01*
X157032633Y-32240269D01*
X157133636Y-32244805D01*
X157467606Y-32186492D01*
X157628441Y-32079870D01*
X157762315Y-31842030D01*
X157793376Y-31626299D01*
X157793376Y-32197413D01*
X157759856Y-32244805D01*
X157683749Y-32371925D01*
X157565220Y-32611365D01*
X157423792Y-32922585D01*
X157342876Y-33110714D01*
X157091635Y-33679272D01*
X156819718Y-34246808D01*
X156539494Y-34791693D01*
X156263334Y-35292296D01*
X156226493Y-35353955D01*
X156226493Y-31626299D01*
X156222598Y-31310064D01*
X156204834Y-31124516D01*
X156164089Y-31035476D01*
X156091247Y-31008762D01*
X156061558Y-31007792D01*
X155940831Y-31046671D01*
X155898325Y-31191331D01*
X155896623Y-31255195D01*
X155876189Y-31430430D01*
X155779798Y-31495018D01*
X155649220Y-31502598D01*
X155473985Y-31482163D01*
X155409397Y-31385773D01*
X155401818Y-31255195D01*
X155375898Y-31074104D01*
X155279459Y-31010345D01*
X155236883Y-31007792D01*
X155152553Y-31022401D01*
X155103074Y-31089012D01*
X155079330Y-31241807D01*
X155072206Y-31514964D01*
X155071948Y-31626299D01*
X155075843Y-31942533D01*
X155093606Y-32128081D01*
X155134351Y-32217122D01*
X155207193Y-32243835D01*
X155236883Y-32244805D01*
X155350559Y-32212518D01*
X155396426Y-32086472D01*
X155401818Y-31956169D01*
X155415609Y-31762245D01*
X155485564Y-31682706D01*
X155649220Y-31667533D01*
X155815441Y-31683623D01*
X155883617Y-31765237D01*
X155896623Y-31956169D01*
X155915073Y-32155103D01*
X155987099Y-32235370D01*
X156061558Y-32244805D01*
X156145887Y-32230197D01*
X156195367Y-32163586D01*
X156219111Y-32010791D01*
X156226234Y-31737634D01*
X156226493Y-31626299D01*
X156226493Y-35353955D01*
X156003610Y-35726986D01*
X155772692Y-36074132D01*
X155582952Y-36312103D01*
X155451691Y-36417512D01*
X155330102Y-36404002D01*
X155108445Y-36330892D01*
X154833465Y-36213746D01*
X154824545Y-36209546D01*
X154824545Y-32111490D01*
X154780706Y-32018405D01*
X154626623Y-32016159D01*
X154608776Y-32019422D01*
X154387011Y-31993945D01*
X154193128Y-31865310D01*
X154087755Y-31678790D01*
X154082337Y-31626299D01*
X154154303Y-31431398D01*
X154328393Y-31277991D01*
X154541896Y-31213309D01*
X154619632Y-31221645D01*
X154775982Y-31234616D01*
X154824279Y-31152533D01*
X154824545Y-31140434D01*
X154784247Y-31054720D01*
X154640303Y-31014936D01*
X154453441Y-31007792D01*
X154099195Y-31062653D01*
X153868088Y-31226882D01*
X153760717Y-31499956D01*
X153752467Y-31626299D01*
X153814642Y-31938869D01*
X154000769Y-32142787D01*
X154310252Y-32237526D01*
X154453441Y-32244805D01*
X154692962Y-32230515D01*
X154804243Y-32179291D01*
X154824545Y-32111490D01*
X154824545Y-36209546D01*
X154818315Y-36206614D01*
X154262041Y-36006938D01*
X153731238Y-35957886D01*
X153505065Y-35999843D01*
X153505065Y-31626299D01*
X153501169Y-31310064D01*
X153483406Y-31124516D01*
X153442661Y-31035476D01*
X153369819Y-31008762D01*
X153340129Y-31007792D01*
X153234651Y-31033769D01*
X153186125Y-31140106D01*
X153174414Y-31358279D01*
X153173634Y-31708766D01*
X152963571Y-31358279D01*
X152795995Y-31124431D01*
X152640269Y-31020267D01*
X152552014Y-31007792D01*
X152449505Y-31016063D01*
X152389414Y-31064024D01*
X152360429Y-31186397D01*
X152351238Y-31417906D01*
X152350519Y-31626299D01*
X152354415Y-31942533D01*
X152372178Y-32128081D01*
X152412923Y-32217122D01*
X152485765Y-32243835D01*
X152515454Y-32244805D01*
X152620932Y-32218829D01*
X152669459Y-32112492D01*
X152681169Y-31894318D01*
X152681950Y-31543831D01*
X152892012Y-31894318D01*
X153059588Y-32128167D01*
X153215315Y-32232330D01*
X153303570Y-32244805D01*
X153406078Y-32236535D01*
X153466169Y-32188574D01*
X153495154Y-32066200D01*
X153504345Y-31834692D01*
X153505065Y-31626299D01*
X153505065Y-35999843D01*
X153187590Y-36058738D01*
X152886558Y-36170415D01*
X152610534Y-36285832D01*
X152384037Y-36376797D01*
X152268052Y-36419513D01*
X152151124Y-36375399D01*
X152103116Y-36334033D01*
X152103116Y-31626299D01*
X152038066Y-31313062D01*
X151848853Y-31105622D01*
X151544380Y-31012329D01*
X151443376Y-31007792D01*
X151109257Y-31068777D01*
X150887988Y-31246165D01*
X150788475Y-31531608D01*
X150783636Y-31626299D01*
X150848686Y-31939536D01*
X151037900Y-32146975D01*
X151342373Y-32240269D01*
X151443376Y-32244805D01*
X151777347Y-32186492D01*
X151938181Y-32079870D01*
X152072055Y-31842030D01*
X152103116Y-31626299D01*
X152103116Y-36334033D01*
X151952824Y-36204536D01*
X151684180Y-35916799D01*
X151608311Y-35828924D01*
X151300139Y-35457270D01*
X151037799Y-35113429D01*
X150799659Y-34763116D01*
X150701168Y-34599614D01*
X150701168Y-31420130D01*
X150662515Y-31204020D01*
X150529854Y-31074720D01*
X150278131Y-31015961D01*
X150066168Y-31007792D01*
X149629090Y-31007792D01*
X149629090Y-31626299D01*
X149632986Y-31942533D01*
X149650749Y-32128081D01*
X149691494Y-32217122D01*
X149764336Y-32243835D01*
X149794026Y-32244805D01*
X149923361Y-32196485D01*
X149958961Y-32038637D01*
X149982327Y-31896227D01*
X150085269Y-31840232D01*
X150231103Y-31832468D01*
X150509350Y-31784793D01*
X150661932Y-31635235D01*
X150701168Y-31420130D01*
X150701168Y-34599614D01*
X150564084Y-34372046D01*
X150309442Y-33905935D01*
X150014100Y-33330499D01*
X149945195Y-33193182D01*
X149742554Y-32790996D01*
X149562532Y-32438910D01*
X149419373Y-32164385D01*
X149327322Y-31994880D01*
X149303488Y-31956169D01*
X149190287Y-31688262D01*
X149199598Y-31381701D01*
X149277920Y-31187928D01*
X149458246Y-30955761D01*
X149699229Y-30722825D01*
X149940117Y-30544418D01*
X150041428Y-30492986D01*
X150154414Y-30421742D01*
X150359280Y-30268489D01*
X150622796Y-30058692D01*
X150808847Y-29904858D01*
X151191606Y-29598273D01*
X151576040Y-29315849D01*
X151934115Y-29075844D01*
X152237798Y-28896518D01*
X152459055Y-28796129D01*
X152534077Y-28781169D01*
X152677245Y-28838013D01*
X152801204Y-28942915D01*
X152871177Y-29031911D01*
X152901535Y-29128628D01*
X152890852Y-29273694D01*
X152837698Y-29507739D01*
X152772752Y-29752589D01*
X152667923Y-30135459D01*
X152606300Y-30407087D01*
X152607106Y-30586449D01*
X152689564Y-30692520D01*
X152872895Y-30744274D01*
X153176322Y-30760686D01*
X153619068Y-30760733D01*
X153793701Y-30760390D01*
X154286616Y-30756848D01*
X154633601Y-30745121D01*
X154853529Y-30723554D01*
X154965275Y-30690495D01*
X154989480Y-30655648D01*
X154968521Y-30529660D01*
X154913133Y-30292674D01*
X154834548Y-29992181D01*
X154820407Y-29940787D01*
X154713088Y-29494153D01*
X154678894Y-29180369D01*
X154718676Y-28984028D01*
X154833285Y-28889721D01*
X154878992Y-28879488D01*
X155090553Y-28910090D01*
X155409874Y-29038811D01*
X155819801Y-29256071D01*
X156303175Y-29552287D01*
X156842841Y-29917878D01*
X157195487Y-30173187D01*
X157599546Y-30477697D01*
X157884754Y-30706510D01*
X158068878Y-30876333D01*
X158169689Y-31003872D01*
X158204955Y-31105833D01*
X158205714Y-31122979D01*
X158205714Y-31122979D01*
G36*
X154693542Y-28013681D02*
X154565402Y-28360555D01*
X154349417Y-28637770D01*
X154233302Y-28767644D01*
X154178034Y-28880302D01*
X154176066Y-29029019D01*
X154219854Y-29267070D01*
X154244294Y-29379978D01*
X154328312Y-29776812D01*
X154366110Y-30040578D01*
X154345383Y-30199618D01*
X154253822Y-30282277D01*
X154079122Y-30316896D01*
X153831440Y-30330813D01*
X153546450Y-30334805D01*
X153330118Y-30321737D01*
X153233550Y-30296451D01*
X153179692Y-30131732D01*
X153203559Y-29826316D01*
X153304776Y-29384778D01*
X153309985Y-29365942D01*
X153444775Y-28881128D01*
X153181192Y-28645596D01*
X152955647Y-28347415D01*
X152861576Y-28003176D01*
X152894480Y-27653477D01*
X153049862Y-27338915D01*
X153323223Y-27100085D01*
X153354290Y-27083262D01*
X153703719Y-26986095D01*
X154050075Y-27034270D01*
X154357140Y-27211559D01*
X154588691Y-27501735D01*
X154659692Y-27668105D01*
X154693542Y-28013681D01*
X154693542Y-28013681D01*
X154693542Y-28013681D01*
G37*
X154693542Y-28013681D02*
X154565402Y-28360555D01*
X154349417Y-28637770D01*
X154233302Y-28767644D01*
X154178034Y-28880302D01*
X154176066Y-29029019D01*
X154219854Y-29267070D01*
X154244294Y-29379978D01*
X154328312Y-29776812D01*
X154366110Y-30040578D01*
X154345383Y-30199618D01*
X154253822Y-30282277D01*
X154079122Y-30316896D01*
X153831440Y-30330813D01*
X153546450Y-30334805D01*
X153330118Y-30321737D01*
X153233550Y-30296451D01*
X153179692Y-30131732D01*
X153203559Y-29826316D01*
X153304776Y-29384778D01*
X153309985Y-29365942D01*
X153444775Y-28881128D01*
X153181192Y-28645596D01*
X152955647Y-28347415D01*
X152861576Y-28003176D01*
X152894480Y-27653477D01*
X153049862Y-27338915D01*
X153323223Y-27100085D01*
X153354290Y-27083262D01*
X153703719Y-26986095D01*
X154050075Y-27034270D01*
X154357140Y-27211559D01*
X154588691Y-27501735D01*
X154659692Y-27668105D01*
X154693542Y-28013681D01*
X154693542Y-28013681D01*
G36*
X150349921Y-31428422D02*
X150288831Y-31543831D01*
X150132394Y-31662559D01*
X150013056Y-31627350D01*
X149959586Y-31448993D01*
X149958961Y-31420130D01*
X150003119Y-31226179D01*
X150116417Y-31174150D01*
X150270085Y-31274830D01*
X150288831Y-31296429D01*
X150349921Y-31428422D01*
X150349921Y-31428422D01*
X150349921Y-31428422D01*
G37*
X150349921Y-31428422D02*
X150288831Y-31543831D01*
X150132394Y-31662559D01*
X150013056Y-31627350D01*
X149959586Y-31448993D01*
X149958961Y-31420130D01*
X150003119Y-31226179D01*
X150116417Y-31174150D01*
X150270085Y-31274830D01*
X150288831Y-31296429D01*
X150349921Y-31428422D01*
X150349921Y-31428422D01*
G36*
X151758176Y-31603300D02*
X151734806Y-31743268D01*
X151663355Y-31864199D01*
X151541495Y-32015484D01*
X151444528Y-32079848D01*
X151443376Y-32079870D01*
X151347357Y-32017542D01*
X151225448Y-31867317D01*
X151223397Y-31864199D01*
X151132594Y-31693160D01*
X151143440Y-31552983D01*
X151204042Y-31431244D01*
X151326518Y-31276105D01*
X151443376Y-31213961D01*
X151563963Y-31279490D01*
X151682711Y-31431244D01*
X151758176Y-31603300D01*
X151758176Y-31603300D01*
X151758176Y-31603300D01*
G37*
X151758176Y-31603300D02*
X151734806Y-31743268D01*
X151663355Y-31864199D01*
X151541495Y-32015484D01*
X151444528Y-32079848D01*
X151443376Y-32079870D01*
X151347357Y-32017542D01*
X151225448Y-31867317D01*
X151223397Y-31864199D01*
X151132594Y-31693160D01*
X151143440Y-31552983D01*
X151204042Y-31431244D01*
X151326518Y-31276105D01*
X151443376Y-31213961D01*
X151563963Y-31279490D01*
X151682711Y-31431244D01*
X151758176Y-31603300D01*
X151758176Y-31603300D01*
G36*
X157448435Y-31603300D02*
X157425065Y-31743268D01*
X157353615Y-31864199D01*
X157231755Y-32015484D01*
X157134788Y-32079848D01*
X157133636Y-32079870D01*
X157037616Y-32017542D01*
X156915708Y-31867317D01*
X156913657Y-31864199D01*
X156822854Y-31693160D01*
X156833699Y-31552983D01*
X156894301Y-31431244D01*
X157016778Y-31276105D01*
X157133636Y-31213961D01*
X157254223Y-31279490D01*
X157372971Y-31431244D01*
X157448435Y-31603300D01*
X157448435Y-31603300D01*
X157448435Y-31603300D01*
G37*
X157448435Y-31603300D02*
X157425065Y-31743268D01*
X157353615Y-31864199D01*
X157231755Y-32015484D01*
X157134788Y-32079848D01*
X157133636Y-32079870D01*
X157037616Y-32017542D01*
X156915708Y-31867317D01*
X156913657Y-31864199D01*
X156822854Y-31693160D01*
X156833699Y-31552983D01*
X156894301Y-31431244D01*
X157016778Y-31276105D01*
X157133636Y-31213961D01*
X157254223Y-31279490D01*
X157372971Y-31431244D01*
X157448435Y-31603300D01*
X157448435Y-31603300D01*
D13*
G36*
X159766000Y-56911240D02*
X158836360Y-56911240D01*
X158836360Y-55361840D01*
X158833820Y-55298340D01*
X158833820Y-54957980D01*
X158833820Y-50050700D01*
X158833820Y-45140880D01*
X153416000Y-45140880D01*
X147995640Y-45140880D01*
X147995640Y-45565060D01*
X147995640Y-45989240D01*
X147701000Y-45989240D01*
X147403820Y-45989240D01*
X147403820Y-47005240D01*
X147403820Y-48021240D01*
X147701000Y-48021240D01*
X147995640Y-48021240D01*
X147995640Y-51488340D01*
X147995640Y-54957980D01*
X148201380Y-54879240D01*
X148356320Y-54838600D01*
X148643340Y-54780180D01*
X149024340Y-54709060D01*
X149463760Y-54632860D01*
X149618700Y-54607460D01*
X149992080Y-54549040D01*
X150334980Y-54505860D01*
X150675340Y-54470300D01*
X151041100Y-54444900D01*
X151460200Y-54429660D01*
X151960580Y-54419500D01*
X152570180Y-54414420D01*
X153319480Y-54411880D01*
X153416000Y-54411880D01*
X154180540Y-54414420D01*
X154805380Y-54419500D01*
X155318460Y-54427120D01*
X155745180Y-54444900D01*
X156116020Y-54467760D01*
X156456380Y-54500780D01*
X156796740Y-54543960D01*
X157165040Y-54599840D01*
X157210760Y-54607460D01*
X157660340Y-54683660D01*
X158066740Y-54757320D01*
X158389320Y-54820820D01*
X158592520Y-54869080D01*
X158628080Y-54879240D01*
X158833820Y-54957980D01*
X158833820Y-55298340D01*
X158831280Y-55237380D01*
X158798260Y-55145940D01*
X158714440Y-55077360D01*
X158562040Y-55024020D01*
X158320740Y-54978300D01*
X157967680Y-54932580D01*
X157482540Y-54876700D01*
X157012640Y-54825900D01*
X156362400Y-54764940D01*
X155618180Y-54721760D01*
X154762200Y-54693820D01*
X153766520Y-54683660D01*
X153416000Y-54681120D01*
X152524460Y-54686200D01*
X151759920Y-54698900D01*
X151081740Y-54726840D01*
X150449280Y-54767480D01*
X149819360Y-54828440D01*
X149151340Y-54907180D01*
X148653500Y-54975760D01*
X147995640Y-55067200D01*
X147995640Y-55521860D01*
X147995640Y-55979060D01*
X153416000Y-55979060D01*
X158833820Y-55979060D01*
X158833820Y-55521860D01*
X158836360Y-55361840D01*
X158836360Y-56911240D01*
X153416000Y-56911240D01*
X147066000Y-56911240D01*
X147066000Y-50561240D01*
X147066000Y-44211240D01*
X153416000Y-44211240D01*
X159766000Y-44211240D01*
X159766000Y-50561240D01*
X159766000Y-56911240D01*
X159766000Y-56911240D01*
X159766000Y-56911240D01*
G37*
X159766000Y-56911240D02*
X158836360Y-56911240D01*
X158836360Y-55361840D01*
X158833820Y-55298340D01*
X158833820Y-54957980D01*
X158833820Y-50050700D01*
X158833820Y-45140880D01*
X153416000Y-45140880D01*
X147995640Y-45140880D01*
X147995640Y-45565060D01*
X147995640Y-45989240D01*
X147701000Y-45989240D01*
X147403820Y-45989240D01*
X147403820Y-47005240D01*
X147403820Y-48021240D01*
X147701000Y-48021240D01*
X147995640Y-48021240D01*
X147995640Y-51488340D01*
X147995640Y-54957980D01*
X148201380Y-54879240D01*
X148356320Y-54838600D01*
X148643340Y-54780180D01*
X149024340Y-54709060D01*
X149463760Y-54632860D01*
X149618700Y-54607460D01*
X149992080Y-54549040D01*
X150334980Y-54505860D01*
X150675340Y-54470300D01*
X151041100Y-54444900D01*
X151460200Y-54429660D01*
X151960580Y-54419500D01*
X152570180Y-54414420D01*
X153319480Y-54411880D01*
X153416000Y-54411880D01*
X154180540Y-54414420D01*
X154805380Y-54419500D01*
X155318460Y-54427120D01*
X155745180Y-54444900D01*
X156116020Y-54467760D01*
X156456380Y-54500780D01*
X156796740Y-54543960D01*
X157165040Y-54599840D01*
X157210760Y-54607460D01*
X157660340Y-54683660D01*
X158066740Y-54757320D01*
X158389320Y-54820820D01*
X158592520Y-54869080D01*
X158628080Y-54879240D01*
X158833820Y-54957980D01*
X158833820Y-55298340D01*
X158831280Y-55237380D01*
X158798260Y-55145940D01*
X158714440Y-55077360D01*
X158562040Y-55024020D01*
X158320740Y-54978300D01*
X157967680Y-54932580D01*
X157482540Y-54876700D01*
X157012640Y-54825900D01*
X156362400Y-54764940D01*
X155618180Y-54721760D01*
X154762200Y-54693820D01*
X153766520Y-54683660D01*
X153416000Y-54681120D01*
X152524460Y-54686200D01*
X151759920Y-54698900D01*
X151081740Y-54726840D01*
X150449280Y-54767480D01*
X149819360Y-54828440D01*
X149151340Y-54907180D01*
X148653500Y-54975760D01*
X147995640Y-55067200D01*
X147995640Y-55521860D01*
X147995640Y-55979060D01*
X153416000Y-55979060D01*
X158833820Y-55979060D01*
X158833820Y-55521860D01*
X158836360Y-55361840D01*
X158836360Y-56911240D01*
X153416000Y-56911240D01*
X147066000Y-56911240D01*
X147066000Y-50561240D01*
X147066000Y-44211240D01*
X153416000Y-44211240D01*
X159766000Y-44211240D01*
X159766000Y-50561240D01*
X159766000Y-56911240D01*
X159766000Y-56911240D01*
G36*
X152052020Y-53510180D02*
X151996140Y-53553360D01*
X151833580Y-53604160D01*
X151584660Y-53639720D01*
X151330660Y-53649880D01*
X151175720Y-53634640D01*
X150822660Y-53459380D01*
X150568660Y-53152040D01*
X150495000Y-52997100D01*
X150398480Y-52547520D01*
X150467060Y-52120800D01*
X150700740Y-51727100D01*
X150749000Y-51673760D01*
X150924260Y-51498500D01*
X151081740Y-51407060D01*
X151292560Y-51371500D01*
X151513540Y-51366420D01*
X151836120Y-51384200D01*
X152011380Y-51437540D01*
X152036780Y-51470560D01*
X152013920Y-51531520D01*
X151864060Y-51544220D01*
X151706580Y-51528980D01*
X151328120Y-51551840D01*
X151018240Y-51704240D01*
X150787100Y-51953160D01*
X150657560Y-52265580D01*
X150637240Y-52611020D01*
X150741380Y-52956460D01*
X150939500Y-53225700D01*
X151096980Y-53362860D01*
X151257000Y-53423820D01*
X151485600Y-53428900D01*
X151615140Y-53418740D01*
X151897080Y-53411120D01*
X152046940Y-53444140D01*
X152052020Y-53510180D01*
X152052020Y-53510180D01*
X152052020Y-53510180D01*
G37*
X152052020Y-53510180D02*
X151996140Y-53553360D01*
X151833580Y-53604160D01*
X151584660Y-53639720D01*
X151330660Y-53649880D01*
X151175720Y-53634640D01*
X150822660Y-53459380D01*
X150568660Y-53152040D01*
X150495000Y-52997100D01*
X150398480Y-52547520D01*
X150467060Y-52120800D01*
X150700740Y-51727100D01*
X150749000Y-51673760D01*
X150924260Y-51498500D01*
X151081740Y-51407060D01*
X151292560Y-51371500D01*
X151513540Y-51366420D01*
X151836120Y-51384200D01*
X152011380Y-51437540D01*
X152036780Y-51470560D01*
X152013920Y-51531520D01*
X151864060Y-51544220D01*
X151706580Y-51528980D01*
X151328120Y-51551840D01*
X151018240Y-51704240D01*
X150787100Y-51953160D01*
X150657560Y-52265580D01*
X150637240Y-52611020D01*
X150741380Y-52956460D01*
X150939500Y-53225700D01*
X151096980Y-53362860D01*
X151257000Y-53423820D01*
X151485600Y-53428900D01*
X151615140Y-53418740D01*
X151897080Y-53411120D01*
X152046940Y-53444140D01*
X152052020Y-53510180D01*
X152052020Y-53510180D01*
G36*
X153329640Y-52466240D02*
X153327100Y-52933600D01*
X153316940Y-53256180D01*
X153296620Y-53461920D01*
X153266140Y-53568600D01*
X153217880Y-53606700D01*
X153202640Y-53609240D01*
X153151840Y-53583840D01*
X153116280Y-53494940D01*
X153093420Y-53317140D01*
X153080720Y-53025040D01*
X153075640Y-52593240D01*
X153075640Y-52466240D01*
X153078180Y-51996340D01*
X153088340Y-51673760D01*
X153108660Y-51468020D01*
X153141680Y-51361340D01*
X153189940Y-51323240D01*
X153202640Y-51323240D01*
X153255980Y-51346100D01*
X153291540Y-51435000D01*
X153314400Y-51612800D01*
X153324560Y-51904900D01*
X153329640Y-52336700D01*
X153329640Y-52466240D01*
X153329640Y-52466240D01*
X153329640Y-52466240D01*
G37*
X153329640Y-52466240D02*
X153327100Y-52933600D01*
X153316940Y-53256180D01*
X153296620Y-53461920D01*
X153266140Y-53568600D01*
X153217880Y-53606700D01*
X153202640Y-53609240D01*
X153151840Y-53583840D01*
X153116280Y-53494940D01*
X153093420Y-53317140D01*
X153080720Y-53025040D01*
X153075640Y-52593240D01*
X153075640Y-52466240D01*
X153078180Y-51996340D01*
X153088340Y-51673760D01*
X153108660Y-51468020D01*
X153141680Y-51361340D01*
X153189940Y-51323240D01*
X153202640Y-51323240D01*
X153255980Y-51346100D01*
X153291540Y-51435000D01*
X153314400Y-51612800D01*
X153324560Y-51904900D01*
X153329640Y-52336700D01*
X153329640Y-52466240D01*
X153329640Y-52466240D01*
G36*
X155818840Y-53596540D02*
X155719780Y-53614320D01*
X155592780Y-53464460D01*
X155437840Y-53154580D01*
X155252420Y-52682140D01*
X155224480Y-52598320D01*
X155092400Y-52232560D01*
X154978100Y-51932840D01*
X154894280Y-51732180D01*
X154853640Y-51661060D01*
X154810460Y-51737260D01*
X154724100Y-51940460D01*
X154607260Y-52242720D01*
X154472640Y-52611020D01*
X154472640Y-52613560D01*
X154294840Y-53083460D01*
X154152600Y-53395880D01*
X154040840Y-53560980D01*
X153990040Y-53591460D01*
X153921460Y-53586380D01*
X153908760Y-53520340D01*
X153954480Y-53357780D01*
X154061160Y-53083460D01*
X154205940Y-52717700D01*
X154368500Y-52288440D01*
X154500580Y-51932840D01*
X154647900Y-51577240D01*
X154767280Y-51384200D01*
X154851100Y-51341020D01*
X154914600Y-51422300D01*
X155023820Y-51622960D01*
X155163520Y-51915060D01*
X155318460Y-52260500D01*
X155475940Y-52626260D01*
X155620720Y-52976780D01*
X155735020Y-53276500D01*
X155806140Y-53494940D01*
X155818840Y-53596540D01*
X155818840Y-53596540D01*
X155818840Y-53596540D01*
G37*
X155818840Y-53596540D02*
X155719780Y-53614320D01*
X155592780Y-53464460D01*
X155437840Y-53154580D01*
X155252420Y-52682140D01*
X155224480Y-52598320D01*
X155092400Y-52232560D01*
X154978100Y-51932840D01*
X154894280Y-51732180D01*
X154853640Y-51661060D01*
X154810460Y-51737260D01*
X154724100Y-51940460D01*
X154607260Y-52242720D01*
X154472640Y-52611020D01*
X154472640Y-52613560D01*
X154294840Y-53083460D01*
X154152600Y-53395880D01*
X154040840Y-53560980D01*
X153990040Y-53591460D01*
X153921460Y-53586380D01*
X153908760Y-53520340D01*
X153954480Y-53357780D01*
X154061160Y-53083460D01*
X154205940Y-52717700D01*
X154368500Y-52288440D01*
X154500580Y-51932840D01*
X154647900Y-51577240D01*
X154767280Y-51384200D01*
X154851100Y-51341020D01*
X154914600Y-51422300D01*
X155023820Y-51622960D01*
X155163520Y-51915060D01*
X155318460Y-52260500D01*
X155475940Y-52626260D01*
X155620720Y-52976780D01*
X155735020Y-53276500D01*
X155806140Y-53494940D01*
X155818840Y-53596540D01*
X155818840Y-53596540D01*
G36*
X156377640Y-53548280D02*
X156311600Y-53604160D01*
X156268420Y-53609240D01*
X156199840Y-53533040D01*
X156088080Y-53319680D01*
X155945840Y-52997100D01*
X155785820Y-52590700D01*
X155752800Y-52501800D01*
X155567380Y-51976020D01*
X155453080Y-51602640D01*
X155407360Y-51379120D01*
X155432760Y-51305460D01*
X155521660Y-51368960D01*
X155575000Y-51473100D01*
X155671520Y-51694080D01*
X155798520Y-52003960D01*
X155940760Y-52357020D01*
X156085540Y-52722780D01*
X156212540Y-53060600D01*
X156314140Y-53337460D01*
X156370020Y-53510180D01*
X156377640Y-53548280D01*
X156377640Y-53548280D01*
X156377640Y-53548280D01*
G37*
X156377640Y-53548280D02*
X156311600Y-53604160D01*
X156268420Y-53609240D01*
X156199840Y-53533040D01*
X156088080Y-53319680D01*
X155945840Y-52997100D01*
X155785820Y-52590700D01*
X155752800Y-52501800D01*
X155567380Y-51976020D01*
X155453080Y-51602640D01*
X155407360Y-51379120D01*
X155432760Y-51305460D01*
X155521660Y-51368960D01*
X155575000Y-51473100D01*
X155671520Y-51694080D01*
X155798520Y-52003960D01*
X155940760Y-52357020D01*
X156085540Y-52722780D01*
X156212540Y-53060600D01*
X156314140Y-53337460D01*
X156370020Y-53510180D01*
X156377640Y-53548280D01*
X156377640Y-53548280D01*
G36*
X152146000Y-47851060D02*
X151467820Y-47851060D01*
X151467820Y-46987460D01*
X151457660Y-46697900D01*
X151419560Y-46545500D01*
X151348440Y-46497240D01*
X151340820Y-46497240D01*
X151264620Y-46537880D01*
X151223980Y-46682660D01*
X151213820Y-46964600D01*
X151213820Y-46967140D01*
X151208740Y-47236380D01*
X151180800Y-47373540D01*
X151117300Y-47416720D01*
X151023320Y-47411640D01*
X150909020Y-47373540D01*
X150845520Y-47271940D01*
X150815040Y-47063660D01*
X150807420Y-46941740D01*
X150774400Y-46657260D01*
X150715980Y-46520100D01*
X150657560Y-46497240D01*
X150586440Y-46570900D01*
X150545800Y-46758860D01*
X150533100Y-47010320D01*
X150553420Y-47266860D01*
X150606760Y-47480220D01*
X150624540Y-47518320D01*
X150769320Y-47635160D01*
X150997920Y-47683420D01*
X151229060Y-47655480D01*
X151366220Y-47579280D01*
X151422100Y-47444660D01*
X151457660Y-47200820D01*
X151467820Y-46987460D01*
X151467820Y-47851060D01*
X150329900Y-47851060D01*
X150329900Y-47139860D01*
X150322280Y-46913800D01*
X150210520Y-46672500D01*
X149987000Y-46535340D01*
X149651720Y-46497240D01*
X149352000Y-46497240D01*
X149352000Y-47089060D01*
X149352000Y-47680880D01*
X149669500Y-47680880D01*
X149900640Y-47663100D01*
X150063200Y-47625000D01*
X150078440Y-47617380D01*
X150243540Y-47419260D01*
X150329900Y-47139860D01*
X150329900Y-47851060D01*
X149860000Y-47851060D01*
X149181820Y-47851060D01*
X149181820Y-47553880D01*
X149125940Y-47464980D01*
X148940520Y-47429420D01*
X148844000Y-47426880D01*
X148607780Y-47406560D01*
X148511260Y-47337980D01*
X148503640Y-47299880D01*
X148567140Y-47205900D01*
X148772880Y-47172880D01*
X148800820Y-47172880D01*
X149019260Y-47144940D01*
X149095460Y-47058580D01*
X149098000Y-47045880D01*
X149031960Y-46951900D01*
X148826220Y-46918880D01*
X148800820Y-46918880D01*
X148605240Y-46898560D01*
X148506180Y-46845220D01*
X148503640Y-46835060D01*
X148577300Y-46779180D01*
X148762720Y-46751240D01*
X148800820Y-46751240D01*
X149019260Y-46723300D01*
X149095460Y-46634400D01*
X149098000Y-46624240D01*
X149052280Y-46542960D01*
X148894800Y-46504860D01*
X148673820Y-46497240D01*
X148249640Y-46497240D01*
X148249640Y-47089060D01*
X148249640Y-47680880D01*
X148717000Y-47680880D01*
X148996400Y-47670720D01*
X149141180Y-47630080D01*
X149181820Y-47553880D01*
X149181820Y-47851060D01*
X147574000Y-47851060D01*
X147574000Y-47005240D01*
X147574000Y-46156880D01*
X149860000Y-46156880D01*
X152146000Y-46156880D01*
X152146000Y-47005240D01*
X152146000Y-47851060D01*
X152146000Y-47851060D01*
X152146000Y-47851060D01*
G37*
X152146000Y-47851060D02*
X151467820Y-47851060D01*
X151467820Y-46987460D01*
X151457660Y-46697900D01*
X151419560Y-46545500D01*
X151348440Y-46497240D01*
X151340820Y-46497240D01*
X151264620Y-46537880D01*
X151223980Y-46682660D01*
X151213820Y-46964600D01*
X151213820Y-46967140D01*
X151208740Y-47236380D01*
X151180800Y-47373540D01*
X151117300Y-47416720D01*
X151023320Y-47411640D01*
X150909020Y-47373540D01*
X150845520Y-47271940D01*
X150815040Y-47063660D01*
X150807420Y-46941740D01*
X150774400Y-46657260D01*
X150715980Y-46520100D01*
X150657560Y-46497240D01*
X150586440Y-46570900D01*
X150545800Y-46758860D01*
X150533100Y-47010320D01*
X150553420Y-47266860D01*
X150606760Y-47480220D01*
X150624540Y-47518320D01*
X150769320Y-47635160D01*
X150997920Y-47683420D01*
X151229060Y-47655480D01*
X151366220Y-47579280D01*
X151422100Y-47444660D01*
X151457660Y-47200820D01*
X151467820Y-46987460D01*
X151467820Y-47851060D01*
X150329900Y-47851060D01*
X150329900Y-47139860D01*
X150322280Y-46913800D01*
X150210520Y-46672500D01*
X149987000Y-46535340D01*
X149651720Y-46497240D01*
X149352000Y-46497240D01*
X149352000Y-47089060D01*
X149352000Y-47680880D01*
X149669500Y-47680880D01*
X149900640Y-47663100D01*
X150063200Y-47625000D01*
X150078440Y-47617380D01*
X150243540Y-47419260D01*
X150329900Y-47139860D01*
X150329900Y-47851060D01*
X149860000Y-47851060D01*
X149181820Y-47851060D01*
X149181820Y-47553880D01*
X149125940Y-47464980D01*
X148940520Y-47429420D01*
X148844000Y-47426880D01*
X148607780Y-47406560D01*
X148511260Y-47337980D01*
X148503640Y-47299880D01*
X148567140Y-47205900D01*
X148772880Y-47172880D01*
X148800820Y-47172880D01*
X149019260Y-47144940D01*
X149095460Y-47058580D01*
X149098000Y-47045880D01*
X149031960Y-46951900D01*
X148826220Y-46918880D01*
X148800820Y-46918880D01*
X148605240Y-46898560D01*
X148506180Y-46845220D01*
X148503640Y-46835060D01*
X148577300Y-46779180D01*
X148762720Y-46751240D01*
X148800820Y-46751240D01*
X149019260Y-46723300D01*
X149095460Y-46634400D01*
X149098000Y-46624240D01*
X149052280Y-46542960D01*
X148894800Y-46504860D01*
X148673820Y-46497240D01*
X148249640Y-46497240D01*
X148249640Y-47089060D01*
X148249640Y-47680880D01*
X148717000Y-47680880D01*
X148996400Y-47670720D01*
X149141180Y-47630080D01*
X149181820Y-47553880D01*
X149181820Y-47851060D01*
X147574000Y-47851060D01*
X147574000Y-47005240D01*
X147574000Y-46156880D01*
X149860000Y-46156880D01*
X152146000Y-46156880D01*
X152146000Y-47005240D01*
X152146000Y-47851060D01*
X152146000Y-47851060D01*
G36*
X150078440Y-46962060D02*
X150073360Y-47203360D01*
X149946360Y-47373540D01*
X149763480Y-47426880D01*
X149659340Y-47393860D01*
X149613620Y-47269400D01*
X149606000Y-47089060D01*
X149616160Y-46870620D01*
X149672040Y-46774100D01*
X149799040Y-46751240D01*
X149814280Y-46751240D01*
X149994620Y-46802040D01*
X150078440Y-46962060D01*
X150078440Y-46962060D01*
X150078440Y-46962060D01*
G37*
X150078440Y-46962060D02*
X150073360Y-47203360D01*
X149946360Y-47373540D01*
X149763480Y-47426880D01*
X149659340Y-47393860D01*
X149613620Y-47269400D01*
X149606000Y-47089060D01*
X149616160Y-46870620D01*
X149672040Y-46774100D01*
X149799040Y-46751240D01*
X149814280Y-46751240D01*
X149994620Y-46802040D01*
X150078440Y-46962060D01*
X150078440Y-46962060D01*
D12*
X137499000Y-52325000D02*
X129501000Y-52325000D01*
X137494000Y-52465000D02*
X129506000Y-52465000D01*
X137484000Y-52605000D02*
X129516000Y-52605000D01*
X137469000Y-52745000D02*
X129531000Y-52745000D01*
X137449000Y-52885000D02*
X129551000Y-52885000D01*
X137424000Y-53025000D02*
X133722000Y-53025000D01*
X133278000Y-53025000D02*
X129576000Y-53025000D01*
X137394000Y-53165000D02*
X134050000Y-53165000D01*
X132950000Y-53165000D02*
X129606000Y-53165000D01*
X137358000Y-53305000D02*
X134219000Y-53305000D01*
X132781000Y-53305000D02*
X129642000Y-53305000D01*
X137317000Y-53445000D02*
X134332000Y-53445000D01*
X132668000Y-53445000D02*
X129683000Y-53445000D01*
X137271000Y-53585000D02*
X134410000Y-53585000D01*
X132590000Y-53585000D02*
X129729000Y-53585000D01*
X137218000Y-53725000D02*
X134461000Y-53725000D01*
X132539000Y-53725000D02*
X129782000Y-53725000D01*
X137159000Y-53865000D02*
X134491000Y-53865000D01*
X132509000Y-53865000D02*
X129841000Y-53865000D01*
X137094000Y-54005000D02*
X134500000Y-54005000D01*
X132500000Y-54005000D02*
X129906000Y-54005000D01*
X137023000Y-54145000D02*
X134489000Y-54145000D01*
X132511000Y-54145000D02*
X129977000Y-54145000D01*
X136944000Y-54285000D02*
X134459000Y-54285000D01*
X132541000Y-54285000D02*
X130056000Y-54285000D01*
X136857000Y-54425000D02*
X134405000Y-54425000D01*
X132595000Y-54425000D02*
X130143000Y-54425000D01*
X136762000Y-54565000D02*
X134325000Y-54565000D01*
X132675000Y-54565000D02*
X130238000Y-54565000D01*
X136658000Y-54705000D02*
X134209000Y-54705000D01*
X132791000Y-54705000D02*
X130342000Y-54705000D01*
X136544000Y-54845000D02*
X134035000Y-54845000D01*
X132965000Y-54845000D02*
X130456000Y-54845000D01*
X136419000Y-54985000D02*
X133673000Y-54985000D01*
X133327000Y-54985000D02*
X130581000Y-54985000D01*
X136281000Y-55125000D02*
X130719000Y-55125000D01*
X136129000Y-55265000D02*
X130871000Y-55265000D01*
X135959000Y-55405000D02*
X131041000Y-55405000D01*
X135768000Y-55545000D02*
X131232000Y-55545000D01*
X135550000Y-55685000D02*
X131450000Y-55685000D01*
X135294000Y-55825000D02*
X131706000Y-55825000D01*
X134983000Y-55965000D02*
X132017000Y-55965000D01*
X134567000Y-56105000D02*
X132433000Y-56105000D01*
X133700000Y-56245000D02*
X133300000Y-56245000D01*
X134500000Y-54000000D02*
G75*
G03X134500000Y-54000000I-1000000J0D01*
G01*
X137537500Y-52250000D02*
G75*
G03X137537500Y-52250000I-4037500J0D01*
G01*
X128499000Y-52325000D02*
X120501000Y-52325000D01*
X128494000Y-52465000D02*
X120506000Y-52465000D01*
X128484000Y-52605000D02*
X120516000Y-52605000D01*
X128469000Y-52745000D02*
X120531000Y-52745000D01*
X128449000Y-52885000D02*
X120551000Y-52885000D01*
X128424000Y-53025000D02*
X124722000Y-53025000D01*
X124278000Y-53025000D02*
X120576000Y-53025000D01*
X128394000Y-53165000D02*
X125050000Y-53165000D01*
X123950000Y-53165000D02*
X120606000Y-53165000D01*
X128358000Y-53305000D02*
X125219000Y-53305000D01*
X123781000Y-53305000D02*
X120642000Y-53305000D01*
X128317000Y-53445000D02*
X125332000Y-53445000D01*
X123668000Y-53445000D02*
X120683000Y-53445000D01*
X128271000Y-53585000D02*
X125410000Y-53585000D01*
X123590000Y-53585000D02*
X120729000Y-53585000D01*
X128218000Y-53725000D02*
X125461000Y-53725000D01*
X123539000Y-53725000D02*
X120782000Y-53725000D01*
X128159000Y-53865000D02*
X125491000Y-53865000D01*
X123509000Y-53865000D02*
X120841000Y-53865000D01*
X128094000Y-54005000D02*
X125500000Y-54005000D01*
X123500000Y-54005000D02*
X120906000Y-54005000D01*
X128023000Y-54145000D02*
X125489000Y-54145000D01*
X123511000Y-54145000D02*
X120977000Y-54145000D01*
X127944000Y-54285000D02*
X125459000Y-54285000D01*
X123541000Y-54285000D02*
X121056000Y-54285000D01*
X127857000Y-54425000D02*
X125405000Y-54425000D01*
X123595000Y-54425000D02*
X121143000Y-54425000D01*
X127762000Y-54565000D02*
X125325000Y-54565000D01*
X123675000Y-54565000D02*
X121238000Y-54565000D01*
X127658000Y-54705000D02*
X125209000Y-54705000D01*
X123791000Y-54705000D02*
X121342000Y-54705000D01*
X127544000Y-54845000D02*
X125035000Y-54845000D01*
X123965000Y-54845000D02*
X121456000Y-54845000D01*
X127419000Y-54985000D02*
X124673000Y-54985000D01*
X124327000Y-54985000D02*
X121581000Y-54985000D01*
X127281000Y-55125000D02*
X121719000Y-55125000D01*
X127129000Y-55265000D02*
X121871000Y-55265000D01*
X126959000Y-55405000D02*
X122041000Y-55405000D01*
X126768000Y-55545000D02*
X122232000Y-55545000D01*
X126550000Y-55685000D02*
X122450000Y-55685000D01*
X126294000Y-55825000D02*
X122706000Y-55825000D01*
X125983000Y-55965000D02*
X123017000Y-55965000D01*
X125567000Y-56105000D02*
X123433000Y-56105000D01*
X124700000Y-56245000D02*
X124300000Y-56245000D01*
X125500000Y-54000000D02*
G75*
G03X125500000Y-54000000I-1000000J0D01*
G01*
X128537500Y-52250000D02*
G75*
G03X128537500Y-52250000I-4037500J0D01*
G01*
X136850000Y-68050000D02*
X133850000Y-68050000D01*
X133850000Y-65550000D02*
X136850000Y-65550000D01*
X144061500Y-71557700D02*
X144061500Y-74557700D01*
X141561500Y-74557700D02*
X141561500Y-71557700D01*
X125099000Y-57170000D02*
X128099000Y-57170000D01*
X128099000Y-59670000D02*
X125099000Y-59670000D01*
X93895100Y-90329700D02*
X96895100Y-90329700D01*
X96895100Y-92829700D02*
X93895100Y-92829700D01*
X129554200Y-42990760D02*
X137552200Y-42990760D01*
X129559200Y-42850760D02*
X137547200Y-42850760D01*
X129569200Y-42710760D02*
X137537200Y-42710760D01*
X129584200Y-42570760D02*
X137522200Y-42570760D01*
X129604200Y-42430760D02*
X137502200Y-42430760D01*
X129629200Y-42290760D02*
X133331200Y-42290760D01*
X133775200Y-42290760D02*
X137477200Y-42290760D01*
X129659200Y-42150760D02*
X133003200Y-42150760D01*
X134103200Y-42150760D02*
X137447200Y-42150760D01*
X129695200Y-42010760D02*
X132834200Y-42010760D01*
X134272200Y-42010760D02*
X137411200Y-42010760D01*
X129736200Y-41870760D02*
X132721200Y-41870760D01*
X134385200Y-41870760D02*
X137370200Y-41870760D01*
X129782200Y-41730760D02*
X132643200Y-41730760D01*
X134463200Y-41730760D02*
X137324200Y-41730760D01*
X129835200Y-41590760D02*
X132592200Y-41590760D01*
X134514200Y-41590760D02*
X137271200Y-41590760D01*
X129894200Y-41450760D02*
X132562200Y-41450760D01*
X134544200Y-41450760D02*
X137212200Y-41450760D01*
X129959200Y-41310760D02*
X132553200Y-41310760D01*
X134553200Y-41310760D02*
X137147200Y-41310760D01*
X130030200Y-41170760D02*
X132564200Y-41170760D01*
X134542200Y-41170760D02*
X137076200Y-41170760D01*
X130109200Y-41030760D02*
X132594200Y-41030760D01*
X134512200Y-41030760D02*
X136997200Y-41030760D01*
X130196200Y-40890760D02*
X132648200Y-40890760D01*
X134458200Y-40890760D02*
X136910200Y-40890760D01*
X130291200Y-40750760D02*
X132728200Y-40750760D01*
X134378200Y-40750760D02*
X136815200Y-40750760D01*
X130395200Y-40610760D02*
X132844200Y-40610760D01*
X134262200Y-40610760D02*
X136711200Y-40610760D01*
X130509200Y-40470760D02*
X133018200Y-40470760D01*
X134088200Y-40470760D02*
X136597200Y-40470760D01*
X130634200Y-40330760D02*
X133380200Y-40330760D01*
X133726200Y-40330760D02*
X136472200Y-40330760D01*
X130772200Y-40190760D02*
X136334200Y-40190760D01*
X130924200Y-40050760D02*
X136182200Y-40050760D01*
X131094200Y-39910760D02*
X136012200Y-39910760D01*
X131285200Y-39770760D02*
X135821200Y-39770760D01*
X131503200Y-39630760D02*
X135603200Y-39630760D01*
X131759200Y-39490760D02*
X135347200Y-39490760D01*
X132070200Y-39350760D02*
X135036200Y-39350760D01*
X132486200Y-39210760D02*
X134620200Y-39210760D01*
X133353200Y-39070760D02*
X133753200Y-39070760D01*
X134553200Y-41315760D02*
G75*
G03X134553200Y-41315760I-1000000J0D01*
G01*
X137590700Y-43065760D02*
G75*
G03X137590700Y-43065760I-4037500J0D01*
G01*
X100950000Y-60150000D02*
X103950000Y-60150000D01*
X103950000Y-62650000D02*
X100950000Y-62650000D01*
X124256480Y-45065760D02*
X124256480Y-42065760D01*
X126756480Y-42065760D02*
X126756480Y-45065760D01*
X94175000Y-59399000D02*
X94175000Y-51401000D01*
X94035000Y-59394000D02*
X94035000Y-51406000D01*
X93895000Y-59384000D02*
X93895000Y-51416000D01*
X93755000Y-59369000D02*
X93755000Y-51431000D01*
X93615000Y-59349000D02*
X93615000Y-51451000D01*
X93475000Y-59324000D02*
X93475000Y-55622000D01*
X93475000Y-55178000D02*
X93475000Y-51476000D01*
X93335000Y-59294000D02*
X93335000Y-55950000D01*
X93335000Y-54850000D02*
X93335000Y-51506000D01*
X93195000Y-59258000D02*
X93195000Y-56119000D01*
X93195000Y-54681000D02*
X93195000Y-51542000D01*
X93055000Y-59217000D02*
X93055000Y-56232000D01*
X93055000Y-54568000D02*
X93055000Y-51583000D01*
X92915000Y-59171000D02*
X92915000Y-56310000D01*
X92915000Y-54490000D02*
X92915000Y-51629000D01*
X92775000Y-59118000D02*
X92775000Y-56361000D01*
X92775000Y-54439000D02*
X92775000Y-51682000D01*
X92635000Y-59059000D02*
X92635000Y-56391000D01*
X92635000Y-54409000D02*
X92635000Y-51741000D01*
X92495000Y-58994000D02*
X92495000Y-56400000D01*
X92495000Y-54400000D02*
X92495000Y-51806000D01*
X92355000Y-58923000D02*
X92355000Y-56389000D01*
X92355000Y-54411000D02*
X92355000Y-51877000D01*
X92215000Y-58844000D02*
X92215000Y-56359000D01*
X92215000Y-54441000D02*
X92215000Y-51956000D01*
X92075000Y-58757000D02*
X92075000Y-56305000D01*
X92075000Y-54495000D02*
X92075000Y-52043000D01*
X91935000Y-58662000D02*
X91935000Y-56225000D01*
X91935000Y-54575000D02*
X91935000Y-52138000D01*
X91795000Y-58558000D02*
X91795000Y-56109000D01*
X91795000Y-54691000D02*
X91795000Y-52242000D01*
X91655000Y-58444000D02*
X91655000Y-55935000D01*
X91655000Y-54865000D02*
X91655000Y-52356000D01*
X91515000Y-58319000D02*
X91515000Y-55573000D01*
X91515000Y-55227000D02*
X91515000Y-52481000D01*
X91375000Y-58181000D02*
X91375000Y-52619000D01*
X91235000Y-58029000D02*
X91235000Y-52771000D01*
X91095000Y-57859000D02*
X91095000Y-52941000D01*
X90955000Y-57668000D02*
X90955000Y-53132000D01*
X90815000Y-57450000D02*
X90815000Y-53350000D01*
X90675000Y-57194000D02*
X90675000Y-53606000D01*
X90535000Y-56883000D02*
X90535000Y-53917000D01*
X90395000Y-56467000D02*
X90395000Y-54333000D01*
X90255000Y-55600000D02*
X90255000Y-55200000D01*
X93500000Y-55400000D02*
G75*
G03X93500000Y-55400000I-1000000J0D01*
G01*
X98287500Y-55400000D02*
G75*
G03X98287500Y-55400000I-4037500J0D01*
G01*
X128950000Y-65550000D02*
X131950000Y-65550000D01*
X131950000Y-68050000D02*
X128950000Y-68050000D01*
X91928000Y-60329000D02*
X91928000Y-63329000D01*
X89428000Y-63329000D02*
X89428000Y-60329000D01*
X94175000Y-71599000D02*
X94175000Y-63601000D01*
X94035000Y-71594000D02*
X94035000Y-63606000D01*
X93895000Y-71584000D02*
X93895000Y-63616000D01*
X93755000Y-71569000D02*
X93755000Y-63631000D01*
X93615000Y-71549000D02*
X93615000Y-63651000D01*
X93475000Y-71524000D02*
X93475000Y-67822000D01*
X93475000Y-67378000D02*
X93475000Y-63676000D01*
X93335000Y-71494000D02*
X93335000Y-68150000D01*
X93335000Y-67050000D02*
X93335000Y-63706000D01*
X93195000Y-71458000D02*
X93195000Y-68319000D01*
X93195000Y-66881000D02*
X93195000Y-63742000D01*
X93055000Y-71417000D02*
X93055000Y-68432000D01*
X93055000Y-66768000D02*
X93055000Y-63783000D01*
X92915000Y-71371000D02*
X92915000Y-68510000D01*
X92915000Y-66690000D02*
X92915000Y-63829000D01*
X92775000Y-71318000D02*
X92775000Y-68561000D01*
X92775000Y-66639000D02*
X92775000Y-63882000D01*
X92635000Y-71259000D02*
X92635000Y-68591000D01*
X92635000Y-66609000D02*
X92635000Y-63941000D01*
X92495000Y-71194000D02*
X92495000Y-68600000D01*
X92495000Y-66600000D02*
X92495000Y-64006000D01*
X92355000Y-71123000D02*
X92355000Y-68589000D01*
X92355000Y-66611000D02*
X92355000Y-64077000D01*
X92215000Y-71044000D02*
X92215000Y-68559000D01*
X92215000Y-66641000D02*
X92215000Y-64156000D01*
X92075000Y-70957000D02*
X92075000Y-68505000D01*
X92075000Y-66695000D02*
X92075000Y-64243000D01*
X91935000Y-70862000D02*
X91935000Y-68425000D01*
X91935000Y-66775000D02*
X91935000Y-64338000D01*
X91795000Y-70758000D02*
X91795000Y-68309000D01*
X91795000Y-66891000D02*
X91795000Y-64442000D01*
X91655000Y-70644000D02*
X91655000Y-68135000D01*
X91655000Y-67065000D02*
X91655000Y-64556000D01*
X91515000Y-70519000D02*
X91515000Y-67773000D01*
X91515000Y-67427000D02*
X91515000Y-64681000D01*
X91375000Y-70381000D02*
X91375000Y-64819000D01*
X91235000Y-70229000D02*
X91235000Y-64971000D01*
X91095000Y-70059000D02*
X91095000Y-65141000D01*
X90955000Y-69868000D02*
X90955000Y-65332000D01*
X90815000Y-69650000D02*
X90815000Y-65550000D01*
X90675000Y-69394000D02*
X90675000Y-65806000D01*
X90535000Y-69083000D02*
X90535000Y-66117000D01*
X90395000Y-68667000D02*
X90395000Y-66533000D01*
X90255000Y-67800000D02*
X90255000Y-67400000D01*
X93500000Y-67600000D02*
G75*
G03X93500000Y-67600000I-1000000J0D01*
G01*
X98287500Y-67600000D02*
G75*
G03X98287500Y-67600000I-4037500J0D01*
G01*
X111251000Y-52175000D02*
X119249000Y-52175000D01*
X111256000Y-52035000D02*
X119244000Y-52035000D01*
X111266000Y-51895000D02*
X119234000Y-51895000D01*
X111281000Y-51755000D02*
X119219000Y-51755000D01*
X111301000Y-51615000D02*
X119199000Y-51615000D01*
X111326000Y-51475000D02*
X115028000Y-51475000D01*
X115472000Y-51475000D02*
X119174000Y-51475000D01*
X111356000Y-51335000D02*
X114700000Y-51335000D01*
X115800000Y-51335000D02*
X119144000Y-51335000D01*
X111392000Y-51195000D02*
X114531000Y-51195000D01*
X115969000Y-51195000D02*
X119108000Y-51195000D01*
X111433000Y-51055000D02*
X114418000Y-51055000D01*
X116082000Y-51055000D02*
X119067000Y-51055000D01*
X111479000Y-50915000D02*
X114340000Y-50915000D01*
X116160000Y-50915000D02*
X119021000Y-50915000D01*
X111532000Y-50775000D02*
X114289000Y-50775000D01*
X116211000Y-50775000D02*
X118968000Y-50775000D01*
X111591000Y-50635000D02*
X114259000Y-50635000D01*
X116241000Y-50635000D02*
X118909000Y-50635000D01*
X111656000Y-50495000D02*
X114250000Y-50495000D01*
X116250000Y-50495000D02*
X118844000Y-50495000D01*
X111727000Y-50355000D02*
X114261000Y-50355000D01*
X116239000Y-50355000D02*
X118773000Y-50355000D01*
X111806000Y-50215000D02*
X114291000Y-50215000D01*
X116209000Y-50215000D02*
X118694000Y-50215000D01*
X111893000Y-50075000D02*
X114345000Y-50075000D01*
X116155000Y-50075000D02*
X118607000Y-50075000D01*
X111988000Y-49935000D02*
X114425000Y-49935000D01*
X116075000Y-49935000D02*
X118512000Y-49935000D01*
X112092000Y-49795000D02*
X114541000Y-49795000D01*
X115959000Y-49795000D02*
X118408000Y-49795000D01*
X112206000Y-49655000D02*
X114715000Y-49655000D01*
X115785000Y-49655000D02*
X118294000Y-49655000D01*
X112331000Y-49515000D02*
X115077000Y-49515000D01*
X115423000Y-49515000D02*
X118169000Y-49515000D01*
X112469000Y-49375000D02*
X118031000Y-49375000D01*
X112621000Y-49235000D02*
X117879000Y-49235000D01*
X112791000Y-49095000D02*
X117709000Y-49095000D01*
X112982000Y-48955000D02*
X117518000Y-48955000D01*
X113200000Y-48815000D02*
X117300000Y-48815000D01*
X113456000Y-48675000D02*
X117044000Y-48675000D01*
X113767000Y-48535000D02*
X116733000Y-48535000D01*
X114183000Y-48395000D02*
X116317000Y-48395000D01*
X115050000Y-48255000D02*
X115450000Y-48255000D01*
X116250000Y-50500000D02*
G75*
G03X116250000Y-50500000I-1000000J0D01*
G01*
X119287500Y-52250000D02*
G75*
G03X119287500Y-52250000I-4037500J0D01*
G01*
X105747500Y-83346100D02*
X105747500Y-80346100D01*
X108247500Y-80346100D02*
X108247500Y-83346100D01*
X152748300Y-139437300D02*
X152748300Y-142437300D01*
X150248300Y-142437300D02*
X150248300Y-139437300D01*
X97794000Y-128290000D02*
X100794000Y-128290000D01*
X100794000Y-130790000D02*
X97794000Y-130790000D01*
X88158000Y-146046000D02*
X88158000Y-143046000D01*
X90658000Y-143046000D02*
X90658000Y-146046000D01*
X117498300Y-97401700D02*
X114498300Y-97401700D01*
X114498300Y-94901700D02*
X117498300Y-94901700D01*
X93633480Y-49802540D02*
X92236480Y-49802540D01*
X98078480Y-49802540D02*
X99602480Y-49802540D01*
X97697480Y-50564540D02*
X97697480Y-49040540D01*
X97951480Y-50564540D02*
X97951480Y-49040540D01*
X98205480Y-49802540D02*
X98205480Y-49040540D01*
X98205480Y-49040540D02*
X93633480Y-49040540D01*
X93633480Y-49040540D02*
X93633480Y-50564540D01*
X93633480Y-50564540D02*
X98205480Y-50564540D01*
X98205480Y-50564540D02*
X98205480Y-49802540D01*
X142051000Y-41564000D02*
X142051000Y-41364000D01*
X142051000Y-38970000D02*
X142051000Y-39150000D01*
X145278744Y-39280357D02*
G75*
G03X142051000Y-38964000I-1727744J-1003643D01*
G01*
X144603006Y-39150932D02*
G75*
G03X142500000Y-39150000I-1052006J-1133068D01*
G01*
X142063780Y-41590726D02*
G75*
G03X145301000Y-41244000I1497220J1306726D01*
G01*
X142537111Y-41363253D02*
G75*
G03X144585000Y-41344000I1013889J1079253D01*
G01*
X109598220Y-52698200D02*
X110499920Y-52698200D01*
X106999800Y-52698200D02*
X107749100Y-52698200D01*
X104449640Y-52698200D02*
X105249740Y-52698200D01*
X101998540Y-52698200D02*
X102648780Y-52698200D01*
X98998800Y-52698200D02*
X100098620Y-52698200D01*
X98998800Y-52698200D02*
X98998800Y-58799280D01*
X98998800Y-58799280D02*
X110499920Y-58799280D01*
X110499920Y-58799280D02*
X110499920Y-52698200D01*
X95500520Y-40500640D02*
X95500520Y-37998740D01*
X95500520Y-48001260D02*
X95500520Y-45499360D01*
X107499480Y-48001260D02*
X107499480Y-45499360D01*
X107499480Y-37998740D02*
X107499480Y-40500640D01*
X96999120Y-43000000D02*
X106000880Y-43000000D01*
X96999120Y-40500640D02*
X96999120Y-45499360D01*
X106000880Y-40500640D02*
X106000880Y-45499360D01*
X111499980Y-41100080D02*
X111499980Y-40500640D01*
X91500020Y-44899920D02*
X91500020Y-45499360D01*
X91500020Y-45499360D02*
X111499980Y-45499360D01*
X111499980Y-45499360D02*
X111499980Y-44899920D01*
X111499980Y-40500640D02*
X91500020Y-40500640D01*
X91500020Y-40500640D02*
X91500020Y-41100080D01*
X113498960Y-41100080D02*
X113498960Y-37998740D01*
X89501040Y-44899920D02*
X89501040Y-48001260D01*
X89501040Y-48001260D02*
X113498960Y-48001260D01*
X113498960Y-48001260D02*
X113498960Y-44899920D01*
X113498960Y-37998740D02*
X89501040Y-37998740D01*
X89501040Y-37998740D02*
X89501040Y-41100080D01*
X117159600Y-38842440D02*
X117159600Y-45842440D01*
X122559600Y-38842440D02*
X122559600Y-45842440D01*
X122559600Y-45842440D02*
X117159600Y-45842440D01*
X122559600Y-38842440D02*
X117159600Y-38842440D01*
X107950000Y-61400000D02*
G75*
G03X107950000Y-61400000I-750000J0D01*
G01*
X108850000Y-60300000D02*
X108850000Y-60000000D01*
X108850000Y-60000000D02*
X105550000Y-60000000D01*
X105550000Y-60000000D02*
X105550000Y-60300000D01*
X108850000Y-62500000D02*
X108850000Y-62800000D01*
X108850000Y-62800000D02*
X105550000Y-62800000D01*
X105550000Y-62800000D02*
X105550000Y-62500000D01*
X98489200Y-95808800D02*
G75*
G03X98489200Y-95808800I-750000J0D01*
G01*
X96639200Y-94158800D02*
X96339200Y-94158800D01*
X96339200Y-94158800D02*
X96339200Y-97458800D01*
X96339200Y-97458800D02*
X96639200Y-97458800D01*
X98839200Y-94158800D02*
X99139200Y-94158800D01*
X99139200Y-94158800D02*
X99139200Y-97458800D01*
X99139200Y-97458800D02*
X98839200Y-97458800D01*
X95085600Y-95808800D02*
G75*
G03X95085600Y-95808800I-750000J0D01*
G01*
X93235600Y-94158800D02*
X92935600Y-94158800D01*
X92935600Y-94158800D02*
X92935600Y-97458800D01*
X92935600Y-97458800D02*
X93235600Y-97458800D01*
X95435600Y-94158800D02*
X95735600Y-94158800D01*
X95735600Y-94158800D02*
X95735600Y-97458800D01*
X95735600Y-97458800D02*
X95435600Y-97458800D01*
X76900000Y-50900000D02*
X76400000Y-50900000D01*
X82900000Y-53400000D02*
G75*
G03X82900000Y-53400000I-2000000J0D01*
G01*
X82900000Y-48400000D02*
G75*
G03X82900000Y-48400000I-2000000J0D01*
G01*
X78400000Y-45900000D02*
X78400000Y-55900000D01*
X83300000Y-45900000D02*
X83300000Y-55900000D01*
X76900000Y-45900000D02*
X76900000Y-55900000D01*
X76400000Y-45900000D02*
X76400000Y-55900000D01*
X76400000Y-55900000D02*
X86200000Y-55900000D01*
X86200000Y-55900000D02*
X86200000Y-45900000D01*
X86200000Y-45900000D02*
X76400000Y-45900000D01*
X88036000Y-150063200D02*
X87401000Y-151079200D01*
X85852000Y-149936200D02*
X85852000Y-150571200D01*
X85852000Y-150571200D02*
X86512000Y-150571200D01*
X89052000Y-149936200D02*
X89052000Y-150571200D01*
X89052000Y-150571200D02*
X88417000Y-150571200D01*
X88417000Y-150063200D02*
X86512000Y-150063200D01*
X86512000Y-150063200D02*
X86512000Y-151079200D01*
X86512000Y-151079200D02*
X88417000Y-151079200D01*
X88417000Y-150063200D02*
X88417000Y-151079200D01*
X90452000Y-147847200D02*
X90452000Y-157847200D01*
X90449000Y-157873700D02*
X84480000Y-157873700D01*
X84452000Y-147847200D02*
X84452000Y-157847200D01*
X90449000Y-147840700D02*
X84480000Y-147840700D01*
X140199520Y-56500380D02*
X140199520Y-55499620D01*
X142800480Y-56500380D02*
X142800480Y-55499620D01*
X140199520Y-63500380D02*
X140199520Y-62499620D01*
X142800480Y-63500380D02*
X142800480Y-62499620D01*
X97162620Y-60099520D02*
X98163380Y-60099520D01*
X97162620Y-62700480D02*
X98163380Y-62700480D01*
X90340000Y-82330000D02*
X95420000Y-82330000D01*
X95420000Y-82330000D02*
X95420000Y-84870000D01*
X95420000Y-84870000D02*
X90340000Y-84870000D01*
X90340000Y-84870000D02*
X90340000Y-82330000D01*
X90340000Y-83600000D02*
X89070000Y-83600000D01*
X95420000Y-83600000D02*
X96690000Y-83600000D01*
X90340000Y-78930000D02*
X95420000Y-78930000D01*
X95420000Y-78930000D02*
X95420000Y-81470000D01*
X95420000Y-81470000D02*
X90340000Y-81470000D01*
X90340000Y-81470000D02*
X90340000Y-78930000D01*
X90340000Y-80200000D02*
X89070000Y-80200000D01*
X95420000Y-80200000D02*
X96690000Y-80200000D01*
X90340000Y-75530000D02*
X95420000Y-75530000D01*
X95420000Y-75530000D02*
X95420000Y-78070000D01*
X95420000Y-78070000D02*
X90340000Y-78070000D01*
X90340000Y-78070000D02*
X90340000Y-75530000D01*
X90340000Y-76800000D02*
X89070000Y-76800000D01*
X95420000Y-76800000D02*
X96690000Y-76800000D01*
X90340000Y-72330000D02*
X95420000Y-72330000D01*
X95420000Y-72330000D02*
X95420000Y-74870000D01*
X95420000Y-74870000D02*
X90340000Y-74870000D01*
X90340000Y-74870000D02*
X90340000Y-72330000D01*
X90340000Y-73600000D02*
X89070000Y-73600000D01*
X95420000Y-73600000D02*
X96690000Y-73600000D01*
X103940000Y-63730000D02*
X109020000Y-63730000D01*
X109020000Y-63730000D02*
X109020000Y-66270000D01*
X109020000Y-66270000D02*
X103940000Y-66270000D01*
X103940000Y-66270000D02*
X103940000Y-63730000D01*
X103940000Y-65000000D02*
X102670000Y-65000000D01*
X109020000Y-65000000D02*
X110290000Y-65000000D01*
X102158800Y-129692400D02*
X102158800Y-132232400D01*
X102158800Y-132232400D02*
X102158800Y-128422400D01*
X102158800Y-128422400D02*
X102158800Y-129692400D01*
X102158800Y-124612400D02*
X102158800Y-127152400D01*
X102158800Y-120802400D02*
X102158800Y-123342400D01*
X102158800Y-116992400D02*
X102158800Y-119532400D01*
X102158800Y-113182400D02*
X102158800Y-115722400D01*
X102158800Y-109372400D02*
X102158800Y-111912400D01*
X102158800Y-104292400D02*
X102158800Y-108102400D01*
X94538800Y-104292400D02*
X109778800Y-104292400D01*
X109778800Y-104292400D02*
X109778800Y-132232400D01*
X109778800Y-132232400D02*
X94538800Y-132232400D01*
X94538800Y-132232400D02*
X94538800Y-104292400D01*
X123330000Y-70930000D02*
X100470000Y-70930000D01*
X100470000Y-70930000D02*
X100470000Y-73470000D01*
X100470000Y-73470000D02*
X123330000Y-73470000D01*
X126150000Y-70650000D02*
X124600000Y-70650000D01*
X123330000Y-70930000D02*
X123330000Y-73470000D01*
X124600000Y-73750000D02*
X126150000Y-73750000D01*
X126150000Y-73750000D02*
X126150000Y-70650000D01*
X121107200Y-118465600D02*
X121107200Y-98145600D01*
X116027200Y-100685600D02*
X116027200Y-118465600D01*
X121107200Y-118465600D02*
X116027200Y-118465600D01*
X121107200Y-98145600D02*
X118567200Y-98145600D01*
X117297200Y-97865600D02*
X115747200Y-97865600D01*
X118567200Y-98145600D02*
X118567200Y-100685600D01*
X118567200Y-100685600D02*
X116027200Y-100685600D01*
X115747200Y-97865600D02*
X115747200Y-99415600D01*
X144437100Y-128765300D02*
X146977100Y-128765300D01*
X141617100Y-128485300D02*
X143167100Y-128485300D01*
X144437100Y-128765300D02*
X144437100Y-131305300D01*
X143167100Y-131585300D02*
X141617100Y-131585300D01*
X141617100Y-131585300D02*
X141617100Y-128485300D01*
X144437100Y-131305300D02*
X146977100Y-131305300D01*
X146977100Y-131305300D02*
X146977100Y-128765300D01*
X77825600Y-125831600D02*
X77825600Y-128371600D01*
X78105600Y-123011600D02*
X78105600Y-124561600D01*
X77825600Y-125831600D02*
X75285600Y-125831600D01*
X75005600Y-124561600D02*
X75005600Y-123011600D01*
X75005600Y-123011600D02*
X78105600Y-123011600D01*
X75285600Y-125831600D02*
X75285600Y-128371600D01*
X75285600Y-128371600D02*
X77825600Y-128371600D01*
X90678000Y-138938000D02*
X90678000Y-123698000D01*
X90678000Y-123698000D02*
X88138000Y-123698000D01*
X88138000Y-123698000D02*
X88138000Y-138938000D01*
X90958000Y-141758000D02*
X90958000Y-140208000D01*
X90678000Y-138938000D02*
X88138000Y-138938000D01*
X87858000Y-140208000D02*
X87858000Y-141758000D01*
X87858000Y-141758000D02*
X90958000Y-141758000D01*
X111607600Y-99415600D02*
X93827600Y-99415600D01*
X93827600Y-99415600D02*
X93827600Y-101955600D01*
X93827600Y-101955600D02*
X111607600Y-101955600D01*
X114427600Y-99135600D02*
X112877600Y-99135600D01*
X111607600Y-99415600D02*
X111607600Y-101955600D01*
X112877600Y-102235600D02*
X114427600Y-102235600D01*
X114427600Y-102235600D02*
X114427600Y-99135600D01*
X82929200Y-139574800D02*
X79529200Y-139574800D01*
X82926256Y-139577744D02*
G75*
G02X81229200Y-143674800I-1697056J-1697056D01*
G01*
X79532144Y-139577744D02*
G75*
G03X81229200Y-143674800I1697056J-1697056D01*
G01*
X85324000Y-64156000D02*
X88372000Y-64156000D01*
X88372000Y-64156000D02*
X88372000Y-57044000D01*
X88372000Y-57044000D02*
X85324000Y-57044000D01*
X82276000Y-64156000D02*
X81514000Y-64156000D01*
X81514000Y-64156000D02*
X79228000Y-62632000D01*
X79228000Y-62632000D02*
X79228000Y-58568000D01*
X79228000Y-58568000D02*
X81514000Y-57044000D01*
X81514000Y-57044000D02*
X82276000Y-57044000D01*
X123698000Y-67183000D02*
X126746000Y-67183000D01*
X126746000Y-67183000D02*
X126746000Y-60071000D01*
X126746000Y-60071000D02*
X123698000Y-60071000D01*
X120650000Y-67183000D02*
X119888000Y-67183000D01*
X119888000Y-67183000D02*
X117602000Y-65659000D01*
X117602000Y-65659000D02*
X117602000Y-61595000D01*
X117602000Y-61595000D02*
X119888000Y-60071000D01*
X119888000Y-60071000D02*
X120650000Y-60071000D01*
X117378100Y-86457900D02*
X117378100Y-85187900D01*
X110028100Y-86457900D02*
X110028100Y-85187900D01*
X110028100Y-74247900D02*
X110028100Y-75517900D01*
X117378100Y-74247900D02*
X117378100Y-75517900D01*
X117378100Y-86457900D02*
X110028100Y-86457900D01*
X117378100Y-74247900D02*
X110028100Y-74247900D01*
X117378100Y-85187900D02*
X118663100Y-85187900D01*
X133860000Y-104114000D02*
X138940000Y-104114000D01*
X138940000Y-104114000D02*
X138940000Y-108686000D01*
X138940000Y-108686000D02*
X133860000Y-108686000D01*
X133860000Y-108686000D02*
X133860000Y-104114000D01*
X133860000Y-105638000D02*
X134368000Y-105638000D01*
X134368000Y-105638000D02*
X134368000Y-106908000D01*
X134368000Y-106908000D02*
X133860000Y-106908000D01*
X134378700Y-77609700D02*
X132981700Y-77609700D01*
X138823700Y-77609700D02*
X140347700Y-77609700D01*
X138442700Y-78371700D02*
X138442700Y-76847700D01*
X138696700Y-78371700D02*
X138696700Y-76847700D01*
X138950700Y-77609700D02*
X138950700Y-76847700D01*
X138950700Y-76847700D02*
X134378700Y-76847700D01*
X134378700Y-76847700D02*
X134378700Y-78371700D01*
X134378700Y-78371700D02*
X138950700Y-78371700D01*
X138950700Y-78371700D02*
X138950700Y-77609700D01*
X123050300Y-79641700D02*
X123050300Y-87261700D01*
X123050300Y-87261700D02*
X120510300Y-87261700D01*
X120510300Y-87261700D02*
X120510300Y-79641700D01*
X120510300Y-79641700D02*
X123050300Y-79641700D01*
X123050300Y-86626700D02*
X120510300Y-86626700D01*
X120510300Y-85991700D02*
X123050300Y-85991700D01*
X121780300Y-79641700D02*
X121780300Y-78371700D01*
X121780300Y-87261700D02*
X121780300Y-88531700D01*
X117106700Y-90055700D02*
X109486700Y-90055700D01*
X109486700Y-90055700D02*
X109486700Y-87515700D01*
X109486700Y-87515700D02*
X117106700Y-87515700D01*
X117106700Y-87515700D02*
X117106700Y-90055700D01*
X110121700Y-90055700D02*
X110121700Y-87515700D01*
X110756700Y-87515700D02*
X110756700Y-90055700D01*
X117106700Y-88785700D02*
X118376700Y-88785700D01*
X109486700Y-88785700D02*
X108216700Y-88785700D01*
X79501480Y-145798540D02*
X78104480Y-145798540D01*
X83946480Y-145798540D02*
X85470480Y-145798540D01*
X83565480Y-146560540D02*
X83565480Y-145036540D01*
X83819480Y-146560540D02*
X83819480Y-145036540D01*
X84073480Y-145798540D02*
X84073480Y-145036540D01*
X84073480Y-145036540D02*
X79501480Y-145036540D01*
X79501480Y-145036540D02*
X79501480Y-146560540D01*
X79501480Y-146560540D02*
X84073480Y-146560540D01*
X84073480Y-146560540D02*
X84073480Y-145798540D01*
X83022440Y-77038200D02*
X83022440Y-86537800D01*
X76522580Y-82036920D02*
X78521560Y-82036920D01*
X78521560Y-82036920D02*
X78521560Y-83538060D01*
X78521560Y-83538060D02*
X76522580Y-83538060D01*
X78521560Y-77038200D02*
X78521560Y-80037940D01*
X78521560Y-80037940D02*
X76570840Y-80037940D01*
X76522580Y-86537800D02*
X85021420Y-86537800D01*
X85021420Y-86537800D02*
X85021420Y-77038200D01*
X85021420Y-77038200D02*
X76522580Y-77038200D01*
X76522580Y-77038200D02*
X76522580Y-86537800D01*
X83022440Y-67386200D02*
X83022440Y-76885800D01*
X76522580Y-72384920D02*
X78521560Y-72384920D01*
X78521560Y-72384920D02*
X78521560Y-73886060D01*
X78521560Y-73886060D02*
X76522580Y-73886060D01*
X78521560Y-67386200D02*
X78521560Y-70385940D01*
X78521560Y-70385940D02*
X76570840Y-70385940D01*
X76522580Y-76885800D02*
X85021420Y-76885800D01*
X85021420Y-76885800D02*
X85021420Y-67386200D01*
X85021420Y-67386200D02*
X76522580Y-67386200D01*
X76522580Y-67386200D02*
X76522580Y-76885800D01*
X136982200Y-85785960D02*
X136982200Y-98785680D01*
X130281680Y-97287080D02*
X132080000Y-97287080D01*
X132080000Y-97287080D02*
X132080000Y-98785680D01*
X130281680Y-90286840D02*
X132080000Y-90286840D01*
X132080000Y-90286840D02*
X132080000Y-95285560D01*
X132080000Y-95285560D02*
X130281680Y-95285560D01*
X132080000Y-85785960D02*
X132080000Y-88285320D01*
X132080000Y-88285320D02*
X130281680Y-88285320D01*
X130281680Y-92285820D02*
X130281680Y-85785960D01*
X130281680Y-85785960D02*
X138780520Y-85785960D01*
X138780520Y-85785960D02*
X138780520Y-98785680D01*
X138780520Y-98785680D02*
X130281680Y-98785680D01*
X130281680Y-98785680D02*
X130281680Y-92285820D01*
X146278600Y-85735160D02*
X146278600Y-98734880D01*
X139578080Y-97236280D02*
X141376400Y-97236280D01*
X141376400Y-97236280D02*
X141376400Y-98734880D01*
X139578080Y-90236040D02*
X141376400Y-90236040D01*
X141376400Y-90236040D02*
X141376400Y-95234760D01*
X141376400Y-95234760D02*
X139578080Y-95234760D01*
X141376400Y-85735160D02*
X141376400Y-88234520D01*
X141376400Y-88234520D02*
X139578080Y-88234520D01*
X139578080Y-92235020D02*
X139578080Y-85735160D01*
X139578080Y-85735160D02*
X148076920Y-85735160D01*
X148076920Y-85735160D02*
X148076920Y-98734880D01*
X148076920Y-98734880D02*
X139578080Y-98734880D01*
X139578080Y-98734880D02*
X139578080Y-92235020D01*
X121107200Y-132064760D02*
X121107200Y-119065040D01*
X127807720Y-120563640D02*
X126009400Y-120563640D01*
X126009400Y-120563640D02*
X126009400Y-119065040D01*
X127807720Y-127563880D02*
X126009400Y-127563880D01*
X126009400Y-127563880D02*
X126009400Y-122565160D01*
X126009400Y-122565160D02*
X127807720Y-122565160D01*
X126009400Y-132064760D02*
X126009400Y-129565400D01*
X126009400Y-129565400D02*
X127807720Y-129565400D01*
X127807720Y-125564900D02*
X127807720Y-132064760D01*
X127807720Y-132064760D02*
X119308880Y-132064760D01*
X119308880Y-132064760D02*
X119308880Y-119065040D01*
X119308880Y-119065040D02*
X127807720Y-119065040D01*
X127807720Y-119065040D02*
X127807720Y-125564900D01*
X130048000Y-131963160D02*
X130048000Y-118963440D01*
X136748520Y-120462040D02*
X134950200Y-120462040D01*
X134950200Y-120462040D02*
X134950200Y-118963440D01*
X136748520Y-127462280D02*
X134950200Y-127462280D01*
X134950200Y-127462280D02*
X134950200Y-122463560D01*
X134950200Y-122463560D02*
X136748520Y-122463560D01*
X134950200Y-131963160D02*
X134950200Y-129463800D01*
X134950200Y-129463800D02*
X136748520Y-129463800D01*
X136748520Y-125463300D02*
X136748520Y-131963160D01*
X136748520Y-131963160D02*
X128249680Y-131963160D01*
X128249680Y-131963160D02*
X128249680Y-118963440D01*
X128249680Y-118963440D02*
X136748520Y-118963440D01*
X136748520Y-118963440D02*
X136748520Y-125463300D01*
X140296900Y-159915860D02*
X140296900Y-146916140D01*
X146997420Y-148414740D02*
X145199100Y-148414740D01*
X145199100Y-148414740D02*
X145199100Y-146916140D01*
X146997420Y-155414980D02*
X145199100Y-155414980D01*
X145199100Y-155414980D02*
X145199100Y-150416260D01*
X145199100Y-150416260D02*
X146997420Y-150416260D01*
X145199100Y-159915860D02*
X145199100Y-157416500D01*
X145199100Y-157416500D02*
X146997420Y-157416500D01*
X146997420Y-153416000D02*
X146997420Y-159915860D01*
X146997420Y-159915860D02*
X138498580Y-159915860D01*
X138498580Y-159915860D02*
X138498580Y-146916140D01*
X138498580Y-146916140D02*
X146997420Y-146916140D01*
X146997420Y-146916140D02*
X146997420Y-153416000D01*
X140497560Y-144957800D02*
X140497560Y-135458200D01*
X146997420Y-139959080D02*
X144998440Y-139959080D01*
X144998440Y-139959080D02*
X144998440Y-138457940D01*
X144998440Y-138457940D02*
X146997420Y-138457940D01*
X144998440Y-144957800D02*
X144998440Y-141958060D01*
X144998440Y-141958060D02*
X146949160Y-141958060D01*
X146997420Y-135458200D02*
X138498580Y-135458200D01*
X138498580Y-135458200D02*
X138498580Y-144957800D01*
X138498580Y-144957800D02*
X146997420Y-144957800D01*
X146997420Y-144957800D02*
X146997420Y-135458200D01*
X73573200Y-152817200D02*
X73073200Y-152817200D01*
X79573200Y-155317200D02*
G75*
G03X79573200Y-155317200I-2000000J0D01*
G01*
X79573200Y-150317200D02*
G75*
G03X79573200Y-150317200I-2000000J0D01*
G01*
X75073200Y-147817200D02*
X75073200Y-157817200D01*
X79973200Y-147817200D02*
X79973200Y-157817200D01*
X73573200Y-147817200D02*
X73573200Y-157817200D01*
X73073200Y-147817200D02*
X73073200Y-157817200D01*
X73073200Y-157817200D02*
X82873200Y-157817200D01*
X82873200Y-157817200D02*
X82873200Y-147817200D01*
X82873200Y-147817200D02*
X73073200Y-147817200D01*
X143730000Y-53480000D02*
X143730000Y-48400000D01*
X143730000Y-48400000D02*
X146270000Y-48400000D01*
X146270000Y-48400000D02*
X146270000Y-53480000D01*
X146270000Y-53480000D02*
X143730000Y-53480000D01*
X105473500Y-77457300D02*
X105473500Y-82537300D01*
X105473500Y-82537300D02*
X102933500Y-82537300D01*
X102933500Y-82537300D02*
X102933500Y-77457300D01*
X102933500Y-77457300D02*
X105473500Y-77457300D01*
X102273100Y-77457300D02*
X102273100Y-82537300D01*
X102273100Y-82537300D02*
X99733100Y-82537300D01*
X99733100Y-82537300D02*
X99733100Y-77457300D01*
X99733100Y-77457300D02*
X102273100Y-77457300D01*
X102670000Y-67130000D02*
X107750000Y-67130000D01*
X107750000Y-67130000D02*
X107750000Y-69670000D01*
X107750000Y-69670000D02*
X102670000Y-69670000D01*
X102670000Y-69670000D02*
X102670000Y-67130000D01*
X139547600Y-110388400D02*
X139547600Y-105308400D01*
X139547600Y-105308400D02*
X142087600Y-105308400D01*
X142087600Y-105308400D02*
X142087600Y-110388400D01*
X142087600Y-110388400D02*
X139547600Y-110388400D01*
X142798800Y-110439200D02*
X142798800Y-105359200D01*
X142798800Y-105359200D02*
X145338800Y-105359200D01*
X145338800Y-105359200D02*
X145338800Y-110439200D01*
X145338800Y-110439200D02*
X142798800Y-110439200D01*
X129095500Y-102616000D02*
X129095500Y-107696000D01*
X129095500Y-107696000D02*
X126555500Y-107696000D01*
X126555500Y-107696000D02*
X126555500Y-102616000D01*
X126555500Y-102616000D02*
X129095500Y-102616000D01*
X132080000Y-102616000D02*
X132080000Y-107696000D01*
X132080000Y-107696000D02*
X129540000Y-107696000D01*
X129540000Y-107696000D02*
X129540000Y-102616000D01*
X129540000Y-102616000D02*
X132080000Y-102616000D01*
X114870000Y-121670000D02*
X114870000Y-126750000D01*
X114870000Y-126750000D02*
X112330000Y-126750000D01*
X112330000Y-126750000D02*
X112330000Y-121670000D01*
X112330000Y-121670000D02*
X114870000Y-121670000D01*
X118470000Y-121670000D02*
X118470000Y-126750000D01*
X118470000Y-126750000D02*
X115930000Y-126750000D01*
X115930000Y-126750000D02*
X115930000Y-121670000D01*
X115930000Y-121670000D02*
X118470000Y-121670000D01*
X139661900Y-117436900D02*
X139661900Y-122516900D01*
X139661900Y-122516900D02*
X137121900Y-122516900D01*
X137121900Y-122516900D02*
X137121900Y-117436900D01*
X137121900Y-117436900D02*
X139661900Y-117436900D01*
X142760700Y-117436900D02*
X142760700Y-122516900D01*
X142760700Y-122516900D02*
X140220700Y-122516900D01*
X140220700Y-122516900D02*
X140220700Y-117436900D01*
X140220700Y-117436900D02*
X142760700Y-117436900D01*
X153987500Y-151726900D02*
X153987500Y-156806900D01*
X153987500Y-156806900D02*
X151447500Y-156806900D01*
X151447500Y-156806900D02*
X151447500Y-151726900D01*
X151447500Y-151726900D02*
X153987500Y-151726900D01*
X157289500Y-151726900D02*
X157289500Y-156806900D01*
X157289500Y-156806900D02*
X154749500Y-156806900D01*
X154749500Y-156806900D02*
X154749500Y-151726900D01*
X154749500Y-151726900D02*
X157289500Y-151726900D01*
X148132800Y-156819600D02*
X148132800Y-151739600D01*
X148132800Y-151739600D02*
X150672800Y-151739600D01*
X150672800Y-151739600D02*
X150672800Y-156819600D01*
X150672800Y-156819600D02*
X148132800Y-156819600D01*
X145808700Y-117436900D02*
X145808700Y-122516900D01*
X145808700Y-122516900D02*
X143268700Y-122516900D01*
X143268700Y-122516900D02*
X143268700Y-117436900D01*
X143268700Y-117436900D02*
X145808700Y-117436900D01*
X75336400Y-139039600D02*
X75336400Y-133959600D01*
X75336400Y-133959600D02*
X77876400Y-133959600D01*
X77876400Y-133959600D02*
X77876400Y-139039600D01*
X77876400Y-139039600D02*
X75336400Y-139039600D01*
X104000300Y-94272100D02*
X109080300Y-94272100D01*
X109080300Y-94272100D02*
X109080300Y-96812100D01*
X109080300Y-96812100D02*
X104000300Y-96812100D01*
X104000300Y-96812100D02*
X104000300Y-94272100D01*
X84683600Y-138379200D02*
X84683600Y-133299200D01*
X84683600Y-133299200D02*
X87223600Y-133299200D01*
X87223600Y-133299200D02*
X87223600Y-138379200D01*
X87223600Y-138379200D02*
X84683600Y-138379200D01*
X128086300Y-113200500D02*
X125086300Y-113200500D01*
X125086300Y-110700500D02*
X128086300Y-110700500D01*
X149212300Y-118046500D02*
X149212300Y-125666500D01*
X146672300Y-118046500D02*
X146672300Y-125666500D01*
X146392300Y-115226500D02*
X146392300Y-116776500D01*
X149212300Y-125666500D02*
X146672300Y-125666500D01*
X146672300Y-118046500D02*
X149212300Y-118046500D01*
X149492300Y-116776500D02*
X149492300Y-115226500D01*
X149492300Y-115226500D02*
X146392300Y-115226500D01*
X117776900Y-59823100D02*
X112778900Y-59823100D01*
X117768900Y-59963100D02*
X112786900Y-59963100D01*
X117752900Y-60103100D02*
X115372900Y-60103100D01*
X115182900Y-60103100D02*
X112802900Y-60103100D01*
X117728900Y-60243100D02*
X115767900Y-60243100D01*
X114787900Y-60243100D02*
X112826900Y-60243100D01*
X117695900Y-60383100D02*
X115934900Y-60383100D01*
X114620900Y-60383100D02*
X112859900Y-60383100D01*
X117654900Y-60523100D02*
X116041900Y-60523100D01*
X114513900Y-60523100D02*
X112900900Y-60523100D01*
X117604900Y-60663100D02*
X116112900Y-60663100D01*
X114442900Y-60663100D02*
X112950900Y-60663100D01*
X117543900Y-60803100D02*
X116156900Y-60803100D01*
X114398900Y-60803100D02*
X113011900Y-60803100D01*
X117473900Y-60943100D02*
X116175900Y-60943100D01*
X114379900Y-60943100D02*
X113081900Y-60943100D01*
X117391900Y-61083100D02*
X116173900Y-61083100D01*
X114381900Y-61083100D02*
X113163900Y-61083100D01*
X117296900Y-61223100D02*
X116148900Y-61223100D01*
X114406900Y-61223100D02*
X113258900Y-61223100D01*
X117185900Y-61363100D02*
X116100900Y-61363100D01*
X114454900Y-61363100D02*
X113369900Y-61363100D01*
X117057900Y-61503100D02*
X116022900Y-61503100D01*
X114532900Y-61503100D02*
X113497900Y-61503100D01*
X116908900Y-61643100D02*
X115905900Y-61643100D01*
X114649900Y-61643100D02*
X113646900Y-61643100D01*
X116729900Y-61783100D02*
X115717900Y-61783100D01*
X114837900Y-61783100D02*
X113825900Y-61783100D01*
X116510900Y-61923100D02*
X114044900Y-61923100D01*
X116221900Y-62063100D02*
X114333900Y-62063100D01*
X115749900Y-62203100D02*
X114805900Y-62203100D01*
X116177900Y-60998100D02*
G75*
G03X116177900Y-60998100I-900000J0D01*
G01*
X117815400Y-59748100D02*
G75*
G03X117815400Y-59748100I-2537500J0D01*
G01*
X135845300Y-79428700D02*
X135845300Y-84426700D01*
X135985300Y-79436700D02*
X135985300Y-84418700D01*
X136125300Y-79452700D02*
X136125300Y-81832700D01*
X136125300Y-82022700D02*
X136125300Y-84402700D01*
X136265300Y-79476700D02*
X136265300Y-81437700D01*
X136265300Y-82417700D02*
X136265300Y-84378700D01*
X136405300Y-79509700D02*
X136405300Y-81270700D01*
X136405300Y-82584700D02*
X136405300Y-84345700D01*
X136545300Y-79550700D02*
X136545300Y-81163700D01*
X136545300Y-82691700D02*
X136545300Y-84304700D01*
X136685300Y-79600700D02*
X136685300Y-81092700D01*
X136685300Y-82762700D02*
X136685300Y-84254700D01*
X136825300Y-79661700D02*
X136825300Y-81048700D01*
X136825300Y-82806700D02*
X136825300Y-84193700D01*
X136965300Y-79731700D02*
X136965300Y-81029700D01*
X136965300Y-82825700D02*
X136965300Y-84123700D01*
X137105300Y-79813700D02*
X137105300Y-81031700D01*
X137105300Y-82823700D02*
X137105300Y-84041700D01*
X137245300Y-79908700D02*
X137245300Y-81056700D01*
X137245300Y-82798700D02*
X137245300Y-83946700D01*
X137385300Y-80019700D02*
X137385300Y-81104700D01*
X137385300Y-82750700D02*
X137385300Y-83835700D01*
X137525300Y-80147700D02*
X137525300Y-81182700D01*
X137525300Y-82672700D02*
X137525300Y-83707700D01*
X137665300Y-80296700D02*
X137665300Y-81299700D01*
X137665300Y-82555700D02*
X137665300Y-83558700D01*
X137805300Y-80475700D02*
X137805300Y-81487700D01*
X137805300Y-82367700D02*
X137805300Y-83379700D01*
X137945300Y-80694700D02*
X137945300Y-83160700D01*
X138085300Y-80983700D02*
X138085300Y-82871700D01*
X138225300Y-81455700D02*
X138225300Y-82399700D01*
X137920300Y-81927700D02*
G75*
G03X137920300Y-81927700I-900000J0D01*
G01*
X138307800Y-81927700D02*
G75*
G03X138307800Y-81927700I-2537500J0D01*
G01*
X135774000Y-64548000D02*
X135774000Y-63405000D01*
X132726000Y-64548000D02*
X132726000Y-63405000D01*
X128916000Y-63405000D02*
X128916000Y-59722000D01*
X128916000Y-59722000D02*
X139584000Y-59722000D01*
X139584000Y-59722000D02*
X139584000Y-63405000D01*
X128916000Y-64548000D02*
X128916000Y-63405000D01*
X128916000Y-63405000D02*
X139584000Y-63405000D01*
X139584000Y-63405000D02*
X139584000Y-64548000D01*
X134250000Y-64548000D02*
X139584000Y-64548000D01*
X134250000Y-64548000D02*
X128916000Y-64548000D01*
X135524000Y-75048000D02*
X135524000Y-73905000D01*
X132476000Y-75048000D02*
X132476000Y-73905000D01*
X128666000Y-73905000D02*
X128666000Y-70222000D01*
X128666000Y-70222000D02*
X139334000Y-70222000D01*
X139334000Y-70222000D02*
X139334000Y-73905000D01*
X128666000Y-75048000D02*
X128666000Y-73905000D01*
X128666000Y-73905000D02*
X139334000Y-73905000D01*
X139334000Y-73905000D02*
X139334000Y-75048000D01*
X134000000Y-75048000D02*
X139334000Y-75048000D01*
X134000000Y-75048000D02*
X128666000Y-75048000D01*
X131307100Y-118578100D02*
X134707100Y-118578100D01*
X131310044Y-118575156D02*
G75*
G02X133007100Y-114478100I1697056J1697056D01*
G01*
X134704156Y-118575156D02*
G75*
G03X133007100Y-114478100I-1697056J1697056D01*
G01*
X78740000Y-88887300D02*
X78740000Y-87617300D01*
X78740000Y-87617300D02*
X83820000Y-87617300D01*
X83820000Y-87617300D02*
X83820000Y-138417300D01*
X83820000Y-138417300D02*
X78740000Y-138417300D01*
X78740000Y-138417300D02*
X78740000Y-88887300D01*
X149860000Y-138417300D02*
X149860000Y-87617300D01*
X154940000Y-138417300D02*
X154940000Y-87617300D01*
X154940000Y-138417300D02*
X149860000Y-138417300D01*
X154940000Y-87617300D02*
X149860000Y-87617300D01*
X140298095Y-42442381D02*
X140298095Y-41442381D01*
X140869524Y-42442381D02*
X140440952Y-41870952D01*
X140869524Y-41442381D02*
X140298095Y-42013810D01*
X110285715Y-53852381D02*
X109714286Y-53852381D01*
X110000000Y-53852381D02*
X110000000Y-52852381D01*
X109904762Y-52995238D01*
X109809524Y-53090476D01*
X109714286Y-53138095D01*
X101100640Y-57251361D02*
X101291117Y-57251361D01*
X101386355Y-57298980D01*
X101481593Y-57394218D01*
X101529212Y-57584694D01*
X101529212Y-57918028D01*
X101481593Y-58108504D01*
X101386355Y-58203742D01*
X101291117Y-58251361D01*
X101100640Y-58251361D01*
X101005402Y-58203742D01*
X100910164Y-58108504D01*
X100862545Y-57918028D01*
X100862545Y-57584694D01*
X100910164Y-57394218D01*
X101005402Y-57298980D01*
X101100640Y-57251361D01*
X101957783Y-57251361D02*
X101957783Y-58060885D01*
X102005402Y-58156123D01*
X102053021Y-58203742D01*
X102148259Y-58251361D01*
X102338736Y-58251361D01*
X102433974Y-58203742D01*
X102481593Y-58156123D01*
X102529212Y-58060885D01*
X102529212Y-57251361D01*
X102862545Y-57251361D02*
X103433974Y-57251361D01*
X103148259Y-58251361D02*
X103148259Y-57251361D01*
X107075931Y-58251361D02*
X107075931Y-57251361D01*
X107552121Y-58251361D02*
X107552121Y-57251361D01*
X108123550Y-58251361D01*
X108123550Y-57251361D01*
X100718928Y-56872189D02*
X101480833Y-56872189D01*
X101099881Y-57253141D02*
X101099881Y-56491236D01*
X105720188Y-56872189D02*
X106482093Y-56872189D01*
X106101141Y-57253141D02*
X106101141Y-56491236D01*
X103218288Y-56872189D02*
X103980193Y-56872189D01*
X108219548Y-56872189D02*
X108981453Y-56872189D01*
D14*
X85137810Y-136647300D02*
X85042572Y-136599681D01*
X84899715Y-136599681D01*
X84756857Y-136647300D01*
X84661619Y-136742538D01*
X84614000Y-136837776D01*
X84566381Y-137028252D01*
X84566381Y-137171110D01*
X84614000Y-137361586D01*
X84661619Y-137456824D01*
X84756857Y-137552062D01*
X84899715Y-137599681D01*
X84994953Y-137599681D01*
X85137810Y-137552062D01*
X85185429Y-137504443D01*
X85185429Y-137171110D01*
X84994953Y-137171110D01*
X85614000Y-137599681D02*
X85614000Y-136599681D01*
X85994953Y-136599681D01*
X86090191Y-136647300D01*
X86137810Y-136694919D01*
X86185429Y-136790157D01*
X86185429Y-136933014D01*
X86137810Y-137028252D01*
X86090191Y-137075871D01*
X85994953Y-137123490D01*
X85614000Y-137123490D01*
X86614000Y-137599681D02*
X86614000Y-136599681D01*
X87280666Y-136599681D02*
X87471143Y-136599681D01*
X87566381Y-136647300D01*
X87661619Y-136742538D01*
X87709238Y-136933014D01*
X87709238Y-137266348D01*
X87661619Y-137456824D01*
X87566381Y-137552062D01*
X87471143Y-137599681D01*
X87280666Y-137599681D01*
X87185428Y-137552062D01*
X87090190Y-137456824D01*
X87042571Y-137266348D01*
X87042571Y-136933014D01*
X87090190Y-136742538D01*
X87185428Y-136647300D01*
X87280666Y-136599681D01*
X88280666Y-137028252D02*
X88185428Y-136980633D01*
X88137809Y-136933014D01*
X88090190Y-136837776D01*
X88090190Y-136790157D01*
X88137809Y-136694919D01*
X88185428Y-136647300D01*
X88280666Y-136599681D01*
X88471143Y-136599681D01*
X88566381Y-136647300D01*
X88614000Y-136694919D01*
X88661619Y-136790157D01*
X88661619Y-136837776D01*
X88614000Y-136933014D01*
X88566381Y-136980633D01*
X88471143Y-137028252D01*
X88280666Y-137028252D01*
X88185428Y-137075871D01*
X88137809Y-137123490D01*
X88090190Y-137218729D01*
X88090190Y-137409205D01*
X88137809Y-137504443D01*
X88185428Y-137552062D01*
X88280666Y-137599681D01*
X88471143Y-137599681D01*
X88566381Y-137552062D01*
X88614000Y-137504443D01*
X88661619Y-137409205D01*
X88661619Y-137218729D01*
X88614000Y-137123490D01*
X88566381Y-137075871D01*
X88471143Y-137028252D01*
X85137810Y-134107300D02*
X85042572Y-134059681D01*
X84899715Y-134059681D01*
X84756857Y-134107300D01*
X84661619Y-134202538D01*
X84614000Y-134297776D01*
X84566381Y-134488252D01*
X84566381Y-134631110D01*
X84614000Y-134821586D01*
X84661619Y-134916824D01*
X84756857Y-135012062D01*
X84899715Y-135059681D01*
X84994953Y-135059681D01*
X85137810Y-135012062D01*
X85185429Y-134964443D01*
X85185429Y-134631110D01*
X84994953Y-134631110D01*
X85614000Y-135059681D02*
X85614000Y-134059681D01*
X85994953Y-134059681D01*
X86090191Y-134107300D01*
X86137810Y-134154919D01*
X86185429Y-134250157D01*
X86185429Y-134393014D01*
X86137810Y-134488252D01*
X86090191Y-134535871D01*
X85994953Y-134583490D01*
X85614000Y-134583490D01*
X86614000Y-135059681D02*
X86614000Y-134059681D01*
X87280666Y-134059681D02*
X87471143Y-134059681D01*
X87566381Y-134107300D01*
X87661619Y-134202538D01*
X87709238Y-134393014D01*
X87709238Y-134726348D01*
X87661619Y-134916824D01*
X87566381Y-135012062D01*
X87471143Y-135059681D01*
X87280666Y-135059681D01*
X87185428Y-135012062D01*
X87090190Y-134916824D01*
X87042571Y-134726348D01*
X87042571Y-134393014D01*
X87090190Y-134202538D01*
X87185428Y-134107300D01*
X87280666Y-134059681D01*
X88042571Y-134059681D02*
X88709238Y-134059681D01*
X88280666Y-135059681D01*
X85137810Y-131567300D02*
X85042572Y-131519681D01*
X84899715Y-131519681D01*
X84756857Y-131567300D01*
X84661619Y-131662538D01*
X84614000Y-131757776D01*
X84566381Y-131948252D01*
X84566381Y-132091110D01*
X84614000Y-132281586D01*
X84661619Y-132376824D01*
X84756857Y-132472062D01*
X84899715Y-132519681D01*
X84994953Y-132519681D01*
X85137810Y-132472062D01*
X85185429Y-132424443D01*
X85185429Y-132091110D01*
X84994953Y-132091110D01*
X85614000Y-132519681D02*
X85614000Y-131519681D01*
X85994953Y-131519681D01*
X86090191Y-131567300D01*
X86137810Y-131614919D01*
X86185429Y-131710157D01*
X86185429Y-131853014D01*
X86137810Y-131948252D01*
X86090191Y-131995871D01*
X85994953Y-132043490D01*
X85614000Y-132043490D01*
X86614000Y-132519681D02*
X86614000Y-131519681D01*
X87280666Y-131519681D02*
X87471143Y-131519681D01*
X87566381Y-131567300D01*
X87661619Y-131662538D01*
X87709238Y-131853014D01*
X87709238Y-132186348D01*
X87661619Y-132376824D01*
X87566381Y-132472062D01*
X87471143Y-132519681D01*
X87280666Y-132519681D01*
X87185428Y-132472062D01*
X87090190Y-132376824D01*
X87042571Y-132186348D01*
X87042571Y-131853014D01*
X87090190Y-131662538D01*
X87185428Y-131567300D01*
X87280666Y-131519681D01*
X88614000Y-131519681D02*
X88137809Y-131519681D01*
X88090190Y-131995871D01*
X88137809Y-131948252D01*
X88233047Y-131900633D01*
X88471143Y-131900633D01*
X88566381Y-131948252D01*
X88614000Y-131995871D01*
X88661619Y-132091110D01*
X88661619Y-132329205D01*
X88614000Y-132424443D01*
X88566381Y-132472062D01*
X88471143Y-132519681D01*
X88233047Y-132519681D01*
X88137809Y-132472062D01*
X88090190Y-132424443D01*
X85137810Y-129027300D02*
X85042572Y-128979681D01*
X84899715Y-128979681D01*
X84756857Y-129027300D01*
X84661619Y-129122538D01*
X84614000Y-129217776D01*
X84566381Y-129408252D01*
X84566381Y-129551110D01*
X84614000Y-129741586D01*
X84661619Y-129836824D01*
X84756857Y-129932062D01*
X84899715Y-129979681D01*
X84994953Y-129979681D01*
X85137810Y-129932062D01*
X85185429Y-129884443D01*
X85185429Y-129551110D01*
X84994953Y-129551110D01*
X85614000Y-129979681D02*
X85614000Y-128979681D01*
X85994953Y-128979681D01*
X86090191Y-129027300D01*
X86137810Y-129074919D01*
X86185429Y-129170157D01*
X86185429Y-129313014D01*
X86137810Y-129408252D01*
X86090191Y-129455871D01*
X85994953Y-129503490D01*
X85614000Y-129503490D01*
X86614000Y-129979681D02*
X86614000Y-128979681D01*
X87280666Y-128979681D02*
X87471143Y-128979681D01*
X87566381Y-129027300D01*
X87661619Y-129122538D01*
X87709238Y-129313014D01*
X87709238Y-129646348D01*
X87661619Y-129836824D01*
X87566381Y-129932062D01*
X87471143Y-129979681D01*
X87280666Y-129979681D01*
X87185428Y-129932062D01*
X87090190Y-129836824D01*
X87042571Y-129646348D01*
X87042571Y-129313014D01*
X87090190Y-129122538D01*
X87185428Y-129027300D01*
X87280666Y-128979681D01*
X88042571Y-128979681D02*
X88661619Y-128979681D01*
X88328285Y-129360633D01*
X88471143Y-129360633D01*
X88566381Y-129408252D01*
X88614000Y-129455871D01*
X88661619Y-129551110D01*
X88661619Y-129789205D01*
X88614000Y-129884443D01*
X88566381Y-129932062D01*
X88471143Y-129979681D01*
X88185428Y-129979681D01*
X88090190Y-129932062D01*
X88042571Y-129884443D01*
X85137810Y-126487300D02*
X85042572Y-126439681D01*
X84899715Y-126439681D01*
X84756857Y-126487300D01*
X84661619Y-126582538D01*
X84614000Y-126677776D01*
X84566381Y-126868252D01*
X84566381Y-127011110D01*
X84614000Y-127201586D01*
X84661619Y-127296824D01*
X84756857Y-127392062D01*
X84899715Y-127439681D01*
X84994953Y-127439681D01*
X85137810Y-127392062D01*
X85185429Y-127344443D01*
X85185429Y-127011110D01*
X84994953Y-127011110D01*
X85614000Y-127439681D02*
X85614000Y-126439681D01*
X85994953Y-126439681D01*
X86090191Y-126487300D01*
X86137810Y-126534919D01*
X86185429Y-126630157D01*
X86185429Y-126773014D01*
X86137810Y-126868252D01*
X86090191Y-126915871D01*
X85994953Y-126963490D01*
X85614000Y-126963490D01*
X86614000Y-127439681D02*
X86614000Y-126439681D01*
X87280666Y-126439681D02*
X87471143Y-126439681D01*
X87566381Y-126487300D01*
X87661619Y-126582538D01*
X87709238Y-126773014D01*
X87709238Y-127106348D01*
X87661619Y-127296824D01*
X87566381Y-127392062D01*
X87471143Y-127439681D01*
X87280666Y-127439681D01*
X87185428Y-127392062D01*
X87090190Y-127296824D01*
X87042571Y-127106348D01*
X87042571Y-126773014D01*
X87090190Y-126582538D01*
X87185428Y-126487300D01*
X87280666Y-126439681D01*
X88661619Y-127439681D02*
X88090190Y-127439681D01*
X88375904Y-127439681D02*
X88375904Y-126439681D01*
X88280666Y-126582538D01*
X88185428Y-126677776D01*
X88090190Y-126725395D01*
X84939334Y-124899681D02*
X84463143Y-124899681D01*
X84463143Y-123899681D01*
X85844096Y-124804443D02*
X85796477Y-124852062D01*
X85653620Y-124899681D01*
X85558382Y-124899681D01*
X85415524Y-124852062D01*
X85320286Y-124756824D01*
X85272667Y-124661586D01*
X85225048Y-124471110D01*
X85225048Y-124328252D01*
X85272667Y-124137776D01*
X85320286Y-124042538D01*
X85415524Y-123947300D01*
X85558382Y-123899681D01*
X85653620Y-123899681D01*
X85796477Y-123947300D01*
X85844096Y-123994919D01*
X86272667Y-124899681D02*
X86272667Y-123899681D01*
X86510762Y-123899681D01*
X86653620Y-123947300D01*
X86748858Y-124042538D01*
X86796477Y-124137776D01*
X86844096Y-124328252D01*
X86844096Y-124471110D01*
X86796477Y-124661586D01*
X86748858Y-124756824D01*
X86653620Y-124852062D01*
X86510762Y-124899681D01*
X86272667Y-124899681D01*
X87796477Y-124899681D02*
X87225048Y-124899681D01*
X87510762Y-124899681D02*
X87510762Y-123899681D01*
X87415524Y-124042538D01*
X87320286Y-124137776D01*
X87225048Y-124185395D01*
X84939334Y-122359681D02*
X84463143Y-122359681D01*
X84463143Y-121359681D01*
X85844096Y-122264443D02*
X85796477Y-122312062D01*
X85653620Y-122359681D01*
X85558382Y-122359681D01*
X85415524Y-122312062D01*
X85320286Y-122216824D01*
X85272667Y-122121586D01*
X85225048Y-121931110D01*
X85225048Y-121788252D01*
X85272667Y-121597776D01*
X85320286Y-121502538D01*
X85415524Y-121407300D01*
X85558382Y-121359681D01*
X85653620Y-121359681D01*
X85796477Y-121407300D01*
X85844096Y-121454919D01*
X86272667Y-122359681D02*
X86272667Y-121359681D01*
X86510762Y-121359681D01*
X86653620Y-121407300D01*
X86748858Y-121502538D01*
X86796477Y-121597776D01*
X86844096Y-121788252D01*
X86844096Y-121931110D01*
X86796477Y-122121586D01*
X86748858Y-122216824D01*
X86653620Y-122312062D01*
X86510762Y-122359681D01*
X86272667Y-122359681D01*
X87225048Y-121454919D02*
X87272667Y-121407300D01*
X87367905Y-121359681D01*
X87606001Y-121359681D01*
X87701239Y-121407300D01*
X87748858Y-121454919D01*
X87796477Y-121550157D01*
X87796477Y-121645395D01*
X87748858Y-121788252D01*
X87177429Y-122359681D01*
X87796477Y-122359681D01*
X84939334Y-119819681D02*
X84463143Y-119819681D01*
X84463143Y-118819681D01*
X85844096Y-119724443D02*
X85796477Y-119772062D01*
X85653620Y-119819681D01*
X85558382Y-119819681D01*
X85415524Y-119772062D01*
X85320286Y-119676824D01*
X85272667Y-119581586D01*
X85225048Y-119391110D01*
X85225048Y-119248252D01*
X85272667Y-119057776D01*
X85320286Y-118962538D01*
X85415524Y-118867300D01*
X85558382Y-118819681D01*
X85653620Y-118819681D01*
X85796477Y-118867300D01*
X85844096Y-118914919D01*
X86272667Y-119819681D02*
X86272667Y-118819681D01*
X86510762Y-118819681D01*
X86653620Y-118867300D01*
X86748858Y-118962538D01*
X86796477Y-119057776D01*
X86844096Y-119248252D01*
X86844096Y-119391110D01*
X86796477Y-119581586D01*
X86748858Y-119676824D01*
X86653620Y-119772062D01*
X86510762Y-119819681D01*
X86272667Y-119819681D01*
X87177429Y-118819681D02*
X87796477Y-118819681D01*
X87463143Y-119200633D01*
X87606001Y-119200633D01*
X87701239Y-119248252D01*
X87748858Y-119295871D01*
X87796477Y-119391110D01*
X87796477Y-119629205D01*
X87748858Y-119724443D01*
X87701239Y-119772062D01*
X87606001Y-119819681D01*
X87320286Y-119819681D01*
X87225048Y-119772062D01*
X87177429Y-119724443D01*
X85074381Y-117279681D02*
X84598190Y-117279681D01*
X84598190Y-116279681D01*
X85979143Y-117184443D02*
X85931524Y-117232062D01*
X85788667Y-117279681D01*
X85693429Y-117279681D01*
X85550571Y-117232062D01*
X85455333Y-117136824D01*
X85407714Y-117041586D01*
X85360095Y-116851110D01*
X85360095Y-116708252D01*
X85407714Y-116517776D01*
X85455333Y-116422538D01*
X85550571Y-116327300D01*
X85693429Y-116279681D01*
X85788667Y-116279681D01*
X85931524Y-116327300D01*
X85979143Y-116374919D01*
X86407714Y-117279681D02*
X86407714Y-116279681D01*
X86645809Y-116279681D01*
X86788667Y-116327300D01*
X86883905Y-116422538D01*
X86931524Y-116517776D01*
X86979143Y-116708252D01*
X86979143Y-116851110D01*
X86931524Y-117041586D01*
X86883905Y-117136824D01*
X86788667Y-117232062D01*
X86645809Y-117279681D01*
X86407714Y-117279681D01*
X87169619Y-117374919D02*
X87931524Y-117374919D01*
X88741048Y-117279681D02*
X88407714Y-116803490D01*
X88169619Y-117279681D02*
X88169619Y-116279681D01*
X88550572Y-116279681D01*
X88645810Y-116327300D01*
X88693429Y-116374919D01*
X88741048Y-116470157D01*
X88741048Y-116613014D01*
X88693429Y-116708252D01*
X88645810Y-116755871D01*
X88550572Y-116803490D01*
X88169619Y-116803490D01*
X89122000Y-117232062D02*
X89264857Y-117279681D01*
X89502953Y-117279681D01*
X89598191Y-117232062D01*
X89645810Y-117184443D01*
X89693429Y-117089205D01*
X89693429Y-116993967D01*
X89645810Y-116898729D01*
X89598191Y-116851110D01*
X89502953Y-116803490D01*
X89312476Y-116755871D01*
X89217238Y-116708252D01*
X89169619Y-116660633D01*
X89122000Y-116565395D01*
X89122000Y-116470157D01*
X89169619Y-116374919D01*
X89217238Y-116327300D01*
X89312476Y-116279681D01*
X89550572Y-116279681D01*
X89693429Y-116327300D01*
X84939334Y-114739681D02*
X84463143Y-114739681D01*
X84463143Y-113739681D01*
X85844096Y-114644443D02*
X85796477Y-114692062D01*
X85653620Y-114739681D01*
X85558382Y-114739681D01*
X85415524Y-114692062D01*
X85320286Y-114596824D01*
X85272667Y-114501586D01*
X85225048Y-114311110D01*
X85225048Y-114168252D01*
X85272667Y-113977776D01*
X85320286Y-113882538D01*
X85415524Y-113787300D01*
X85558382Y-113739681D01*
X85653620Y-113739681D01*
X85796477Y-113787300D01*
X85844096Y-113834919D01*
X86272667Y-114739681D02*
X86272667Y-113739681D01*
X86510762Y-113739681D01*
X86653620Y-113787300D01*
X86748858Y-113882538D01*
X86796477Y-113977776D01*
X86844096Y-114168252D01*
X86844096Y-114311110D01*
X86796477Y-114501586D01*
X86748858Y-114596824D01*
X86653620Y-114692062D01*
X86510762Y-114739681D01*
X86272667Y-114739681D01*
X87701239Y-114073014D02*
X87701239Y-114739681D01*
X87463143Y-113692062D02*
X87225048Y-114406348D01*
X87844096Y-114406348D01*
X84495048Y-112152062D02*
X84637905Y-112199681D01*
X84876001Y-112199681D01*
X84971239Y-112152062D01*
X85018858Y-112104443D01*
X85066477Y-112009205D01*
X85066477Y-111913967D01*
X85018858Y-111818729D01*
X84971239Y-111771110D01*
X84876001Y-111723490D01*
X84685524Y-111675871D01*
X84590286Y-111628252D01*
X84542667Y-111580633D01*
X84495048Y-111485395D01*
X84495048Y-111390157D01*
X84542667Y-111294919D01*
X84590286Y-111247300D01*
X84685524Y-111199681D01*
X84923620Y-111199681D01*
X85066477Y-111247300D01*
X85495048Y-112199681D02*
X85495048Y-111199681D01*
X85876001Y-111199681D01*
X85971239Y-111247300D01*
X86018858Y-111294919D01*
X86066477Y-111390157D01*
X86066477Y-111533014D01*
X86018858Y-111628252D01*
X85971239Y-111675871D01*
X85876001Y-111723490D01*
X85495048Y-111723490D01*
X86495048Y-112199681D02*
X86495048Y-111199681D01*
X86733143Y-112294919D02*
X87495048Y-112294919D01*
X87685524Y-112152062D02*
X87828381Y-112199681D01*
X88066477Y-112199681D01*
X88161715Y-112152062D01*
X88209334Y-112104443D01*
X88256953Y-112009205D01*
X88256953Y-111913967D01*
X88209334Y-111818729D01*
X88161715Y-111771110D01*
X88066477Y-111723490D01*
X87876000Y-111675871D01*
X87780762Y-111628252D01*
X87733143Y-111580633D01*
X87685524Y-111485395D01*
X87685524Y-111390157D01*
X87733143Y-111294919D01*
X87780762Y-111247300D01*
X87876000Y-111199681D01*
X88114096Y-111199681D01*
X88256953Y-111247300D01*
X89256953Y-112104443D02*
X89209334Y-112152062D01*
X89066477Y-112199681D01*
X88971239Y-112199681D01*
X88828381Y-112152062D01*
X88733143Y-112056824D01*
X88685524Y-111961586D01*
X88637905Y-111771110D01*
X88637905Y-111628252D01*
X88685524Y-111437776D01*
X88733143Y-111342538D01*
X88828381Y-111247300D01*
X88971239Y-111199681D01*
X89066477Y-111199681D01*
X89209334Y-111247300D01*
X89256953Y-111294919D01*
X89685524Y-112199681D02*
X89685524Y-111199681D01*
X90256953Y-112199681D02*
X89828381Y-111628252D01*
X90256953Y-111199681D02*
X89685524Y-111771110D01*
X84415715Y-109612062D02*
X84558572Y-109659681D01*
X84796668Y-109659681D01*
X84891906Y-109612062D01*
X84939525Y-109564443D01*
X84987144Y-109469205D01*
X84987144Y-109373967D01*
X84939525Y-109278729D01*
X84891906Y-109231110D01*
X84796668Y-109183490D01*
X84606191Y-109135871D01*
X84510953Y-109088252D01*
X84463334Y-109040633D01*
X84415715Y-108945395D01*
X84415715Y-108850157D01*
X84463334Y-108754919D01*
X84510953Y-108707300D01*
X84606191Y-108659681D01*
X84844287Y-108659681D01*
X84987144Y-108707300D01*
X85415715Y-109659681D02*
X85415715Y-108659681D01*
X85796668Y-108659681D01*
X85891906Y-108707300D01*
X85939525Y-108754919D01*
X85987144Y-108850157D01*
X85987144Y-108993014D01*
X85939525Y-109088252D01*
X85891906Y-109135871D01*
X85796668Y-109183490D01*
X85415715Y-109183490D01*
X86415715Y-109659681D02*
X86415715Y-108659681D01*
X86653810Y-109754919D02*
X87415715Y-109754919D01*
X87653810Y-109659681D02*
X87653810Y-108659681D01*
X87987144Y-109373967D01*
X88320477Y-108659681D01*
X88320477Y-109659681D01*
X88796667Y-109659681D02*
X88796667Y-108659681D01*
X89225238Y-109612062D02*
X89368095Y-109659681D01*
X89606191Y-109659681D01*
X89701429Y-109612062D01*
X89749048Y-109564443D01*
X89796667Y-109469205D01*
X89796667Y-109373967D01*
X89749048Y-109278729D01*
X89701429Y-109231110D01*
X89606191Y-109183490D01*
X89415714Y-109135871D01*
X89320476Y-109088252D01*
X89272857Y-109040633D01*
X89225238Y-108945395D01*
X89225238Y-108850157D01*
X89272857Y-108754919D01*
X89320476Y-108707300D01*
X89415714Y-108659681D01*
X89653810Y-108659681D01*
X89796667Y-108707300D01*
X90415714Y-108659681D02*
X90606191Y-108659681D01*
X90701429Y-108707300D01*
X90796667Y-108802538D01*
X90844286Y-108993014D01*
X90844286Y-109326348D01*
X90796667Y-109516824D01*
X90701429Y-109612062D01*
X90606191Y-109659681D01*
X90415714Y-109659681D01*
X90320476Y-109612062D01*
X90225238Y-109516824D01*
X90177619Y-109326348D01*
X90177619Y-108993014D01*
X90225238Y-108802538D01*
X90320476Y-108707300D01*
X90415714Y-108659681D01*
X84367905Y-106119681D02*
X84939334Y-106119681D01*
X84653619Y-107119681D02*
X84653619Y-106119681D01*
X85177429Y-106119681D02*
X85844096Y-107119681D01*
X85844096Y-106119681D02*
X85177429Y-107119681D01*
X86225048Y-107119681D02*
X86225048Y-106119681D01*
X86463143Y-106119681D01*
X86606001Y-106167300D01*
X86701239Y-106262538D01*
X86748858Y-106357776D01*
X86796477Y-106548252D01*
X86796477Y-106691110D01*
X86748858Y-106881586D01*
X86701239Y-106976824D01*
X86606001Y-107072062D01*
X86463143Y-107119681D01*
X86225048Y-107119681D01*
X87748858Y-107119681D02*
X87177429Y-107119681D01*
X87463143Y-107119681D02*
X87463143Y-106119681D01*
X87367905Y-106262538D01*
X87272667Y-106357776D01*
X87177429Y-106405395D01*
X84367905Y-103579681D02*
X84939334Y-103579681D01*
X84653619Y-104579681D02*
X84653619Y-103579681D01*
X85177429Y-103579681D02*
X85844096Y-104579681D01*
X85844096Y-103579681D02*
X85177429Y-104579681D01*
X86225048Y-104579681D02*
X86225048Y-103579681D01*
X86463143Y-103579681D01*
X86606001Y-103627300D01*
X86701239Y-103722538D01*
X86748858Y-103817776D01*
X86796477Y-104008252D01*
X86796477Y-104151110D01*
X86748858Y-104341586D01*
X86701239Y-104436824D01*
X86606001Y-104532062D01*
X86463143Y-104579681D01*
X86225048Y-104579681D01*
X87415524Y-103579681D02*
X87510763Y-103579681D01*
X87606001Y-103627300D01*
X87653620Y-103674919D01*
X87701239Y-103770157D01*
X87748858Y-103960633D01*
X87748858Y-104198729D01*
X87701239Y-104389205D01*
X87653620Y-104484443D01*
X87606001Y-104532062D01*
X87510763Y-104579681D01*
X87415524Y-104579681D01*
X87320286Y-104532062D01*
X87272667Y-104484443D01*
X87225048Y-104389205D01*
X87177429Y-104198729D01*
X87177429Y-103960633D01*
X87225048Y-103770157D01*
X87272667Y-103674919D01*
X87320286Y-103627300D01*
X87415524Y-103579681D01*
X84510762Y-102039681D02*
X84510762Y-101039681D01*
X84844096Y-101753967D01*
X85177429Y-101039681D01*
X85177429Y-102039681D01*
X85653619Y-102039681D02*
X85653619Y-101039681D01*
X85891714Y-101039681D01*
X86034572Y-101087300D01*
X86129810Y-101182538D01*
X86177429Y-101277776D01*
X86225048Y-101468252D01*
X86225048Y-101611110D01*
X86177429Y-101801586D01*
X86129810Y-101896824D01*
X86034572Y-101992062D01*
X85891714Y-102039681D01*
X85653619Y-102039681D01*
X86653619Y-102039681D02*
X86653619Y-101039681D01*
X87320285Y-101039681D02*
X87510762Y-101039681D01*
X87606000Y-101087300D01*
X87701238Y-101182538D01*
X87748857Y-101373014D01*
X87748857Y-101706348D01*
X87701238Y-101896824D01*
X87606000Y-101992062D01*
X87510762Y-102039681D01*
X87320285Y-102039681D01*
X87225047Y-101992062D01*
X87129809Y-101896824D01*
X87082190Y-101706348D01*
X87082190Y-101373014D01*
X87129809Y-101182538D01*
X87225047Y-101087300D01*
X87320285Y-101039681D01*
X85145810Y-99404443D02*
X85098191Y-99452062D01*
X84955334Y-99499681D01*
X84860096Y-99499681D01*
X84717238Y-99452062D01*
X84622000Y-99356824D01*
X84574381Y-99261586D01*
X84526762Y-99071110D01*
X84526762Y-98928252D01*
X84574381Y-98737776D01*
X84622000Y-98642538D01*
X84717238Y-98547300D01*
X84860096Y-98499681D01*
X84955334Y-98499681D01*
X85098191Y-98547300D01*
X85145810Y-98594919D01*
X86145810Y-99499681D02*
X85812476Y-99023490D01*
X85574381Y-99499681D02*
X85574381Y-98499681D01*
X85955334Y-98499681D01*
X86050572Y-98547300D01*
X86098191Y-98594919D01*
X86145810Y-98690157D01*
X86145810Y-98833014D01*
X86098191Y-98928252D01*
X86050572Y-98975871D01*
X85955334Y-99023490D01*
X85574381Y-99023490D01*
X86526762Y-99452062D02*
X86669619Y-99499681D01*
X86907715Y-99499681D01*
X87002953Y-99452062D01*
X87050572Y-99404443D01*
X87098191Y-99309205D01*
X87098191Y-99213967D01*
X87050572Y-99118729D01*
X87002953Y-99071110D01*
X86907715Y-99023490D01*
X86717238Y-98975871D01*
X86622000Y-98928252D01*
X86574381Y-98880633D01*
X86526762Y-98785395D01*
X86526762Y-98690157D01*
X86574381Y-98594919D01*
X86622000Y-98547300D01*
X86717238Y-98499681D01*
X86955334Y-98499681D01*
X87098191Y-98547300D01*
X87288667Y-99594919D02*
X88050572Y-99594919D01*
X88288667Y-99499681D02*
X88288667Y-98499681D01*
X88526762Y-98499681D01*
X88669620Y-98547300D01*
X88764858Y-98642538D01*
X88812477Y-98737776D01*
X88860096Y-98928252D01*
X88860096Y-99071110D01*
X88812477Y-99261586D01*
X88764858Y-99356824D01*
X88669620Y-99452062D01*
X88526762Y-99499681D01*
X88288667Y-99499681D01*
X89145810Y-98499681D02*
X89479143Y-99499681D01*
X89812477Y-98499681D01*
X84518667Y-96959681D02*
X84518667Y-95959681D01*
X84852001Y-96673967D01*
X85185334Y-95959681D01*
X85185334Y-96959681D01*
X85661524Y-96959681D02*
X85661524Y-95959681D01*
X85899619Y-95959681D01*
X86042477Y-96007300D01*
X86137715Y-96102538D01*
X86185334Y-96197776D01*
X86232953Y-96388252D01*
X86232953Y-96531110D01*
X86185334Y-96721586D01*
X86137715Y-96816824D01*
X86042477Y-96912062D01*
X85899619Y-96959681D01*
X85661524Y-96959681D01*
X87232953Y-96864443D02*
X87185334Y-96912062D01*
X87042477Y-96959681D01*
X86947239Y-96959681D01*
X86804381Y-96912062D01*
X86709143Y-96816824D01*
X86661524Y-96721586D01*
X86613905Y-96531110D01*
X86613905Y-96388252D01*
X86661524Y-96197776D01*
X86709143Y-96102538D01*
X86804381Y-96007300D01*
X86947239Y-95959681D01*
X87042477Y-95959681D01*
X87185334Y-96007300D01*
X87232953Y-96054919D01*
X84240952Y-93419681D02*
X84812381Y-93419681D01*
X84526666Y-94419681D02*
X84526666Y-93419681D01*
X85050476Y-93419681D02*
X85717143Y-94419681D01*
X85717143Y-93419681D02*
X85050476Y-94419681D01*
X85860000Y-94514919D02*
X86621905Y-94514919D01*
X86860000Y-93895871D02*
X87193334Y-93895871D01*
X87336191Y-94419681D02*
X86860000Y-94419681D01*
X86860000Y-93419681D01*
X87336191Y-93419681D01*
X87764762Y-94419681D02*
X87764762Y-93419681D01*
X88336191Y-94419681D01*
X88336191Y-93419681D01*
X84963143Y-91879681D02*
X84629809Y-91403490D01*
X84391714Y-91879681D02*
X84391714Y-90879681D01*
X84772667Y-90879681D01*
X84867905Y-90927300D01*
X84915524Y-90974919D01*
X84963143Y-91070157D01*
X84963143Y-91213014D01*
X84915524Y-91308252D01*
X84867905Y-91355871D01*
X84772667Y-91403490D01*
X84391714Y-91403490D01*
X85296476Y-90879681D02*
X85963143Y-91879681D01*
X85963143Y-90879681D02*
X85296476Y-91879681D01*
X86344095Y-91879681D02*
X86344095Y-90879681D01*
X86582190Y-90879681D01*
X86725048Y-90927300D01*
X86820286Y-91022538D01*
X86867905Y-91117776D01*
X86915524Y-91308252D01*
X86915524Y-91451110D01*
X86867905Y-91641586D01*
X86820286Y-91736824D01*
X86725048Y-91832062D01*
X86582190Y-91879681D01*
X86344095Y-91879681D01*
X87867905Y-91879681D02*
X87296476Y-91879681D01*
X87582190Y-91879681D02*
X87582190Y-90879681D01*
X87486952Y-91022538D01*
X87391714Y-91117776D01*
X87296476Y-91165395D01*
X84312286Y-88958729D02*
X85074191Y-88958729D01*
X84693239Y-89339681D02*
X84693239Y-88577776D01*
X86026572Y-88339681D02*
X85550381Y-88339681D01*
X85502762Y-88815871D01*
X85550381Y-88768252D01*
X85645619Y-88720633D01*
X85883715Y-88720633D01*
X85978953Y-88768252D01*
X86026572Y-88815871D01*
X86074191Y-88911110D01*
X86074191Y-89149205D01*
X86026572Y-89244443D01*
X85978953Y-89292062D01*
X85883715Y-89339681D01*
X85645619Y-89339681D01*
X85550381Y-89292062D01*
X85502762Y-89244443D01*
X86359905Y-88339681D02*
X86693238Y-89339681D01*
X87026572Y-88339681D01*
X76200096Y-136393300D02*
X76104858Y-136345681D01*
X75962001Y-136345681D01*
X75819143Y-136393300D01*
X75723905Y-136488538D01*
X75676286Y-136583776D01*
X75628667Y-136774252D01*
X75628667Y-136917110D01*
X75676286Y-137107586D01*
X75723905Y-137202824D01*
X75819143Y-137298062D01*
X75962001Y-137345681D01*
X76057239Y-137345681D01*
X76200096Y-137298062D01*
X76247715Y-137250443D01*
X76247715Y-136917110D01*
X76057239Y-136917110D01*
X76676286Y-137345681D02*
X76676286Y-136345681D01*
X77247715Y-137345681D01*
X77247715Y-136345681D01*
X77723905Y-137345681D02*
X77723905Y-136345681D01*
X77962000Y-136345681D01*
X78104858Y-136393300D01*
X78200096Y-136488538D01*
X78247715Y-136583776D01*
X78295334Y-136774252D01*
X78295334Y-136917110D01*
X78247715Y-137107586D01*
X78200096Y-137202824D01*
X78104858Y-137298062D01*
X77962000Y-137345681D01*
X77723905Y-137345681D01*
X76200096Y-134107300D02*
X76104858Y-134059681D01*
X75962001Y-134059681D01*
X75819143Y-134107300D01*
X75723905Y-134202538D01*
X75676286Y-134297776D01*
X75628667Y-134488252D01*
X75628667Y-134631110D01*
X75676286Y-134821586D01*
X75723905Y-134916824D01*
X75819143Y-135012062D01*
X75962001Y-135059681D01*
X76057239Y-135059681D01*
X76200096Y-135012062D01*
X76247715Y-134964443D01*
X76247715Y-134631110D01*
X76057239Y-134631110D01*
X76676286Y-135059681D02*
X76676286Y-134059681D01*
X77247715Y-135059681D01*
X77247715Y-134059681D01*
X77723905Y-135059681D02*
X77723905Y-134059681D01*
X77962000Y-134059681D01*
X78104858Y-134107300D01*
X78200096Y-134202538D01*
X78247715Y-134297776D01*
X78295334Y-134488252D01*
X78295334Y-134631110D01*
X78247715Y-134821586D01*
X78200096Y-134916824D01*
X78104858Y-135012062D01*
X77962000Y-135059681D01*
X77723905Y-135059681D01*
X74871429Y-131567300D02*
X74785715Y-131519681D01*
X74657144Y-131519681D01*
X74528572Y-131567300D01*
X74442858Y-131662538D01*
X74400001Y-131757776D01*
X74357144Y-131948252D01*
X74357144Y-132091110D01*
X74400001Y-132281586D01*
X74442858Y-132376824D01*
X74528572Y-132472062D01*
X74657144Y-132519681D01*
X74742858Y-132519681D01*
X74871429Y-132472062D01*
X74914286Y-132424443D01*
X74914286Y-132091110D01*
X74742858Y-132091110D01*
X75300001Y-132519681D02*
X75300001Y-131519681D01*
X75642858Y-131519681D01*
X75728572Y-131567300D01*
X75771429Y-131614919D01*
X75814286Y-131710157D01*
X75814286Y-131853014D01*
X75771429Y-131948252D01*
X75728572Y-131995871D01*
X75642858Y-132043490D01*
X75300001Y-132043490D01*
X76200001Y-132519681D02*
X76200001Y-131519681D01*
X76800000Y-131519681D02*
X76971429Y-131519681D01*
X77057143Y-131567300D01*
X77142857Y-131662538D01*
X77185715Y-131853014D01*
X77185715Y-132186348D01*
X77142857Y-132376824D01*
X77057143Y-132472062D01*
X76971429Y-132519681D01*
X76800000Y-132519681D01*
X76714286Y-132472062D01*
X76628572Y-132376824D01*
X76585715Y-132186348D01*
X76585715Y-131853014D01*
X76628572Y-131662538D01*
X76714286Y-131567300D01*
X76800000Y-131519681D01*
X77957143Y-131519681D02*
X77785714Y-131519681D01*
X77700000Y-131567300D01*
X77657143Y-131614919D01*
X77571429Y-131757776D01*
X77528572Y-131948252D01*
X77528572Y-132329205D01*
X77571429Y-132424443D01*
X77614286Y-132472062D01*
X77700000Y-132519681D01*
X77871429Y-132519681D01*
X77957143Y-132472062D01*
X78000000Y-132424443D01*
X78042857Y-132329205D01*
X78042857Y-132091110D01*
X78000000Y-131995871D01*
X77957143Y-131948252D01*
X77871429Y-131900633D01*
X77700000Y-131900633D01*
X77614286Y-131948252D01*
X77571429Y-131995871D01*
X77528572Y-132091110D01*
X74871429Y-129027300D02*
X74785715Y-128979681D01*
X74657144Y-128979681D01*
X74528572Y-129027300D01*
X74442858Y-129122538D01*
X74400001Y-129217776D01*
X74357144Y-129408252D01*
X74357144Y-129551110D01*
X74400001Y-129741586D01*
X74442858Y-129836824D01*
X74528572Y-129932062D01*
X74657144Y-129979681D01*
X74742858Y-129979681D01*
X74871429Y-129932062D01*
X74914286Y-129884443D01*
X74914286Y-129551110D01*
X74742858Y-129551110D01*
X75300001Y-129979681D02*
X75300001Y-128979681D01*
X75642858Y-128979681D01*
X75728572Y-129027300D01*
X75771429Y-129074919D01*
X75814286Y-129170157D01*
X75814286Y-129313014D01*
X75771429Y-129408252D01*
X75728572Y-129455871D01*
X75642858Y-129503490D01*
X75300001Y-129503490D01*
X76200001Y-129979681D02*
X76200001Y-128979681D01*
X76800000Y-128979681D02*
X76971429Y-128979681D01*
X77057143Y-129027300D01*
X77142857Y-129122538D01*
X77185715Y-129313014D01*
X77185715Y-129646348D01*
X77142857Y-129836824D01*
X77057143Y-129932062D01*
X76971429Y-129979681D01*
X76800000Y-129979681D01*
X76714286Y-129932062D01*
X76628572Y-129836824D01*
X76585715Y-129646348D01*
X76585715Y-129313014D01*
X76628572Y-129122538D01*
X76714286Y-129027300D01*
X76800000Y-128979681D01*
X77957143Y-129313014D02*
X77957143Y-129979681D01*
X77742857Y-128932062D02*
X77528572Y-129646348D01*
X78085714Y-129646348D01*
X74871429Y-126487300D02*
X74785715Y-126439681D01*
X74657144Y-126439681D01*
X74528572Y-126487300D01*
X74442858Y-126582538D01*
X74400001Y-126677776D01*
X74357144Y-126868252D01*
X74357144Y-127011110D01*
X74400001Y-127201586D01*
X74442858Y-127296824D01*
X74528572Y-127392062D01*
X74657144Y-127439681D01*
X74742858Y-127439681D01*
X74871429Y-127392062D01*
X74914286Y-127344443D01*
X74914286Y-127011110D01*
X74742858Y-127011110D01*
X75300001Y-127439681D02*
X75300001Y-126439681D01*
X75642858Y-126439681D01*
X75728572Y-126487300D01*
X75771429Y-126534919D01*
X75814286Y-126630157D01*
X75814286Y-126773014D01*
X75771429Y-126868252D01*
X75728572Y-126915871D01*
X75642858Y-126963490D01*
X75300001Y-126963490D01*
X76200001Y-127439681D02*
X76200001Y-126439681D01*
X76800000Y-126439681D02*
X76971429Y-126439681D01*
X77057143Y-126487300D01*
X77142857Y-126582538D01*
X77185715Y-126773014D01*
X77185715Y-127106348D01*
X77142857Y-127296824D01*
X77057143Y-127392062D01*
X76971429Y-127439681D01*
X76800000Y-127439681D01*
X76714286Y-127392062D01*
X76628572Y-127296824D01*
X76585715Y-127106348D01*
X76585715Y-126773014D01*
X76628572Y-126582538D01*
X76714286Y-126487300D01*
X76800000Y-126439681D01*
X77528572Y-126534919D02*
X77571429Y-126487300D01*
X77657143Y-126439681D01*
X77871429Y-126439681D01*
X77957143Y-126487300D01*
X78000000Y-126534919D01*
X78042857Y-126630157D01*
X78042857Y-126725395D01*
X78000000Y-126868252D01*
X77485714Y-127439681D01*
X78042857Y-127439681D01*
X74871429Y-123947300D02*
X74785715Y-123899681D01*
X74657144Y-123899681D01*
X74528572Y-123947300D01*
X74442858Y-124042538D01*
X74400001Y-124137776D01*
X74357144Y-124328252D01*
X74357144Y-124471110D01*
X74400001Y-124661586D01*
X74442858Y-124756824D01*
X74528572Y-124852062D01*
X74657144Y-124899681D01*
X74742858Y-124899681D01*
X74871429Y-124852062D01*
X74914286Y-124804443D01*
X74914286Y-124471110D01*
X74742858Y-124471110D01*
X75300001Y-124899681D02*
X75300001Y-123899681D01*
X75642858Y-123899681D01*
X75728572Y-123947300D01*
X75771429Y-123994919D01*
X75814286Y-124090157D01*
X75814286Y-124233014D01*
X75771429Y-124328252D01*
X75728572Y-124375871D01*
X75642858Y-124423490D01*
X75300001Y-124423490D01*
X76200001Y-124899681D02*
X76200001Y-123899681D01*
X76800000Y-123899681D02*
X76971429Y-123899681D01*
X77057143Y-123947300D01*
X77142857Y-124042538D01*
X77185715Y-124233014D01*
X77185715Y-124566348D01*
X77142857Y-124756824D01*
X77057143Y-124852062D01*
X76971429Y-124899681D01*
X76800000Y-124899681D01*
X76714286Y-124852062D01*
X76628572Y-124756824D01*
X76585715Y-124566348D01*
X76585715Y-124233014D01*
X76628572Y-124042538D01*
X76714286Y-123947300D01*
X76800000Y-123899681D01*
X77742857Y-123899681D02*
X77828572Y-123899681D01*
X77914286Y-123947300D01*
X77957143Y-123994919D01*
X78000000Y-124090157D01*
X78042857Y-124280633D01*
X78042857Y-124518729D01*
X78000000Y-124709205D01*
X77957143Y-124804443D01*
X77914286Y-124852062D01*
X77828572Y-124899681D01*
X77742857Y-124899681D01*
X77657143Y-124852062D01*
X77614286Y-124804443D01*
X77571429Y-124709205D01*
X77528572Y-124518729D01*
X77528572Y-124280633D01*
X77571429Y-124090157D01*
X77614286Y-123994919D01*
X77657143Y-123947300D01*
X77742857Y-123899681D01*
X76200096Y-121407300D02*
X76104858Y-121359681D01*
X75962001Y-121359681D01*
X75819143Y-121407300D01*
X75723905Y-121502538D01*
X75676286Y-121597776D01*
X75628667Y-121788252D01*
X75628667Y-121931110D01*
X75676286Y-122121586D01*
X75723905Y-122216824D01*
X75819143Y-122312062D01*
X75962001Y-122359681D01*
X76057239Y-122359681D01*
X76200096Y-122312062D01*
X76247715Y-122264443D01*
X76247715Y-121931110D01*
X76057239Y-121931110D01*
X76676286Y-122359681D02*
X76676286Y-121359681D01*
X77247715Y-122359681D01*
X77247715Y-121359681D01*
X77723905Y-122359681D02*
X77723905Y-121359681D01*
X77962000Y-121359681D01*
X78104858Y-121407300D01*
X78200096Y-121502538D01*
X78247715Y-121597776D01*
X78295334Y-121788252D01*
X78295334Y-121931110D01*
X78247715Y-122121586D01*
X78200096Y-122216824D01*
X78104858Y-122312062D01*
X77962000Y-122359681D01*
X77723905Y-122359681D01*
X76200096Y-118867300D02*
X76104858Y-118819681D01*
X75962001Y-118819681D01*
X75819143Y-118867300D01*
X75723905Y-118962538D01*
X75676286Y-119057776D01*
X75628667Y-119248252D01*
X75628667Y-119391110D01*
X75676286Y-119581586D01*
X75723905Y-119676824D01*
X75819143Y-119772062D01*
X75962001Y-119819681D01*
X76057239Y-119819681D01*
X76200096Y-119772062D01*
X76247715Y-119724443D01*
X76247715Y-119391110D01*
X76057239Y-119391110D01*
X76676286Y-119819681D02*
X76676286Y-118819681D01*
X77247715Y-119819681D01*
X77247715Y-118819681D01*
X77723905Y-119819681D02*
X77723905Y-118819681D01*
X77962000Y-118819681D01*
X78104858Y-118867300D01*
X78200096Y-118962538D01*
X78247715Y-119057776D01*
X78295334Y-119248252D01*
X78295334Y-119391110D01*
X78247715Y-119581586D01*
X78200096Y-119676824D01*
X78104858Y-119772062D01*
X77962000Y-119819681D01*
X77723905Y-119819681D01*
D15*
X75020667Y-117025681D02*
X74687334Y-117025681D01*
X74687334Y-116025681D01*
X75654001Y-116930443D02*
X75620667Y-116978062D01*
X75520667Y-117025681D01*
X75454001Y-117025681D01*
X75354001Y-116978062D01*
X75287334Y-116882824D01*
X75254001Y-116787586D01*
X75220667Y-116597110D01*
X75220667Y-116454252D01*
X75254001Y-116263776D01*
X75287334Y-116168538D01*
X75354001Y-116073300D01*
X75454001Y-116025681D01*
X75520667Y-116025681D01*
X75620667Y-116073300D01*
X75654001Y-116120919D01*
X75954001Y-117025681D02*
X75954001Y-116025681D01*
X76120667Y-116025681D01*
X76220667Y-116073300D01*
X76287334Y-116168538D01*
X76320667Y-116263776D01*
X76354001Y-116454252D01*
X76354001Y-116597110D01*
X76320667Y-116787586D01*
X76287334Y-116882824D01*
X76220667Y-116978062D01*
X76120667Y-117025681D01*
X75954001Y-117025681D01*
X76487334Y-117120919D02*
X77020667Y-117120919D01*
X77187334Y-116501871D02*
X77420667Y-116501871D01*
X77520667Y-117025681D02*
X77187334Y-117025681D01*
X77187334Y-116025681D01*
X77520667Y-116025681D01*
X77820667Y-117025681D02*
X77820667Y-116025681D01*
X78220667Y-117025681D01*
X78220667Y-116025681D01*
X73950000Y-114438062D02*
X74050000Y-114485681D01*
X74216667Y-114485681D01*
X74283334Y-114438062D01*
X74316667Y-114390443D01*
X74350000Y-114295205D01*
X74350000Y-114199967D01*
X74316667Y-114104729D01*
X74283334Y-114057110D01*
X74216667Y-114009490D01*
X74083334Y-113961871D01*
X74016667Y-113914252D01*
X73983334Y-113866633D01*
X73950000Y-113771395D01*
X73950000Y-113676157D01*
X73983334Y-113580919D01*
X74016667Y-113533300D01*
X74083334Y-113485681D01*
X74250000Y-113485681D01*
X74350000Y-113533300D01*
X74650001Y-114485681D02*
X74650001Y-113485681D01*
X74916667Y-113485681D01*
X74983334Y-113533300D01*
X75016667Y-113580919D01*
X75050001Y-113676157D01*
X75050001Y-113819014D01*
X75016667Y-113914252D01*
X74983334Y-113961871D01*
X74916667Y-114009490D01*
X74650001Y-114009490D01*
X75350001Y-114485681D02*
X75350001Y-113485681D01*
X75516667Y-114580919D02*
X76050000Y-114580919D01*
X76216667Y-114485681D02*
X76216667Y-113485681D01*
X76450000Y-114199967D01*
X76683333Y-113485681D01*
X76683333Y-114485681D01*
X77150000Y-113485681D02*
X77283333Y-113485681D01*
X77350000Y-113533300D01*
X77416667Y-113628538D01*
X77450000Y-113819014D01*
X77450000Y-114152348D01*
X77416667Y-114342824D01*
X77350000Y-114438062D01*
X77283333Y-114485681D01*
X77150000Y-114485681D01*
X77083333Y-114438062D01*
X77016667Y-114342824D01*
X76983333Y-114152348D01*
X76983333Y-113819014D01*
X77016667Y-113628538D01*
X77083333Y-113533300D01*
X77150000Y-113485681D01*
X77716666Y-114438062D02*
X77816666Y-114485681D01*
X77983333Y-114485681D01*
X78050000Y-114438062D01*
X78083333Y-114390443D01*
X78116666Y-114295205D01*
X78116666Y-114199967D01*
X78083333Y-114104729D01*
X78050000Y-114057110D01*
X77983333Y-114009490D01*
X77850000Y-113961871D01*
X77783333Y-113914252D01*
X77750000Y-113866633D01*
X77716666Y-113771395D01*
X77716666Y-113676157D01*
X77750000Y-113580919D01*
X77783333Y-113533300D01*
X77850000Y-113485681D01*
X78016666Y-113485681D01*
X78116666Y-113533300D01*
X78416667Y-114485681D02*
X78416667Y-113485681D01*
D14*
X76200096Y-111247300D02*
X76104858Y-111199681D01*
X75962001Y-111199681D01*
X75819143Y-111247300D01*
X75723905Y-111342538D01*
X75676286Y-111437776D01*
X75628667Y-111628252D01*
X75628667Y-111771110D01*
X75676286Y-111961586D01*
X75723905Y-112056824D01*
X75819143Y-112152062D01*
X75962001Y-112199681D01*
X76057239Y-112199681D01*
X76200096Y-112152062D01*
X76247715Y-112104443D01*
X76247715Y-111771110D01*
X76057239Y-111771110D01*
X76676286Y-112199681D02*
X76676286Y-111199681D01*
X77247715Y-112199681D01*
X77247715Y-111199681D01*
X77723905Y-112199681D02*
X77723905Y-111199681D01*
X77962000Y-111199681D01*
X78104858Y-111247300D01*
X78200096Y-111342538D01*
X78247715Y-111437776D01*
X78295334Y-111628252D01*
X78295334Y-111771110D01*
X78247715Y-111961586D01*
X78200096Y-112056824D01*
X78104858Y-112152062D01*
X77962000Y-112199681D01*
X77723905Y-112199681D01*
X76200096Y-108707300D02*
X76104858Y-108659681D01*
X75962001Y-108659681D01*
X75819143Y-108707300D01*
X75723905Y-108802538D01*
X75676286Y-108897776D01*
X75628667Y-109088252D01*
X75628667Y-109231110D01*
X75676286Y-109421586D01*
X75723905Y-109516824D01*
X75819143Y-109612062D01*
X75962001Y-109659681D01*
X76057239Y-109659681D01*
X76200096Y-109612062D01*
X76247715Y-109564443D01*
X76247715Y-109231110D01*
X76057239Y-109231110D01*
X76676286Y-109659681D02*
X76676286Y-108659681D01*
X77247715Y-109659681D01*
X77247715Y-108659681D01*
X77723905Y-109659681D02*
X77723905Y-108659681D01*
X77962000Y-108659681D01*
X78104858Y-108707300D01*
X78200096Y-108802538D01*
X78247715Y-108897776D01*
X78295334Y-109088252D01*
X78295334Y-109231110D01*
X78247715Y-109421586D01*
X78200096Y-109516824D01*
X78104858Y-109612062D01*
X77962000Y-109659681D01*
X77723905Y-109659681D01*
D16*
X74550001Y-107074443D02*
X74316667Y-106645871D01*
X74150001Y-107074443D02*
X74150001Y-106174443D01*
X74416667Y-106174443D01*
X74483334Y-106217300D01*
X74516667Y-106260157D01*
X74550001Y-106345871D01*
X74550001Y-106474443D01*
X74516667Y-106560157D01*
X74483334Y-106603014D01*
X74416667Y-106645871D01*
X74150001Y-106645871D01*
X74850001Y-106603014D02*
X75083334Y-106603014D01*
X75183334Y-107074443D02*
X74850001Y-107074443D01*
X74850001Y-106174443D01*
X75183334Y-106174443D01*
X75716667Y-106603014D02*
X75483334Y-106603014D01*
X75483334Y-107074443D02*
X75483334Y-106174443D01*
X75816667Y-106174443D01*
X75916667Y-107160157D02*
X76450000Y-107160157D01*
X77016667Y-106988729D02*
X76983333Y-107031586D01*
X76883333Y-107074443D01*
X76816667Y-107074443D01*
X76716667Y-107031586D01*
X76650000Y-106945871D01*
X76616667Y-106860157D01*
X76583333Y-106688729D01*
X76583333Y-106560157D01*
X76616667Y-106388729D01*
X76650000Y-106303014D01*
X76716667Y-106217300D01*
X76816667Y-106174443D01*
X76883333Y-106174443D01*
X76983333Y-106217300D01*
X77016667Y-106260157D01*
X77650000Y-107074443D02*
X77316667Y-107074443D01*
X77316667Y-106174443D01*
X77883334Y-107074443D02*
X77883334Y-106174443D01*
X78283334Y-107074443D02*
X77983334Y-106560157D01*
X78283334Y-106174443D02*
X77883334Y-106688729D01*
D14*
X76200096Y-103627300D02*
X76104858Y-103579681D01*
X75962001Y-103579681D01*
X75819143Y-103627300D01*
X75723905Y-103722538D01*
X75676286Y-103817776D01*
X75628667Y-104008252D01*
X75628667Y-104151110D01*
X75676286Y-104341586D01*
X75723905Y-104436824D01*
X75819143Y-104532062D01*
X75962001Y-104579681D01*
X76057239Y-104579681D01*
X76200096Y-104532062D01*
X76247715Y-104484443D01*
X76247715Y-104151110D01*
X76057239Y-104151110D01*
X76676286Y-104579681D02*
X76676286Y-103579681D01*
X77247715Y-104579681D01*
X77247715Y-103579681D01*
X77723905Y-104579681D02*
X77723905Y-103579681D01*
X77962000Y-103579681D01*
X78104858Y-103627300D01*
X78200096Y-103722538D01*
X78247715Y-103817776D01*
X78295334Y-104008252D01*
X78295334Y-104151110D01*
X78247715Y-104341586D01*
X78200096Y-104436824D01*
X78104858Y-104532062D01*
X77962000Y-104579681D01*
X77723905Y-104579681D01*
X76200096Y-101087300D02*
X76104858Y-101039681D01*
X75962001Y-101039681D01*
X75819143Y-101087300D01*
X75723905Y-101182538D01*
X75676286Y-101277776D01*
X75628667Y-101468252D01*
X75628667Y-101611110D01*
X75676286Y-101801586D01*
X75723905Y-101896824D01*
X75819143Y-101992062D01*
X75962001Y-102039681D01*
X76057239Y-102039681D01*
X76200096Y-101992062D01*
X76247715Y-101944443D01*
X76247715Y-101611110D01*
X76057239Y-101611110D01*
X76676286Y-102039681D02*
X76676286Y-101039681D01*
X77247715Y-102039681D01*
X77247715Y-101039681D01*
X77723905Y-102039681D02*
X77723905Y-101039681D01*
X77962000Y-101039681D01*
X78104858Y-101087300D01*
X78200096Y-101182538D01*
X78247715Y-101277776D01*
X78295334Y-101468252D01*
X78295334Y-101611110D01*
X78247715Y-101801586D01*
X78200096Y-101896824D01*
X78104858Y-101992062D01*
X77962000Y-102039681D01*
X77723905Y-102039681D01*
X76200096Y-96007300D02*
X76104858Y-95959681D01*
X75962001Y-95959681D01*
X75819143Y-96007300D01*
X75723905Y-96102538D01*
X75676286Y-96197776D01*
X75628667Y-96388252D01*
X75628667Y-96531110D01*
X75676286Y-96721586D01*
X75723905Y-96816824D01*
X75819143Y-96912062D01*
X75962001Y-96959681D01*
X76057239Y-96959681D01*
X76200096Y-96912062D01*
X76247715Y-96864443D01*
X76247715Y-96531110D01*
X76057239Y-96531110D01*
X76676286Y-96959681D02*
X76676286Y-95959681D01*
X77247715Y-96959681D01*
X77247715Y-95959681D01*
X77723905Y-96959681D02*
X77723905Y-95959681D01*
X77962000Y-95959681D01*
X78104858Y-96007300D01*
X78200096Y-96102538D01*
X78247715Y-96197776D01*
X78295334Y-96388252D01*
X78295334Y-96531110D01*
X78247715Y-96721586D01*
X78200096Y-96816824D01*
X78104858Y-96912062D01*
X77962000Y-96959681D01*
X77723905Y-96959681D01*
X75311143Y-99499681D02*
X74977809Y-99023490D01*
X74739714Y-99499681D02*
X74739714Y-98499681D01*
X75120667Y-98499681D01*
X75215905Y-98547300D01*
X75263524Y-98594919D01*
X75311143Y-98690157D01*
X75311143Y-98833014D01*
X75263524Y-98928252D01*
X75215905Y-98975871D01*
X75120667Y-99023490D01*
X74739714Y-99023490D01*
X75644476Y-98499681D02*
X76311143Y-99499681D01*
X76311143Y-98499681D02*
X75644476Y-99499681D01*
X76692095Y-99499681D02*
X76692095Y-98499681D01*
X76930190Y-98499681D01*
X77073048Y-98547300D01*
X77168286Y-98642538D01*
X77215905Y-98737776D01*
X77263524Y-98928252D01*
X77263524Y-99071110D01*
X77215905Y-99261586D01*
X77168286Y-99356824D01*
X77073048Y-99452062D01*
X76930190Y-99499681D01*
X76692095Y-99499681D01*
X77882571Y-98499681D02*
X77977810Y-98499681D01*
X78073048Y-98547300D01*
X78120667Y-98594919D01*
X78168286Y-98690157D01*
X78215905Y-98880633D01*
X78215905Y-99118729D01*
X78168286Y-99309205D01*
X78120667Y-99404443D01*
X78073048Y-99452062D01*
X77977810Y-99499681D01*
X77882571Y-99499681D01*
X77787333Y-99452062D01*
X77739714Y-99404443D01*
X77692095Y-99309205D01*
X77644476Y-99118729D01*
X77644476Y-98880633D01*
X77692095Y-98690157D01*
X77739714Y-98594919D01*
X77787333Y-98547300D01*
X77882571Y-98499681D01*
X76200096Y-93467300D02*
X76104858Y-93419681D01*
X75962001Y-93419681D01*
X75819143Y-93467300D01*
X75723905Y-93562538D01*
X75676286Y-93657776D01*
X75628667Y-93848252D01*
X75628667Y-93991110D01*
X75676286Y-94181586D01*
X75723905Y-94276824D01*
X75819143Y-94372062D01*
X75962001Y-94419681D01*
X76057239Y-94419681D01*
X76200096Y-94372062D01*
X76247715Y-94324443D01*
X76247715Y-93991110D01*
X76057239Y-93991110D01*
X76676286Y-94419681D02*
X76676286Y-93419681D01*
X77247715Y-94419681D01*
X77247715Y-93419681D01*
X77723905Y-94419681D02*
X77723905Y-93419681D01*
X77962000Y-93419681D01*
X78104858Y-93467300D01*
X78200096Y-93562538D01*
X78247715Y-93657776D01*
X78295334Y-93848252D01*
X78295334Y-93991110D01*
X78247715Y-94181586D01*
X78200096Y-94276824D01*
X78104858Y-94372062D01*
X77962000Y-94419681D01*
X77723905Y-94419681D01*
X76200096Y-90927300D02*
X76104858Y-90879681D01*
X75962001Y-90879681D01*
X75819143Y-90927300D01*
X75723905Y-91022538D01*
X75676286Y-91117776D01*
X75628667Y-91308252D01*
X75628667Y-91451110D01*
X75676286Y-91641586D01*
X75723905Y-91736824D01*
X75819143Y-91832062D01*
X75962001Y-91879681D01*
X76057239Y-91879681D01*
X76200096Y-91832062D01*
X76247715Y-91784443D01*
X76247715Y-91451110D01*
X76057239Y-91451110D01*
X76676286Y-91879681D02*
X76676286Y-90879681D01*
X77247715Y-91879681D01*
X77247715Y-90879681D01*
X77723905Y-91879681D02*
X77723905Y-90879681D01*
X77962000Y-90879681D01*
X78104858Y-90927300D01*
X78200096Y-91022538D01*
X78247715Y-91117776D01*
X78295334Y-91308252D01*
X78295334Y-91451110D01*
X78247715Y-91641586D01*
X78200096Y-91736824D01*
X78104858Y-91832062D01*
X77962000Y-91879681D01*
X77723905Y-91879681D01*
X74200000Y-88958729D02*
X74961905Y-88958729D01*
X74580953Y-89339681D02*
X74580953Y-88577776D01*
X75342857Y-88339681D02*
X75961905Y-88339681D01*
X75628571Y-88720633D01*
X75771429Y-88720633D01*
X75866667Y-88768252D01*
X75914286Y-88815871D01*
X75961905Y-88911110D01*
X75961905Y-89149205D01*
X75914286Y-89244443D01*
X75866667Y-89292062D01*
X75771429Y-89339681D01*
X75485714Y-89339681D01*
X75390476Y-89292062D01*
X75342857Y-89244443D01*
X76390476Y-89244443D02*
X76438095Y-89292062D01*
X76390476Y-89339681D01*
X76342857Y-89292062D01*
X76390476Y-89244443D01*
X76390476Y-89339681D01*
X76771428Y-88339681D02*
X77390476Y-88339681D01*
X77057142Y-88720633D01*
X77200000Y-88720633D01*
X77295238Y-88768252D01*
X77342857Y-88815871D01*
X77390476Y-88911110D01*
X77390476Y-89149205D01*
X77342857Y-89244443D01*
X77295238Y-89292062D01*
X77200000Y-89339681D01*
X76914285Y-89339681D01*
X76819047Y-89292062D01*
X76771428Y-89244443D01*
X77676190Y-88339681D02*
X78009523Y-89339681D01*
X78342857Y-88339681D01*
X155956096Y-136647300D02*
X155860858Y-136599681D01*
X155718001Y-136599681D01*
X155575143Y-136647300D01*
X155479905Y-136742538D01*
X155432286Y-136837776D01*
X155384667Y-137028252D01*
X155384667Y-137171110D01*
X155432286Y-137361586D01*
X155479905Y-137456824D01*
X155575143Y-137552062D01*
X155718001Y-137599681D01*
X155813239Y-137599681D01*
X155956096Y-137552062D01*
X156003715Y-137504443D01*
X156003715Y-137171110D01*
X155813239Y-137171110D01*
X156432286Y-137599681D02*
X156432286Y-136599681D01*
X157003715Y-137599681D01*
X157003715Y-136599681D01*
X157479905Y-137599681D02*
X157479905Y-136599681D01*
X157718000Y-136599681D01*
X157860858Y-136647300D01*
X157956096Y-136742538D01*
X158003715Y-136837776D01*
X158051334Y-137028252D01*
X158051334Y-137171110D01*
X158003715Y-137361586D01*
X157956096Y-137456824D01*
X157860858Y-137552062D01*
X157718000Y-137599681D01*
X157479905Y-137599681D01*
X155956096Y-134107300D02*
X155860858Y-134059681D01*
X155718001Y-134059681D01*
X155575143Y-134107300D01*
X155479905Y-134202538D01*
X155432286Y-134297776D01*
X155384667Y-134488252D01*
X155384667Y-134631110D01*
X155432286Y-134821586D01*
X155479905Y-134916824D01*
X155575143Y-135012062D01*
X155718001Y-135059681D01*
X155813239Y-135059681D01*
X155956096Y-135012062D01*
X156003715Y-134964443D01*
X156003715Y-134631110D01*
X155813239Y-134631110D01*
X156432286Y-135059681D02*
X156432286Y-134059681D01*
X157003715Y-135059681D01*
X157003715Y-134059681D01*
X157479905Y-135059681D02*
X157479905Y-134059681D01*
X157718000Y-134059681D01*
X157860858Y-134107300D01*
X157956096Y-134202538D01*
X158003715Y-134297776D01*
X158051334Y-134488252D01*
X158051334Y-134631110D01*
X158003715Y-134821586D01*
X157956096Y-134916824D01*
X157860858Y-135012062D01*
X157718000Y-135059681D01*
X157479905Y-135059681D01*
D17*
X155303714Y-131574443D02*
X155818000Y-131574443D01*
X155560857Y-132474443D02*
X155560857Y-131574443D01*
X155903714Y-132560157D02*
X156589428Y-132560157D01*
X157103714Y-132003014D02*
X156803714Y-132003014D01*
X156803714Y-132474443D02*
X156803714Y-131574443D01*
X157232285Y-131574443D01*
X158046571Y-132474443D02*
X157532286Y-132474443D01*
X157789428Y-132474443D02*
X157789428Y-131574443D01*
X157703714Y-131703014D01*
X157618000Y-131788729D01*
X157532286Y-131831586D01*
X155239429Y-129034443D02*
X155753715Y-129034443D01*
X155496572Y-129934443D02*
X155496572Y-129034443D01*
X155839429Y-130020157D02*
X156525143Y-130020157D01*
X157253714Y-129848729D02*
X157210857Y-129891586D01*
X157082286Y-129934443D01*
X156996572Y-129934443D01*
X156868000Y-129891586D01*
X156782286Y-129805871D01*
X156739429Y-129720157D01*
X156696572Y-129548729D01*
X156696572Y-129420157D01*
X156739429Y-129248729D01*
X156782286Y-129163014D01*
X156868000Y-129077300D01*
X156996572Y-129034443D01*
X157082286Y-129034443D01*
X157210857Y-129077300D01*
X157253714Y-129120157D01*
X157596572Y-129120157D02*
X157639429Y-129077300D01*
X157725143Y-129034443D01*
X157939429Y-129034443D01*
X158025143Y-129077300D01*
X158068000Y-129120157D01*
X158110857Y-129205871D01*
X158110857Y-129291586D01*
X158068000Y-129420157D01*
X157553714Y-129934443D01*
X158110857Y-129934443D01*
D14*
X155956096Y-126487300D02*
X155860858Y-126439681D01*
X155718001Y-126439681D01*
X155575143Y-126487300D01*
X155479905Y-126582538D01*
X155432286Y-126677776D01*
X155384667Y-126868252D01*
X155384667Y-127011110D01*
X155432286Y-127201586D01*
X155479905Y-127296824D01*
X155575143Y-127392062D01*
X155718001Y-127439681D01*
X155813239Y-127439681D01*
X155956096Y-127392062D01*
X156003715Y-127344443D01*
X156003715Y-127011110D01*
X155813239Y-127011110D01*
X156432286Y-127439681D02*
X156432286Y-126439681D01*
X157003715Y-127439681D01*
X157003715Y-126439681D01*
X157479905Y-127439681D02*
X157479905Y-126439681D01*
X157718000Y-126439681D01*
X157860858Y-126487300D01*
X157956096Y-126582538D01*
X158003715Y-126677776D01*
X158051334Y-126868252D01*
X158051334Y-127011110D01*
X158003715Y-127201586D01*
X157956096Y-127296824D01*
X157860858Y-127392062D01*
X157718000Y-127439681D01*
X157479905Y-127439681D01*
X155702096Y-123947300D02*
X155606858Y-123899681D01*
X155464001Y-123899681D01*
X155321143Y-123947300D01*
X155225905Y-124042538D01*
X155178286Y-124137776D01*
X155130667Y-124328252D01*
X155130667Y-124471110D01*
X155178286Y-124661586D01*
X155225905Y-124756824D01*
X155321143Y-124852062D01*
X155464001Y-124899681D01*
X155559239Y-124899681D01*
X155702096Y-124852062D01*
X155749715Y-124804443D01*
X155749715Y-124471110D01*
X155559239Y-124471110D01*
X156178286Y-124899681D02*
X156178286Y-123899681D01*
X156749715Y-124899681D01*
X156749715Y-123899681D01*
X157225905Y-124899681D02*
X157225905Y-123899681D01*
X157464000Y-123899681D01*
X157606858Y-123947300D01*
X157702096Y-124042538D01*
X157749715Y-124137776D01*
X157797334Y-124328252D01*
X157797334Y-124471110D01*
X157749715Y-124661586D01*
X157702096Y-124756824D01*
X157606858Y-124852062D01*
X157464000Y-124899681D01*
X157225905Y-124899681D01*
X155956096Y-121407300D02*
X155860858Y-121359681D01*
X155718001Y-121359681D01*
X155575143Y-121407300D01*
X155479905Y-121502538D01*
X155432286Y-121597776D01*
X155384667Y-121788252D01*
X155384667Y-121931110D01*
X155432286Y-122121586D01*
X155479905Y-122216824D01*
X155575143Y-122312062D01*
X155718001Y-122359681D01*
X155813239Y-122359681D01*
X155956096Y-122312062D01*
X156003715Y-122264443D01*
X156003715Y-121931110D01*
X155813239Y-121931110D01*
X156432286Y-122359681D02*
X156432286Y-121359681D01*
X157003715Y-122359681D01*
X157003715Y-121359681D01*
X157479905Y-122359681D02*
X157479905Y-121359681D01*
X157718000Y-121359681D01*
X157860858Y-121407300D01*
X157956096Y-121502538D01*
X158003715Y-121597776D01*
X158051334Y-121788252D01*
X158051334Y-121931110D01*
X158003715Y-122121586D01*
X157956096Y-122216824D01*
X157860858Y-122312062D01*
X157718000Y-122359681D01*
X157479905Y-122359681D01*
X155956096Y-118867300D02*
X155860858Y-118819681D01*
X155718001Y-118819681D01*
X155575143Y-118867300D01*
X155479905Y-118962538D01*
X155432286Y-119057776D01*
X155384667Y-119248252D01*
X155384667Y-119391110D01*
X155432286Y-119581586D01*
X155479905Y-119676824D01*
X155575143Y-119772062D01*
X155718001Y-119819681D01*
X155813239Y-119819681D01*
X155956096Y-119772062D01*
X156003715Y-119724443D01*
X156003715Y-119391110D01*
X155813239Y-119391110D01*
X156432286Y-119819681D02*
X156432286Y-118819681D01*
X157003715Y-119819681D01*
X157003715Y-118819681D01*
X157479905Y-119819681D02*
X157479905Y-118819681D01*
X157718000Y-118819681D01*
X157860858Y-118867300D01*
X157956096Y-118962538D01*
X158003715Y-119057776D01*
X158051334Y-119248252D01*
X158051334Y-119391110D01*
X158003715Y-119581586D01*
X157956096Y-119676824D01*
X157860858Y-119772062D01*
X157718000Y-119819681D01*
X157479905Y-119819681D01*
X155956096Y-116327300D02*
X155860858Y-116279681D01*
X155718001Y-116279681D01*
X155575143Y-116327300D01*
X155479905Y-116422538D01*
X155432286Y-116517776D01*
X155384667Y-116708252D01*
X155384667Y-116851110D01*
X155432286Y-117041586D01*
X155479905Y-117136824D01*
X155575143Y-117232062D01*
X155718001Y-117279681D01*
X155813239Y-117279681D01*
X155956096Y-117232062D01*
X156003715Y-117184443D01*
X156003715Y-116851110D01*
X155813239Y-116851110D01*
X156432286Y-117279681D02*
X156432286Y-116279681D01*
X157003715Y-117279681D01*
X157003715Y-116279681D01*
X157479905Y-117279681D02*
X157479905Y-116279681D01*
X157718000Y-116279681D01*
X157860858Y-116327300D01*
X157956096Y-116422538D01*
X158003715Y-116517776D01*
X158051334Y-116708252D01*
X158051334Y-116851110D01*
X158003715Y-117041586D01*
X157956096Y-117136824D01*
X157860858Y-117232062D01*
X157718000Y-117279681D01*
X157479905Y-117279681D01*
X155956096Y-113787300D02*
X155860858Y-113739681D01*
X155718001Y-113739681D01*
X155575143Y-113787300D01*
X155479905Y-113882538D01*
X155432286Y-113977776D01*
X155384667Y-114168252D01*
X155384667Y-114311110D01*
X155432286Y-114501586D01*
X155479905Y-114596824D01*
X155575143Y-114692062D01*
X155718001Y-114739681D01*
X155813239Y-114739681D01*
X155956096Y-114692062D01*
X156003715Y-114644443D01*
X156003715Y-114311110D01*
X155813239Y-114311110D01*
X156432286Y-114739681D02*
X156432286Y-113739681D01*
X157003715Y-114739681D01*
X157003715Y-113739681D01*
X157479905Y-114739681D02*
X157479905Y-113739681D01*
X157718000Y-113739681D01*
X157860858Y-113787300D01*
X157956096Y-113882538D01*
X158003715Y-113977776D01*
X158051334Y-114168252D01*
X158051334Y-114311110D01*
X158003715Y-114501586D01*
X157956096Y-114596824D01*
X157860858Y-114692062D01*
X157718000Y-114739681D01*
X157479905Y-114739681D01*
X155956096Y-111247300D02*
X155860858Y-111199681D01*
X155718001Y-111199681D01*
X155575143Y-111247300D01*
X155479905Y-111342538D01*
X155432286Y-111437776D01*
X155384667Y-111628252D01*
X155384667Y-111771110D01*
X155432286Y-111961586D01*
X155479905Y-112056824D01*
X155575143Y-112152062D01*
X155718001Y-112199681D01*
X155813239Y-112199681D01*
X155956096Y-112152062D01*
X156003715Y-112104443D01*
X156003715Y-111771110D01*
X155813239Y-111771110D01*
X156432286Y-112199681D02*
X156432286Y-111199681D01*
X157003715Y-112199681D01*
X157003715Y-111199681D01*
X157479905Y-112199681D02*
X157479905Y-111199681D01*
X157718000Y-111199681D01*
X157860858Y-111247300D01*
X157956096Y-111342538D01*
X158003715Y-111437776D01*
X158051334Y-111628252D01*
X158051334Y-111771110D01*
X158003715Y-111961586D01*
X157956096Y-112056824D01*
X157860858Y-112152062D01*
X157718000Y-112199681D01*
X157479905Y-112199681D01*
D18*
X155813239Y-108827300D02*
X155740858Y-108791110D01*
X155632286Y-108791110D01*
X155523715Y-108827300D01*
X155451334Y-108899681D01*
X155415143Y-108972062D01*
X155378953Y-109116824D01*
X155378953Y-109225395D01*
X155415143Y-109370157D01*
X155451334Y-109442538D01*
X155523715Y-109514919D01*
X155632286Y-109551110D01*
X155704667Y-109551110D01*
X155813239Y-109514919D01*
X155849429Y-109478729D01*
X155849429Y-109225395D01*
X155704667Y-109225395D01*
X156175143Y-109551110D02*
X156175143Y-108791110D01*
X156609429Y-109551110D01*
X156609429Y-108791110D01*
X156971333Y-109551110D02*
X156971333Y-108791110D01*
X157152286Y-108791110D01*
X157260857Y-108827300D01*
X157333238Y-108899681D01*
X157369429Y-108972062D01*
X157405619Y-109116824D01*
X157405619Y-109225395D01*
X157369429Y-109370157D01*
X157333238Y-109442538D01*
X157260857Y-109514919D01*
X157152286Y-109551110D01*
X156971333Y-109551110D01*
X157695143Y-109333967D02*
X158057048Y-109333967D01*
X157622762Y-109551110D02*
X157876095Y-108791110D01*
X158129429Y-109551110D01*
X155813239Y-106287300D02*
X155740858Y-106251110D01*
X155632286Y-106251110D01*
X155523715Y-106287300D01*
X155451334Y-106359681D01*
X155415143Y-106432062D01*
X155378953Y-106576824D01*
X155378953Y-106685395D01*
X155415143Y-106830157D01*
X155451334Y-106902538D01*
X155523715Y-106974919D01*
X155632286Y-107011110D01*
X155704667Y-107011110D01*
X155813239Y-106974919D01*
X155849429Y-106938729D01*
X155849429Y-106685395D01*
X155704667Y-106685395D01*
X156175143Y-107011110D02*
X156175143Y-106251110D01*
X156609429Y-107011110D01*
X156609429Y-106251110D01*
X156971333Y-107011110D02*
X156971333Y-106251110D01*
X157152286Y-106251110D01*
X157260857Y-106287300D01*
X157333238Y-106359681D01*
X157369429Y-106432062D01*
X157405619Y-106576824D01*
X157405619Y-106685395D01*
X157369429Y-106830157D01*
X157333238Y-106902538D01*
X157260857Y-106974919D01*
X157152286Y-107011110D01*
X156971333Y-107011110D01*
X157695143Y-106793967D02*
X158057048Y-106793967D01*
X157622762Y-107011110D02*
X157876095Y-106251110D01*
X158129429Y-107011110D01*
X155813239Y-103747300D02*
X155740858Y-103711110D01*
X155632286Y-103711110D01*
X155523715Y-103747300D01*
X155451334Y-103819681D01*
X155415143Y-103892062D01*
X155378953Y-104036824D01*
X155378953Y-104145395D01*
X155415143Y-104290157D01*
X155451334Y-104362538D01*
X155523715Y-104434919D01*
X155632286Y-104471110D01*
X155704667Y-104471110D01*
X155813239Y-104434919D01*
X155849429Y-104398729D01*
X155849429Y-104145395D01*
X155704667Y-104145395D01*
X156175143Y-104471110D02*
X156175143Y-103711110D01*
X156609429Y-104471110D01*
X156609429Y-103711110D01*
X156971333Y-104471110D02*
X156971333Y-103711110D01*
X157152286Y-103711110D01*
X157260857Y-103747300D01*
X157333238Y-103819681D01*
X157369429Y-103892062D01*
X157405619Y-104036824D01*
X157405619Y-104145395D01*
X157369429Y-104290157D01*
X157333238Y-104362538D01*
X157260857Y-104434919D01*
X157152286Y-104471110D01*
X156971333Y-104471110D01*
X157695143Y-104253967D02*
X158057048Y-104253967D01*
X157622762Y-104471110D02*
X157876095Y-103711110D01*
X158129429Y-104471110D01*
X155813239Y-101207300D02*
X155740858Y-101171110D01*
X155632286Y-101171110D01*
X155523715Y-101207300D01*
X155451334Y-101279681D01*
X155415143Y-101352062D01*
X155378953Y-101496824D01*
X155378953Y-101605395D01*
X155415143Y-101750157D01*
X155451334Y-101822538D01*
X155523715Y-101894919D01*
X155632286Y-101931110D01*
X155704667Y-101931110D01*
X155813239Y-101894919D01*
X155849429Y-101858729D01*
X155849429Y-101605395D01*
X155704667Y-101605395D01*
X156175143Y-101931110D02*
X156175143Y-101171110D01*
X156609429Y-101931110D01*
X156609429Y-101171110D01*
X156971333Y-101931110D02*
X156971333Y-101171110D01*
X157152286Y-101171110D01*
X157260857Y-101207300D01*
X157333238Y-101279681D01*
X157369429Y-101352062D01*
X157405619Y-101496824D01*
X157405619Y-101605395D01*
X157369429Y-101750157D01*
X157333238Y-101822538D01*
X157260857Y-101894919D01*
X157152286Y-101931110D01*
X156971333Y-101931110D01*
X157695143Y-101713967D02*
X158057048Y-101713967D01*
X157622762Y-101931110D02*
X157876095Y-101171110D01*
X158129429Y-101931110D01*
X155813239Y-98667300D02*
X155740858Y-98631110D01*
X155632286Y-98631110D01*
X155523715Y-98667300D01*
X155451334Y-98739681D01*
X155415143Y-98812062D01*
X155378953Y-98956824D01*
X155378953Y-99065395D01*
X155415143Y-99210157D01*
X155451334Y-99282538D01*
X155523715Y-99354919D01*
X155632286Y-99391110D01*
X155704667Y-99391110D01*
X155813239Y-99354919D01*
X155849429Y-99318729D01*
X155849429Y-99065395D01*
X155704667Y-99065395D01*
X156175143Y-99391110D02*
X156175143Y-98631110D01*
X156609429Y-99391110D01*
X156609429Y-98631110D01*
X156971333Y-99391110D02*
X156971333Y-98631110D01*
X157152286Y-98631110D01*
X157260857Y-98667300D01*
X157333238Y-98739681D01*
X157369429Y-98812062D01*
X157405619Y-98956824D01*
X157405619Y-99065395D01*
X157369429Y-99210157D01*
X157333238Y-99282538D01*
X157260857Y-99354919D01*
X157152286Y-99391110D01*
X156971333Y-99391110D01*
X157695143Y-99173967D02*
X158057048Y-99173967D01*
X157622762Y-99391110D02*
X157876095Y-98631110D01*
X158129429Y-99391110D01*
X155813239Y-96127300D02*
X155740858Y-96091110D01*
X155632286Y-96091110D01*
X155523715Y-96127300D01*
X155451334Y-96199681D01*
X155415143Y-96272062D01*
X155378953Y-96416824D01*
X155378953Y-96525395D01*
X155415143Y-96670157D01*
X155451334Y-96742538D01*
X155523715Y-96814919D01*
X155632286Y-96851110D01*
X155704667Y-96851110D01*
X155813239Y-96814919D01*
X155849429Y-96778729D01*
X155849429Y-96525395D01*
X155704667Y-96525395D01*
X156175143Y-96851110D02*
X156175143Y-96091110D01*
X156609429Y-96851110D01*
X156609429Y-96091110D01*
X156971333Y-96851110D02*
X156971333Y-96091110D01*
X157152286Y-96091110D01*
X157260857Y-96127300D01*
X157333238Y-96199681D01*
X157369429Y-96272062D01*
X157405619Y-96416824D01*
X157405619Y-96525395D01*
X157369429Y-96670157D01*
X157333238Y-96742538D01*
X157260857Y-96814919D01*
X157152286Y-96851110D01*
X156971333Y-96851110D01*
X157695143Y-96633967D02*
X158057048Y-96633967D01*
X157622762Y-96851110D02*
X157876095Y-96091110D01*
X158129429Y-96851110D01*
D19*
X155301334Y-93673681D02*
X155420381Y-94673681D01*
X155515619Y-93959395D01*
X155610857Y-94673681D01*
X155729905Y-93673681D01*
X155896572Y-94387967D02*
X156134667Y-94387967D01*
X155848953Y-94673681D02*
X156015620Y-93673681D01*
X156182286Y-94673681D01*
X156348953Y-94673681D02*
X156348953Y-93673681D01*
X156634667Y-94673681D02*
X156420381Y-94102252D01*
X156634667Y-93673681D02*
X156348953Y-94245110D01*
X156848953Y-94149871D02*
X157015619Y-94149871D01*
X157087048Y-94673681D02*
X156848953Y-94673681D01*
X156848953Y-93673681D01*
X157087048Y-93673681D01*
X157301334Y-93673681D02*
X157301334Y-94483205D01*
X157325143Y-94578443D01*
X157348953Y-94626062D01*
X157396572Y-94673681D01*
X157491810Y-94673681D01*
X157539429Y-94626062D01*
X157563238Y-94578443D01*
X157587048Y-94483205D01*
X157587048Y-93673681D01*
X157825144Y-94673681D02*
X157825144Y-93673681D01*
X158015620Y-93673681D01*
X158063239Y-93721300D01*
X158087048Y-93768919D01*
X158110858Y-93864157D01*
X158110858Y-94007014D01*
X158087048Y-94102252D01*
X158063239Y-94149871D01*
X158015620Y-94197490D01*
X157825144Y-94197490D01*
D14*
X155956096Y-91435300D02*
X155860858Y-91387681D01*
X155718001Y-91387681D01*
X155575143Y-91435300D01*
X155479905Y-91530538D01*
X155432286Y-91625776D01*
X155384667Y-91816252D01*
X155384667Y-91959110D01*
X155432286Y-92149586D01*
X155479905Y-92244824D01*
X155575143Y-92340062D01*
X155718001Y-92387681D01*
X155813239Y-92387681D01*
X155956096Y-92340062D01*
X156003715Y-92292443D01*
X156003715Y-91959110D01*
X155813239Y-91959110D01*
X156432286Y-92387681D02*
X156432286Y-91387681D01*
X157003715Y-92387681D01*
X157003715Y-91387681D01*
X157479905Y-92387681D02*
X157479905Y-91387681D01*
X157718000Y-91387681D01*
X157860858Y-91435300D01*
X157956096Y-91530538D01*
X158003715Y-91625776D01*
X158051334Y-91816252D01*
X158051334Y-91959110D01*
X158003715Y-92149586D01*
X157956096Y-92244824D01*
X157860858Y-92340062D01*
X157718000Y-92387681D01*
X157479905Y-92387681D01*
X155432286Y-88958729D02*
X156194191Y-88958729D01*
X155813239Y-89339681D02*
X155813239Y-88577776D01*
X157146572Y-88339681D02*
X156670381Y-88339681D01*
X156622762Y-88815871D01*
X156670381Y-88768252D01*
X156765619Y-88720633D01*
X157003715Y-88720633D01*
X157098953Y-88768252D01*
X157146572Y-88815871D01*
X157194191Y-88911110D01*
X157194191Y-89149205D01*
X157146572Y-89244443D01*
X157098953Y-89292062D01*
X157003715Y-89339681D01*
X156765619Y-89339681D01*
X156670381Y-89292062D01*
X156622762Y-89244443D01*
X157479905Y-88339681D02*
X157813238Y-89339681D01*
X158146572Y-88339681D01*
X144494571Y-136599681D02*
X145066000Y-136599681D01*
X144780285Y-137599681D02*
X144780285Y-136599681D01*
X145161238Y-137694919D02*
X145923143Y-137694919D01*
X146732667Y-137504443D02*
X146685048Y-137552062D01*
X146542191Y-137599681D01*
X146446953Y-137599681D01*
X146304095Y-137552062D01*
X146208857Y-137456824D01*
X146161238Y-137361586D01*
X146113619Y-137171110D01*
X146113619Y-137028252D01*
X146161238Y-136837776D01*
X146208857Y-136742538D01*
X146304095Y-136647300D01*
X146446953Y-136599681D01*
X146542191Y-136599681D01*
X146685048Y-136647300D01*
X146732667Y-136694919D01*
X147351714Y-136599681D02*
X147542191Y-136599681D01*
X147637429Y-136647300D01*
X147732667Y-136742538D01*
X147780286Y-136933014D01*
X147780286Y-137266348D01*
X147732667Y-137456824D01*
X147637429Y-137552062D01*
X147542191Y-137599681D01*
X147351714Y-137599681D01*
X147256476Y-137552062D01*
X147161238Y-137456824D01*
X147113619Y-137266348D01*
X147113619Y-136933014D01*
X147161238Y-136742538D01*
X147256476Y-136647300D01*
X147351714Y-136599681D01*
X148685048Y-137599681D02*
X148208857Y-137599681D01*
X148208857Y-136599681D01*
X149208857Y-136599681D02*
X149304096Y-136599681D01*
X149399334Y-136647300D01*
X149446953Y-136694919D01*
X149494572Y-136790157D01*
X149542191Y-136980633D01*
X149542191Y-137218729D01*
X149494572Y-137409205D01*
X149446953Y-137504443D01*
X149399334Y-137552062D01*
X149304096Y-137599681D01*
X149208857Y-137599681D01*
X149113619Y-137552062D01*
X149066000Y-137504443D01*
X149018381Y-137409205D01*
X148970762Y-137218729D01*
X148970762Y-136980633D01*
X149018381Y-136790157D01*
X149066000Y-136694919D01*
X149113619Y-136647300D01*
X149208857Y-136599681D01*
X145105714Y-134059681D02*
X145677143Y-134059681D01*
X145391428Y-135059681D02*
X145391428Y-134059681D01*
X145772381Y-135154919D02*
X146534286Y-135154919D01*
X147105715Y-134535871D02*
X146772381Y-134535871D01*
X146772381Y-135059681D02*
X146772381Y-134059681D01*
X147248572Y-134059681D01*
X147629524Y-135059681D02*
X147629524Y-134059681D01*
X148581905Y-135059681D02*
X148105714Y-135059681D01*
X148105714Y-134059681D01*
X148867619Y-134154919D02*
X148915238Y-134107300D01*
X149010476Y-134059681D01*
X149248572Y-134059681D01*
X149343810Y-134107300D01*
X149391429Y-134154919D01*
X149439048Y-134250157D01*
X149439048Y-134345395D01*
X149391429Y-134488252D01*
X148820000Y-135059681D01*
X149439048Y-135059681D01*
X145105714Y-131519681D02*
X145677143Y-131519681D01*
X145391428Y-132519681D02*
X145391428Y-131519681D01*
X145772381Y-132614919D02*
X146534286Y-132614919D01*
X147105715Y-131995871D02*
X146772381Y-131995871D01*
X146772381Y-132519681D02*
X146772381Y-131519681D01*
X147248572Y-131519681D01*
X147629524Y-132519681D02*
X147629524Y-131519681D01*
X148581905Y-132519681D02*
X148105714Y-132519681D01*
X148105714Y-131519681D01*
X148820000Y-131519681D02*
X149439048Y-131519681D01*
X149105714Y-131900633D01*
X149248572Y-131900633D01*
X149343810Y-131948252D01*
X149391429Y-131995871D01*
X149439048Y-132091110D01*
X149439048Y-132329205D01*
X149391429Y-132424443D01*
X149343810Y-132472062D01*
X149248572Y-132519681D01*
X148962857Y-132519681D01*
X148867619Y-132472062D01*
X148820000Y-132424443D01*
X145105714Y-128979681D02*
X145677143Y-128979681D01*
X145391428Y-129979681D02*
X145391428Y-128979681D01*
X145772381Y-130074919D02*
X146534286Y-130074919D01*
X147105715Y-129455871D02*
X146772381Y-129455871D01*
X146772381Y-129979681D02*
X146772381Y-128979681D01*
X147248572Y-128979681D01*
X147629524Y-129979681D02*
X147629524Y-128979681D01*
X148581905Y-129979681D02*
X148105714Y-129979681D01*
X148105714Y-128979681D01*
X149105714Y-128979681D02*
X149200953Y-128979681D01*
X149296191Y-129027300D01*
X149343810Y-129074919D01*
X149391429Y-129170157D01*
X149439048Y-129360633D01*
X149439048Y-129598729D01*
X149391429Y-129789205D01*
X149343810Y-129884443D01*
X149296191Y-129932062D01*
X149200953Y-129979681D01*
X149105714Y-129979681D01*
X149010476Y-129932062D01*
X148962857Y-129884443D01*
X148915238Y-129789205D01*
X148867619Y-129598729D01*
X148867619Y-129360633D01*
X148915238Y-129170157D01*
X148962857Y-129074919D01*
X149010476Y-129027300D01*
X149105714Y-128979681D01*
X144494571Y-126439681D02*
X145066000Y-126439681D01*
X144780285Y-127439681D02*
X144780285Y-126439681D01*
X145161238Y-127534919D02*
X145923143Y-127534919D01*
X146732667Y-127344443D02*
X146685048Y-127392062D01*
X146542191Y-127439681D01*
X146446953Y-127439681D01*
X146304095Y-127392062D01*
X146208857Y-127296824D01*
X146161238Y-127201586D01*
X146113619Y-127011110D01*
X146113619Y-126868252D01*
X146161238Y-126677776D01*
X146208857Y-126582538D01*
X146304095Y-126487300D01*
X146446953Y-126439681D01*
X146542191Y-126439681D01*
X146685048Y-126487300D01*
X146732667Y-126534919D01*
X147351714Y-126439681D02*
X147542191Y-126439681D01*
X147637429Y-126487300D01*
X147732667Y-126582538D01*
X147780286Y-126773014D01*
X147780286Y-127106348D01*
X147732667Y-127296824D01*
X147637429Y-127392062D01*
X147542191Y-127439681D01*
X147351714Y-127439681D01*
X147256476Y-127392062D01*
X147161238Y-127296824D01*
X147113619Y-127106348D01*
X147113619Y-126773014D01*
X147161238Y-126582538D01*
X147256476Y-126487300D01*
X147351714Y-126439681D01*
X148685048Y-127439681D02*
X148208857Y-127439681D01*
X148208857Y-126439681D01*
X149542191Y-127439681D02*
X148970762Y-127439681D01*
X149256476Y-127439681D02*
X149256476Y-126439681D01*
X149161238Y-126582538D01*
X149066000Y-126677776D01*
X148970762Y-126725395D01*
X144907238Y-124804443D02*
X144859619Y-124852062D01*
X144716762Y-124899681D01*
X144621524Y-124899681D01*
X144478666Y-124852062D01*
X144383428Y-124756824D01*
X144335809Y-124661586D01*
X144288190Y-124471110D01*
X144288190Y-124328252D01*
X144335809Y-124137776D01*
X144383428Y-124042538D01*
X144478666Y-123947300D01*
X144621524Y-123899681D01*
X144716762Y-123899681D01*
X144859619Y-123947300D01*
X144907238Y-123994919D01*
X145288190Y-124613967D02*
X145764381Y-124613967D01*
X145192952Y-124899681D02*
X145526285Y-123899681D01*
X145859619Y-124899681D01*
X146192952Y-124899681D02*
X146192952Y-123899681D01*
X146764381Y-124899681D01*
X146764381Y-123899681D01*
X147002476Y-124994919D02*
X147764381Y-124994919D01*
X147859619Y-123899681D02*
X148431048Y-123899681D01*
X148145333Y-124899681D02*
X148145333Y-123899681D01*
X148764381Y-124899681D02*
X148764381Y-123899681D01*
X149002476Y-123899681D01*
X149145334Y-123947300D01*
X149240572Y-124042538D01*
X149288191Y-124137776D01*
X149335810Y-124328252D01*
X149335810Y-124471110D01*
X149288191Y-124661586D01*
X149240572Y-124756824D01*
X149145334Y-124852062D01*
X149002476Y-124899681D01*
X148764381Y-124899681D01*
X144788191Y-122264443D02*
X144740572Y-122312062D01*
X144597715Y-122359681D01*
X144502477Y-122359681D01*
X144359619Y-122312062D01*
X144264381Y-122216824D01*
X144216762Y-122121586D01*
X144169143Y-121931110D01*
X144169143Y-121788252D01*
X144216762Y-121597776D01*
X144264381Y-121502538D01*
X144359619Y-121407300D01*
X144502477Y-121359681D01*
X144597715Y-121359681D01*
X144740572Y-121407300D01*
X144788191Y-121454919D01*
X145169143Y-122073967D02*
X145645334Y-122073967D01*
X145073905Y-122359681D02*
X145407238Y-121359681D01*
X145740572Y-122359681D01*
X146073905Y-122359681D02*
X146073905Y-121359681D01*
X146645334Y-122359681D01*
X146645334Y-121359681D01*
X146883429Y-122454919D02*
X147645334Y-122454919D01*
X148454858Y-122359681D02*
X148121524Y-121883490D01*
X147883429Y-122359681D02*
X147883429Y-121359681D01*
X148264382Y-121359681D01*
X148359620Y-121407300D01*
X148407239Y-121454919D01*
X148454858Y-121550157D01*
X148454858Y-121693014D01*
X148407239Y-121788252D01*
X148359620Y-121835871D01*
X148264382Y-121883490D01*
X147883429Y-121883490D01*
X148883429Y-122359681D02*
X148883429Y-121359681D01*
X149121524Y-121359681D01*
X149264382Y-121407300D01*
X149359620Y-121502538D01*
X149407239Y-121597776D01*
X149454858Y-121788252D01*
X149454858Y-121931110D01*
X149407239Y-122121586D01*
X149359620Y-122216824D01*
X149264382Y-122312062D01*
X149121524Y-122359681D01*
X148883429Y-122359681D01*
X144335809Y-118914919D02*
X144383428Y-118867300D01*
X144478666Y-118819681D01*
X144716762Y-118819681D01*
X144812000Y-118867300D01*
X144859619Y-118914919D01*
X144907238Y-119010157D01*
X144907238Y-119105395D01*
X144859619Y-119248252D01*
X144288190Y-119819681D01*
X144907238Y-119819681D01*
X145240571Y-118819681D02*
X145859619Y-118819681D01*
X145526285Y-119200633D01*
X145669143Y-119200633D01*
X145764381Y-119248252D01*
X145812000Y-119295871D01*
X145859619Y-119391110D01*
X145859619Y-119629205D01*
X145812000Y-119724443D01*
X145764381Y-119772062D01*
X145669143Y-119819681D01*
X145383428Y-119819681D01*
X145288190Y-119772062D01*
X145240571Y-119724443D01*
X146240571Y-118914919D02*
X146288190Y-118867300D01*
X146383428Y-118819681D01*
X146621524Y-118819681D01*
X146716762Y-118867300D01*
X146764381Y-118914919D01*
X146812000Y-119010157D01*
X146812000Y-119105395D01*
X146764381Y-119248252D01*
X146192952Y-119819681D01*
X146812000Y-119819681D01*
X147002476Y-119914919D02*
X147764381Y-119914919D01*
X147859619Y-118819681D02*
X148431048Y-118819681D01*
X148145333Y-119819681D02*
X148145333Y-118819681D01*
X148669143Y-118819681D02*
X149335810Y-119819681D01*
X149335810Y-118819681D02*
X148669143Y-119819681D01*
X144216762Y-116374919D02*
X144264381Y-116327300D01*
X144359619Y-116279681D01*
X144597715Y-116279681D01*
X144692953Y-116327300D01*
X144740572Y-116374919D01*
X144788191Y-116470157D01*
X144788191Y-116565395D01*
X144740572Y-116708252D01*
X144169143Y-117279681D01*
X144788191Y-117279681D01*
X145121524Y-116279681D02*
X145740572Y-116279681D01*
X145407238Y-116660633D01*
X145550096Y-116660633D01*
X145645334Y-116708252D01*
X145692953Y-116755871D01*
X145740572Y-116851110D01*
X145740572Y-117089205D01*
X145692953Y-117184443D01*
X145645334Y-117232062D01*
X145550096Y-117279681D01*
X145264381Y-117279681D01*
X145169143Y-117232062D01*
X145121524Y-117184443D01*
X146121524Y-116374919D02*
X146169143Y-116327300D01*
X146264381Y-116279681D01*
X146502477Y-116279681D01*
X146597715Y-116327300D01*
X146645334Y-116374919D01*
X146692953Y-116470157D01*
X146692953Y-116565395D01*
X146645334Y-116708252D01*
X146073905Y-117279681D01*
X146692953Y-117279681D01*
X146883429Y-117374919D02*
X147645334Y-117374919D01*
X148454858Y-117279681D02*
X148121524Y-116803490D01*
X147883429Y-117279681D02*
X147883429Y-116279681D01*
X148264382Y-116279681D01*
X148359620Y-116327300D01*
X148407239Y-116374919D01*
X148454858Y-116470157D01*
X148454858Y-116613014D01*
X148407239Y-116708252D01*
X148359620Y-116755871D01*
X148264382Y-116803490D01*
X147883429Y-116803490D01*
X148788191Y-116279681D02*
X149454858Y-117279681D01*
X149454858Y-116279681D02*
X148788191Y-117279681D01*
X143819905Y-114739681D02*
X143819905Y-113739681D01*
X144248476Y-113834919D02*
X144296095Y-113787300D01*
X144391333Y-113739681D01*
X144629429Y-113739681D01*
X144724667Y-113787300D01*
X144772286Y-113834919D01*
X144819905Y-113930157D01*
X144819905Y-114025395D01*
X144772286Y-114168252D01*
X144200857Y-114739681D01*
X144819905Y-114739681D01*
X145819905Y-114644443D02*
X145772286Y-114692062D01*
X145629429Y-114739681D01*
X145534191Y-114739681D01*
X145391333Y-114692062D01*
X145296095Y-114596824D01*
X145248476Y-114501586D01*
X145200857Y-114311110D01*
X145200857Y-114168252D01*
X145248476Y-113977776D01*
X145296095Y-113882538D01*
X145391333Y-113787300D01*
X145534191Y-113739681D01*
X145629429Y-113739681D01*
X145772286Y-113787300D01*
X145819905Y-113834919D01*
X146010381Y-114834919D02*
X146772286Y-114834919D01*
X146962762Y-114692062D02*
X147105619Y-114739681D01*
X147343715Y-114739681D01*
X147438953Y-114692062D01*
X147486572Y-114644443D01*
X147534191Y-114549205D01*
X147534191Y-114453967D01*
X147486572Y-114358729D01*
X147438953Y-114311110D01*
X147343715Y-114263490D01*
X147153238Y-114215871D01*
X147058000Y-114168252D01*
X147010381Y-114120633D01*
X146962762Y-114025395D01*
X146962762Y-113930157D01*
X147010381Y-113834919D01*
X147058000Y-113787300D01*
X147153238Y-113739681D01*
X147391334Y-113739681D01*
X147534191Y-113787300D01*
X148534191Y-114644443D02*
X148486572Y-114692062D01*
X148343715Y-114739681D01*
X148248477Y-114739681D01*
X148105619Y-114692062D01*
X148010381Y-114596824D01*
X147962762Y-114501586D01*
X147915143Y-114311110D01*
X147915143Y-114168252D01*
X147962762Y-113977776D01*
X148010381Y-113882538D01*
X148105619Y-113787300D01*
X148248477Y-113739681D01*
X148343715Y-113739681D01*
X148486572Y-113787300D01*
X148534191Y-113834919D01*
X149438953Y-114739681D02*
X148962762Y-114739681D01*
X148962762Y-113739681D01*
X143796095Y-112199681D02*
X143796095Y-111199681D01*
X144224666Y-111294919D02*
X144272285Y-111247300D01*
X144367523Y-111199681D01*
X144605619Y-111199681D01*
X144700857Y-111247300D01*
X144748476Y-111294919D01*
X144796095Y-111390157D01*
X144796095Y-111485395D01*
X144748476Y-111628252D01*
X144177047Y-112199681D01*
X144796095Y-112199681D01*
X145796095Y-112104443D02*
X145748476Y-112152062D01*
X145605619Y-112199681D01*
X145510381Y-112199681D01*
X145367523Y-112152062D01*
X145272285Y-112056824D01*
X145224666Y-111961586D01*
X145177047Y-111771110D01*
X145177047Y-111628252D01*
X145224666Y-111437776D01*
X145272285Y-111342538D01*
X145367523Y-111247300D01*
X145510381Y-111199681D01*
X145605619Y-111199681D01*
X145748476Y-111247300D01*
X145796095Y-111294919D01*
X145986571Y-112294919D02*
X146748476Y-112294919D01*
X146938952Y-112152062D02*
X147081809Y-112199681D01*
X147319905Y-112199681D01*
X147415143Y-112152062D01*
X147462762Y-112104443D01*
X147510381Y-112009205D01*
X147510381Y-111913967D01*
X147462762Y-111818729D01*
X147415143Y-111771110D01*
X147319905Y-111723490D01*
X147129428Y-111675871D01*
X147034190Y-111628252D01*
X146986571Y-111580633D01*
X146938952Y-111485395D01*
X146938952Y-111390157D01*
X146986571Y-111294919D01*
X147034190Y-111247300D01*
X147129428Y-111199681D01*
X147367524Y-111199681D01*
X147510381Y-111247300D01*
X147938952Y-112199681D02*
X147938952Y-111199681D01*
X148177047Y-111199681D01*
X148319905Y-111247300D01*
X148415143Y-111342538D01*
X148462762Y-111437776D01*
X148510381Y-111628252D01*
X148510381Y-111771110D01*
X148462762Y-111961586D01*
X148415143Y-112056824D01*
X148319905Y-112152062D01*
X148177047Y-112199681D01*
X147938952Y-112199681D01*
X148891333Y-111913967D02*
X149367524Y-111913967D01*
X148796095Y-112199681D02*
X149129428Y-111199681D01*
X149462762Y-112199681D01*
X146066095Y-108659681D02*
X146399428Y-109659681D01*
X146732762Y-108659681D01*
X147066095Y-109659681D02*
X147066095Y-108659681D01*
X147304190Y-108659681D01*
X147447048Y-108707300D01*
X147542286Y-108802538D01*
X147589905Y-108897776D01*
X147637524Y-109088252D01*
X147637524Y-109231110D01*
X147589905Y-109421586D01*
X147542286Y-109516824D01*
X147447048Y-109612062D01*
X147304190Y-109659681D01*
X147066095Y-109659681D01*
X148066095Y-109659681D02*
X148066095Y-108659681D01*
X148304190Y-108659681D01*
X148447048Y-108707300D01*
X148542286Y-108802538D01*
X148589905Y-108897776D01*
X148637524Y-109088252D01*
X148637524Y-109231110D01*
X148589905Y-109421586D01*
X148542286Y-109516824D01*
X148447048Y-109612062D01*
X148304190Y-109659681D01*
X148066095Y-109659681D01*
X149018476Y-109373967D02*
X149494667Y-109373967D01*
X148923238Y-109659681D02*
X149256571Y-108659681D01*
X149589905Y-109659681D01*
X146891524Y-107119681D02*
X146891524Y-106119681D01*
X147129619Y-106119681D01*
X147272477Y-106167300D01*
X147367715Y-106262538D01*
X147415334Y-106357776D01*
X147462953Y-106548252D01*
X147462953Y-106691110D01*
X147415334Y-106881586D01*
X147367715Y-106976824D01*
X147272477Y-107072062D01*
X147129619Y-107119681D01*
X146891524Y-107119681D01*
X147843905Y-106833967D02*
X148320096Y-106833967D01*
X147748667Y-107119681D02*
X148082000Y-106119681D01*
X148415334Y-107119681D01*
X149320096Y-107024443D02*
X149272477Y-107072062D01*
X149129620Y-107119681D01*
X149034382Y-107119681D01*
X148891524Y-107072062D01*
X148796286Y-106976824D01*
X148748667Y-106881586D01*
X148701048Y-106691110D01*
X148701048Y-106548252D01*
X148748667Y-106357776D01*
X148796286Y-106262538D01*
X148891524Y-106167300D01*
X149034382Y-106119681D01*
X149129620Y-106119681D01*
X149272477Y-106167300D01*
X149320096Y-106214919D01*
X147391524Y-104484443D02*
X147343905Y-104532062D01*
X147201048Y-104579681D01*
X147105810Y-104579681D01*
X146962952Y-104532062D01*
X146867714Y-104436824D01*
X146820095Y-104341586D01*
X146772476Y-104151110D01*
X146772476Y-104008252D01*
X146820095Y-103817776D01*
X146867714Y-103722538D01*
X146962952Y-103627300D01*
X147105810Y-103579681D01*
X147201048Y-103579681D01*
X147343905Y-103627300D01*
X147391524Y-103674919D01*
X147820095Y-104579681D02*
X147820095Y-103579681D01*
X147820095Y-104055871D02*
X148391524Y-104055871D01*
X148391524Y-104579681D02*
X148391524Y-103579681D01*
X149391524Y-104579681D02*
X148820095Y-104579681D01*
X149105809Y-104579681D02*
X149105809Y-103579681D01*
X149010571Y-103722538D01*
X148915333Y-103817776D01*
X148820095Y-103865395D01*
X147391524Y-101944443D02*
X147343905Y-101992062D01*
X147201048Y-102039681D01*
X147105810Y-102039681D01*
X146962952Y-101992062D01*
X146867714Y-101896824D01*
X146820095Y-101801586D01*
X146772476Y-101611110D01*
X146772476Y-101468252D01*
X146820095Y-101277776D01*
X146867714Y-101182538D01*
X146962952Y-101087300D01*
X147105810Y-101039681D01*
X147201048Y-101039681D01*
X147343905Y-101087300D01*
X147391524Y-101134919D01*
X147820095Y-102039681D02*
X147820095Y-101039681D01*
X147820095Y-101515871D02*
X148391524Y-101515871D01*
X148391524Y-102039681D02*
X148391524Y-101039681D01*
X148820095Y-101134919D02*
X148867714Y-101087300D01*
X148962952Y-101039681D01*
X149201048Y-101039681D01*
X149296286Y-101087300D01*
X149343905Y-101134919D01*
X149391524Y-101230157D01*
X149391524Y-101325395D01*
X149343905Y-101468252D01*
X148772476Y-102039681D01*
X149391524Y-102039681D01*
X147391524Y-99404443D02*
X147343905Y-99452062D01*
X147201048Y-99499681D01*
X147105810Y-99499681D01*
X146962952Y-99452062D01*
X146867714Y-99356824D01*
X146820095Y-99261586D01*
X146772476Y-99071110D01*
X146772476Y-98928252D01*
X146820095Y-98737776D01*
X146867714Y-98642538D01*
X146962952Y-98547300D01*
X147105810Y-98499681D01*
X147201048Y-98499681D01*
X147343905Y-98547300D01*
X147391524Y-98594919D01*
X147820095Y-99499681D02*
X147820095Y-98499681D01*
X147820095Y-98975871D02*
X148391524Y-98975871D01*
X148391524Y-99499681D02*
X148391524Y-98499681D01*
X148772476Y-98499681D02*
X149391524Y-98499681D01*
X149058190Y-98880633D01*
X149201048Y-98880633D01*
X149296286Y-98928252D01*
X149343905Y-98975871D01*
X149391524Y-99071110D01*
X149391524Y-99309205D01*
X149343905Y-99404443D01*
X149296286Y-99452062D01*
X149201048Y-99499681D01*
X148915333Y-99499681D01*
X148820095Y-99452062D01*
X148772476Y-99404443D01*
X146383524Y-96007300D02*
X146288286Y-95959681D01*
X146145429Y-95959681D01*
X146002571Y-96007300D01*
X145907333Y-96102538D01*
X145859714Y-96197776D01*
X145812095Y-96388252D01*
X145812095Y-96531110D01*
X145859714Y-96721586D01*
X145907333Y-96816824D01*
X146002571Y-96912062D01*
X146145429Y-96959681D01*
X146240667Y-96959681D01*
X146383524Y-96912062D01*
X146431143Y-96864443D01*
X146431143Y-96531110D01*
X146240667Y-96531110D01*
X146859714Y-96959681D02*
X146859714Y-95959681D01*
X147431143Y-96959681D01*
X147431143Y-95959681D01*
X147907333Y-96959681D02*
X147907333Y-95959681D01*
X148145428Y-95959681D01*
X148288286Y-96007300D01*
X148383524Y-96102538D01*
X148431143Y-96197776D01*
X148478762Y-96388252D01*
X148478762Y-96531110D01*
X148431143Y-96721586D01*
X148383524Y-96816824D01*
X148288286Y-96912062D01*
X148145428Y-96959681D01*
X147907333Y-96959681D01*
X148859714Y-96673967D02*
X149335905Y-96673967D01*
X148764476Y-96959681D02*
X149097809Y-95959681D01*
X149431143Y-96959681D01*
X147359810Y-94419681D02*
X147359810Y-93419681D01*
X147788381Y-94372062D02*
X147931238Y-94419681D01*
X148169334Y-94419681D01*
X148264572Y-94372062D01*
X148312191Y-94324443D01*
X148359810Y-94229205D01*
X148359810Y-94133967D01*
X148312191Y-94038729D01*
X148264572Y-93991110D01*
X148169334Y-93943490D01*
X147978857Y-93895871D01*
X147883619Y-93848252D01*
X147836000Y-93800633D01*
X147788381Y-93705395D01*
X147788381Y-93610157D01*
X147836000Y-93514919D01*
X147883619Y-93467300D01*
X147978857Y-93419681D01*
X148216953Y-93419681D01*
X148359810Y-93467300D01*
X148788381Y-94419681D02*
X148788381Y-93419681D01*
X149169334Y-93419681D01*
X149264572Y-93467300D01*
X149312191Y-93514919D01*
X149359810Y-93610157D01*
X149359810Y-93753014D01*
X149312191Y-93848252D01*
X149264572Y-93895871D01*
X149169334Y-93943490D01*
X148788381Y-93943490D01*
X145867619Y-91879681D02*
X145534285Y-91403490D01*
X145296190Y-91879681D02*
X145296190Y-90879681D01*
X145677143Y-90879681D01*
X145772381Y-90927300D01*
X145820000Y-90974919D01*
X145867619Y-91070157D01*
X145867619Y-91213014D01*
X145820000Y-91308252D01*
X145772381Y-91355871D01*
X145677143Y-91403490D01*
X145296190Y-91403490D01*
X146296190Y-91355871D02*
X146629524Y-91355871D01*
X146772381Y-91879681D02*
X146296190Y-91879681D01*
X146296190Y-90879681D01*
X146772381Y-90879681D01*
X147153333Y-91832062D02*
X147296190Y-91879681D01*
X147534286Y-91879681D01*
X147629524Y-91832062D01*
X147677143Y-91784443D01*
X147724762Y-91689205D01*
X147724762Y-91593967D01*
X147677143Y-91498729D01*
X147629524Y-91451110D01*
X147534286Y-91403490D01*
X147343809Y-91355871D01*
X147248571Y-91308252D01*
X147200952Y-91260633D01*
X147153333Y-91165395D01*
X147153333Y-91070157D01*
X147200952Y-90974919D01*
X147248571Y-90927300D01*
X147343809Y-90879681D01*
X147581905Y-90879681D01*
X147724762Y-90927300D01*
X148153333Y-91355871D02*
X148486667Y-91355871D01*
X148629524Y-91879681D02*
X148153333Y-91879681D01*
X148153333Y-90879681D01*
X148629524Y-90879681D01*
X148915238Y-90879681D02*
X149486667Y-90879681D01*
X149200952Y-91879681D02*
X149200952Y-90879681D01*
D20*
X74257139Y-87534714D02*
X74219044Y-87572810D01*
X74104758Y-87610905D01*
X74028568Y-87610905D01*
X73914282Y-87572810D01*
X73838091Y-87496619D01*
X73799996Y-87420429D01*
X73761901Y-87268048D01*
X73761901Y-87153762D01*
X73799996Y-87001381D01*
X73838091Y-86925190D01*
X73914282Y-86849000D01*
X74028568Y-86810905D01*
X74104758Y-86810905D01*
X74219044Y-86849000D01*
X74257139Y-86887095D01*
X74599996Y-87610905D02*
X74599996Y-86810905D01*
X74942853Y-87382333D02*
X75323805Y-87382333D01*
X74866662Y-87610905D02*
X75133329Y-86810905D01*
X75399996Y-87610905D01*
X75628567Y-87382333D02*
X76009519Y-87382333D01*
X75552376Y-87610905D02*
X75819043Y-86810905D01*
X76085710Y-87610905D01*
X76352376Y-87306143D02*
X76961900Y-87306143D01*
X77342852Y-87610905D02*
X77342852Y-86810905D01*
X77647614Y-86810905D01*
X77723805Y-86849000D01*
X77761900Y-86887095D01*
X77799995Y-86963286D01*
X77799995Y-87077571D01*
X77761900Y-87153762D01*
X77723805Y-87191857D01*
X77647614Y-87229952D01*
X77342852Y-87229952D01*
X78104757Y-86887095D02*
X78142852Y-86849000D01*
X78219043Y-86810905D01*
X78409519Y-86810905D01*
X78485709Y-86849000D01*
X78523805Y-86887095D01*
X78561900Y-86963286D01*
X78561900Y-87039476D01*
X78523805Y-87153762D01*
X78066662Y-87610905D01*
X78561900Y-87610905D01*
X150495239Y-87141014D02*
X150457144Y-87179110D01*
X150342858Y-87217205D01*
X150266668Y-87217205D01*
X150152382Y-87179110D01*
X150076191Y-87102919D01*
X150038096Y-87026729D01*
X150000001Y-86874348D01*
X150000001Y-86760062D01*
X150038096Y-86607681D01*
X150076191Y-86531490D01*
X150152382Y-86455300D01*
X150266668Y-86417205D01*
X150342858Y-86417205D01*
X150457144Y-86455300D01*
X150495239Y-86493395D01*
X150838096Y-87217205D02*
X150838096Y-86417205D01*
X151180953Y-86988633D02*
X151561905Y-86988633D01*
X151104762Y-87217205D02*
X151371429Y-86417205D01*
X151638096Y-87217205D01*
X151866667Y-86988633D02*
X152247619Y-86988633D01*
X151790476Y-87217205D02*
X152057143Y-86417205D01*
X152323810Y-87217205D01*
X152590476Y-86912443D02*
X153200000Y-86912443D01*
X153580952Y-87217205D02*
X153580952Y-86417205D01*
X153885714Y-86417205D01*
X153961905Y-86455300D01*
X154000000Y-86493395D01*
X154038095Y-86569586D01*
X154038095Y-86683871D01*
X154000000Y-86760062D01*
X153961905Y-86798157D01*
X153885714Y-86836252D01*
X153580952Y-86836252D01*
X154800000Y-87217205D02*
X154342857Y-87217205D01*
X154571428Y-87217205D02*
X154571428Y-86417205D01*
X154495238Y-86531490D01*
X154419047Y-86607681D01*
X154342857Y-86645776D01*
D14*
X145320000Y-88958729D02*
X146081905Y-88958729D01*
X145700953Y-89339681D02*
X145700953Y-88577776D01*
X146462857Y-88339681D02*
X147081905Y-88339681D01*
X146748571Y-88720633D01*
X146891429Y-88720633D01*
X146986667Y-88768252D01*
X147034286Y-88815871D01*
X147081905Y-88911110D01*
X147081905Y-89149205D01*
X147034286Y-89244443D01*
X146986667Y-89292062D01*
X146891429Y-89339681D01*
X146605714Y-89339681D01*
X146510476Y-89292062D01*
X146462857Y-89244443D01*
X147510476Y-89244443D02*
X147558095Y-89292062D01*
X147510476Y-89339681D01*
X147462857Y-89292062D01*
X147510476Y-89244443D01*
X147510476Y-89339681D01*
X147891428Y-88339681D02*
X148510476Y-88339681D01*
X148177142Y-88720633D01*
X148320000Y-88720633D01*
X148415238Y-88768252D01*
X148462857Y-88815871D01*
X148510476Y-88911110D01*
X148510476Y-89149205D01*
X148462857Y-89244443D01*
X148415238Y-89292062D01*
X148320000Y-89339681D01*
X148034285Y-89339681D01*
X147939047Y-89292062D01*
X147891428Y-89244443D01*
X148796190Y-88339681D02*
X149129523Y-89339681D01*
X149462857Y-88339681D01*
M02*
