G04 #@! TF.FileFunction,Profile,NP*
%FSLAX46Y46*%
G04 Gerber Fmt 4.6, Leading zero omitted, Abs format (unit mm)*
G04 Created by KiCad (PCBNEW 4.0.2+e4-6225~38~ubuntu14.04.1-stable) date mar 10 may 2016 15:30:21 ART*
%MOMM*%
G01*
G04 APERTURE LIST*
%ADD10C,0.100000*%
%ADD11C,0.150000*%
G04 APERTURE END LIST*
D10*
D11*
X77470000Y-43815000D02*
X76200000Y-43815000D01*
X77470000Y-36830000D02*
X77470000Y-43815000D01*
X76200000Y-36830000D02*
X77470000Y-36830000D01*
X73660000Y-43815000D02*
X73660000Y-162560000D01*
X76200000Y-43815000D02*
X73660000Y-43815000D01*
X73660000Y-36830000D02*
X76200000Y-36830000D01*
X73660000Y-26035000D02*
X73660000Y-36830000D01*
X147955000Y-36195000D02*
X84455000Y-36195000D01*
X147955000Y-25400000D02*
X147955000Y-36195000D01*
X149225000Y-25400000D02*
X147955000Y-25400000D01*
X73660000Y-25400000D02*
X73660000Y-26035000D01*
X84455000Y-25400000D02*
X73660000Y-25400000D01*
X84455000Y-36195000D02*
X84455000Y-25400000D01*
X159385000Y-25400000D02*
X149225000Y-25400000D01*
X159385000Y-64135000D02*
X159385000Y-25400000D01*
X147955000Y-64135000D02*
X159385000Y-64135000D01*
X147955000Y-76835000D02*
X147955000Y-64135000D01*
X159385000Y-76835000D02*
X147955000Y-76835000D01*
X159385000Y-162560000D02*
X159385000Y-76835000D01*
X136525000Y-162560000D02*
X159385000Y-162560000D01*
X136525000Y-135890000D02*
X136525000Y-162560000D01*
X93345000Y-135890000D02*
X136525000Y-135890000D01*
X93345000Y-162560000D02*
X93345000Y-135890000D01*
X73660000Y-162560000D02*
X93345000Y-162560000D01*
M02*
